G04 #@! TF.GenerationSoftware,KiCad,Pcbnew,7.0.5-0*
G04 #@! TF.CreationDate,2023-10-09T15:45:39-04:00*
G04 #@! TF.ProjectId,SLAPS_Solar_Harvester,534c4150-535f-4536-9f6c-61725f486172,V1.1*
G04 #@! TF.SameCoordinates,Original*
G04 #@! TF.FileFunction,Legend,Top*
G04 #@! TF.FilePolarity,Positive*
%FSLAX46Y46*%
G04 Gerber Fmt 4.6, Leading zero omitted, Abs format (unit mm)*
G04 Created by KiCad (PCBNEW 7.0.5-0) date 2023-10-09 15:45:39*
%MOMM*%
%LPD*%
G01*
G04 APERTURE LIST*
G04 Aperture macros list*
%AMRoundRect*
0 Rectangle with rounded corners*
0 $1 Rounding radius*
0 $2 $3 $4 $5 $6 $7 $8 $9 X,Y pos of 4 corners*
0 Add a 4 corners polygon primitive as box body*
4,1,4,$2,$3,$4,$5,$6,$7,$8,$9,$2,$3,0*
0 Add four circle primitives for the rounded corners*
1,1,$1+$1,$2,$3*
1,1,$1+$1,$4,$5*
1,1,$1+$1,$6,$7*
1,1,$1+$1,$8,$9*
0 Add four rect primitives between the rounded corners*
20,1,$1+$1,$2,$3,$4,$5,0*
20,1,$1+$1,$4,$5,$6,$7,0*
20,1,$1+$1,$6,$7,$8,$9,0*
20,1,$1+$1,$8,$9,$2,$3,0*%
%AMFreePoly0*
4,1,35,0.585921,0.785921,0.600800,0.750000,0.600800,-0.750000,0.585921,-0.785921,0.550000,-0.800800,0.000000,-0.800800,-0.012286,-0.795711,-0.071157,-0.795711,-0.085469,-0.793653,-0.222020,-0.753558,-0.235173,-0.747552,-0.354895,-0.670611,-0.365822,-0.661142,-0.459019,-0.553587,-0.466836,-0.541423,-0.525955,-0.411969,-0.530029,-0.398096,-0.550283,-0.257230,-0.550800,-0.250000,-0.550800,0.250000,
-0.550283,0.257230,-0.530029,0.398096,-0.525955,0.411969,-0.466836,0.541423,-0.459019,0.553587,-0.365822,0.661142,-0.354895,0.670611,-0.235173,0.747552,-0.222020,0.753558,-0.085469,0.793653,-0.071157,0.795711,-0.012286,0.795711,0.000000,0.800800,0.550000,0.800800,0.585921,0.785921,0.585921,0.785921,$1*%
%AMFreePoly1*
4,1,35,0.012286,0.795711,0.071157,0.795711,0.085469,0.793653,0.222020,0.753558,0.235173,0.747552,0.354895,0.670611,0.365822,0.661142,0.459019,0.553587,0.466836,0.541423,0.525955,0.411969,0.530029,0.398096,0.550283,0.257230,0.550800,0.250000,0.550800,-0.250000,0.550283,-0.257230,0.530029,-0.398096,0.525955,-0.411969,0.466836,-0.541423,0.459019,-0.553587,0.365822,-0.661142,
0.354895,-0.670611,0.235173,-0.747552,0.222020,-0.753558,0.085469,-0.793653,0.071157,-0.795711,0.012286,-0.795711,0.000000,-0.800800,-0.550000,-0.800800,-0.585921,-0.785921,-0.600800,-0.750000,-0.600800,0.750000,-0.585921,0.785921,-0.550000,0.800800,0.000000,0.800800,0.012286,0.795711,0.012286,0.795711,$1*%
G04 Aperture macros list end*
%ADD10C,0.625000*%
%ADD11C,0.200000*%
%ADD12C,0.375000*%
%ADD13C,0.125000*%
%ADD14C,0.500000*%
%ADD15C,0.250000*%
%ADD16C,0.150000*%
%ADD17C,0.120000*%
%ADD18C,0.400000*%
%ADD19C,0.182463*%
%ADD20C,0.002645*%
%ADD21C,0.100000*%
%ADD22C,0.160000*%
%ADD23C,2.101600*%
%ADD24RoundRect,0.288300X-0.237500X0.250000X-0.237500X-0.250000X0.237500X-0.250000X0.237500X0.250000X0*%
%ADD25RoundRect,0.205800X0.212500X0.155000X-0.212500X0.155000X-0.212500X-0.155000X0.212500X-0.155000X0*%
%ADD26C,3.101600*%
%ADD27RoundRect,0.288300X0.300000X0.237500X-0.300000X0.237500X-0.300000X-0.237500X0.300000X-0.237500X0*%
%ADD28RoundRect,0.200800X0.512500X0.150000X-0.512500X0.150000X-0.512500X-0.150000X0.512500X-0.150000X0*%
%ADD29RoundRect,0.050800X-0.500000X0.450000X-0.500000X-0.450000X0.500000X-0.450000X0.500000X0.450000X0*%
%ADD30RoundRect,0.288300X0.237500X-0.250000X0.237500X0.250000X-0.237500X0.250000X-0.237500X-0.250000X0*%
%ADD31RoundRect,0.288300X-0.237500X0.287500X-0.237500X-0.287500X0.237500X-0.287500X0.237500X0.287500X0*%
%ADD32RoundRect,0.300800X0.450000X-0.325000X0.450000X0.325000X-0.450000X0.325000X-0.450000X-0.325000X0*%
%ADD33FreePoly0,180.000000*%
%ADD34RoundRect,0.050800X0.500000X0.750000X-0.500000X0.750000X-0.500000X-0.750000X0.500000X-0.750000X0*%
%ADD35FreePoly1,180.000000*%
%ADD36RoundRect,0.205800X-0.155000X0.212500X-0.155000X-0.212500X0.155000X-0.212500X0.155000X0.212500X0*%
%ADD37RoundRect,0.205800X0.155000X-0.212500X0.155000X0.212500X-0.155000X0.212500X-0.155000X-0.212500X0*%
%ADD38C,1.101600*%
%ADD39RoundRect,0.288300X-0.250000X-0.237500X0.250000X-0.237500X0.250000X0.237500X-0.250000X0.237500X0*%
%ADD40RoundRect,0.205800X-0.212500X-0.155000X0.212500X-0.155000X0.212500X0.155000X-0.212500X0.155000X0*%
%ADD41C,0.801600*%
%ADD42C,0.601600*%
%ADD43O,0.901600X1.601600*%
%ADD44RoundRect,0.050800X0.500000X-0.450000X0.500000X0.450000X-0.500000X0.450000X-0.500000X-0.450000X0*%
%ADD45C,0.771600*%
%ADD46O,1.001600X2.501600*%
%ADD47O,1.001600X1.801600*%
%ADD48FreePoly0,0.000000*%
%ADD49RoundRect,0.050800X-0.500000X-0.750000X0.500000X-0.750000X0.500000X0.750000X-0.500000X0.750000X0*%
%ADD50FreePoly1,0.000000*%
G04 APERTURE END LIST*
D10*
X169814286Y-106005000D02*
X170171429Y-106124047D01*
X170171429Y-106124047D02*
X170766667Y-106124047D01*
X170766667Y-106124047D02*
X171004762Y-106005000D01*
X171004762Y-106005000D02*
X171123810Y-105885952D01*
X171123810Y-105885952D02*
X171242857Y-105647857D01*
X171242857Y-105647857D02*
X171242857Y-105409761D01*
X171242857Y-105409761D02*
X171123810Y-105171666D01*
X171123810Y-105171666D02*
X171004762Y-105052619D01*
X171004762Y-105052619D02*
X170766667Y-104933571D01*
X170766667Y-104933571D02*
X170290476Y-104814523D01*
X170290476Y-104814523D02*
X170052381Y-104695476D01*
X170052381Y-104695476D02*
X169933334Y-104576428D01*
X169933334Y-104576428D02*
X169814286Y-104338333D01*
X169814286Y-104338333D02*
X169814286Y-104100238D01*
X169814286Y-104100238D02*
X169933334Y-103862142D01*
X169933334Y-103862142D02*
X170052381Y-103743095D01*
X170052381Y-103743095D02*
X170290476Y-103624047D01*
X170290476Y-103624047D02*
X170885715Y-103624047D01*
X170885715Y-103624047D02*
X171242857Y-103743095D01*
X173504762Y-106124047D02*
X172314286Y-106124047D01*
X172314286Y-106124047D02*
X172314286Y-103624047D01*
X174219048Y-105409761D02*
X175409524Y-105409761D01*
X173980953Y-106124047D02*
X174814286Y-103624047D01*
X174814286Y-103624047D02*
X175647619Y-106124047D01*
X176480953Y-106124047D02*
X176480953Y-103624047D01*
X176480953Y-103624047D02*
X177433334Y-103624047D01*
X177433334Y-103624047D02*
X177671429Y-103743095D01*
X177671429Y-103743095D02*
X177790476Y-103862142D01*
X177790476Y-103862142D02*
X177909524Y-104100238D01*
X177909524Y-104100238D02*
X177909524Y-104457380D01*
X177909524Y-104457380D02*
X177790476Y-104695476D01*
X177790476Y-104695476D02*
X177671429Y-104814523D01*
X177671429Y-104814523D02*
X177433334Y-104933571D01*
X177433334Y-104933571D02*
X176480953Y-104933571D01*
X178861905Y-106005000D02*
X179219048Y-106124047D01*
X179219048Y-106124047D02*
X179814286Y-106124047D01*
X179814286Y-106124047D02*
X180052381Y-106005000D01*
X180052381Y-106005000D02*
X180171429Y-105885952D01*
X180171429Y-105885952D02*
X180290476Y-105647857D01*
X180290476Y-105647857D02*
X180290476Y-105409761D01*
X180290476Y-105409761D02*
X180171429Y-105171666D01*
X180171429Y-105171666D02*
X180052381Y-105052619D01*
X180052381Y-105052619D02*
X179814286Y-104933571D01*
X179814286Y-104933571D02*
X179338095Y-104814523D01*
X179338095Y-104814523D02*
X179100000Y-104695476D01*
X179100000Y-104695476D02*
X178980953Y-104576428D01*
X178980953Y-104576428D02*
X178861905Y-104338333D01*
X178861905Y-104338333D02*
X178861905Y-104100238D01*
X178861905Y-104100238D02*
X178980953Y-103862142D01*
X178980953Y-103862142D02*
X179100000Y-103743095D01*
X179100000Y-103743095D02*
X179338095Y-103624047D01*
X179338095Y-103624047D02*
X179933334Y-103624047D01*
X179933334Y-103624047D02*
X180290476Y-103743095D01*
X181361905Y-105171666D02*
X183266667Y-105171666D01*
X184338095Y-106005000D02*
X184695238Y-106124047D01*
X184695238Y-106124047D02*
X185290476Y-106124047D01*
X185290476Y-106124047D02*
X185528571Y-106005000D01*
X185528571Y-106005000D02*
X185647619Y-105885952D01*
X185647619Y-105885952D02*
X185766666Y-105647857D01*
X185766666Y-105647857D02*
X185766666Y-105409761D01*
X185766666Y-105409761D02*
X185647619Y-105171666D01*
X185647619Y-105171666D02*
X185528571Y-105052619D01*
X185528571Y-105052619D02*
X185290476Y-104933571D01*
X185290476Y-104933571D02*
X184814285Y-104814523D01*
X184814285Y-104814523D02*
X184576190Y-104695476D01*
X184576190Y-104695476D02*
X184457143Y-104576428D01*
X184457143Y-104576428D02*
X184338095Y-104338333D01*
X184338095Y-104338333D02*
X184338095Y-104100238D01*
X184338095Y-104100238D02*
X184457143Y-103862142D01*
X184457143Y-103862142D02*
X184576190Y-103743095D01*
X184576190Y-103743095D02*
X184814285Y-103624047D01*
X184814285Y-103624047D02*
X185409524Y-103624047D01*
X185409524Y-103624047D02*
X185766666Y-103743095D01*
X186838095Y-106124047D02*
X186838095Y-103624047D01*
X186838095Y-104814523D02*
X188266666Y-104814523D01*
X188266666Y-106124047D02*
X188266666Y-103624047D01*
D11*
X124927695Y-116333333D02*
X124127695Y-116333333D01*
X124127695Y-116333333D02*
X124127695Y-116028571D01*
X124127695Y-116028571D02*
X124165790Y-115952381D01*
X124165790Y-115952381D02*
X124203885Y-115914286D01*
X124203885Y-115914286D02*
X124280076Y-115876190D01*
X124280076Y-115876190D02*
X124394361Y-115876190D01*
X124394361Y-115876190D02*
X124470552Y-115914286D01*
X124470552Y-115914286D02*
X124508647Y-115952381D01*
X124508647Y-115952381D02*
X124546742Y-116028571D01*
X124546742Y-116028571D02*
X124546742Y-116333333D01*
X124927695Y-115152381D02*
X124927695Y-115533333D01*
X124927695Y-115533333D02*
X124127695Y-115533333D01*
X124508647Y-114885714D02*
X124508647Y-114619048D01*
X124927695Y-114504762D02*
X124927695Y-114885714D01*
X124927695Y-114885714D02*
X124127695Y-114885714D01*
X124127695Y-114885714D02*
X124127695Y-114504762D01*
X124699123Y-114200000D02*
X124699123Y-113819047D01*
X124927695Y-114276190D02*
X124127695Y-114009523D01*
X124127695Y-114009523D02*
X124927695Y-113742857D01*
X124889600Y-113514286D02*
X124927695Y-113400000D01*
X124927695Y-113400000D02*
X124927695Y-113209524D01*
X124927695Y-113209524D02*
X124889600Y-113133333D01*
X124889600Y-113133333D02*
X124851504Y-113095238D01*
X124851504Y-113095238D02*
X124775314Y-113057143D01*
X124775314Y-113057143D02*
X124699123Y-113057143D01*
X124699123Y-113057143D02*
X124622933Y-113095238D01*
X124622933Y-113095238D02*
X124584838Y-113133333D01*
X124584838Y-113133333D02*
X124546742Y-113209524D01*
X124546742Y-113209524D02*
X124508647Y-113361905D01*
X124508647Y-113361905D02*
X124470552Y-113438095D01*
X124470552Y-113438095D02*
X124432457Y-113476190D01*
X124432457Y-113476190D02*
X124356266Y-113514286D01*
X124356266Y-113514286D02*
X124280076Y-113514286D01*
X124280076Y-113514286D02*
X124203885Y-113476190D01*
X124203885Y-113476190D02*
X124165790Y-113438095D01*
X124165790Y-113438095D02*
X124127695Y-113361905D01*
X124127695Y-113361905D02*
X124127695Y-113171428D01*
X124127695Y-113171428D02*
X124165790Y-113057143D01*
X124508647Y-112714285D02*
X124508647Y-112447619D01*
X124927695Y-112333333D02*
X124927695Y-112714285D01*
X124927695Y-112714285D02*
X124127695Y-112714285D01*
X124127695Y-112714285D02*
X124127695Y-112333333D01*
X124927695Y-110923808D02*
X124546742Y-111190475D01*
X124927695Y-111380951D02*
X124127695Y-111380951D01*
X124127695Y-111380951D02*
X124127695Y-111076189D01*
X124127695Y-111076189D02*
X124165790Y-110999999D01*
X124165790Y-110999999D02*
X124203885Y-110961904D01*
X124203885Y-110961904D02*
X124280076Y-110923808D01*
X124280076Y-110923808D02*
X124394361Y-110923808D01*
X124394361Y-110923808D02*
X124470552Y-110961904D01*
X124470552Y-110961904D02*
X124508647Y-110999999D01*
X124508647Y-110999999D02*
X124546742Y-111076189D01*
X124546742Y-111076189D02*
X124546742Y-111380951D01*
X124508647Y-110580951D02*
X124508647Y-110314285D01*
X124927695Y-110199999D02*
X124927695Y-110580951D01*
X124927695Y-110580951D02*
X124127695Y-110580951D01*
X124127695Y-110580951D02*
X124127695Y-110199999D01*
X124699123Y-109895237D02*
X124699123Y-109514284D01*
X124927695Y-109971427D02*
X124127695Y-109704760D01*
X124127695Y-109704760D02*
X124927695Y-109438094D01*
X124927695Y-109171427D02*
X124127695Y-109171427D01*
X124127695Y-109171427D02*
X124127695Y-108980951D01*
X124127695Y-108980951D02*
X124165790Y-108866665D01*
X124165790Y-108866665D02*
X124241980Y-108790475D01*
X124241980Y-108790475D02*
X124318171Y-108752380D01*
X124318171Y-108752380D02*
X124470552Y-108714284D01*
X124470552Y-108714284D02*
X124584838Y-108714284D01*
X124584838Y-108714284D02*
X124737219Y-108752380D01*
X124737219Y-108752380D02*
X124813409Y-108790475D01*
X124813409Y-108790475D02*
X124889600Y-108866665D01*
X124889600Y-108866665D02*
X124927695Y-108980951D01*
X124927695Y-108980951D02*
X124927695Y-109171427D01*
X124851504Y-108371427D02*
X124889600Y-108333332D01*
X124889600Y-108333332D02*
X124927695Y-108371427D01*
X124927695Y-108371427D02*
X124889600Y-108409523D01*
X124889600Y-108409523D02*
X124851504Y-108371427D01*
X124851504Y-108371427D02*
X124927695Y-108371427D01*
X124622933Y-108371427D02*
X124165790Y-108409523D01*
X124165790Y-108409523D02*
X124127695Y-108371427D01*
X124127695Y-108371427D02*
X124165790Y-108333332D01*
X124165790Y-108333332D02*
X124622933Y-108371427D01*
X124622933Y-108371427D02*
X124127695Y-108371427D01*
X124127695Y-107495237D02*
X124127695Y-107038094D01*
X124927695Y-107266666D02*
X124127695Y-107266666D01*
X124927695Y-106771427D02*
X124127695Y-106771427D01*
X124927695Y-106428570D02*
X124508647Y-106428570D01*
X124508647Y-106428570D02*
X124432457Y-106466665D01*
X124432457Y-106466665D02*
X124394361Y-106542856D01*
X124394361Y-106542856D02*
X124394361Y-106657142D01*
X124394361Y-106657142D02*
X124432457Y-106733332D01*
X124432457Y-106733332D02*
X124470552Y-106771427D01*
X124889600Y-105742855D02*
X124927695Y-105819046D01*
X124927695Y-105819046D02*
X124927695Y-105971427D01*
X124927695Y-105971427D02*
X124889600Y-106047617D01*
X124889600Y-106047617D02*
X124813409Y-106085713D01*
X124813409Y-106085713D02*
X124508647Y-106085713D01*
X124508647Y-106085713D02*
X124432457Y-106047617D01*
X124432457Y-106047617D02*
X124394361Y-105971427D01*
X124394361Y-105971427D02*
X124394361Y-105819046D01*
X124394361Y-105819046D02*
X124432457Y-105742855D01*
X124432457Y-105742855D02*
X124508647Y-105704760D01*
X124508647Y-105704760D02*
X124584838Y-105704760D01*
X124584838Y-105704760D02*
X124661028Y-106085713D01*
X124927695Y-105361903D02*
X124394361Y-105361903D01*
X124546742Y-105361903D02*
X124470552Y-105323808D01*
X124470552Y-105323808D02*
X124432457Y-105285713D01*
X124432457Y-105285713D02*
X124394361Y-105209522D01*
X124394361Y-105209522D02*
X124394361Y-105133332D01*
X124889600Y-104561903D02*
X124927695Y-104638094D01*
X124927695Y-104638094D02*
X124927695Y-104790475D01*
X124927695Y-104790475D02*
X124889600Y-104866665D01*
X124889600Y-104866665D02*
X124813409Y-104904761D01*
X124813409Y-104904761D02*
X124508647Y-104904761D01*
X124508647Y-104904761D02*
X124432457Y-104866665D01*
X124432457Y-104866665D02*
X124394361Y-104790475D01*
X124394361Y-104790475D02*
X124394361Y-104638094D01*
X124394361Y-104638094D02*
X124432457Y-104561903D01*
X124432457Y-104561903D02*
X124508647Y-104523808D01*
X124508647Y-104523808D02*
X124584838Y-104523808D01*
X124584838Y-104523808D02*
X124661028Y-104904761D01*
X124127695Y-104142856D02*
X124280076Y-104219047D01*
X124889600Y-103838095D02*
X124927695Y-103761904D01*
X124927695Y-103761904D02*
X124927695Y-103609523D01*
X124927695Y-103609523D02*
X124889600Y-103533333D01*
X124889600Y-103533333D02*
X124813409Y-103495237D01*
X124813409Y-103495237D02*
X124775314Y-103495237D01*
X124775314Y-103495237D02*
X124699123Y-103533333D01*
X124699123Y-103533333D02*
X124661028Y-103609523D01*
X124661028Y-103609523D02*
X124661028Y-103723809D01*
X124661028Y-103723809D02*
X124622933Y-103799999D01*
X124622933Y-103799999D02*
X124546742Y-103838095D01*
X124546742Y-103838095D02*
X124508647Y-103838095D01*
X124508647Y-103838095D02*
X124432457Y-103799999D01*
X124432457Y-103799999D02*
X124394361Y-103723809D01*
X124394361Y-103723809D02*
X124394361Y-103609523D01*
X124394361Y-103609523D02*
X124432457Y-103533333D01*
X124394361Y-102542856D02*
X124927695Y-102542856D01*
X124470552Y-102542856D02*
X124432457Y-102504761D01*
X124432457Y-102504761D02*
X124394361Y-102428571D01*
X124394361Y-102428571D02*
X124394361Y-102314285D01*
X124394361Y-102314285D02*
X124432457Y-102238094D01*
X124432457Y-102238094D02*
X124508647Y-102199999D01*
X124508647Y-102199999D02*
X124927695Y-102199999D01*
X124927695Y-101704761D02*
X124889600Y-101780951D01*
X124889600Y-101780951D02*
X124851504Y-101819046D01*
X124851504Y-101819046D02*
X124775314Y-101857142D01*
X124775314Y-101857142D02*
X124546742Y-101857142D01*
X124546742Y-101857142D02*
X124470552Y-101819046D01*
X124470552Y-101819046D02*
X124432457Y-101780951D01*
X124432457Y-101780951D02*
X124394361Y-101704761D01*
X124394361Y-101704761D02*
X124394361Y-101590475D01*
X124394361Y-101590475D02*
X124432457Y-101514284D01*
X124432457Y-101514284D02*
X124470552Y-101476189D01*
X124470552Y-101476189D02*
X124546742Y-101438094D01*
X124546742Y-101438094D02*
X124775314Y-101438094D01*
X124775314Y-101438094D02*
X124851504Y-101476189D01*
X124851504Y-101476189D02*
X124889600Y-101514284D01*
X124889600Y-101514284D02*
X124927695Y-101590475D01*
X124927695Y-101590475D02*
X124927695Y-101704761D01*
X125682361Y-116809524D02*
X126482361Y-116809524D01*
X125720457Y-116809524D02*
X125682361Y-116733334D01*
X125682361Y-116733334D02*
X125682361Y-116580953D01*
X125682361Y-116580953D02*
X125720457Y-116504762D01*
X125720457Y-116504762D02*
X125758552Y-116466667D01*
X125758552Y-116466667D02*
X125834742Y-116428572D01*
X125834742Y-116428572D02*
X126063314Y-116428572D01*
X126063314Y-116428572D02*
X126139504Y-116466667D01*
X126139504Y-116466667D02*
X126177600Y-116504762D01*
X126177600Y-116504762D02*
X126215695Y-116580953D01*
X126215695Y-116580953D02*
X126215695Y-116733334D01*
X126215695Y-116733334D02*
X126177600Y-116809524D01*
X126215695Y-115971429D02*
X126177600Y-116047619D01*
X126177600Y-116047619D02*
X126139504Y-116085714D01*
X126139504Y-116085714D02*
X126063314Y-116123810D01*
X126063314Y-116123810D02*
X125834742Y-116123810D01*
X125834742Y-116123810D02*
X125758552Y-116085714D01*
X125758552Y-116085714D02*
X125720457Y-116047619D01*
X125720457Y-116047619D02*
X125682361Y-115971429D01*
X125682361Y-115971429D02*
X125682361Y-115857143D01*
X125682361Y-115857143D02*
X125720457Y-115780952D01*
X125720457Y-115780952D02*
X125758552Y-115742857D01*
X125758552Y-115742857D02*
X125834742Y-115704762D01*
X125834742Y-115704762D02*
X126063314Y-115704762D01*
X126063314Y-115704762D02*
X126139504Y-115742857D01*
X126139504Y-115742857D02*
X126177600Y-115780952D01*
X126177600Y-115780952D02*
X126215695Y-115857143D01*
X126215695Y-115857143D02*
X126215695Y-115971429D01*
X126215695Y-115247619D02*
X126177600Y-115323809D01*
X126177600Y-115323809D02*
X126101409Y-115361904D01*
X126101409Y-115361904D02*
X125415695Y-115361904D01*
X126215695Y-114599999D02*
X125796647Y-114599999D01*
X125796647Y-114599999D02*
X125720457Y-114638094D01*
X125720457Y-114638094D02*
X125682361Y-114714285D01*
X125682361Y-114714285D02*
X125682361Y-114866666D01*
X125682361Y-114866666D02*
X125720457Y-114942856D01*
X126177600Y-114599999D02*
X126215695Y-114676190D01*
X126215695Y-114676190D02*
X126215695Y-114866666D01*
X126215695Y-114866666D02*
X126177600Y-114942856D01*
X126177600Y-114942856D02*
X126101409Y-114980952D01*
X126101409Y-114980952D02*
X126025219Y-114980952D01*
X126025219Y-114980952D02*
X125949028Y-114942856D01*
X125949028Y-114942856D02*
X125910933Y-114866666D01*
X125910933Y-114866666D02*
X125910933Y-114676190D01*
X125910933Y-114676190D02*
X125872838Y-114599999D01*
X126215695Y-114219046D02*
X125682361Y-114219046D01*
X125834742Y-114219046D02*
X125758552Y-114180951D01*
X125758552Y-114180951D02*
X125720457Y-114142856D01*
X125720457Y-114142856D02*
X125682361Y-114066665D01*
X125682361Y-114066665D02*
X125682361Y-113990475D01*
X126215695Y-113723808D02*
X125682361Y-113723808D01*
X125415695Y-113723808D02*
X125453790Y-113761904D01*
X125453790Y-113761904D02*
X125491885Y-113723808D01*
X125491885Y-113723808D02*
X125453790Y-113685713D01*
X125453790Y-113685713D02*
X125415695Y-113723808D01*
X125415695Y-113723808D02*
X125491885Y-113723808D01*
X125682361Y-113457142D02*
X125682361Y-113152380D01*
X125415695Y-113342856D02*
X126101409Y-113342856D01*
X126101409Y-113342856D02*
X126177600Y-113304761D01*
X126177600Y-113304761D02*
X126215695Y-113228571D01*
X126215695Y-113228571D02*
X126215695Y-113152380D01*
X125682361Y-112961904D02*
X126215695Y-112771428D01*
X125682361Y-112580951D02*
X126215695Y-112771428D01*
X126215695Y-112771428D02*
X126406171Y-112847618D01*
X126406171Y-112847618D02*
X126444266Y-112885713D01*
X126444266Y-112885713D02*
X126482361Y-112961904D01*
X125682361Y-111666665D02*
X126482361Y-111666665D01*
X125720457Y-111666665D02*
X125682361Y-111590475D01*
X125682361Y-111590475D02*
X125682361Y-111438094D01*
X125682361Y-111438094D02*
X125720457Y-111361903D01*
X125720457Y-111361903D02*
X125758552Y-111323808D01*
X125758552Y-111323808D02*
X125834742Y-111285713D01*
X125834742Y-111285713D02*
X126063314Y-111285713D01*
X126063314Y-111285713D02*
X126139504Y-111323808D01*
X126139504Y-111323808D02*
X126177600Y-111361903D01*
X126177600Y-111361903D02*
X126215695Y-111438094D01*
X126215695Y-111438094D02*
X126215695Y-111590475D01*
X126215695Y-111590475D02*
X126177600Y-111666665D01*
X126215695Y-110942855D02*
X125682361Y-110942855D01*
X125834742Y-110942855D02*
X125758552Y-110904760D01*
X125758552Y-110904760D02*
X125720457Y-110866665D01*
X125720457Y-110866665D02*
X125682361Y-110790474D01*
X125682361Y-110790474D02*
X125682361Y-110714284D01*
X126215695Y-110333332D02*
X126177600Y-110409522D01*
X126177600Y-110409522D02*
X126139504Y-110447617D01*
X126139504Y-110447617D02*
X126063314Y-110485713D01*
X126063314Y-110485713D02*
X125834742Y-110485713D01*
X125834742Y-110485713D02*
X125758552Y-110447617D01*
X125758552Y-110447617D02*
X125720457Y-110409522D01*
X125720457Y-110409522D02*
X125682361Y-110333332D01*
X125682361Y-110333332D02*
X125682361Y-110219046D01*
X125682361Y-110219046D02*
X125720457Y-110142855D01*
X125720457Y-110142855D02*
X125758552Y-110104760D01*
X125758552Y-110104760D02*
X125834742Y-110066665D01*
X125834742Y-110066665D02*
X126063314Y-110066665D01*
X126063314Y-110066665D02*
X126139504Y-110104760D01*
X126139504Y-110104760D02*
X126177600Y-110142855D01*
X126177600Y-110142855D02*
X126215695Y-110219046D01*
X126215695Y-110219046D02*
X126215695Y-110333332D01*
X125682361Y-109838093D02*
X125682361Y-109533331D01*
X125415695Y-109723807D02*
X126101409Y-109723807D01*
X126101409Y-109723807D02*
X126177600Y-109685712D01*
X126177600Y-109685712D02*
X126215695Y-109609522D01*
X126215695Y-109609522D02*
X126215695Y-109533331D01*
X126177600Y-108961902D02*
X126215695Y-109038093D01*
X126215695Y-109038093D02*
X126215695Y-109190474D01*
X126215695Y-109190474D02*
X126177600Y-109266664D01*
X126177600Y-109266664D02*
X126101409Y-109304760D01*
X126101409Y-109304760D02*
X125796647Y-109304760D01*
X125796647Y-109304760D02*
X125720457Y-109266664D01*
X125720457Y-109266664D02*
X125682361Y-109190474D01*
X125682361Y-109190474D02*
X125682361Y-109038093D01*
X125682361Y-109038093D02*
X125720457Y-108961902D01*
X125720457Y-108961902D02*
X125796647Y-108923807D01*
X125796647Y-108923807D02*
X125872838Y-108923807D01*
X125872838Y-108923807D02*
X125949028Y-109304760D01*
X126177600Y-108238093D02*
X126215695Y-108314284D01*
X126215695Y-108314284D02*
X126215695Y-108466665D01*
X126215695Y-108466665D02*
X126177600Y-108542855D01*
X126177600Y-108542855D02*
X126139504Y-108580950D01*
X126139504Y-108580950D02*
X126063314Y-108619046D01*
X126063314Y-108619046D02*
X125834742Y-108619046D01*
X125834742Y-108619046D02*
X125758552Y-108580950D01*
X125758552Y-108580950D02*
X125720457Y-108542855D01*
X125720457Y-108542855D02*
X125682361Y-108466665D01*
X125682361Y-108466665D02*
X125682361Y-108314284D01*
X125682361Y-108314284D02*
X125720457Y-108238093D01*
X125682361Y-108009522D02*
X125682361Y-107704760D01*
X125415695Y-107895236D02*
X126101409Y-107895236D01*
X126101409Y-107895236D02*
X126177600Y-107857141D01*
X126177600Y-107857141D02*
X126215695Y-107780951D01*
X126215695Y-107780951D02*
X126215695Y-107704760D01*
X126215695Y-107438093D02*
X125682361Y-107438093D01*
X125415695Y-107438093D02*
X125453790Y-107476189D01*
X125453790Y-107476189D02*
X125491885Y-107438093D01*
X125491885Y-107438093D02*
X125453790Y-107399998D01*
X125453790Y-107399998D02*
X125415695Y-107438093D01*
X125415695Y-107438093D02*
X125491885Y-107438093D01*
X126215695Y-106942856D02*
X126177600Y-107019046D01*
X126177600Y-107019046D02*
X126139504Y-107057141D01*
X126139504Y-107057141D02*
X126063314Y-107095237D01*
X126063314Y-107095237D02*
X125834742Y-107095237D01*
X125834742Y-107095237D02*
X125758552Y-107057141D01*
X125758552Y-107057141D02*
X125720457Y-107019046D01*
X125720457Y-107019046D02*
X125682361Y-106942856D01*
X125682361Y-106942856D02*
X125682361Y-106828570D01*
X125682361Y-106828570D02*
X125720457Y-106752379D01*
X125720457Y-106752379D02*
X125758552Y-106714284D01*
X125758552Y-106714284D02*
X125834742Y-106676189D01*
X125834742Y-106676189D02*
X126063314Y-106676189D01*
X126063314Y-106676189D02*
X126139504Y-106714284D01*
X126139504Y-106714284D02*
X126177600Y-106752379D01*
X126177600Y-106752379D02*
X126215695Y-106828570D01*
X126215695Y-106828570D02*
X126215695Y-106942856D01*
X125682361Y-106333331D02*
X126215695Y-106333331D01*
X125758552Y-106333331D02*
X125720457Y-106295236D01*
X125720457Y-106295236D02*
X125682361Y-106219046D01*
X125682361Y-106219046D02*
X125682361Y-106104760D01*
X125682361Y-106104760D02*
X125720457Y-106028569D01*
X125720457Y-106028569D02*
X125796647Y-105990474D01*
X125796647Y-105990474D02*
X126215695Y-105990474D01*
X126520457Y-104771426D02*
X126482361Y-104809521D01*
X126482361Y-104809521D02*
X126368076Y-104885712D01*
X126368076Y-104885712D02*
X126291885Y-104923807D01*
X126291885Y-104923807D02*
X126177600Y-104961902D01*
X126177600Y-104961902D02*
X125987123Y-104999997D01*
X125987123Y-104999997D02*
X125834742Y-104999997D01*
X125834742Y-104999997D02*
X125644266Y-104961902D01*
X125644266Y-104961902D02*
X125529980Y-104923807D01*
X125529980Y-104923807D02*
X125453790Y-104885712D01*
X125453790Y-104885712D02*
X125339504Y-104809521D01*
X125339504Y-104809521D02*
X125301409Y-104771426D01*
X126215695Y-104466664D02*
X125415695Y-104466664D01*
X126215695Y-103476188D02*
X125415695Y-103476188D01*
X125910933Y-103399998D02*
X126215695Y-103171426D01*
X125682361Y-103171426D02*
X125987123Y-103476188D01*
X125682361Y-102828569D02*
X126215695Y-102828569D01*
X125758552Y-102828569D02*
X125720457Y-102790474D01*
X125720457Y-102790474D02*
X125682361Y-102714284D01*
X125682361Y-102714284D02*
X125682361Y-102599998D01*
X125682361Y-102599998D02*
X125720457Y-102523807D01*
X125720457Y-102523807D02*
X125796647Y-102485712D01*
X125796647Y-102485712D02*
X126215695Y-102485712D01*
X126215695Y-101990474D02*
X126177600Y-102066664D01*
X126177600Y-102066664D02*
X126139504Y-102104759D01*
X126139504Y-102104759D02*
X126063314Y-102142855D01*
X126063314Y-102142855D02*
X125834742Y-102142855D01*
X125834742Y-102142855D02*
X125758552Y-102104759D01*
X125758552Y-102104759D02*
X125720457Y-102066664D01*
X125720457Y-102066664D02*
X125682361Y-101990474D01*
X125682361Y-101990474D02*
X125682361Y-101876188D01*
X125682361Y-101876188D02*
X125720457Y-101799997D01*
X125720457Y-101799997D02*
X125758552Y-101761902D01*
X125758552Y-101761902D02*
X125834742Y-101723807D01*
X125834742Y-101723807D02*
X126063314Y-101723807D01*
X126063314Y-101723807D02*
X126139504Y-101761902D01*
X126139504Y-101761902D02*
X126177600Y-101799997D01*
X126177600Y-101799997D02*
X126215695Y-101876188D01*
X126215695Y-101876188D02*
X126215695Y-101990474D01*
X125682361Y-101457140D02*
X126215695Y-101304759D01*
X126215695Y-101304759D02*
X125834742Y-101152378D01*
X125834742Y-101152378D02*
X126215695Y-100999997D01*
X126215695Y-100999997D02*
X125682361Y-100847616D01*
X126520457Y-100619045D02*
X126482361Y-100580950D01*
X126482361Y-100580950D02*
X126368076Y-100504759D01*
X126368076Y-100504759D02*
X126291885Y-100466664D01*
X126291885Y-100466664D02*
X126177600Y-100428569D01*
X126177600Y-100428569D02*
X125987123Y-100390473D01*
X125987123Y-100390473D02*
X125834742Y-100390473D01*
X125834742Y-100390473D02*
X125644266Y-100428569D01*
X125644266Y-100428569D02*
X125529980Y-100466664D01*
X125529980Y-100466664D02*
X125453790Y-100504759D01*
X125453790Y-100504759D02*
X125339504Y-100580950D01*
X125339504Y-100580950D02*
X125301409Y-100619045D01*
X127465600Y-117380954D02*
X127503695Y-117304763D01*
X127503695Y-117304763D02*
X127503695Y-117152382D01*
X127503695Y-117152382D02*
X127465600Y-117076192D01*
X127465600Y-117076192D02*
X127389409Y-117038096D01*
X127389409Y-117038096D02*
X127351314Y-117038096D01*
X127351314Y-117038096D02*
X127275123Y-117076192D01*
X127275123Y-117076192D02*
X127237028Y-117152382D01*
X127237028Y-117152382D02*
X127237028Y-117266668D01*
X127237028Y-117266668D02*
X127198933Y-117342858D01*
X127198933Y-117342858D02*
X127122742Y-117380954D01*
X127122742Y-117380954D02*
X127084647Y-117380954D01*
X127084647Y-117380954D02*
X127008457Y-117342858D01*
X127008457Y-117342858D02*
X126970361Y-117266668D01*
X126970361Y-117266668D02*
X126970361Y-117152382D01*
X126970361Y-117152382D02*
X127008457Y-117076192D01*
X127503695Y-116580954D02*
X127465600Y-116657144D01*
X127465600Y-116657144D02*
X127427504Y-116695239D01*
X127427504Y-116695239D02*
X127351314Y-116733335D01*
X127351314Y-116733335D02*
X127122742Y-116733335D01*
X127122742Y-116733335D02*
X127046552Y-116695239D01*
X127046552Y-116695239D02*
X127008457Y-116657144D01*
X127008457Y-116657144D02*
X126970361Y-116580954D01*
X126970361Y-116580954D02*
X126970361Y-116466668D01*
X126970361Y-116466668D02*
X127008457Y-116390477D01*
X127008457Y-116390477D02*
X127046552Y-116352382D01*
X127046552Y-116352382D02*
X127122742Y-116314287D01*
X127122742Y-116314287D02*
X127351314Y-116314287D01*
X127351314Y-116314287D02*
X127427504Y-116352382D01*
X127427504Y-116352382D02*
X127465600Y-116390477D01*
X127465600Y-116390477D02*
X127503695Y-116466668D01*
X127503695Y-116466668D02*
X127503695Y-116580954D01*
X127503695Y-115019048D02*
X126703695Y-115019048D01*
X127465600Y-115019048D02*
X127503695Y-115095239D01*
X127503695Y-115095239D02*
X127503695Y-115247620D01*
X127503695Y-115247620D02*
X127465600Y-115323810D01*
X127465600Y-115323810D02*
X127427504Y-115361905D01*
X127427504Y-115361905D02*
X127351314Y-115400001D01*
X127351314Y-115400001D02*
X127122742Y-115400001D01*
X127122742Y-115400001D02*
X127046552Y-115361905D01*
X127046552Y-115361905D02*
X127008457Y-115323810D01*
X127008457Y-115323810D02*
X126970361Y-115247620D01*
X126970361Y-115247620D02*
X126970361Y-115095239D01*
X126970361Y-115095239D02*
X127008457Y-115019048D01*
X127503695Y-114523810D02*
X127465600Y-114600000D01*
X127465600Y-114600000D02*
X127427504Y-114638095D01*
X127427504Y-114638095D02*
X127351314Y-114676191D01*
X127351314Y-114676191D02*
X127122742Y-114676191D01*
X127122742Y-114676191D02*
X127046552Y-114638095D01*
X127046552Y-114638095D02*
X127008457Y-114600000D01*
X127008457Y-114600000D02*
X126970361Y-114523810D01*
X126970361Y-114523810D02*
X126970361Y-114409524D01*
X126970361Y-114409524D02*
X127008457Y-114333333D01*
X127008457Y-114333333D02*
X127046552Y-114295238D01*
X127046552Y-114295238D02*
X127122742Y-114257143D01*
X127122742Y-114257143D02*
X127351314Y-114257143D01*
X127351314Y-114257143D02*
X127427504Y-114295238D01*
X127427504Y-114295238D02*
X127465600Y-114333333D01*
X127465600Y-114333333D02*
X127503695Y-114409524D01*
X127503695Y-114409524D02*
X127503695Y-114523810D01*
X126970361Y-113571428D02*
X127503695Y-113571428D01*
X126970361Y-113914285D02*
X127389409Y-113914285D01*
X127389409Y-113914285D02*
X127465600Y-113876190D01*
X127465600Y-113876190D02*
X127503695Y-113800000D01*
X127503695Y-113800000D02*
X127503695Y-113685714D01*
X127503695Y-113685714D02*
X127465600Y-113609523D01*
X127465600Y-113609523D02*
X127427504Y-113571428D01*
X127503695Y-113190475D02*
X126703695Y-113190475D01*
X127008457Y-113190475D02*
X126970361Y-113114285D01*
X126970361Y-113114285D02*
X126970361Y-112961904D01*
X126970361Y-112961904D02*
X127008457Y-112885713D01*
X127008457Y-112885713D02*
X127046552Y-112847618D01*
X127046552Y-112847618D02*
X127122742Y-112809523D01*
X127122742Y-112809523D02*
X127351314Y-112809523D01*
X127351314Y-112809523D02*
X127427504Y-112847618D01*
X127427504Y-112847618D02*
X127465600Y-112885713D01*
X127465600Y-112885713D02*
X127503695Y-112961904D01*
X127503695Y-112961904D02*
X127503695Y-113114285D01*
X127503695Y-113114285D02*
X127465600Y-113190475D01*
X127503695Y-112352380D02*
X127465600Y-112428570D01*
X127465600Y-112428570D02*
X127389409Y-112466665D01*
X127389409Y-112466665D02*
X126703695Y-112466665D01*
X127465600Y-111742855D02*
X127503695Y-111819046D01*
X127503695Y-111819046D02*
X127503695Y-111971427D01*
X127503695Y-111971427D02*
X127465600Y-112047617D01*
X127465600Y-112047617D02*
X127389409Y-112085713D01*
X127389409Y-112085713D02*
X127084647Y-112085713D01*
X127084647Y-112085713D02*
X127008457Y-112047617D01*
X127008457Y-112047617D02*
X126970361Y-111971427D01*
X126970361Y-111971427D02*
X126970361Y-111819046D01*
X126970361Y-111819046D02*
X127008457Y-111742855D01*
X127008457Y-111742855D02*
X127084647Y-111704760D01*
X127084647Y-111704760D02*
X127160838Y-111704760D01*
X127160838Y-111704760D02*
X127237028Y-112085713D01*
X127465600Y-110409522D02*
X127503695Y-110485713D01*
X127503695Y-110485713D02*
X127503695Y-110638094D01*
X127503695Y-110638094D02*
X127465600Y-110714284D01*
X127465600Y-110714284D02*
X127427504Y-110752379D01*
X127427504Y-110752379D02*
X127351314Y-110790475D01*
X127351314Y-110790475D02*
X127122742Y-110790475D01*
X127122742Y-110790475D02*
X127046552Y-110752379D01*
X127046552Y-110752379D02*
X127008457Y-110714284D01*
X127008457Y-110714284D02*
X126970361Y-110638094D01*
X126970361Y-110638094D02*
X126970361Y-110485713D01*
X126970361Y-110485713D02*
X127008457Y-110409522D01*
X127503695Y-110066665D02*
X126703695Y-110066665D01*
X127503695Y-109723808D02*
X127084647Y-109723808D01*
X127084647Y-109723808D02*
X127008457Y-109761903D01*
X127008457Y-109761903D02*
X126970361Y-109838094D01*
X126970361Y-109838094D02*
X126970361Y-109952380D01*
X126970361Y-109952380D02*
X127008457Y-110028570D01*
X127008457Y-110028570D02*
X127046552Y-110066665D01*
X127465600Y-109038093D02*
X127503695Y-109114284D01*
X127503695Y-109114284D02*
X127503695Y-109266665D01*
X127503695Y-109266665D02*
X127465600Y-109342855D01*
X127465600Y-109342855D02*
X127389409Y-109380951D01*
X127389409Y-109380951D02*
X127084647Y-109380951D01*
X127084647Y-109380951D02*
X127008457Y-109342855D01*
X127008457Y-109342855D02*
X126970361Y-109266665D01*
X126970361Y-109266665D02*
X126970361Y-109114284D01*
X126970361Y-109114284D02*
X127008457Y-109038093D01*
X127008457Y-109038093D02*
X127084647Y-108999998D01*
X127084647Y-108999998D02*
X127160838Y-108999998D01*
X127160838Y-108999998D02*
X127237028Y-109380951D01*
X127465600Y-108314284D02*
X127503695Y-108390475D01*
X127503695Y-108390475D02*
X127503695Y-108542856D01*
X127503695Y-108542856D02*
X127465600Y-108619046D01*
X127465600Y-108619046D02*
X127427504Y-108657141D01*
X127427504Y-108657141D02*
X127351314Y-108695237D01*
X127351314Y-108695237D02*
X127122742Y-108695237D01*
X127122742Y-108695237D02*
X127046552Y-108657141D01*
X127046552Y-108657141D02*
X127008457Y-108619046D01*
X127008457Y-108619046D02*
X126970361Y-108542856D01*
X126970361Y-108542856D02*
X126970361Y-108390475D01*
X126970361Y-108390475D02*
X127008457Y-108314284D01*
X127503695Y-107971427D02*
X126703695Y-107971427D01*
X127198933Y-107895237D02*
X127503695Y-107666665D01*
X126970361Y-107666665D02*
X127275123Y-107971427D01*
X126970361Y-106828570D02*
X126970361Y-106523808D01*
X126703695Y-106714284D02*
X127389409Y-106714284D01*
X127389409Y-106714284D02*
X127465600Y-106676189D01*
X127465600Y-106676189D02*
X127503695Y-106599999D01*
X127503695Y-106599999D02*
X127503695Y-106523808D01*
X127503695Y-106257141D02*
X126703695Y-106257141D01*
X127503695Y-105914284D02*
X127084647Y-105914284D01*
X127084647Y-105914284D02*
X127008457Y-105952379D01*
X127008457Y-105952379D02*
X126970361Y-106028570D01*
X126970361Y-106028570D02*
X126970361Y-106142856D01*
X126970361Y-106142856D02*
X127008457Y-106219046D01*
X127008457Y-106219046D02*
X127046552Y-106257141D01*
X127465600Y-105228569D02*
X127503695Y-105304760D01*
X127503695Y-105304760D02*
X127503695Y-105457141D01*
X127503695Y-105457141D02*
X127465600Y-105533331D01*
X127465600Y-105533331D02*
X127389409Y-105571427D01*
X127389409Y-105571427D02*
X127084647Y-105571427D01*
X127084647Y-105571427D02*
X127008457Y-105533331D01*
X127008457Y-105533331D02*
X126970361Y-105457141D01*
X126970361Y-105457141D02*
X126970361Y-105304760D01*
X126970361Y-105304760D02*
X127008457Y-105228569D01*
X127008457Y-105228569D02*
X127084647Y-105190474D01*
X127084647Y-105190474D02*
X127160838Y-105190474D01*
X127160838Y-105190474D02*
X127237028Y-105571427D01*
X127503695Y-104238093D02*
X126703695Y-104238093D01*
X127008457Y-104238093D02*
X126970361Y-104161903D01*
X126970361Y-104161903D02*
X126970361Y-104009522D01*
X126970361Y-104009522D02*
X127008457Y-103933331D01*
X127008457Y-103933331D02*
X127046552Y-103895236D01*
X127046552Y-103895236D02*
X127122742Y-103857141D01*
X127122742Y-103857141D02*
X127351314Y-103857141D01*
X127351314Y-103857141D02*
X127427504Y-103895236D01*
X127427504Y-103895236D02*
X127465600Y-103933331D01*
X127465600Y-103933331D02*
X127503695Y-104009522D01*
X127503695Y-104009522D02*
X127503695Y-104161903D01*
X127503695Y-104161903D02*
X127465600Y-104238093D01*
X127503695Y-103171426D02*
X127084647Y-103171426D01*
X127084647Y-103171426D02*
X127008457Y-103209521D01*
X127008457Y-103209521D02*
X126970361Y-103285712D01*
X126970361Y-103285712D02*
X126970361Y-103438093D01*
X126970361Y-103438093D02*
X127008457Y-103514283D01*
X127465600Y-103171426D02*
X127503695Y-103247617D01*
X127503695Y-103247617D02*
X127503695Y-103438093D01*
X127503695Y-103438093D02*
X127465600Y-103514283D01*
X127465600Y-103514283D02*
X127389409Y-103552379D01*
X127389409Y-103552379D02*
X127313219Y-103552379D01*
X127313219Y-103552379D02*
X127237028Y-103514283D01*
X127237028Y-103514283D02*
X127198933Y-103438093D01*
X127198933Y-103438093D02*
X127198933Y-103247617D01*
X127198933Y-103247617D02*
X127160838Y-103171426D01*
X126970361Y-102904759D02*
X126970361Y-102599997D01*
X126703695Y-102790473D02*
X127389409Y-102790473D01*
X127389409Y-102790473D02*
X127465600Y-102752378D01*
X127465600Y-102752378D02*
X127503695Y-102676188D01*
X127503695Y-102676188D02*
X127503695Y-102599997D01*
X126970361Y-102447616D02*
X126970361Y-102142854D01*
X126703695Y-102333330D02*
X127389409Y-102333330D01*
X127389409Y-102333330D02*
X127465600Y-102295235D01*
X127465600Y-102295235D02*
X127503695Y-102219045D01*
X127503695Y-102219045D02*
X127503695Y-102142854D01*
X127465600Y-101571425D02*
X127503695Y-101647616D01*
X127503695Y-101647616D02*
X127503695Y-101799997D01*
X127503695Y-101799997D02*
X127465600Y-101876187D01*
X127465600Y-101876187D02*
X127389409Y-101914283D01*
X127389409Y-101914283D02*
X127084647Y-101914283D01*
X127084647Y-101914283D02*
X127008457Y-101876187D01*
X127008457Y-101876187D02*
X126970361Y-101799997D01*
X126970361Y-101799997D02*
X126970361Y-101647616D01*
X126970361Y-101647616D02*
X127008457Y-101571425D01*
X127008457Y-101571425D02*
X127084647Y-101533330D01*
X127084647Y-101533330D02*
X127160838Y-101533330D01*
X127160838Y-101533330D02*
X127237028Y-101914283D01*
X127503695Y-101190473D02*
X126970361Y-101190473D01*
X127122742Y-101190473D02*
X127046552Y-101152378D01*
X127046552Y-101152378D02*
X127008457Y-101114283D01*
X127008457Y-101114283D02*
X126970361Y-101038092D01*
X126970361Y-101038092D02*
X126970361Y-100961902D01*
X126970361Y-100771426D02*
X127503695Y-100580950D01*
X126970361Y-100390473D02*
X127503695Y-100580950D01*
X127503695Y-100580950D02*
X127694171Y-100657140D01*
X127694171Y-100657140D02*
X127732266Y-100695235D01*
X127732266Y-100695235D02*
X127770361Y-100771426D01*
X128791695Y-118428570D02*
X127991695Y-118428570D01*
X128296457Y-118428570D02*
X128258361Y-118352380D01*
X128258361Y-118352380D02*
X128258361Y-118199999D01*
X128258361Y-118199999D02*
X128296457Y-118123808D01*
X128296457Y-118123808D02*
X128334552Y-118085713D01*
X128334552Y-118085713D02*
X128410742Y-118047618D01*
X128410742Y-118047618D02*
X128639314Y-118047618D01*
X128639314Y-118047618D02*
X128715504Y-118085713D01*
X128715504Y-118085713D02*
X128753600Y-118123808D01*
X128753600Y-118123808D02*
X128791695Y-118199999D01*
X128791695Y-118199999D02*
X128791695Y-118352380D01*
X128791695Y-118352380D02*
X128753600Y-118428570D01*
X128753600Y-117399998D02*
X128791695Y-117476189D01*
X128791695Y-117476189D02*
X128791695Y-117628570D01*
X128791695Y-117628570D02*
X128753600Y-117704760D01*
X128753600Y-117704760D02*
X128677409Y-117742856D01*
X128677409Y-117742856D02*
X128372647Y-117742856D01*
X128372647Y-117742856D02*
X128296457Y-117704760D01*
X128296457Y-117704760D02*
X128258361Y-117628570D01*
X128258361Y-117628570D02*
X128258361Y-117476189D01*
X128258361Y-117476189D02*
X128296457Y-117399998D01*
X128296457Y-117399998D02*
X128372647Y-117361903D01*
X128372647Y-117361903D02*
X128448838Y-117361903D01*
X128448838Y-117361903D02*
X128525028Y-117742856D01*
X128258361Y-117133332D02*
X128258361Y-116828570D01*
X128791695Y-117019046D02*
X128105980Y-117019046D01*
X128105980Y-117019046D02*
X128029790Y-116980951D01*
X128029790Y-116980951D02*
X127991695Y-116904761D01*
X127991695Y-116904761D02*
X127991695Y-116828570D01*
X128791695Y-116447618D02*
X128753600Y-116523808D01*
X128753600Y-116523808D02*
X128715504Y-116561903D01*
X128715504Y-116561903D02*
X128639314Y-116599999D01*
X128639314Y-116599999D02*
X128410742Y-116599999D01*
X128410742Y-116599999D02*
X128334552Y-116561903D01*
X128334552Y-116561903D02*
X128296457Y-116523808D01*
X128296457Y-116523808D02*
X128258361Y-116447618D01*
X128258361Y-116447618D02*
X128258361Y-116333332D01*
X128258361Y-116333332D02*
X128296457Y-116257141D01*
X128296457Y-116257141D02*
X128334552Y-116219046D01*
X128334552Y-116219046D02*
X128410742Y-116180951D01*
X128410742Y-116180951D02*
X128639314Y-116180951D01*
X128639314Y-116180951D02*
X128715504Y-116219046D01*
X128715504Y-116219046D02*
X128753600Y-116257141D01*
X128753600Y-116257141D02*
X128791695Y-116333332D01*
X128791695Y-116333332D02*
X128791695Y-116447618D01*
X128791695Y-115838093D02*
X128258361Y-115838093D01*
X128410742Y-115838093D02*
X128334552Y-115799998D01*
X128334552Y-115799998D02*
X128296457Y-115761903D01*
X128296457Y-115761903D02*
X128258361Y-115685712D01*
X128258361Y-115685712D02*
X128258361Y-115609522D01*
X128753600Y-115038093D02*
X128791695Y-115114284D01*
X128791695Y-115114284D02*
X128791695Y-115266665D01*
X128791695Y-115266665D02*
X128753600Y-115342855D01*
X128753600Y-115342855D02*
X128677409Y-115380951D01*
X128677409Y-115380951D02*
X128372647Y-115380951D01*
X128372647Y-115380951D02*
X128296457Y-115342855D01*
X128296457Y-115342855D02*
X128258361Y-115266665D01*
X128258361Y-115266665D02*
X128258361Y-115114284D01*
X128258361Y-115114284D02*
X128296457Y-115038093D01*
X128296457Y-115038093D02*
X128372647Y-114999998D01*
X128372647Y-114999998D02*
X128448838Y-114999998D01*
X128448838Y-114999998D02*
X128525028Y-115380951D01*
X128258361Y-114123808D02*
X128791695Y-113933332D01*
X128258361Y-113742855D02*
X128791695Y-113933332D01*
X128791695Y-113933332D02*
X128982171Y-114009522D01*
X128982171Y-114009522D02*
X129020266Y-114047617D01*
X129020266Y-114047617D02*
X129058361Y-114123808D01*
X128791695Y-113323808D02*
X128753600Y-113399998D01*
X128753600Y-113399998D02*
X128715504Y-113438093D01*
X128715504Y-113438093D02*
X128639314Y-113476189D01*
X128639314Y-113476189D02*
X128410742Y-113476189D01*
X128410742Y-113476189D02*
X128334552Y-113438093D01*
X128334552Y-113438093D02*
X128296457Y-113399998D01*
X128296457Y-113399998D02*
X128258361Y-113323808D01*
X128258361Y-113323808D02*
X128258361Y-113209522D01*
X128258361Y-113209522D02*
X128296457Y-113133331D01*
X128296457Y-113133331D02*
X128334552Y-113095236D01*
X128334552Y-113095236D02*
X128410742Y-113057141D01*
X128410742Y-113057141D02*
X128639314Y-113057141D01*
X128639314Y-113057141D02*
X128715504Y-113095236D01*
X128715504Y-113095236D02*
X128753600Y-113133331D01*
X128753600Y-113133331D02*
X128791695Y-113209522D01*
X128791695Y-113209522D02*
X128791695Y-113323808D01*
X128258361Y-112371426D02*
X128791695Y-112371426D01*
X128258361Y-112714283D02*
X128677409Y-112714283D01*
X128677409Y-112714283D02*
X128753600Y-112676188D01*
X128753600Y-112676188D02*
X128791695Y-112599998D01*
X128791695Y-112599998D02*
X128791695Y-112485712D01*
X128791695Y-112485712D02*
X128753600Y-112409521D01*
X128753600Y-112409521D02*
X128715504Y-112371426D01*
X128791695Y-111380949D02*
X128258361Y-111380949D01*
X127991695Y-111380949D02*
X128029790Y-111419045D01*
X128029790Y-111419045D02*
X128067885Y-111380949D01*
X128067885Y-111380949D02*
X128029790Y-111342854D01*
X128029790Y-111342854D02*
X127991695Y-111380949D01*
X127991695Y-111380949D02*
X128067885Y-111380949D01*
X128258361Y-110999997D02*
X128791695Y-110999997D01*
X128334552Y-110999997D02*
X128296457Y-110961902D01*
X128296457Y-110961902D02*
X128258361Y-110885712D01*
X128258361Y-110885712D02*
X128258361Y-110771426D01*
X128258361Y-110771426D02*
X128296457Y-110695235D01*
X128296457Y-110695235D02*
X128372647Y-110657140D01*
X128372647Y-110657140D02*
X128791695Y-110657140D01*
X128753600Y-110314283D02*
X128791695Y-110238092D01*
X128791695Y-110238092D02*
X128791695Y-110085711D01*
X128791695Y-110085711D02*
X128753600Y-110009521D01*
X128753600Y-110009521D02*
X128677409Y-109971425D01*
X128677409Y-109971425D02*
X128639314Y-109971425D01*
X128639314Y-109971425D02*
X128563123Y-110009521D01*
X128563123Y-110009521D02*
X128525028Y-110085711D01*
X128525028Y-110085711D02*
X128525028Y-110199997D01*
X128525028Y-110199997D02*
X128486933Y-110276187D01*
X128486933Y-110276187D02*
X128410742Y-110314283D01*
X128410742Y-110314283D02*
X128372647Y-110314283D01*
X128372647Y-110314283D02*
X128296457Y-110276187D01*
X128296457Y-110276187D02*
X128258361Y-110199997D01*
X128258361Y-110199997D02*
X128258361Y-110085711D01*
X128258361Y-110085711D02*
X128296457Y-110009521D01*
X128753600Y-109323806D02*
X128791695Y-109399997D01*
X128791695Y-109399997D02*
X128791695Y-109552378D01*
X128791695Y-109552378D02*
X128753600Y-109628568D01*
X128753600Y-109628568D02*
X128677409Y-109666664D01*
X128677409Y-109666664D02*
X128372647Y-109666664D01*
X128372647Y-109666664D02*
X128296457Y-109628568D01*
X128296457Y-109628568D02*
X128258361Y-109552378D01*
X128258361Y-109552378D02*
X128258361Y-109399997D01*
X128258361Y-109399997D02*
X128296457Y-109323806D01*
X128296457Y-109323806D02*
X128372647Y-109285711D01*
X128372647Y-109285711D02*
X128448838Y-109285711D01*
X128448838Y-109285711D02*
X128525028Y-109666664D01*
X128791695Y-108942854D02*
X128258361Y-108942854D01*
X128410742Y-108942854D02*
X128334552Y-108904759D01*
X128334552Y-108904759D02*
X128296457Y-108866664D01*
X128296457Y-108866664D02*
X128258361Y-108790473D01*
X128258361Y-108790473D02*
X128258361Y-108714283D01*
X128258361Y-108561902D02*
X128258361Y-108257140D01*
X127991695Y-108447616D02*
X128677409Y-108447616D01*
X128677409Y-108447616D02*
X128753600Y-108409521D01*
X128753600Y-108409521D02*
X128791695Y-108333331D01*
X128791695Y-108333331D02*
X128791695Y-108257140D01*
X128791695Y-107380949D02*
X128258361Y-107380949D01*
X127991695Y-107380949D02*
X128029790Y-107419045D01*
X128029790Y-107419045D02*
X128067885Y-107380949D01*
X128067885Y-107380949D02*
X128029790Y-107342854D01*
X128029790Y-107342854D02*
X127991695Y-107380949D01*
X127991695Y-107380949D02*
X128067885Y-107380949D01*
X128258361Y-107114283D02*
X128258361Y-106809521D01*
X127991695Y-106999997D02*
X128677409Y-106999997D01*
X128677409Y-106999997D02*
X128753600Y-106961902D01*
X128753600Y-106961902D02*
X128791695Y-106885712D01*
X128791695Y-106885712D02*
X128791695Y-106809521D01*
X128715504Y-106542854D02*
X128753600Y-106504759D01*
X128753600Y-106504759D02*
X128791695Y-106542854D01*
X128791695Y-106542854D02*
X128753600Y-106580950D01*
X128753600Y-106580950D02*
X128715504Y-106542854D01*
X128715504Y-106542854D02*
X128791695Y-106542854D01*
X128372647Y-105285712D02*
X128372647Y-105552378D01*
X128791695Y-105552378D02*
X127991695Y-105552378D01*
X127991695Y-105552378D02*
X127991695Y-105171426D01*
X128791695Y-104866664D02*
X128258361Y-104866664D01*
X127991695Y-104866664D02*
X128029790Y-104904760D01*
X128029790Y-104904760D02*
X128067885Y-104866664D01*
X128067885Y-104866664D02*
X128029790Y-104828569D01*
X128029790Y-104828569D02*
X127991695Y-104866664D01*
X127991695Y-104866664D02*
X128067885Y-104866664D01*
X128791695Y-104485712D02*
X128258361Y-104485712D01*
X128410742Y-104485712D02*
X128334552Y-104447617D01*
X128334552Y-104447617D02*
X128296457Y-104409522D01*
X128296457Y-104409522D02*
X128258361Y-104333331D01*
X128258361Y-104333331D02*
X128258361Y-104257141D01*
X128753600Y-103685712D02*
X128791695Y-103761903D01*
X128791695Y-103761903D02*
X128791695Y-103914284D01*
X128791695Y-103914284D02*
X128753600Y-103990474D01*
X128753600Y-103990474D02*
X128677409Y-104028570D01*
X128677409Y-104028570D02*
X128372647Y-104028570D01*
X128372647Y-104028570D02*
X128296457Y-103990474D01*
X128296457Y-103990474D02*
X128258361Y-103914284D01*
X128258361Y-103914284D02*
X128258361Y-103761903D01*
X128258361Y-103761903D02*
X128296457Y-103685712D01*
X128296457Y-103685712D02*
X128372647Y-103647617D01*
X128372647Y-103647617D02*
X128448838Y-103647617D01*
X128448838Y-103647617D02*
X128525028Y-104028570D01*
X128791695Y-102695236D02*
X128258361Y-102695236D01*
X127991695Y-102695236D02*
X128029790Y-102733332D01*
X128029790Y-102733332D02*
X128067885Y-102695236D01*
X128067885Y-102695236D02*
X128029790Y-102657141D01*
X128029790Y-102657141D02*
X127991695Y-102695236D01*
X127991695Y-102695236D02*
X128067885Y-102695236D01*
X128753600Y-102352380D02*
X128791695Y-102276189D01*
X128791695Y-102276189D02*
X128791695Y-102123808D01*
X128791695Y-102123808D02*
X128753600Y-102047618D01*
X128753600Y-102047618D02*
X128677409Y-102009522D01*
X128677409Y-102009522D02*
X128639314Y-102009522D01*
X128639314Y-102009522D02*
X128563123Y-102047618D01*
X128563123Y-102047618D02*
X128525028Y-102123808D01*
X128525028Y-102123808D02*
X128525028Y-102238094D01*
X128525028Y-102238094D02*
X128486933Y-102314284D01*
X128486933Y-102314284D02*
X128410742Y-102352380D01*
X128410742Y-102352380D02*
X128372647Y-102352380D01*
X128372647Y-102352380D02*
X128296457Y-102314284D01*
X128296457Y-102314284D02*
X128258361Y-102238094D01*
X128258361Y-102238094D02*
X128258361Y-102123808D01*
X128258361Y-102123808D02*
X128296457Y-102047618D01*
X128372647Y-100790475D02*
X128410742Y-100676189D01*
X128410742Y-100676189D02*
X128448838Y-100638094D01*
X128448838Y-100638094D02*
X128525028Y-100599998D01*
X128525028Y-100599998D02*
X128639314Y-100599998D01*
X128639314Y-100599998D02*
X128715504Y-100638094D01*
X128715504Y-100638094D02*
X128753600Y-100676189D01*
X128753600Y-100676189D02*
X128791695Y-100752379D01*
X128791695Y-100752379D02*
X128791695Y-101057141D01*
X128791695Y-101057141D02*
X127991695Y-101057141D01*
X127991695Y-101057141D02*
X127991695Y-100790475D01*
X127991695Y-100790475D02*
X128029790Y-100714284D01*
X128029790Y-100714284D02*
X128067885Y-100676189D01*
X128067885Y-100676189D02*
X128144076Y-100638094D01*
X128144076Y-100638094D02*
X128220266Y-100638094D01*
X128220266Y-100638094D02*
X128296457Y-100676189D01*
X128296457Y-100676189D02*
X128334552Y-100714284D01*
X128334552Y-100714284D02*
X128372647Y-100790475D01*
X128372647Y-100790475D02*
X128372647Y-101057141D01*
X128563123Y-100295237D02*
X128563123Y-99914284D01*
X128791695Y-100371427D02*
X127991695Y-100104760D01*
X127991695Y-100104760D02*
X128791695Y-99838094D01*
X128791695Y-99571427D02*
X127991695Y-99571427D01*
X127991695Y-99571427D02*
X127991695Y-99380951D01*
X127991695Y-99380951D02*
X128029790Y-99266665D01*
X128029790Y-99266665D02*
X128105980Y-99190475D01*
X128105980Y-99190475D02*
X128182171Y-99152380D01*
X128182171Y-99152380D02*
X128334552Y-99114284D01*
X128334552Y-99114284D02*
X128448838Y-99114284D01*
X128448838Y-99114284D02*
X128601219Y-99152380D01*
X128601219Y-99152380D02*
X128677409Y-99190475D01*
X128677409Y-99190475D02*
X128753600Y-99266665D01*
X128753600Y-99266665D02*
X128791695Y-99380951D01*
X128791695Y-99380951D02*
X128791695Y-99571427D01*
X128715504Y-98771427D02*
X128753600Y-98733332D01*
X128753600Y-98733332D02*
X128791695Y-98771427D01*
X128791695Y-98771427D02*
X128753600Y-98809523D01*
X128753600Y-98809523D02*
X128715504Y-98771427D01*
X128715504Y-98771427D02*
X128791695Y-98771427D01*
X128486933Y-98771427D02*
X128029790Y-98809523D01*
X128029790Y-98809523D02*
X127991695Y-98771427D01*
X127991695Y-98771427D02*
X128029790Y-98733332D01*
X128029790Y-98733332D02*
X128486933Y-98771427D01*
X128486933Y-98771427D02*
X127991695Y-98771427D01*
D12*
X183314286Y-116774428D02*
X183814286Y-118274428D01*
X183814286Y-118274428D02*
X184314286Y-116774428D01*
X185600000Y-118274428D02*
X184742857Y-118274428D01*
X185171428Y-118274428D02*
X185171428Y-116774428D01*
X185171428Y-116774428D02*
X185028571Y-116988714D01*
X185028571Y-116988714D02*
X184885714Y-117131571D01*
X184885714Y-117131571D02*
X184742857Y-117203000D01*
X186242856Y-118131571D02*
X186314285Y-118203000D01*
X186314285Y-118203000D02*
X186242856Y-118274428D01*
X186242856Y-118274428D02*
X186171428Y-118203000D01*
X186171428Y-118203000D02*
X186242856Y-118131571D01*
X186242856Y-118131571D02*
X186242856Y-118274428D01*
X187742857Y-118274428D02*
X186885714Y-118274428D01*
X187314285Y-118274428D02*
X187314285Y-116774428D01*
X187314285Y-116774428D02*
X187171428Y-116988714D01*
X187171428Y-116988714D02*
X187028571Y-117131571D01*
X187028571Y-117131571D02*
X186885714Y-117203000D01*
D13*
X188583773Y-98124809D02*
X188583773Y-98481952D01*
X188583773Y-98481952D02*
X188559964Y-98553380D01*
X188559964Y-98553380D02*
X188512345Y-98601000D01*
X188512345Y-98601000D02*
X188440916Y-98624809D01*
X188440916Y-98624809D02*
X188393297Y-98624809D01*
X189036154Y-98291476D02*
X189036154Y-98624809D01*
X188917106Y-98101000D02*
X188798059Y-98458142D01*
X188798059Y-98458142D02*
X189107582Y-98458142D01*
X183024809Y-98583333D02*
X182786714Y-98749999D01*
X183024809Y-98869047D02*
X182524809Y-98869047D01*
X182524809Y-98869047D02*
X182524809Y-98678571D01*
X182524809Y-98678571D02*
X182548619Y-98630952D01*
X182548619Y-98630952D02*
X182572428Y-98607142D01*
X182572428Y-98607142D02*
X182620047Y-98583333D01*
X182620047Y-98583333D02*
X182691476Y-98583333D01*
X182691476Y-98583333D02*
X182739095Y-98607142D01*
X182739095Y-98607142D02*
X182762904Y-98630952D01*
X182762904Y-98630952D02*
X182786714Y-98678571D01*
X182786714Y-98678571D02*
X182786714Y-98869047D01*
X182739095Y-98297618D02*
X182715285Y-98345237D01*
X182715285Y-98345237D02*
X182691476Y-98369047D01*
X182691476Y-98369047D02*
X182643857Y-98392856D01*
X182643857Y-98392856D02*
X182620047Y-98392856D01*
X182620047Y-98392856D02*
X182572428Y-98369047D01*
X182572428Y-98369047D02*
X182548619Y-98345237D01*
X182548619Y-98345237D02*
X182524809Y-98297618D01*
X182524809Y-98297618D02*
X182524809Y-98202380D01*
X182524809Y-98202380D02*
X182548619Y-98154761D01*
X182548619Y-98154761D02*
X182572428Y-98130952D01*
X182572428Y-98130952D02*
X182620047Y-98107142D01*
X182620047Y-98107142D02*
X182643857Y-98107142D01*
X182643857Y-98107142D02*
X182691476Y-98130952D01*
X182691476Y-98130952D02*
X182715285Y-98154761D01*
X182715285Y-98154761D02*
X182739095Y-98202380D01*
X182739095Y-98202380D02*
X182739095Y-98297618D01*
X182739095Y-98297618D02*
X182762904Y-98345237D01*
X182762904Y-98345237D02*
X182786714Y-98369047D01*
X182786714Y-98369047D02*
X182834333Y-98392856D01*
X182834333Y-98392856D02*
X182929571Y-98392856D01*
X182929571Y-98392856D02*
X182977190Y-98369047D01*
X182977190Y-98369047D02*
X183001000Y-98345237D01*
X183001000Y-98345237D02*
X183024809Y-98297618D01*
X183024809Y-98297618D02*
X183024809Y-98202380D01*
X183024809Y-98202380D02*
X183001000Y-98154761D01*
X183001000Y-98154761D02*
X182977190Y-98130952D01*
X182977190Y-98130952D02*
X182929571Y-98107142D01*
X182929571Y-98107142D02*
X182834333Y-98107142D01*
X182834333Y-98107142D02*
X182786714Y-98130952D01*
X182786714Y-98130952D02*
X182762904Y-98154761D01*
X182762904Y-98154761D02*
X182739095Y-98202380D01*
X154177190Y-107283333D02*
X154201000Y-107307142D01*
X154201000Y-107307142D02*
X154224809Y-107378571D01*
X154224809Y-107378571D02*
X154224809Y-107426190D01*
X154224809Y-107426190D02*
X154201000Y-107497618D01*
X154201000Y-107497618D02*
X154153380Y-107545237D01*
X154153380Y-107545237D02*
X154105761Y-107569047D01*
X154105761Y-107569047D02*
X154010523Y-107592856D01*
X154010523Y-107592856D02*
X153939095Y-107592856D01*
X153939095Y-107592856D02*
X153843857Y-107569047D01*
X153843857Y-107569047D02*
X153796238Y-107545237D01*
X153796238Y-107545237D02*
X153748619Y-107497618D01*
X153748619Y-107497618D02*
X153724809Y-107426190D01*
X153724809Y-107426190D02*
X153724809Y-107378571D01*
X153724809Y-107378571D02*
X153748619Y-107307142D01*
X153748619Y-107307142D02*
X153772428Y-107283333D01*
X154224809Y-107045237D02*
X154224809Y-106949999D01*
X154224809Y-106949999D02*
X154201000Y-106902380D01*
X154201000Y-106902380D02*
X154177190Y-106878571D01*
X154177190Y-106878571D02*
X154105761Y-106830952D01*
X154105761Y-106830952D02*
X154010523Y-106807142D01*
X154010523Y-106807142D02*
X153820047Y-106807142D01*
X153820047Y-106807142D02*
X153772428Y-106830952D01*
X153772428Y-106830952D02*
X153748619Y-106854761D01*
X153748619Y-106854761D02*
X153724809Y-106902380D01*
X153724809Y-106902380D02*
X153724809Y-106997618D01*
X153724809Y-106997618D02*
X153748619Y-107045237D01*
X153748619Y-107045237D02*
X153772428Y-107069047D01*
X153772428Y-107069047D02*
X153820047Y-107092856D01*
X153820047Y-107092856D02*
X153939095Y-107092856D01*
X153939095Y-107092856D02*
X153986714Y-107069047D01*
X153986714Y-107069047D02*
X154010523Y-107045237D01*
X154010523Y-107045237D02*
X154034333Y-106997618D01*
X154034333Y-106997618D02*
X154034333Y-106902380D01*
X154034333Y-106902380D02*
X154010523Y-106854761D01*
X154010523Y-106854761D02*
X153986714Y-106830952D01*
X153986714Y-106830952D02*
X153939095Y-106807142D01*
D14*
X155178571Y-111851619D02*
X155464285Y-111946857D01*
X155464285Y-111946857D02*
X155559523Y-112042095D01*
X155559523Y-112042095D02*
X155654761Y-112232571D01*
X155654761Y-112232571D02*
X155654761Y-112518285D01*
X155654761Y-112518285D02*
X155559523Y-112708761D01*
X155559523Y-112708761D02*
X155464285Y-112804000D01*
X155464285Y-112804000D02*
X155273809Y-112899238D01*
X155273809Y-112899238D02*
X154511904Y-112899238D01*
X154511904Y-112899238D02*
X154511904Y-110899238D01*
X154511904Y-110899238D02*
X155178571Y-110899238D01*
X155178571Y-110899238D02*
X155369047Y-110994476D01*
X155369047Y-110994476D02*
X155464285Y-111089714D01*
X155464285Y-111089714D02*
X155559523Y-111280190D01*
X155559523Y-111280190D02*
X155559523Y-111470666D01*
X155559523Y-111470666D02*
X155464285Y-111661142D01*
X155464285Y-111661142D02*
X155369047Y-111756380D01*
X155369047Y-111756380D02*
X155178571Y-111851619D01*
X155178571Y-111851619D02*
X154511904Y-111851619D01*
X156226190Y-110899238D02*
X157369047Y-110899238D01*
X156797618Y-112899238D02*
X156797618Y-110899238D01*
X159083333Y-112899238D02*
X157940476Y-112899238D01*
X158511904Y-112899238D02*
X158511904Y-110899238D01*
X158511904Y-110899238D02*
X158321428Y-111184952D01*
X158321428Y-111184952D02*
X158130952Y-111375428D01*
X158130952Y-111375428D02*
X157940476Y-111470666D01*
D13*
X183078571Y-107424809D02*
X182911905Y-107186714D01*
X182792857Y-107424809D02*
X182792857Y-106924809D01*
X182792857Y-106924809D02*
X182983333Y-106924809D01*
X182983333Y-106924809D02*
X183030952Y-106948619D01*
X183030952Y-106948619D02*
X183054762Y-106972428D01*
X183054762Y-106972428D02*
X183078571Y-107020047D01*
X183078571Y-107020047D02*
X183078571Y-107091476D01*
X183078571Y-107091476D02*
X183054762Y-107139095D01*
X183054762Y-107139095D02*
X183030952Y-107162904D01*
X183030952Y-107162904D02*
X182983333Y-107186714D01*
X182983333Y-107186714D02*
X182792857Y-107186714D01*
X183554762Y-107424809D02*
X183269048Y-107424809D01*
X183411905Y-107424809D02*
X183411905Y-106924809D01*
X183411905Y-106924809D02*
X183364286Y-106996238D01*
X183364286Y-106996238D02*
X183316667Y-107043857D01*
X183316667Y-107043857D02*
X183269048Y-107067666D01*
X184030952Y-107424809D02*
X183745238Y-107424809D01*
X183888095Y-107424809D02*
X183888095Y-106924809D01*
X183888095Y-106924809D02*
X183840476Y-106996238D01*
X183840476Y-106996238D02*
X183792857Y-107043857D01*
X183792857Y-107043857D02*
X183745238Y-107067666D01*
X151777190Y-100021428D02*
X151801000Y-100045237D01*
X151801000Y-100045237D02*
X151824809Y-100116666D01*
X151824809Y-100116666D02*
X151824809Y-100164285D01*
X151824809Y-100164285D02*
X151801000Y-100235713D01*
X151801000Y-100235713D02*
X151753380Y-100283332D01*
X151753380Y-100283332D02*
X151705761Y-100307142D01*
X151705761Y-100307142D02*
X151610523Y-100330951D01*
X151610523Y-100330951D02*
X151539095Y-100330951D01*
X151539095Y-100330951D02*
X151443857Y-100307142D01*
X151443857Y-100307142D02*
X151396238Y-100283332D01*
X151396238Y-100283332D02*
X151348619Y-100235713D01*
X151348619Y-100235713D02*
X151324809Y-100164285D01*
X151324809Y-100164285D02*
X151324809Y-100116666D01*
X151324809Y-100116666D02*
X151348619Y-100045237D01*
X151348619Y-100045237D02*
X151372428Y-100021428D01*
X151372428Y-99830951D02*
X151348619Y-99807142D01*
X151348619Y-99807142D02*
X151324809Y-99759523D01*
X151324809Y-99759523D02*
X151324809Y-99640475D01*
X151324809Y-99640475D02*
X151348619Y-99592856D01*
X151348619Y-99592856D02*
X151372428Y-99569047D01*
X151372428Y-99569047D02*
X151420047Y-99545237D01*
X151420047Y-99545237D02*
X151467666Y-99545237D01*
X151467666Y-99545237D02*
X151539095Y-99569047D01*
X151539095Y-99569047D02*
X151824809Y-99854761D01*
X151824809Y-99854761D02*
X151824809Y-99545237D01*
X151324809Y-99235714D02*
X151324809Y-99188095D01*
X151324809Y-99188095D02*
X151348619Y-99140476D01*
X151348619Y-99140476D02*
X151372428Y-99116666D01*
X151372428Y-99116666D02*
X151420047Y-99092857D01*
X151420047Y-99092857D02*
X151515285Y-99069047D01*
X151515285Y-99069047D02*
X151634333Y-99069047D01*
X151634333Y-99069047D02*
X151729571Y-99092857D01*
X151729571Y-99092857D02*
X151777190Y-99116666D01*
X151777190Y-99116666D02*
X151801000Y-99140476D01*
X151801000Y-99140476D02*
X151824809Y-99188095D01*
X151824809Y-99188095D02*
X151824809Y-99235714D01*
X151824809Y-99235714D02*
X151801000Y-99283333D01*
X151801000Y-99283333D02*
X151777190Y-99307142D01*
X151777190Y-99307142D02*
X151729571Y-99330952D01*
X151729571Y-99330952D02*
X151634333Y-99354761D01*
X151634333Y-99354761D02*
X151515285Y-99354761D01*
X151515285Y-99354761D02*
X151420047Y-99330952D01*
X151420047Y-99330952D02*
X151372428Y-99307142D01*
X151372428Y-99307142D02*
X151348619Y-99283333D01*
X151348619Y-99283333D02*
X151324809Y-99235714D01*
X159033333Y-94924809D02*
X159033333Y-95281952D01*
X159033333Y-95281952D02*
X159009524Y-95353380D01*
X159009524Y-95353380D02*
X158961905Y-95401000D01*
X158961905Y-95401000D02*
X158890476Y-95424809D01*
X158890476Y-95424809D02*
X158842857Y-95424809D01*
X159223809Y-94924809D02*
X159533333Y-94924809D01*
X159533333Y-94924809D02*
X159366666Y-95115285D01*
X159366666Y-95115285D02*
X159438095Y-95115285D01*
X159438095Y-95115285D02*
X159485714Y-95139095D01*
X159485714Y-95139095D02*
X159509523Y-95162904D01*
X159509523Y-95162904D02*
X159533333Y-95210523D01*
X159533333Y-95210523D02*
X159533333Y-95329571D01*
X159533333Y-95329571D02*
X159509523Y-95377190D01*
X159509523Y-95377190D02*
X159485714Y-95401000D01*
X159485714Y-95401000D02*
X159438095Y-95424809D01*
X159438095Y-95424809D02*
X159295238Y-95424809D01*
X159295238Y-95424809D02*
X159247619Y-95401000D01*
X159247619Y-95401000D02*
X159223809Y-95377190D01*
X160016666Y-102777190D02*
X159992857Y-102801000D01*
X159992857Y-102801000D02*
X159921428Y-102824809D01*
X159921428Y-102824809D02*
X159873809Y-102824809D01*
X159873809Y-102824809D02*
X159802381Y-102801000D01*
X159802381Y-102801000D02*
X159754762Y-102753380D01*
X159754762Y-102753380D02*
X159730952Y-102705761D01*
X159730952Y-102705761D02*
X159707143Y-102610523D01*
X159707143Y-102610523D02*
X159707143Y-102539095D01*
X159707143Y-102539095D02*
X159730952Y-102443857D01*
X159730952Y-102443857D02*
X159754762Y-102396238D01*
X159754762Y-102396238D02*
X159802381Y-102348619D01*
X159802381Y-102348619D02*
X159873809Y-102324809D01*
X159873809Y-102324809D02*
X159921428Y-102324809D01*
X159921428Y-102324809D02*
X159992857Y-102348619D01*
X159992857Y-102348619D02*
X160016666Y-102372428D01*
X160302381Y-102539095D02*
X160254762Y-102515285D01*
X160254762Y-102515285D02*
X160230952Y-102491476D01*
X160230952Y-102491476D02*
X160207143Y-102443857D01*
X160207143Y-102443857D02*
X160207143Y-102420047D01*
X160207143Y-102420047D02*
X160230952Y-102372428D01*
X160230952Y-102372428D02*
X160254762Y-102348619D01*
X160254762Y-102348619D02*
X160302381Y-102324809D01*
X160302381Y-102324809D02*
X160397619Y-102324809D01*
X160397619Y-102324809D02*
X160445238Y-102348619D01*
X160445238Y-102348619D02*
X160469047Y-102372428D01*
X160469047Y-102372428D02*
X160492857Y-102420047D01*
X160492857Y-102420047D02*
X160492857Y-102443857D01*
X160492857Y-102443857D02*
X160469047Y-102491476D01*
X160469047Y-102491476D02*
X160445238Y-102515285D01*
X160445238Y-102515285D02*
X160397619Y-102539095D01*
X160397619Y-102539095D02*
X160302381Y-102539095D01*
X160302381Y-102539095D02*
X160254762Y-102562904D01*
X160254762Y-102562904D02*
X160230952Y-102586714D01*
X160230952Y-102586714D02*
X160207143Y-102634333D01*
X160207143Y-102634333D02*
X160207143Y-102729571D01*
X160207143Y-102729571D02*
X160230952Y-102777190D01*
X160230952Y-102777190D02*
X160254762Y-102801000D01*
X160254762Y-102801000D02*
X160302381Y-102824809D01*
X160302381Y-102824809D02*
X160397619Y-102824809D01*
X160397619Y-102824809D02*
X160445238Y-102801000D01*
X160445238Y-102801000D02*
X160469047Y-102777190D01*
X160469047Y-102777190D02*
X160492857Y-102729571D01*
X160492857Y-102729571D02*
X160492857Y-102634333D01*
X160492857Y-102634333D02*
X160469047Y-102586714D01*
X160469047Y-102586714D02*
X160445238Y-102562904D01*
X160445238Y-102562904D02*
X160397619Y-102539095D01*
X159016666Y-108077190D02*
X158992857Y-108101000D01*
X158992857Y-108101000D02*
X158921428Y-108124809D01*
X158921428Y-108124809D02*
X158873809Y-108124809D01*
X158873809Y-108124809D02*
X158802381Y-108101000D01*
X158802381Y-108101000D02*
X158754762Y-108053380D01*
X158754762Y-108053380D02*
X158730952Y-108005761D01*
X158730952Y-108005761D02*
X158707143Y-107910523D01*
X158707143Y-107910523D02*
X158707143Y-107839095D01*
X158707143Y-107839095D02*
X158730952Y-107743857D01*
X158730952Y-107743857D02*
X158754762Y-107696238D01*
X158754762Y-107696238D02*
X158802381Y-107648619D01*
X158802381Y-107648619D02*
X158873809Y-107624809D01*
X158873809Y-107624809D02*
X158921428Y-107624809D01*
X158921428Y-107624809D02*
X158992857Y-107648619D01*
X158992857Y-107648619D02*
X159016666Y-107672428D01*
X159183333Y-107624809D02*
X159516666Y-107624809D01*
X159516666Y-107624809D02*
X159302381Y-108124809D01*
X180452380Y-107472428D02*
X180404761Y-107448619D01*
X180404761Y-107448619D02*
X180357142Y-107401000D01*
X180357142Y-107401000D02*
X180285714Y-107329571D01*
X180285714Y-107329571D02*
X180238095Y-107305761D01*
X180238095Y-107305761D02*
X180190476Y-107305761D01*
X180214285Y-107424809D02*
X180166666Y-107401000D01*
X180166666Y-107401000D02*
X180119047Y-107353380D01*
X180119047Y-107353380D02*
X180095238Y-107258142D01*
X180095238Y-107258142D02*
X180095238Y-107091476D01*
X180095238Y-107091476D02*
X180119047Y-106996238D01*
X180119047Y-106996238D02*
X180166666Y-106948619D01*
X180166666Y-106948619D02*
X180214285Y-106924809D01*
X180214285Y-106924809D02*
X180309523Y-106924809D01*
X180309523Y-106924809D02*
X180357142Y-106948619D01*
X180357142Y-106948619D02*
X180404761Y-106996238D01*
X180404761Y-106996238D02*
X180428571Y-107091476D01*
X180428571Y-107091476D02*
X180428571Y-107258142D01*
X180428571Y-107258142D02*
X180404761Y-107353380D01*
X180404761Y-107353380D02*
X180357142Y-107401000D01*
X180357142Y-107401000D02*
X180309523Y-107424809D01*
X180309523Y-107424809D02*
X180214285Y-107424809D01*
X180904762Y-107424809D02*
X180619048Y-107424809D01*
X180761905Y-107424809D02*
X180761905Y-106924809D01*
X180761905Y-106924809D02*
X180714286Y-106996238D01*
X180714286Y-106996238D02*
X180666667Y-107043857D01*
X180666667Y-107043857D02*
X180619048Y-107067666D01*
X165197619Y-96562904D02*
X165269047Y-96586714D01*
X165269047Y-96586714D02*
X165292857Y-96610523D01*
X165292857Y-96610523D02*
X165316666Y-96658142D01*
X165316666Y-96658142D02*
X165316666Y-96729571D01*
X165316666Y-96729571D02*
X165292857Y-96777190D01*
X165292857Y-96777190D02*
X165269047Y-96801000D01*
X165269047Y-96801000D02*
X165221428Y-96824809D01*
X165221428Y-96824809D02*
X165030952Y-96824809D01*
X165030952Y-96824809D02*
X165030952Y-96324809D01*
X165030952Y-96324809D02*
X165197619Y-96324809D01*
X165197619Y-96324809D02*
X165245238Y-96348619D01*
X165245238Y-96348619D02*
X165269047Y-96372428D01*
X165269047Y-96372428D02*
X165292857Y-96420047D01*
X165292857Y-96420047D02*
X165292857Y-96467666D01*
X165292857Y-96467666D02*
X165269047Y-96515285D01*
X165269047Y-96515285D02*
X165245238Y-96539095D01*
X165245238Y-96539095D02*
X165197619Y-96562904D01*
X165197619Y-96562904D02*
X165030952Y-96562904D01*
X165792857Y-96824809D02*
X165507143Y-96824809D01*
X165650000Y-96824809D02*
X165650000Y-96324809D01*
X165650000Y-96324809D02*
X165602381Y-96396238D01*
X165602381Y-96396238D02*
X165554762Y-96443857D01*
X165554762Y-96443857D02*
X165507143Y-96467666D01*
X163224809Y-96783333D02*
X162986714Y-96949999D01*
X163224809Y-97069047D02*
X162724809Y-97069047D01*
X162724809Y-97069047D02*
X162724809Y-96878571D01*
X162724809Y-96878571D02*
X162748619Y-96830952D01*
X162748619Y-96830952D02*
X162772428Y-96807142D01*
X162772428Y-96807142D02*
X162820047Y-96783333D01*
X162820047Y-96783333D02*
X162891476Y-96783333D01*
X162891476Y-96783333D02*
X162939095Y-96807142D01*
X162939095Y-96807142D02*
X162962904Y-96830952D01*
X162962904Y-96830952D02*
X162986714Y-96878571D01*
X162986714Y-96878571D02*
X162986714Y-97069047D01*
X162772428Y-96592856D02*
X162748619Y-96569047D01*
X162748619Y-96569047D02*
X162724809Y-96521428D01*
X162724809Y-96521428D02*
X162724809Y-96402380D01*
X162724809Y-96402380D02*
X162748619Y-96354761D01*
X162748619Y-96354761D02*
X162772428Y-96330952D01*
X162772428Y-96330952D02*
X162820047Y-96307142D01*
X162820047Y-96307142D02*
X162867666Y-96307142D01*
X162867666Y-96307142D02*
X162939095Y-96330952D01*
X162939095Y-96330952D02*
X163224809Y-96616666D01*
X163224809Y-96616666D02*
X163224809Y-96307142D01*
X186424809Y-109669047D02*
X185924809Y-109669047D01*
X185924809Y-109669047D02*
X185924809Y-109549999D01*
X185924809Y-109549999D02*
X185948619Y-109478571D01*
X185948619Y-109478571D02*
X185996238Y-109430952D01*
X185996238Y-109430952D02*
X186043857Y-109407142D01*
X186043857Y-109407142D02*
X186139095Y-109383333D01*
X186139095Y-109383333D02*
X186210523Y-109383333D01*
X186210523Y-109383333D02*
X186305761Y-109407142D01*
X186305761Y-109407142D02*
X186353380Y-109430952D01*
X186353380Y-109430952D02*
X186401000Y-109478571D01*
X186401000Y-109478571D02*
X186424809Y-109549999D01*
X186424809Y-109549999D02*
X186424809Y-109669047D01*
X185972428Y-109192856D02*
X185948619Y-109169047D01*
X185948619Y-109169047D02*
X185924809Y-109121428D01*
X185924809Y-109121428D02*
X185924809Y-109002380D01*
X185924809Y-109002380D02*
X185948619Y-108954761D01*
X185948619Y-108954761D02*
X185972428Y-108930952D01*
X185972428Y-108930952D02*
X186020047Y-108907142D01*
X186020047Y-108907142D02*
X186067666Y-108907142D01*
X186067666Y-108907142D02*
X186139095Y-108930952D01*
X186139095Y-108930952D02*
X186424809Y-109216666D01*
X186424809Y-109216666D02*
X186424809Y-108907142D01*
X134962904Y-110466665D02*
X134962904Y-110633332D01*
X135224809Y-110633332D02*
X134724809Y-110633332D01*
X134724809Y-110633332D02*
X134724809Y-110395237D01*
X135224809Y-109942856D02*
X135224809Y-110228570D01*
X135224809Y-110085713D02*
X134724809Y-110085713D01*
X134724809Y-110085713D02*
X134796238Y-110133332D01*
X134796238Y-110133332D02*
X134843857Y-110180951D01*
X134843857Y-110180951D02*
X134867666Y-110228570D01*
X135383333Y-92624809D02*
X135383333Y-92981952D01*
X135383333Y-92981952D02*
X135359524Y-93053380D01*
X135359524Y-93053380D02*
X135311905Y-93101000D01*
X135311905Y-93101000D02*
X135240476Y-93124809D01*
X135240476Y-93124809D02*
X135192857Y-93124809D01*
X135621428Y-93124809D02*
X135621428Y-92624809D01*
X135621428Y-92624809D02*
X135811904Y-92624809D01*
X135811904Y-92624809D02*
X135859523Y-92648619D01*
X135859523Y-92648619D02*
X135883333Y-92672428D01*
X135883333Y-92672428D02*
X135907142Y-92720047D01*
X135907142Y-92720047D02*
X135907142Y-92791476D01*
X135907142Y-92791476D02*
X135883333Y-92839095D01*
X135883333Y-92839095D02*
X135859523Y-92862904D01*
X135859523Y-92862904D02*
X135811904Y-92886714D01*
X135811904Y-92886714D02*
X135621428Y-92886714D01*
X136383333Y-93124809D02*
X136097619Y-93124809D01*
X136240476Y-93124809D02*
X136240476Y-92624809D01*
X136240476Y-92624809D02*
X136192857Y-92696238D01*
X136192857Y-92696238D02*
X136145238Y-92743857D01*
X136145238Y-92743857D02*
X136097619Y-92767666D01*
X161777190Y-104883333D02*
X161801000Y-104907142D01*
X161801000Y-104907142D02*
X161824809Y-104978571D01*
X161824809Y-104978571D02*
X161824809Y-105026190D01*
X161824809Y-105026190D02*
X161801000Y-105097618D01*
X161801000Y-105097618D02*
X161753380Y-105145237D01*
X161753380Y-105145237D02*
X161705761Y-105169047D01*
X161705761Y-105169047D02*
X161610523Y-105192856D01*
X161610523Y-105192856D02*
X161539095Y-105192856D01*
X161539095Y-105192856D02*
X161443857Y-105169047D01*
X161443857Y-105169047D02*
X161396238Y-105145237D01*
X161396238Y-105145237D02*
X161348619Y-105097618D01*
X161348619Y-105097618D02*
X161324809Y-105026190D01*
X161324809Y-105026190D02*
X161324809Y-104978571D01*
X161324809Y-104978571D02*
X161348619Y-104907142D01*
X161348619Y-104907142D02*
X161372428Y-104883333D01*
X161491476Y-104454761D02*
X161824809Y-104454761D01*
X161301000Y-104573809D02*
X161658142Y-104692856D01*
X161658142Y-104692856D02*
X161658142Y-104383333D01*
X155377190Y-101521428D02*
X155401000Y-101545237D01*
X155401000Y-101545237D02*
X155424809Y-101616666D01*
X155424809Y-101616666D02*
X155424809Y-101664285D01*
X155424809Y-101664285D02*
X155401000Y-101735713D01*
X155401000Y-101735713D02*
X155353380Y-101783332D01*
X155353380Y-101783332D02*
X155305761Y-101807142D01*
X155305761Y-101807142D02*
X155210523Y-101830951D01*
X155210523Y-101830951D02*
X155139095Y-101830951D01*
X155139095Y-101830951D02*
X155043857Y-101807142D01*
X155043857Y-101807142D02*
X154996238Y-101783332D01*
X154996238Y-101783332D02*
X154948619Y-101735713D01*
X154948619Y-101735713D02*
X154924809Y-101664285D01*
X154924809Y-101664285D02*
X154924809Y-101616666D01*
X154924809Y-101616666D02*
X154948619Y-101545237D01*
X154948619Y-101545237D02*
X154972428Y-101521428D01*
X155424809Y-101045237D02*
X155424809Y-101330951D01*
X155424809Y-101188094D02*
X154924809Y-101188094D01*
X154924809Y-101188094D02*
X154996238Y-101235713D01*
X154996238Y-101235713D02*
X155043857Y-101283332D01*
X155043857Y-101283332D02*
X155067666Y-101330951D01*
X155424809Y-100569047D02*
X155424809Y-100854761D01*
X155424809Y-100711904D02*
X154924809Y-100711904D01*
X154924809Y-100711904D02*
X154996238Y-100759523D01*
X154996238Y-100759523D02*
X155043857Y-100807142D01*
X155043857Y-100807142D02*
X155067666Y-100854761D01*
X124583393Y-98024809D02*
X124583393Y-98381952D01*
X124583393Y-98381952D02*
X124559584Y-98453380D01*
X124559584Y-98453380D02*
X124511965Y-98501000D01*
X124511965Y-98501000D02*
X124440536Y-98524809D01*
X124440536Y-98524809D02*
X124392917Y-98524809D01*
X124797679Y-98072428D02*
X124821488Y-98048619D01*
X124821488Y-98048619D02*
X124869107Y-98024809D01*
X124869107Y-98024809D02*
X124988155Y-98024809D01*
X124988155Y-98024809D02*
X125035774Y-98048619D01*
X125035774Y-98048619D02*
X125059583Y-98072428D01*
X125059583Y-98072428D02*
X125083393Y-98120047D01*
X125083393Y-98120047D02*
X125083393Y-98167666D01*
X125083393Y-98167666D02*
X125059583Y-98239095D01*
X125059583Y-98239095D02*
X124773869Y-98524809D01*
X124773869Y-98524809D02*
X125083393Y-98524809D01*
X152777190Y-102183333D02*
X152801000Y-102207142D01*
X152801000Y-102207142D02*
X152824809Y-102278571D01*
X152824809Y-102278571D02*
X152824809Y-102326190D01*
X152824809Y-102326190D02*
X152801000Y-102397618D01*
X152801000Y-102397618D02*
X152753380Y-102445237D01*
X152753380Y-102445237D02*
X152705761Y-102469047D01*
X152705761Y-102469047D02*
X152610523Y-102492856D01*
X152610523Y-102492856D02*
X152539095Y-102492856D01*
X152539095Y-102492856D02*
X152443857Y-102469047D01*
X152443857Y-102469047D02*
X152396238Y-102445237D01*
X152396238Y-102445237D02*
X152348619Y-102397618D01*
X152348619Y-102397618D02*
X152324809Y-102326190D01*
X152324809Y-102326190D02*
X152324809Y-102278571D01*
X152324809Y-102278571D02*
X152348619Y-102207142D01*
X152348619Y-102207142D02*
X152372428Y-102183333D01*
X152324809Y-102016666D02*
X152324809Y-101707142D01*
X152324809Y-101707142D02*
X152515285Y-101873809D01*
X152515285Y-101873809D02*
X152515285Y-101802380D01*
X152515285Y-101802380D02*
X152539095Y-101754761D01*
X152539095Y-101754761D02*
X152562904Y-101730952D01*
X152562904Y-101730952D02*
X152610523Y-101707142D01*
X152610523Y-101707142D02*
X152729571Y-101707142D01*
X152729571Y-101707142D02*
X152777190Y-101730952D01*
X152777190Y-101730952D02*
X152801000Y-101754761D01*
X152801000Y-101754761D02*
X152824809Y-101802380D01*
X152824809Y-101802380D02*
X152824809Y-101945237D01*
X152824809Y-101945237D02*
X152801000Y-101992856D01*
X152801000Y-101992856D02*
X152777190Y-102016666D01*
X140030953Y-103324809D02*
X140316667Y-103324809D01*
X140173810Y-103824809D02*
X140173810Y-103324809D01*
X140483333Y-103824809D02*
X140483333Y-103324809D01*
X140483333Y-103324809D02*
X140673809Y-103324809D01*
X140673809Y-103324809D02*
X140721428Y-103348619D01*
X140721428Y-103348619D02*
X140745238Y-103372428D01*
X140745238Y-103372428D02*
X140769047Y-103420047D01*
X140769047Y-103420047D02*
X140769047Y-103491476D01*
X140769047Y-103491476D02*
X140745238Y-103539095D01*
X140745238Y-103539095D02*
X140721428Y-103562904D01*
X140721428Y-103562904D02*
X140673809Y-103586714D01*
X140673809Y-103586714D02*
X140483333Y-103586714D01*
X141245238Y-103824809D02*
X140959524Y-103824809D01*
X141102381Y-103824809D02*
X141102381Y-103324809D01*
X141102381Y-103324809D02*
X141054762Y-103396238D01*
X141054762Y-103396238D02*
X141007143Y-103443857D01*
X141007143Y-103443857D02*
X140959524Y-103467666D01*
X141721428Y-103824809D02*
X141435714Y-103824809D01*
X141578571Y-103824809D02*
X141578571Y-103324809D01*
X141578571Y-103324809D02*
X141530952Y-103396238D01*
X141530952Y-103396238D02*
X141483333Y-103443857D01*
X141483333Y-103443857D02*
X141435714Y-103467666D01*
X188024809Y-102330951D02*
X188024809Y-102045237D01*
X188524809Y-102188094D02*
X188024809Y-102188094D01*
X188524809Y-101878571D02*
X188024809Y-101878571D01*
X188024809Y-101878571D02*
X188024809Y-101688095D01*
X188024809Y-101688095D02*
X188048619Y-101640476D01*
X188048619Y-101640476D02*
X188072428Y-101616666D01*
X188072428Y-101616666D02*
X188120047Y-101592857D01*
X188120047Y-101592857D02*
X188191476Y-101592857D01*
X188191476Y-101592857D02*
X188239095Y-101616666D01*
X188239095Y-101616666D02*
X188262904Y-101640476D01*
X188262904Y-101640476D02*
X188286714Y-101688095D01*
X188286714Y-101688095D02*
X188286714Y-101878571D01*
X188191476Y-101164285D02*
X188524809Y-101164285D01*
X188001000Y-101283333D02*
X188358142Y-101402380D01*
X188358142Y-101402380D02*
X188358142Y-101092857D01*
X179716666Y-102524809D02*
X179550000Y-102286714D01*
X179430952Y-102524809D02*
X179430952Y-102024809D01*
X179430952Y-102024809D02*
X179621428Y-102024809D01*
X179621428Y-102024809D02*
X179669047Y-102048619D01*
X179669047Y-102048619D02*
X179692857Y-102072428D01*
X179692857Y-102072428D02*
X179716666Y-102120047D01*
X179716666Y-102120047D02*
X179716666Y-102191476D01*
X179716666Y-102191476D02*
X179692857Y-102239095D01*
X179692857Y-102239095D02*
X179669047Y-102262904D01*
X179669047Y-102262904D02*
X179621428Y-102286714D01*
X179621428Y-102286714D02*
X179430952Y-102286714D01*
X179883333Y-102024809D02*
X180216666Y-102024809D01*
X180216666Y-102024809D02*
X180002381Y-102524809D01*
X163816666Y-102877190D02*
X163792857Y-102901000D01*
X163792857Y-102901000D02*
X163721428Y-102924809D01*
X163721428Y-102924809D02*
X163673809Y-102924809D01*
X163673809Y-102924809D02*
X163602381Y-102901000D01*
X163602381Y-102901000D02*
X163554762Y-102853380D01*
X163554762Y-102853380D02*
X163530952Y-102805761D01*
X163530952Y-102805761D02*
X163507143Y-102710523D01*
X163507143Y-102710523D02*
X163507143Y-102639095D01*
X163507143Y-102639095D02*
X163530952Y-102543857D01*
X163530952Y-102543857D02*
X163554762Y-102496238D01*
X163554762Y-102496238D02*
X163602381Y-102448619D01*
X163602381Y-102448619D02*
X163673809Y-102424809D01*
X163673809Y-102424809D02*
X163721428Y-102424809D01*
X163721428Y-102424809D02*
X163792857Y-102448619D01*
X163792857Y-102448619D02*
X163816666Y-102472428D01*
X164269047Y-102424809D02*
X164030952Y-102424809D01*
X164030952Y-102424809D02*
X164007143Y-102662904D01*
X164007143Y-102662904D02*
X164030952Y-102639095D01*
X164030952Y-102639095D02*
X164078571Y-102615285D01*
X164078571Y-102615285D02*
X164197619Y-102615285D01*
X164197619Y-102615285D02*
X164245238Y-102639095D01*
X164245238Y-102639095D02*
X164269047Y-102662904D01*
X164269047Y-102662904D02*
X164292857Y-102710523D01*
X164292857Y-102710523D02*
X164292857Y-102829571D01*
X164292857Y-102829571D02*
X164269047Y-102877190D01*
X164269047Y-102877190D02*
X164245238Y-102901000D01*
X164245238Y-102901000D02*
X164197619Y-102924809D01*
X164197619Y-102924809D02*
X164078571Y-102924809D01*
X164078571Y-102924809D02*
X164030952Y-102901000D01*
X164030952Y-102901000D02*
X164007143Y-102877190D01*
D15*
X153449619Y-92233333D02*
X154163904Y-92233333D01*
X154163904Y-92233333D02*
X154306761Y-92280952D01*
X154306761Y-92280952D02*
X154402000Y-92376190D01*
X154402000Y-92376190D02*
X154449619Y-92519047D01*
X154449619Y-92519047D02*
X154449619Y-92614285D01*
X153449619Y-91328571D02*
X153449619Y-91519047D01*
X153449619Y-91519047D02*
X153497238Y-91614285D01*
X153497238Y-91614285D02*
X153544857Y-91661904D01*
X153544857Y-91661904D02*
X153687714Y-91757142D01*
X153687714Y-91757142D02*
X153878190Y-91804761D01*
X153878190Y-91804761D02*
X154259142Y-91804761D01*
X154259142Y-91804761D02*
X154354380Y-91757142D01*
X154354380Y-91757142D02*
X154402000Y-91709523D01*
X154402000Y-91709523D02*
X154449619Y-91614285D01*
X154449619Y-91614285D02*
X154449619Y-91423809D01*
X154449619Y-91423809D02*
X154402000Y-91328571D01*
X154402000Y-91328571D02*
X154354380Y-91280952D01*
X154354380Y-91280952D02*
X154259142Y-91233333D01*
X154259142Y-91233333D02*
X154021047Y-91233333D01*
X154021047Y-91233333D02*
X153925809Y-91280952D01*
X153925809Y-91280952D02*
X153878190Y-91328571D01*
X153878190Y-91328571D02*
X153830571Y-91423809D01*
X153830571Y-91423809D02*
X153830571Y-91614285D01*
X153830571Y-91614285D02*
X153878190Y-91709523D01*
X153878190Y-91709523D02*
X153925809Y-91757142D01*
X153925809Y-91757142D02*
X154021047Y-91804761D01*
D13*
X154082953Y-94924809D02*
X154082953Y-95281952D01*
X154082953Y-95281952D02*
X154059144Y-95353380D01*
X154059144Y-95353380D02*
X154011525Y-95401000D01*
X154011525Y-95401000D02*
X153940096Y-95424809D01*
X153940096Y-95424809D02*
X153892477Y-95424809D01*
X154559143Y-94924809D02*
X154321048Y-94924809D01*
X154321048Y-94924809D02*
X154297239Y-95162904D01*
X154297239Y-95162904D02*
X154321048Y-95139095D01*
X154321048Y-95139095D02*
X154368667Y-95115285D01*
X154368667Y-95115285D02*
X154487715Y-95115285D01*
X154487715Y-95115285D02*
X154535334Y-95139095D01*
X154535334Y-95139095D02*
X154559143Y-95162904D01*
X154559143Y-95162904D02*
X154582953Y-95210523D01*
X154582953Y-95210523D02*
X154582953Y-95329571D01*
X154582953Y-95329571D02*
X154559143Y-95377190D01*
X154559143Y-95377190D02*
X154535334Y-95401000D01*
X154535334Y-95401000D02*
X154487715Y-95424809D01*
X154487715Y-95424809D02*
X154368667Y-95424809D01*
X154368667Y-95424809D02*
X154321048Y-95401000D01*
X154321048Y-95401000D02*
X154297239Y-95377190D01*
X167997619Y-96562904D02*
X168069047Y-96586714D01*
X168069047Y-96586714D02*
X168092857Y-96610523D01*
X168092857Y-96610523D02*
X168116666Y-96658142D01*
X168116666Y-96658142D02*
X168116666Y-96729571D01*
X168116666Y-96729571D02*
X168092857Y-96777190D01*
X168092857Y-96777190D02*
X168069047Y-96801000D01*
X168069047Y-96801000D02*
X168021428Y-96824809D01*
X168021428Y-96824809D02*
X167830952Y-96824809D01*
X167830952Y-96824809D02*
X167830952Y-96324809D01*
X167830952Y-96324809D02*
X167997619Y-96324809D01*
X167997619Y-96324809D02*
X168045238Y-96348619D01*
X168045238Y-96348619D02*
X168069047Y-96372428D01*
X168069047Y-96372428D02*
X168092857Y-96420047D01*
X168092857Y-96420047D02*
X168092857Y-96467666D01*
X168092857Y-96467666D02*
X168069047Y-96515285D01*
X168069047Y-96515285D02*
X168045238Y-96539095D01*
X168045238Y-96539095D02*
X167997619Y-96562904D01*
X167997619Y-96562904D02*
X167830952Y-96562904D01*
X168307143Y-96372428D02*
X168330952Y-96348619D01*
X168330952Y-96348619D02*
X168378571Y-96324809D01*
X168378571Y-96324809D02*
X168497619Y-96324809D01*
X168497619Y-96324809D02*
X168545238Y-96348619D01*
X168545238Y-96348619D02*
X168569047Y-96372428D01*
X168569047Y-96372428D02*
X168592857Y-96420047D01*
X168592857Y-96420047D02*
X168592857Y-96467666D01*
X168592857Y-96467666D02*
X168569047Y-96539095D01*
X168569047Y-96539095D02*
X168283333Y-96824809D01*
X168283333Y-96824809D02*
X168592857Y-96824809D01*
D16*
X175091666Y-100254819D02*
X175091666Y-100969104D01*
X175091666Y-100969104D02*
X175044047Y-101111961D01*
X175044047Y-101111961D02*
X174948809Y-101207200D01*
X174948809Y-101207200D02*
X174805952Y-101254819D01*
X174805952Y-101254819D02*
X174710714Y-101254819D01*
X176091666Y-101254819D02*
X175520238Y-101254819D01*
X175805952Y-101254819D02*
X175805952Y-100254819D01*
X175805952Y-100254819D02*
X175710714Y-100397676D01*
X175710714Y-100397676D02*
X175615476Y-100492914D01*
X175615476Y-100492914D02*
X175520238Y-100540533D01*
D13*
X159178571Y-99877190D02*
X159154762Y-99901000D01*
X159154762Y-99901000D02*
X159083333Y-99924809D01*
X159083333Y-99924809D02*
X159035714Y-99924809D01*
X159035714Y-99924809D02*
X158964286Y-99901000D01*
X158964286Y-99901000D02*
X158916667Y-99853380D01*
X158916667Y-99853380D02*
X158892857Y-99805761D01*
X158892857Y-99805761D02*
X158869048Y-99710523D01*
X158869048Y-99710523D02*
X158869048Y-99639095D01*
X158869048Y-99639095D02*
X158892857Y-99543857D01*
X158892857Y-99543857D02*
X158916667Y-99496238D01*
X158916667Y-99496238D02*
X158964286Y-99448619D01*
X158964286Y-99448619D02*
X159035714Y-99424809D01*
X159035714Y-99424809D02*
X159083333Y-99424809D01*
X159083333Y-99424809D02*
X159154762Y-99448619D01*
X159154762Y-99448619D02*
X159178571Y-99472428D01*
X159654762Y-99924809D02*
X159369048Y-99924809D01*
X159511905Y-99924809D02*
X159511905Y-99424809D01*
X159511905Y-99424809D02*
X159464286Y-99496238D01*
X159464286Y-99496238D02*
X159416667Y-99543857D01*
X159416667Y-99543857D02*
X159369048Y-99567666D01*
X159845238Y-99472428D02*
X159869047Y-99448619D01*
X159869047Y-99448619D02*
X159916666Y-99424809D01*
X159916666Y-99424809D02*
X160035714Y-99424809D01*
X160035714Y-99424809D02*
X160083333Y-99448619D01*
X160083333Y-99448619D02*
X160107142Y-99472428D01*
X160107142Y-99472428D02*
X160130952Y-99520047D01*
X160130952Y-99520047D02*
X160130952Y-99567666D01*
X160130952Y-99567666D02*
X160107142Y-99639095D01*
X160107142Y-99639095D02*
X159821428Y-99924809D01*
X159821428Y-99924809D02*
X160130952Y-99924809D01*
X161798008Y-100452576D02*
X161798008Y-100486248D01*
X161798008Y-100486248D02*
X161764336Y-100553591D01*
X161764336Y-100553591D02*
X161730665Y-100587263D01*
X161730665Y-100587263D02*
X161663321Y-100620935D01*
X161663321Y-100620935D02*
X161595978Y-100620935D01*
X161595978Y-100620935D02*
X161545470Y-100604099D01*
X161545470Y-100604099D02*
X161461291Y-100553591D01*
X161461291Y-100553591D02*
X161410783Y-100503084D01*
X161410783Y-100503084D02*
X161360275Y-100418904D01*
X161360275Y-100418904D02*
X161343439Y-100368397D01*
X161343439Y-100368397D02*
X161343439Y-100301053D01*
X161343439Y-100301053D02*
X161377111Y-100233710D01*
X161377111Y-100233710D02*
X161410783Y-100200038D01*
X161410783Y-100200038D02*
X161478126Y-100166366D01*
X161478126Y-100166366D02*
X161511798Y-100166366D01*
X162168397Y-100149530D02*
X161966367Y-100351561D01*
X162067382Y-100250546D02*
X161713829Y-99896992D01*
X161713829Y-99896992D02*
X161730665Y-99981172D01*
X161730665Y-99981172D02*
X161730665Y-100048515D01*
X161730665Y-100048515D02*
X161713829Y-100099023D01*
X162033710Y-99577111D02*
X162067382Y-99543439D01*
X162067382Y-99543439D02*
X162117889Y-99526603D01*
X162117889Y-99526603D02*
X162151561Y-99526603D01*
X162151561Y-99526603D02*
X162202069Y-99543439D01*
X162202069Y-99543439D02*
X162286248Y-99593947D01*
X162286248Y-99593947D02*
X162370428Y-99678126D01*
X162370428Y-99678126D02*
X162420935Y-99762306D01*
X162420935Y-99762306D02*
X162437771Y-99812813D01*
X162437771Y-99812813D02*
X162437771Y-99846485D01*
X162437771Y-99846485D02*
X162420935Y-99896993D01*
X162420935Y-99896993D02*
X162387263Y-99930664D01*
X162387263Y-99930664D02*
X162336756Y-99947500D01*
X162336756Y-99947500D02*
X162303084Y-99947500D01*
X162303084Y-99947500D02*
X162252576Y-99930664D01*
X162252576Y-99930664D02*
X162168397Y-99880157D01*
X162168397Y-99880157D02*
X162084218Y-99795977D01*
X162084218Y-99795977D02*
X162033710Y-99711798D01*
X162033710Y-99711798D02*
X162016874Y-99661290D01*
X162016874Y-99661290D02*
X162016874Y-99627618D01*
X162016874Y-99627618D02*
X162033710Y-99577111D01*
X156878571Y-99377190D02*
X156854762Y-99401000D01*
X156854762Y-99401000D02*
X156783333Y-99424809D01*
X156783333Y-99424809D02*
X156735714Y-99424809D01*
X156735714Y-99424809D02*
X156664286Y-99401000D01*
X156664286Y-99401000D02*
X156616667Y-99353380D01*
X156616667Y-99353380D02*
X156592857Y-99305761D01*
X156592857Y-99305761D02*
X156569048Y-99210523D01*
X156569048Y-99210523D02*
X156569048Y-99139095D01*
X156569048Y-99139095D02*
X156592857Y-99043857D01*
X156592857Y-99043857D02*
X156616667Y-98996238D01*
X156616667Y-98996238D02*
X156664286Y-98948619D01*
X156664286Y-98948619D02*
X156735714Y-98924809D01*
X156735714Y-98924809D02*
X156783333Y-98924809D01*
X156783333Y-98924809D02*
X156854762Y-98948619D01*
X156854762Y-98948619D02*
X156878571Y-98972428D01*
X157354762Y-99424809D02*
X157069048Y-99424809D01*
X157211905Y-99424809D02*
X157211905Y-98924809D01*
X157211905Y-98924809D02*
X157164286Y-98996238D01*
X157164286Y-98996238D02*
X157116667Y-99043857D01*
X157116667Y-99043857D02*
X157069048Y-99067666D01*
X157521428Y-98924809D02*
X157830952Y-98924809D01*
X157830952Y-98924809D02*
X157664285Y-99115285D01*
X157664285Y-99115285D02*
X157735714Y-99115285D01*
X157735714Y-99115285D02*
X157783333Y-99139095D01*
X157783333Y-99139095D02*
X157807142Y-99162904D01*
X157807142Y-99162904D02*
X157830952Y-99210523D01*
X157830952Y-99210523D02*
X157830952Y-99329571D01*
X157830952Y-99329571D02*
X157807142Y-99377190D01*
X157807142Y-99377190D02*
X157783333Y-99401000D01*
X157783333Y-99401000D02*
X157735714Y-99424809D01*
X157735714Y-99424809D02*
X157592857Y-99424809D01*
X157592857Y-99424809D02*
X157545238Y-99401000D01*
X157545238Y-99401000D02*
X157521428Y-99377190D01*
X140083333Y-92624809D02*
X140083333Y-92981952D01*
X140083333Y-92981952D02*
X140059524Y-93053380D01*
X140059524Y-93053380D02*
X140011905Y-93101000D01*
X140011905Y-93101000D02*
X139940476Y-93124809D01*
X139940476Y-93124809D02*
X139892857Y-93124809D01*
X140321428Y-93124809D02*
X140321428Y-92624809D01*
X140321428Y-92624809D02*
X140511904Y-92624809D01*
X140511904Y-92624809D02*
X140559523Y-92648619D01*
X140559523Y-92648619D02*
X140583333Y-92672428D01*
X140583333Y-92672428D02*
X140607142Y-92720047D01*
X140607142Y-92720047D02*
X140607142Y-92791476D01*
X140607142Y-92791476D02*
X140583333Y-92839095D01*
X140583333Y-92839095D02*
X140559523Y-92862904D01*
X140559523Y-92862904D02*
X140511904Y-92886714D01*
X140511904Y-92886714D02*
X140321428Y-92886714D01*
X140797619Y-92672428D02*
X140821428Y-92648619D01*
X140821428Y-92648619D02*
X140869047Y-92624809D01*
X140869047Y-92624809D02*
X140988095Y-92624809D01*
X140988095Y-92624809D02*
X141035714Y-92648619D01*
X141035714Y-92648619D02*
X141059523Y-92672428D01*
X141059523Y-92672428D02*
X141083333Y-92720047D01*
X141083333Y-92720047D02*
X141083333Y-92767666D01*
X141083333Y-92767666D02*
X141059523Y-92839095D01*
X141059523Y-92839095D02*
X140773809Y-93124809D01*
X140773809Y-93124809D02*
X141083333Y-93124809D01*
X152777190Y-104583333D02*
X152801000Y-104607142D01*
X152801000Y-104607142D02*
X152824809Y-104678571D01*
X152824809Y-104678571D02*
X152824809Y-104726190D01*
X152824809Y-104726190D02*
X152801000Y-104797618D01*
X152801000Y-104797618D02*
X152753380Y-104845237D01*
X152753380Y-104845237D02*
X152705761Y-104869047D01*
X152705761Y-104869047D02*
X152610523Y-104892856D01*
X152610523Y-104892856D02*
X152539095Y-104892856D01*
X152539095Y-104892856D02*
X152443857Y-104869047D01*
X152443857Y-104869047D02*
X152396238Y-104845237D01*
X152396238Y-104845237D02*
X152348619Y-104797618D01*
X152348619Y-104797618D02*
X152324809Y-104726190D01*
X152324809Y-104726190D02*
X152324809Y-104678571D01*
X152324809Y-104678571D02*
X152348619Y-104607142D01*
X152348619Y-104607142D02*
X152372428Y-104583333D01*
X152324809Y-104154761D02*
X152324809Y-104249999D01*
X152324809Y-104249999D02*
X152348619Y-104297618D01*
X152348619Y-104297618D02*
X152372428Y-104321428D01*
X152372428Y-104321428D02*
X152443857Y-104369047D01*
X152443857Y-104369047D02*
X152539095Y-104392856D01*
X152539095Y-104392856D02*
X152729571Y-104392856D01*
X152729571Y-104392856D02*
X152777190Y-104369047D01*
X152777190Y-104369047D02*
X152801000Y-104345237D01*
X152801000Y-104345237D02*
X152824809Y-104297618D01*
X152824809Y-104297618D02*
X152824809Y-104202380D01*
X152824809Y-104202380D02*
X152801000Y-104154761D01*
X152801000Y-104154761D02*
X152777190Y-104130952D01*
X152777190Y-104130952D02*
X152729571Y-104107142D01*
X152729571Y-104107142D02*
X152610523Y-104107142D01*
X152610523Y-104107142D02*
X152562904Y-104130952D01*
X152562904Y-104130952D02*
X152539095Y-104154761D01*
X152539095Y-104154761D02*
X152515285Y-104202380D01*
X152515285Y-104202380D02*
X152515285Y-104297618D01*
X152515285Y-104297618D02*
X152539095Y-104345237D01*
X152539095Y-104345237D02*
X152562904Y-104369047D01*
X152562904Y-104369047D02*
X152610523Y-104392856D01*
D17*
X182122500Y-98245276D02*
X182122500Y-98754724D01*
X181077500Y-98245276D02*
X181077500Y-98754724D01*
X155615835Y-107560000D02*
X155384165Y-107560000D01*
X155615835Y-106840000D02*
X155384165Y-106840000D01*
D14*
X147250000Y-117500000D02*
X150250000Y-117500000D01*
X148750000Y-119000000D02*
X148750000Y-116000000D01*
X163250000Y-117500000D02*
X166250000Y-117500000D01*
D18*
X132750000Y-113610000D02*
X180750000Y-113610000D01*
X180750000Y-113610000D02*
X180750000Y-121390000D01*
X180750000Y-121390000D02*
X132750000Y-121390000D01*
X132750000Y-121390000D02*
X132750000Y-113610000D01*
D17*
X183922500Y-109045276D02*
X183922500Y-109554724D01*
X182877500Y-109045276D02*
X182877500Y-109554724D01*
X153846267Y-100210000D02*
X153553733Y-100210000D01*
X153846267Y-99190000D02*
X153553733Y-99190000D01*
X160215835Y-102060000D02*
X159984165Y-102060000D01*
X160215835Y-101340000D02*
X159984165Y-101340000D01*
X159215835Y-107360000D02*
X158984165Y-107360000D01*
X159215835Y-106640000D02*
X158984165Y-106640000D01*
X180500000Y-110860000D02*
X182300000Y-110860000D01*
X180500000Y-110860000D02*
X179700000Y-110860000D01*
X180500000Y-107740000D02*
X181300000Y-107740000D01*
X180500000Y-107740000D02*
X179700000Y-107740000D01*
X164450000Y-91100000D02*
X164550000Y-91100000D01*
X162950000Y-91100000D02*
X162950000Y-95500000D01*
X166050000Y-95500000D02*
X166050000Y-91100000D01*
X164450000Y-95500000D02*
X164550000Y-95500000D01*
X161277500Y-96954724D02*
X161277500Y-96445276D01*
X162322500Y-96954724D02*
X162322500Y-96445276D01*
X185735000Y-107640000D02*
X184265000Y-107640000D01*
X184265000Y-107640000D02*
X184265000Y-110100000D01*
X185735000Y-110100000D02*
X185735000Y-107640000D01*
D19*
X146936956Y-104275593D02*
X146869585Y-104326903D01*
X147007407Y-104218148D02*
X146936956Y-104275593D01*
X147047810Y-104183430D02*
X147007407Y-104218148D01*
X147090135Y-104145459D02*
X147047810Y-104183430D01*
X147133236Y-104104792D02*
X147090135Y-104145459D01*
X147175965Y-104061987D02*
X147133236Y-104104792D01*
X147217176Y-104017601D02*
X147175965Y-104061987D01*
X147255722Y-103972194D02*
X147217176Y-104017601D01*
X147290456Y-103926321D02*
X147255722Y-103972194D01*
X147306035Y-103903385D02*
X147290456Y-103926321D01*
X147320230Y-103880542D02*
X147306035Y-103903385D01*
X147332900Y-103857861D02*
X147320230Y-103880542D01*
X147343899Y-103835413D02*
X147332900Y-103857861D01*
X147353086Y-103813267D02*
X147343899Y-103835413D01*
X147360315Y-103791492D02*
X147353086Y-103813267D01*
X147360315Y-103791492D02*
X147360315Y-103791492D01*
X147369889Y-103753233D02*
X147360315Y-103791492D01*
X147378070Y-103710685D02*
X147369889Y-103753233D01*
X147385018Y-103664555D02*
X147378070Y-103710685D01*
X147390887Y-103615554D02*
X147385018Y-103664555D01*
X147400017Y-103511777D02*
X147390887Y-103615554D01*
X147406715Y-103405029D02*
X147400017Y-103511777D01*
X147417827Y-103205318D02*
X147406715Y-103405029D01*
X147424747Y-103123706D02*
X147417827Y-103205318D01*
X147429096Y-103089945D02*
X147424747Y-103123706D01*
X147434248Y-103061824D02*
X147429096Y-103089945D01*
X147434248Y-103061824D02*
X147434248Y-103061824D01*
X147438942Y-103042098D02*
X147434248Y-103061824D01*
X147444093Y-103022761D02*
X147438942Y-103042098D01*
X147449661Y-103003829D02*
X147444093Y-103022761D01*
X147455605Y-102985316D02*
X147449661Y-103003829D01*
X147461887Y-102967240D02*
X147455605Y-102985316D01*
X147468467Y-102949615D02*
X147461887Y-102967240D01*
X147475304Y-102932457D02*
X147468467Y-102949615D01*
X147482359Y-102915781D02*
X147475304Y-102932457D01*
X147489593Y-102899604D02*
X147482359Y-102915781D01*
X147496965Y-102883940D02*
X147489593Y-102899604D01*
X147504437Y-102868805D02*
X147496965Y-102883940D01*
X147511968Y-102854214D02*
X147504437Y-102868805D01*
X147527049Y-102826730D02*
X147511968Y-102854214D01*
X147541891Y-102801610D02*
X147527049Y-102826730D01*
X147556176Y-102778980D02*
X147541891Y-102801610D01*
X147569587Y-102758964D02*
X147556176Y-102778980D01*
X147581806Y-102741686D02*
X147569587Y-102758964D01*
X147592516Y-102727270D02*
X147581806Y-102741686D01*
X147608136Y-102707524D02*
X147592516Y-102727270D01*
X147613908Y-102700721D02*
X147608136Y-102707524D01*
D20*
X147826125Y-102459209D02*
X147763874Y-102831478D01*
X147428141Y-102685296D01*
X147658257Y-102386105D01*
X147826125Y-102459209D01*
G36*
X147826125Y-102459209D02*
G01*
X147763874Y-102831478D01*
X147428141Y-102685296D01*
X147658257Y-102386105D01*
X147826125Y-102459209D01*
G37*
X148366044Y-99983588D02*
X148392913Y-99984655D01*
X148419800Y-99986395D01*
X148446690Y-99988812D01*
X148473574Y-99991912D01*
X148500439Y-99995700D01*
X148527274Y-100000180D01*
X148554067Y-100005358D01*
X148580806Y-100011238D01*
X148607480Y-100017826D01*
X148634077Y-100025126D01*
X148660585Y-100033144D01*
X148686993Y-100041883D01*
X148713289Y-100051350D01*
X148739462Y-100061549D01*
X148765499Y-100072486D01*
X148816543Y-100096307D01*
X148865782Y-100122482D01*
X148913183Y-100150917D01*
X148958708Y-100181517D01*
X149002322Y-100214189D01*
X149043990Y-100248837D01*
X149083674Y-100285369D01*
X149121341Y-100323689D01*
X149156953Y-100363704D01*
X149190476Y-100405319D01*
X149221872Y-100448440D01*
X149251108Y-100492973D01*
X149278146Y-100538823D01*
X149302951Y-100585897D01*
X149325488Y-100634101D01*
X149345720Y-100683339D01*
X149363612Y-100733518D01*
X149379128Y-100784544D01*
X149392232Y-100836322D01*
X149402889Y-100888759D01*
X149411062Y-100941760D01*
X149416716Y-100995230D01*
X149419815Y-101049076D01*
X149420324Y-101103204D01*
X149418206Y-101157518D01*
X149413426Y-101211926D01*
X149405949Y-101266333D01*
X149395737Y-101320644D01*
X149382756Y-101374766D01*
X149366970Y-101428604D01*
X149348343Y-101482064D01*
X149326839Y-101535052D01*
X149275155Y-101639981D01*
X149211341Y-101746035D01*
X149136576Y-101851709D01*
X149052043Y-101955499D01*
X148958922Y-102055901D01*
X148858395Y-102151411D01*
X148751643Y-102240525D01*
X148639848Y-102321739D01*
X148524191Y-102393550D01*
X148465283Y-102425458D01*
X148405853Y-102454452D01*
X148346048Y-102480342D01*
X148286016Y-102502942D01*
X148225904Y-102522062D01*
X148165860Y-102537516D01*
X148106033Y-102549114D01*
X148046568Y-102556669D01*
X147987615Y-102559994D01*
X147929320Y-102558899D01*
X147871832Y-102553197D01*
X147815299Y-102542701D01*
X147759866Y-102527221D01*
X147705684Y-102506570D01*
X147653656Y-102480974D01*
X147604562Y-102450940D01*
X147558364Y-102416705D01*
X147515027Y-102378505D01*
X147474513Y-102336576D01*
X147436785Y-102291155D01*
X147401805Y-102242477D01*
X147369538Y-102190779D01*
X147339945Y-102136297D01*
X147312990Y-102079267D01*
X147266846Y-101958507D01*
X147230809Y-101830389D01*
X147204584Y-101696803D01*
X147187873Y-101559637D01*
X147180382Y-101420782D01*
X147181813Y-101282125D01*
X147191871Y-101145557D01*
X147210259Y-101012967D01*
X147236682Y-100886245D01*
X147270843Y-100767278D01*
X147312447Y-100657958D01*
X147349526Y-100580864D01*
X147391688Y-100507828D01*
X147438617Y-100438979D01*
X147489997Y-100374444D01*
X147545516Y-100314351D01*
X147604856Y-100258830D01*
X147667704Y-100208008D01*
X147733745Y-100162012D01*
X147802662Y-100120971D01*
X147874143Y-100085014D01*
X147947871Y-100054268D01*
X148023532Y-100028861D01*
X148100810Y-100008922D01*
X148179391Y-99994578D01*
X148258960Y-99985957D01*
X148339202Y-99983189D01*
X148366044Y-99983588D01*
G36*
X148366044Y-99983588D02*
G01*
X148392913Y-99984655D01*
X148419800Y-99986395D01*
X148446690Y-99988812D01*
X148473574Y-99991912D01*
X148500439Y-99995700D01*
X148527274Y-100000180D01*
X148554067Y-100005358D01*
X148580806Y-100011238D01*
X148607480Y-100017826D01*
X148634077Y-100025126D01*
X148660585Y-100033144D01*
X148686993Y-100041883D01*
X148713289Y-100051350D01*
X148739462Y-100061549D01*
X148765499Y-100072486D01*
X148816543Y-100096307D01*
X148865782Y-100122482D01*
X148913183Y-100150917D01*
X148958708Y-100181517D01*
X149002322Y-100214189D01*
X149043990Y-100248837D01*
X149083674Y-100285369D01*
X149121341Y-100323689D01*
X149156953Y-100363704D01*
X149190476Y-100405319D01*
X149221872Y-100448440D01*
X149251108Y-100492973D01*
X149278146Y-100538823D01*
X149302951Y-100585897D01*
X149325488Y-100634101D01*
X149345720Y-100683339D01*
X149363612Y-100733518D01*
X149379128Y-100784544D01*
X149392232Y-100836322D01*
X149402889Y-100888759D01*
X149411062Y-100941760D01*
X149416716Y-100995230D01*
X149419815Y-101049076D01*
X149420324Y-101103204D01*
X149418206Y-101157518D01*
X149413426Y-101211926D01*
X149405949Y-101266333D01*
X149395737Y-101320644D01*
X149382756Y-101374766D01*
X149366970Y-101428604D01*
X149348343Y-101482064D01*
X149326839Y-101535052D01*
X149275155Y-101639981D01*
X149211341Y-101746035D01*
X149136576Y-101851709D01*
X149052043Y-101955499D01*
X148958922Y-102055901D01*
X148858395Y-102151411D01*
X148751643Y-102240525D01*
X148639848Y-102321739D01*
X148524191Y-102393550D01*
X148465283Y-102425458D01*
X148405853Y-102454452D01*
X148346048Y-102480342D01*
X148286016Y-102502942D01*
X148225904Y-102522062D01*
X148165860Y-102537516D01*
X148106033Y-102549114D01*
X148046568Y-102556669D01*
X147987615Y-102559994D01*
X147929320Y-102558899D01*
X147871832Y-102553197D01*
X147815299Y-102542701D01*
X147759866Y-102527221D01*
X147705684Y-102506570D01*
X147653656Y-102480974D01*
X147604562Y-102450940D01*
X147558364Y-102416705D01*
X147515027Y-102378505D01*
X147474513Y-102336576D01*
X147436785Y-102291155D01*
X147401805Y-102242477D01*
X147369538Y-102190779D01*
X147339945Y-102136297D01*
X147312990Y-102079267D01*
X147266846Y-101958507D01*
X147230809Y-101830389D01*
X147204584Y-101696803D01*
X147187873Y-101559637D01*
X147180382Y-101420782D01*
X147181813Y-101282125D01*
X147191871Y-101145557D01*
X147210259Y-101012967D01*
X147236682Y-100886245D01*
X147270843Y-100767278D01*
X147312447Y-100657958D01*
X147349526Y-100580864D01*
X147391688Y-100507828D01*
X147438617Y-100438979D01*
X147489997Y-100374444D01*
X147545516Y-100314351D01*
X147604856Y-100258830D01*
X147667704Y-100208008D01*
X147733745Y-100162012D01*
X147802662Y-100120971D01*
X147874143Y-100085014D01*
X147947871Y-100054268D01*
X148023532Y-100028861D01*
X148100810Y-100008922D01*
X148179391Y-99994578D01*
X148258960Y-99985957D01*
X148339202Y-99983189D01*
X148366044Y-99983588D01*
G37*
D17*
X135590000Y-110561252D02*
X135590000Y-110038748D01*
X137010000Y-110561252D02*
X137010000Y-110038748D01*
X137850000Y-94200000D02*
X137850000Y-94800000D01*
X137300000Y-93000000D02*
X136700000Y-93000000D01*
X137200000Y-95500000D02*
X134400000Y-95500000D01*
X137000000Y-93300000D02*
X137300000Y-93000000D01*
X137000000Y-93300000D02*
X136700000Y-93000000D01*
X134400000Y-93500000D02*
X137200000Y-93500000D01*
X133750000Y-94800000D02*
X133750000Y-94200000D01*
X137150000Y-95500000D02*
G75*
G03*
X137850000Y-94800000I1J699999D01*
G01*
X137850000Y-94200000D02*
G75*
G03*
X137150000Y-93500000I-699999J1D01*
G01*
X133750000Y-94800000D02*
G75*
G03*
X134450000Y-95500000I700000J0D01*
G01*
X134450000Y-93500000D02*
G75*
G03*
X133750000Y-94200000I0J-700000D01*
G01*
X161060000Y-104384165D02*
X161060000Y-104615835D01*
X160340000Y-104384165D02*
X160340000Y-104615835D01*
X156460000Y-100584165D02*
X156460000Y-100815835D01*
X155740000Y-100584165D02*
X155740000Y-100815835D01*
X153140000Y-102215835D02*
X153140000Y-101984165D01*
X153860000Y-102215835D02*
X153860000Y-101984165D01*
X141600000Y-102200000D02*
G75*
G03*
X141600000Y-102200000I-700000J0D01*
G01*
D16*
X187600000Y-101700000D02*
G75*
G03*
X187600000Y-101700000I-1400000J0D01*
G01*
D17*
X179545276Y-100577500D02*
X180054724Y-100577500D01*
X179545276Y-101622500D02*
X180054724Y-101622500D01*
X163784165Y-103240000D02*
X164015835Y-103240000D01*
X163784165Y-103960000D02*
X164015835Y-103960000D01*
D21*
X148730000Y-91201500D02*
X148730000Y-92090500D01*
X147460000Y-91201500D02*
X147460000Y-92090500D01*
X148730000Y-91201500D02*
G75*
G03*
X147460000Y-91201500I-635000J0D01*
G01*
D17*
X168250000Y-95500000D02*
X168150000Y-95500000D01*
X169750000Y-95500000D02*
X169750000Y-91100000D01*
X166650000Y-91100000D02*
X166650000Y-95500000D01*
X168250000Y-91100000D02*
X168150000Y-91100000D01*
X180020000Y-96600000D02*
X180020000Y-95700000D01*
X180020000Y-93000000D02*
X180020000Y-90270000D01*
X180020000Y-90270000D02*
X170830000Y-90270000D01*
X179900000Y-99680000D02*
X170950000Y-99680000D01*
X170830000Y-96600000D02*
X170830000Y-95700000D01*
X170830000Y-93000000D02*
X170830000Y-90270000D01*
D22*
X179134615Y-99190929D02*
G75*
G03*
X179134615Y-99190929I-80000J0D01*
G01*
D17*
X158660000Y-100584165D02*
X158660000Y-100815835D01*
X157940000Y-100584165D02*
X157940000Y-100815835D01*
X160215835Y-101060000D02*
X159984165Y-101060000D01*
X160215835Y-100340000D02*
X159984165Y-100340000D01*
X157560000Y-100584165D02*
X157560000Y-100815835D01*
X156840000Y-100584165D02*
X156840000Y-100815835D01*
X138450000Y-94800000D02*
X138450000Y-94200000D01*
X139000000Y-96000000D02*
X139600000Y-96000000D01*
X139100000Y-93500000D02*
X141900000Y-93500000D01*
X139300000Y-95700000D02*
X139000000Y-96000000D01*
X139300000Y-95700000D02*
X139600000Y-96000000D01*
X141900000Y-95500000D02*
X139100000Y-95500000D01*
X142550000Y-94200000D02*
X142550000Y-94800000D01*
X139150000Y-93500000D02*
G75*
G03*
X138450000Y-94200000I-1J-699999D01*
G01*
X138450000Y-94800000D02*
G75*
G03*
X139150000Y-95500000I699999J-1D01*
G01*
X142550000Y-94200000D02*
G75*
G03*
X141850000Y-93500000I-700000J0D01*
G01*
X141850000Y-95500000D02*
G75*
G03*
X142550000Y-94800000I0J700000D01*
G01*
X153860000Y-104384165D02*
X153860000Y-104615835D01*
X153140000Y-104384165D02*
X153140000Y-104615835D01*
G36*
X156884960Y-118977654D02*
G01*
X156963449Y-119005563D01*
X157035523Y-119059395D01*
X157096264Y-119133927D01*
X157137740Y-119218060D01*
X157149741Y-119266205D01*
X157149771Y-119364577D01*
X157122715Y-119455128D01*
X157073216Y-119534306D01*
X157005919Y-119598559D01*
X156925467Y-119644335D01*
X156836506Y-119668081D01*
X156743678Y-119666246D01*
X156661068Y-119639979D01*
X156588051Y-119599022D01*
X156536284Y-119552676D01*
X156494714Y-119490521D01*
X156486922Y-119475804D01*
X156454695Y-119379542D01*
X156451737Y-119279771D01*
X156476269Y-119183209D01*
X156526511Y-119096574D01*
X156600684Y-119026585D01*
X156607044Y-119022272D01*
X156691249Y-118984409D01*
X156787763Y-118969354D01*
X156884960Y-118977654D01*
G37*
G36*
X156921977Y-116138065D02*
G01*
X157013198Y-116180572D01*
X157092254Y-116244989D01*
X157154153Y-116329681D01*
X157193903Y-116433015D01*
X157194529Y-116435650D01*
X157196058Y-116465127D01*
X157194351Y-116523550D01*
X157189732Y-116607540D01*
X157182522Y-116713716D01*
X157173044Y-116838699D01*
X157161619Y-116979108D01*
X157148570Y-117131564D01*
X157134218Y-117292686D01*
X157118886Y-117459096D01*
X157102896Y-117627412D01*
X157086569Y-117794256D01*
X157070229Y-117956247D01*
X157054197Y-118110005D01*
X157038794Y-118252151D01*
X157024344Y-118379304D01*
X157011168Y-118488084D01*
X156999588Y-118575113D01*
X156989927Y-118637009D01*
X156982506Y-118670393D01*
X156981292Y-118673405D01*
X156940338Y-118726008D01*
X156881383Y-118767003D01*
X156817392Y-118788103D01*
X156800000Y-118789317D01*
X156757884Y-118781559D01*
X156708970Y-118762550D01*
X156702501Y-118759216D01*
X156656802Y-118723660D01*
X156620966Y-118677544D01*
X156618809Y-118673405D01*
X156611880Y-118646225D01*
X156602643Y-118589841D01*
X156591419Y-118507634D01*
X156578531Y-118402986D01*
X156564302Y-118279277D01*
X156549053Y-118139888D01*
X156533108Y-117988199D01*
X156516788Y-117827591D01*
X156500417Y-117661445D01*
X156484316Y-117493141D01*
X156468808Y-117326061D01*
X156454216Y-117163584D01*
X156440861Y-117009092D01*
X156429067Y-116865965D01*
X156419156Y-116737584D01*
X156411450Y-116627330D01*
X156406272Y-116538583D01*
X156403944Y-116474723D01*
X156404789Y-116439133D01*
X156405379Y-116435650D01*
X156441361Y-116336994D01*
X156501706Y-116252812D01*
X156535287Y-116219824D01*
X156625246Y-116158348D01*
X156723009Y-116125319D01*
X156823583Y-116119103D01*
X156921977Y-116138065D01*
G37*
G36*
X156826649Y-114510042D02*
G01*
X156851486Y-114510783D01*
X156873238Y-114510585D01*
X156892894Y-114510918D01*
X156911440Y-114513251D01*
X156929863Y-114519053D01*
X156949151Y-114529795D01*
X156970291Y-114546945D01*
X156994269Y-114571974D01*
X157022075Y-114606350D01*
X157054693Y-114651544D01*
X157093113Y-114709025D01*
X157138320Y-114780262D01*
X157191303Y-114866725D01*
X157253047Y-114969884D01*
X157324542Y-115091208D01*
X157406773Y-115232167D01*
X157500729Y-115394230D01*
X157607395Y-115578866D01*
X157727761Y-115787546D01*
X157862812Y-116021739D01*
X157988474Y-116239511D01*
X158064897Y-116371812D01*
X158139603Y-116501004D01*
X158210243Y-116623035D01*
X158274473Y-116733858D01*
X158329943Y-116829423D01*
X158374306Y-116905680D01*
X158405216Y-116958579D01*
X158410083Y-116966859D01*
X158436004Y-117011175D01*
X158476185Y-117080257D01*
X158528566Y-117170549D01*
X158591086Y-117278491D01*
X158661688Y-117400525D01*
X158738310Y-117533094D01*
X158818893Y-117672640D01*
X158892638Y-117800450D01*
X159032256Y-118042517D01*
X159156757Y-118258349D01*
X159267348Y-118450037D01*
X159365235Y-118619667D01*
X159451625Y-118769328D01*
X159527725Y-118901110D01*
X159594742Y-119017099D01*
X159653883Y-119119385D01*
X159706354Y-119210056D01*
X159753362Y-119291200D01*
X159796115Y-119364906D01*
X159835819Y-119433262D01*
X159873681Y-119498356D01*
X159893176Y-119531840D01*
X159944739Y-119622277D01*
X159991461Y-119707796D01*
X160030357Y-119782645D01*
X160058440Y-119841076D01*
X160072725Y-119877340D01*
X160072837Y-119877753D01*
X160080486Y-119966109D01*
X160059619Y-120053826D01*
X160013760Y-120133772D01*
X159946430Y-120198816D01*
X159900818Y-120225997D01*
X159829833Y-120260360D01*
X156798926Y-120260347D01*
X153768018Y-120260334D01*
X153696783Y-120225074D01*
X153620837Y-120171581D01*
X153563529Y-120099312D01*
X153528245Y-120015647D01*
X153519983Y-119942292D01*
X153706664Y-119942292D01*
X153706962Y-119979877D01*
X153719901Y-120010277D01*
X153744445Y-120037537D01*
X153749315Y-120041822D01*
X153794358Y-120080566D01*
X159805642Y-120080566D01*
X159850684Y-120041822D01*
X159875040Y-120017507D01*
X159890031Y-119991467D01*
X159894559Y-119960066D01*
X159887527Y-119919672D01*
X159867837Y-119866649D01*
X159834392Y-119797363D01*
X159786093Y-119708181D01*
X159721844Y-119595467D01*
X159709355Y-119573873D01*
X159663892Y-119495350D01*
X159603793Y-119391504D01*
X159530781Y-119265314D01*
X159446579Y-119119760D01*
X159352910Y-118957821D01*
X159251496Y-118782477D01*
X159144060Y-118596707D01*
X159032325Y-118403491D01*
X158918014Y-118205808D01*
X158802850Y-118006637D01*
X158688555Y-117808957D01*
X158576852Y-117615749D01*
X158469464Y-117429992D01*
X158368113Y-117254664D01*
X158274524Y-117092746D01*
X158190417Y-116947217D01*
X158117516Y-116821055D01*
X158057545Y-116717242D01*
X158045951Y-116697168D01*
X157982485Y-116587346D01*
X157920018Y-116479393D01*
X157861734Y-116378796D01*
X157810815Y-116291046D01*
X157770442Y-116221631D01*
X157747474Y-116182303D01*
X157721835Y-116138318D01*
X157682107Y-116069844D01*
X157630510Y-115980726D01*
X157569261Y-115874808D01*
X157500581Y-115755933D01*
X157426687Y-115627944D01*
X157349798Y-115494687D01*
X157272134Y-115360005D01*
X157195912Y-115227741D01*
X157123352Y-115101739D01*
X157056672Y-114985843D01*
X157016283Y-114915572D01*
X156965297Y-114828693D01*
X156925478Y-114766757D01*
X156892964Y-114725681D01*
X156863895Y-114701377D01*
X156834407Y-114689760D01*
X156800640Y-114686744D01*
X156800000Y-114686743D01*
X156772859Y-114688200D01*
X156748903Y-114694792D01*
X156725394Y-114709853D01*
X156699594Y-114736716D01*
X156668765Y-114778717D01*
X156630167Y-114839188D01*
X156581064Y-114921463D01*
X156518717Y-115028877D01*
X156518077Y-115029987D01*
X156473368Y-115107429D01*
X156415323Y-115207917D01*
X156346975Y-115326202D01*
X156271358Y-115457035D01*
X156191506Y-115595166D01*
X156110454Y-115735347D01*
X156036294Y-115863577D01*
X155898464Y-116101887D01*
X155762929Y-116336248D01*
X155631244Y-116563973D01*
X155504963Y-116782372D01*
X155385641Y-116988758D01*
X155274832Y-117180440D01*
X155174090Y-117354731D01*
X155084970Y-117508941D01*
X155009027Y-117640382D01*
X154947814Y-117746364D01*
X154944898Y-117751415D01*
X154902700Y-117824463D01*
X154846280Y-117922072D01*
X154777798Y-118040513D01*
X154699409Y-118176059D01*
X154613273Y-118324979D01*
X154521545Y-118483544D01*
X154426385Y-118648026D01*
X154329949Y-118814694D01*
X154234395Y-118979822D01*
X154141881Y-119139678D01*
X154054564Y-119290534D01*
X153974601Y-119428661D01*
X153904150Y-119550330D01*
X153852645Y-119639253D01*
X153791998Y-119746004D01*
X153748145Y-119829399D01*
X153720046Y-119893480D01*
X153706664Y-119942292D01*
X153519983Y-119942292D01*
X153518369Y-119927964D01*
X153530273Y-119862162D01*
X153541918Y-119837338D01*
X153568421Y-119787095D01*
X153608193Y-119714267D01*
X153659646Y-119621686D01*
X153721193Y-119512185D01*
X153791245Y-119388597D01*
X153868213Y-119253755D01*
X153950510Y-119110492D01*
X153991418Y-119039604D01*
X154196728Y-118684366D01*
X154395530Y-118340426D01*
X154590955Y-118002368D01*
X154786133Y-117664780D01*
X154984195Y-117322246D01*
X155188272Y-116969351D01*
X155401493Y-116600683D01*
X155626990Y-116210826D01*
X155700216Y-116084234D01*
X155797246Y-115916445D01*
X155892935Y-115750885D01*
X155985440Y-115590750D01*
X156072917Y-115439232D01*
X156153525Y-115299527D01*
X156225420Y-115174829D01*
X156286759Y-115068332D01*
X156335700Y-114983229D01*
X156370399Y-114922716D01*
X156374481Y-114915572D01*
X156436428Y-114807997D01*
X156485732Y-114725166D01*
X156525361Y-114663105D01*
X156558284Y-114617837D01*
X156587470Y-114585387D01*
X156615887Y-114561779D01*
X156646504Y-114543037D01*
X156656582Y-114537759D01*
X156707304Y-114517073D01*
X156760890Y-114508771D01*
X156826649Y-114510042D01*
G37*
%LPC*%
D23*
X188750440Y-96748780D03*
D24*
X181600000Y-97587500D03*
X181600000Y-99412500D03*
D25*
X156067500Y-107200000D03*
X154932500Y-107200000D03*
D26*
X134980000Y-117500000D03*
X142750000Y-117500000D03*
X170750000Y-117500000D03*
X178520000Y-117500000D03*
D24*
X183400000Y-108387500D03*
X183400000Y-110212500D03*
D27*
X154562500Y-99700000D03*
X152837500Y-99700000D03*
D23*
X159250880Y-96748780D03*
D25*
X160667500Y-101700000D03*
X159532500Y-101700000D03*
X159667500Y-107000000D03*
X158532500Y-107000000D03*
D28*
X181637500Y-110250000D03*
X181637500Y-108350000D03*
X179362500Y-109300000D03*
D29*
X165300000Y-91250000D03*
X165300000Y-95350000D03*
X163700000Y-91250000D03*
X163700000Y-95350000D03*
D30*
X161800000Y-97612500D03*
X161800000Y-95787500D03*
D31*
X185000000Y-108425000D03*
X185000000Y-110175000D03*
D32*
X136300000Y-111325000D03*
X136300000Y-109275000D03*
D33*
X137100000Y-94500000D03*
D34*
X135800000Y-94500000D03*
D35*
X134500000Y-94500000D03*
D36*
X160700000Y-103932500D03*
X160700000Y-105067500D03*
X156100000Y-100132500D03*
X156100000Y-101267500D03*
D23*
X124750060Y-96748780D03*
D37*
X153500000Y-102667500D03*
X153500000Y-101532500D03*
D38*
X140900000Y-102200000D03*
D23*
X186200000Y-101700000D03*
D39*
X178887500Y-101100000D03*
X180712500Y-101100000D03*
D40*
X163332500Y-103600000D03*
X164467500Y-103600000D03*
D41*
X152540000Y-92725500D03*
D42*
X151270000Y-92725500D03*
X150000000Y-92725500D03*
X148730000Y-92725500D03*
D41*
X147460000Y-92725500D03*
D43*
X148095000Y-91570500D03*
X149365000Y-91570500D03*
X150635000Y-91570500D03*
X151905000Y-91570500D03*
D23*
X154249620Y-96748780D03*
D44*
X167400000Y-95350000D03*
X167400000Y-91250000D03*
X169000000Y-95350000D03*
X169000000Y-91250000D03*
D45*
X178400000Y-99000000D03*
X177550000Y-99000000D03*
X176700000Y-99000000D03*
X175850000Y-99000000D03*
X175000000Y-99000000D03*
X174150000Y-99000000D03*
X173300000Y-99000000D03*
X172450000Y-99000000D03*
X172450000Y-97650000D03*
X173300000Y-97650000D03*
X174150000Y-97650000D03*
X175000000Y-97650000D03*
X175850000Y-97650000D03*
X176700000Y-97650000D03*
X177550000Y-97650000D03*
X178400000Y-97650000D03*
D46*
X179750000Y-98020000D03*
D47*
X179750000Y-94640000D03*
D46*
X171100000Y-98020000D03*
D47*
X171100000Y-94640000D03*
D36*
X158300000Y-100132500D03*
X158300000Y-101267500D03*
D25*
X160667500Y-100700000D03*
X159532500Y-100700000D03*
D36*
X157200000Y-100132500D03*
X157200000Y-101267500D03*
D48*
X139200000Y-94500000D03*
D49*
X140500000Y-94500000D03*
D50*
X141800000Y-94500000D03*
D36*
X153500000Y-103932500D03*
X153500000Y-105067500D03*
%LPD*%
M02*
