%TF.GenerationSoftware,KiCad,Pcbnew,(6.0.11-0)*%
%TF.CreationDate,2023-04-11T08:14:18-04:00*%
%TF.ProjectId,SLAPS_Solar_Harvester,534c4150-535f-4536-9f6c-61725f486172,rev?*%
%TF.SameCoordinates,Original*%
%TF.FileFunction,Soldermask,Top*%
%TF.FilePolarity,Negative*%
%FSLAX46Y46*%
G04 Gerber Fmt 4.6, Leading zero omitted, Abs format (unit mm)*
G04 Created by KiCad (PCBNEW (6.0.11-0)) date 2023-04-11 08:14:18*
%MOMM*%
%LPD*%
G01*
G04 APERTURE LIST*
G04 Aperture macros list*
%AMRoundRect*
0 Rectangle with rounded corners*
0 $1 Rounding radius*
0 $2 $3 $4 $5 $6 $7 $8 $9 X,Y pos of 4 corners*
0 Add a 4 corners polygon primitive as box body*
4,1,4,$2,$3,$4,$5,$6,$7,$8,$9,$2,$3,0*
0 Add four circle primitives for the rounded corners*
1,1,$1+$1,$2,$3*
1,1,$1+$1,$4,$5*
1,1,$1+$1,$6,$7*
1,1,$1+$1,$8,$9*
0 Add four rect primitives between the rounded corners*
20,1,$1+$1,$2,$3,$4,$5,0*
20,1,$1+$1,$4,$5,$6,$7,0*
20,1,$1+$1,$6,$7,$8,$9,0*
20,1,$1+$1,$8,$9,$2,$3,0*%
G04 Aperture macros list end*
%ADD10C,1.101600*%
%ADD11RoundRect,0.288300X-0.237500X0.250000X-0.237500X-0.250000X0.237500X-0.250000X0.237500X0.250000X0*%
%ADD12RoundRect,0.200800X0.512500X0.150000X-0.512500X0.150000X-0.512500X-0.150000X0.512500X-0.150000X0*%
%ADD13RoundRect,0.050800X1.600000X0.500000X-1.600000X0.500000X-1.600000X-0.500000X1.600000X-0.500000X0*%
%ADD14C,2.101600*%
%ADD15C,0.771600*%
%ADD16O,1.001600X1.801600*%
%ADD17O,1.001600X2.501600*%
%ADD18RoundRect,0.300801X-0.462499X-1.074999X0.462499X-1.074999X0.462499X1.074999X-0.462499X1.074999X0*%
%ADD19C,3.101600*%
%ADD20RoundRect,0.288300X-0.237500X0.287500X-0.237500X-0.287500X0.237500X-0.287500X0.237500X0.287500X0*%
G04 APERTURE END LIST*
D10*
%TO.C,TP14*%
X154600000Y-91400000D03*
%TD*%
D11*
%TO.C,R7*%
X160700000Y-92687500D03*
X160700000Y-94512500D03*
%TD*%
D12*
%TO.C,Q1*%
X158837500Y-94550000D03*
X158837500Y-92650000D03*
X156562500Y-93600000D03*
%TD*%
D13*
%TO.C,B1*%
X149150000Y-95800000D03*
X142350000Y-95800000D03*
X142350000Y-91800000D03*
X149150000Y-91800000D03*
%TD*%
D14*
%TO.C,J3*%
X159250000Y-96750000D03*
%TD*%
%TO.C,J2*%
X124750000Y-96750000D03*
%TD*%
D15*
%TO.C,J1*%
X171875000Y-96098579D03*
X171025000Y-96098579D03*
X170175000Y-96098579D03*
X169325000Y-96098579D03*
X168475000Y-96098579D03*
X167625000Y-96098579D03*
X166775000Y-96098579D03*
X165925000Y-96098579D03*
X165925000Y-94748579D03*
X166775000Y-94748579D03*
X167625000Y-94748579D03*
X168475000Y-94748579D03*
X169325000Y-94748579D03*
X170175000Y-94748579D03*
X171025000Y-94748579D03*
X171875000Y-94748579D03*
D16*
X164575000Y-91738579D03*
X173225000Y-91738579D03*
D17*
X173225000Y-95118579D03*
X164575000Y-95118579D03*
%TD*%
D18*
%TO.C,F1*%
X134312500Y-111350000D03*
X137287500Y-111350000D03*
%TD*%
D19*
%TO.C,BT1*%
X135230000Y-118000000D03*
X143000000Y-118000000D03*
X178770000Y-118000000D03*
X171000000Y-118000000D03*
%TD*%
D10*
%TO.C,TP13*%
X146050000Y-100700000D03*
%TD*%
%TO.C,TP17*%
X161300000Y-111100000D03*
%TD*%
D14*
%TO.C,J5*%
X154250000Y-96750000D03*
%TD*%
D10*
%TO.C,TP10*%
X156150000Y-100450000D03*
%TD*%
D14*
%TO.C,J4*%
X188750000Y-96750000D03*
%TD*%
D10*
%TO.C,TP16*%
X163300000Y-111700000D03*
%TD*%
%TO.C,TP11*%
X148450000Y-98500000D03*
%TD*%
D20*
%TO.C,D1*%
X162700000Y-92725000D03*
X162700000Y-94475000D03*
%TD*%
D10*
%TO.C,TP4*%
X183000000Y-99100000D03*
%TD*%
%TO.C,TP12*%
X148250000Y-100600000D03*
%TD*%
M02*
