G04 #@! TF.GenerationSoftware,KiCad,Pcbnew,7.0.5-0*
G04 #@! TF.CreationDate,2023-10-09T15:45:38-04:00*
G04 #@! TF.ProjectId,SLAPS_Solar_Harvester,534c4150-535f-4536-9f6c-61725f486172,V1.1*
G04 #@! TF.SameCoordinates,Original*
G04 #@! TF.FileFunction,Copper,L1,Top*
G04 #@! TF.FilePolarity,Positive*
%FSLAX46Y46*%
G04 Gerber Fmt 4.6, Leading zero omitted, Abs format (unit mm)*
G04 Created by KiCad (PCBNEW 7.0.5-0) date 2023-10-09 15:45:38*
%MOMM*%
%LPD*%
G01*
G04 APERTURE LIST*
G04 Aperture macros list*
%AMRoundRect*
0 Rectangle with rounded corners*
0 $1 Rounding radius*
0 $2 $3 $4 $5 $6 $7 $8 $9 X,Y pos of 4 corners*
0 Add a 4 corners polygon primitive as box body*
4,1,4,$2,$3,$4,$5,$6,$7,$8,$9,$2,$3,0*
0 Add four circle primitives for the rounded corners*
1,1,$1+$1,$2,$3*
1,1,$1+$1,$4,$5*
1,1,$1+$1,$6,$7*
1,1,$1+$1,$8,$9*
0 Add four rect primitives between the rounded corners*
20,1,$1+$1,$2,$3,$4,$5,0*
20,1,$1+$1,$4,$5,$6,$7,0*
20,1,$1+$1,$6,$7,$8,$9,0*
20,1,$1+$1,$8,$9,$2,$3,0*%
%AMFreePoly0*
4,1,19,0.550000,-0.750000,0.000000,-0.750000,0.000000,-0.744911,-0.071157,-0.744911,-0.207708,-0.704816,-0.327430,-0.627875,-0.420627,-0.520320,-0.479746,-0.390866,-0.500000,-0.250000,-0.500000,0.250000,-0.479746,0.390866,-0.420627,0.520320,-0.327430,0.627875,-0.207708,0.704816,-0.071157,0.744911,0.000000,0.744911,0.000000,0.750000,0.550000,0.750000,0.550000,-0.750000,0.550000,-0.750000,
$1*%
%AMFreePoly1*
4,1,19,0.000000,0.744911,0.071157,0.744911,0.207708,0.704816,0.327430,0.627875,0.420627,0.520320,0.479746,0.390866,0.500000,0.250000,0.500000,-0.250000,0.479746,-0.390866,0.420627,-0.520320,0.327430,-0.627875,0.207708,-0.704816,0.071157,-0.744911,0.000000,-0.744911,0.000000,-0.750000,-0.550000,-0.750000,-0.550000,0.750000,0.000000,0.750000,0.000000,0.744911,0.000000,0.744911,
$1*%
G04 Aperture macros list end*
G04 #@! TA.AperFunction,ComponentPad*
%ADD10C,2.000000*%
G04 #@! TD*
G04 #@! TA.AperFunction,SMDPad,CuDef*
%ADD11RoundRect,0.237500X-0.237500X0.250000X-0.237500X-0.250000X0.237500X-0.250000X0.237500X0.250000X0*%
G04 #@! TD*
G04 #@! TA.AperFunction,SMDPad,CuDef*
%ADD12RoundRect,0.155000X0.212500X0.155000X-0.212500X0.155000X-0.212500X-0.155000X0.212500X-0.155000X0*%
G04 #@! TD*
G04 #@! TA.AperFunction,ComponentPad*
%ADD13C,3.000000*%
G04 #@! TD*
G04 #@! TA.AperFunction,SMDPad,CuDef*
%ADD14RoundRect,0.237500X0.300000X0.237500X-0.300000X0.237500X-0.300000X-0.237500X0.300000X-0.237500X0*%
G04 #@! TD*
G04 #@! TA.AperFunction,SMDPad,CuDef*
%ADD15RoundRect,0.150000X0.512500X0.150000X-0.512500X0.150000X-0.512500X-0.150000X0.512500X-0.150000X0*%
G04 #@! TD*
G04 #@! TA.AperFunction,SMDPad,CuDef*
%ADD16R,1.000000X0.900000*%
G04 #@! TD*
G04 #@! TA.AperFunction,SMDPad,CuDef*
%ADD17RoundRect,0.237500X0.237500X-0.250000X0.237500X0.250000X-0.237500X0.250000X-0.237500X-0.250000X0*%
G04 #@! TD*
G04 #@! TA.AperFunction,SMDPad,CuDef*
%ADD18RoundRect,0.237500X-0.237500X0.287500X-0.237500X-0.287500X0.237500X-0.287500X0.237500X0.287500X0*%
G04 #@! TD*
G04 #@! TA.AperFunction,SMDPad,CuDef*
%ADD19RoundRect,0.250000X0.450000X-0.325000X0.450000X0.325000X-0.450000X0.325000X-0.450000X-0.325000X0*%
G04 #@! TD*
G04 #@! TA.AperFunction,SMDPad,CuDef*
%ADD20FreePoly0,180.000000*%
G04 #@! TD*
G04 #@! TA.AperFunction,SMDPad,CuDef*
%ADD21R,1.000000X1.500000*%
G04 #@! TD*
G04 #@! TA.AperFunction,SMDPad,CuDef*
%ADD22FreePoly1,180.000000*%
G04 #@! TD*
G04 #@! TA.AperFunction,SMDPad,CuDef*
%ADD23RoundRect,0.155000X-0.155000X0.212500X-0.155000X-0.212500X0.155000X-0.212500X0.155000X0.212500X0*%
G04 #@! TD*
G04 #@! TA.AperFunction,SMDPad,CuDef*
%ADD24RoundRect,0.155000X0.155000X-0.212500X0.155000X0.212500X-0.155000X0.212500X-0.155000X-0.212500X0*%
G04 #@! TD*
G04 #@! TA.AperFunction,SMDPad,CuDef*
%ADD25C,1.000000*%
G04 #@! TD*
G04 #@! TA.AperFunction,SMDPad,CuDef*
%ADD26RoundRect,0.237500X-0.250000X-0.237500X0.250000X-0.237500X0.250000X0.237500X-0.250000X0.237500X0*%
G04 #@! TD*
G04 #@! TA.AperFunction,SMDPad,CuDef*
%ADD27RoundRect,0.155000X-0.212500X-0.155000X0.212500X-0.155000X0.212500X0.155000X-0.212500X0.155000X0*%
G04 #@! TD*
G04 #@! TA.AperFunction,SMDPad,CuDef*
%ADD28O,0.800000X1.500000*%
G04 #@! TD*
G04 #@! TA.AperFunction,ComponentPad*
%ADD29C,0.670000*%
G04 #@! TD*
G04 #@! TA.AperFunction,ComponentPad*
%ADD30O,0.900000X2.400000*%
G04 #@! TD*
G04 #@! TA.AperFunction,ComponentPad*
%ADD31O,0.900000X1.700000*%
G04 #@! TD*
G04 #@! TA.AperFunction,SMDPad,CuDef*
%ADD32FreePoly0,0.000000*%
G04 #@! TD*
G04 #@! TA.AperFunction,SMDPad,CuDef*
%ADD33FreePoly1,0.000000*%
G04 #@! TD*
G04 #@! TA.AperFunction,ComponentPad*
%ADD34C,0.600000*%
G04 #@! TD*
G04 #@! TA.AperFunction,SMDPad,CuDef*
%ADD35R,2.500000X1.500000*%
G04 #@! TD*
G04 #@! TA.AperFunction,ComponentPad*
%ADD36C,0.700000*%
G04 #@! TD*
G04 #@! TA.AperFunction,SMDPad,CuDef*
%ADD37R,2.500000X2.500000*%
G04 #@! TD*
G04 #@! TA.AperFunction,ViaPad*
%ADD38C,0.800000*%
G04 #@! TD*
G04 #@! TA.AperFunction,ViaPad*
%ADD39C,0.600000*%
G04 #@! TD*
G04 #@! TA.AperFunction,Conductor*
%ADD40C,0.500000*%
G04 #@! TD*
G04 #@! TA.AperFunction,Conductor*
%ADD41C,0.250000*%
G04 #@! TD*
G04 #@! TA.AperFunction,Conductor*
%ADD42C,0.200000*%
G04 #@! TD*
G04 #@! TA.AperFunction,Conductor*
%ADD43C,1.000000*%
G04 #@! TD*
G04 APERTURE END LIST*
D10*
X188750440Y-96748780D03*
D11*
X181600000Y-97587500D03*
X181600000Y-99412500D03*
D12*
X156067500Y-107200000D03*
X154932500Y-107200000D03*
D13*
X134980000Y-117500000D03*
X142750000Y-117500000D03*
X170750000Y-117500000D03*
X178520000Y-117500000D03*
D11*
X183400000Y-108387500D03*
X183400000Y-110212500D03*
D14*
X154562500Y-99700000D03*
X152837500Y-99700000D03*
D10*
X159250880Y-96748780D03*
D12*
X160667500Y-101700000D03*
X159532500Y-101700000D03*
X159667500Y-107000000D03*
X158532500Y-107000000D03*
D15*
X181637500Y-110250000D03*
X181637500Y-108350000D03*
X179362500Y-109300000D03*
D16*
X165300000Y-91250000D03*
X165300000Y-95350000D03*
X163700000Y-91250000D03*
X163700000Y-95350000D03*
D17*
X161800000Y-97612500D03*
X161800000Y-95787500D03*
D18*
X185000000Y-108425000D03*
X185000000Y-110175000D03*
D19*
X136300000Y-111325000D03*
X136300000Y-109275000D03*
D20*
X137100000Y-94500000D03*
D21*
X135800000Y-94500000D03*
D22*
X134500000Y-94500000D03*
D23*
X160700000Y-103932500D03*
X160700000Y-105067500D03*
X156100000Y-100132500D03*
X156100000Y-101267500D03*
D10*
X124750060Y-96748780D03*
D24*
X153500000Y-102667500D03*
X153500000Y-101532500D03*
D25*
X140900000Y-102200000D03*
D10*
X186200000Y-101700000D03*
D26*
X178887500Y-101100000D03*
X180712500Y-101100000D03*
D27*
X163332500Y-103600000D03*
X164467500Y-103600000D03*
D28*
X148095000Y-91570500D03*
X149365000Y-91570500D03*
X150635000Y-91570500D03*
X151905000Y-91570500D03*
D10*
X154249620Y-96748780D03*
D16*
X167400000Y-95350000D03*
X167400000Y-91250000D03*
X169000000Y-95350000D03*
X169000000Y-91250000D03*
D29*
X178400000Y-99000000D03*
X177550000Y-99000000D03*
X176700000Y-99000000D03*
X175850000Y-99000000D03*
X175000000Y-99000000D03*
X174150000Y-99000000D03*
X173300000Y-99000000D03*
X172450000Y-99000000D03*
X172450000Y-97650000D03*
X173300000Y-97650000D03*
X174150000Y-97650000D03*
X175000000Y-97650000D03*
X175850000Y-97650000D03*
X176700000Y-97650000D03*
X177550000Y-97650000D03*
X178400000Y-97650000D03*
D30*
X179750000Y-98020000D03*
D31*
X179750000Y-94640000D03*
D30*
X171100000Y-98020000D03*
D31*
X171100000Y-94640000D03*
D23*
X158300000Y-100132500D03*
X158300000Y-101267500D03*
D12*
X160667500Y-100700000D03*
X159532500Y-100700000D03*
D23*
X157200000Y-100132500D03*
X157200000Y-101267500D03*
D32*
X139200000Y-94500000D03*
D21*
X140500000Y-94500000D03*
D33*
X141800000Y-94500000D03*
D23*
X153500000Y-103932500D03*
X153500000Y-105067500D03*
D34*
X129750000Y-111500000D03*
X130750000Y-111500000D03*
X131750000Y-111500000D03*
D35*
X130750000Y-111000000D03*
D34*
X129750000Y-110500000D03*
X130750000Y-110500000D03*
X131750000Y-110500000D03*
D36*
X155825000Y-104975000D03*
X157100000Y-104975000D03*
X158375000Y-104975000D03*
X155825000Y-103700000D03*
X157100000Y-103700000D03*
X158375000Y-103700000D03*
X155825000Y-102425000D03*
X157100000Y-102425000D03*
X158375000Y-102425000D03*
D34*
X136500000Y-102362500D03*
X135500000Y-102362500D03*
X134500000Y-102362500D03*
X136500000Y-103362500D03*
X135500000Y-103362500D03*
D37*
X135500000Y-103362500D03*
D34*
X134500000Y-103362500D03*
X136500000Y-104362500D03*
X135500000Y-104362500D03*
X134500000Y-104362500D03*
D38*
X138100000Y-97900000D03*
X134700000Y-107100000D03*
X151500000Y-102300000D03*
X162100000Y-100900000D03*
D39*
X162400000Y-104000000D03*
D38*
X158700000Y-98900000D03*
X151500000Y-103300000D03*
X143800000Y-96500000D03*
X161600000Y-99300000D03*
X160600000Y-99000000D03*
X177400000Y-109500000D03*
X156100000Y-99000000D03*
X155600000Y-108400000D03*
X160000000Y-108500000D03*
X162100000Y-103200000D03*
X156700000Y-108400000D03*
X150600000Y-94100000D03*
X149400000Y-94100000D03*
X160400000Y-95200000D03*
X139400000Y-103200000D03*
X140600000Y-100400000D03*
X144000000Y-90900000D03*
X161900000Y-90900000D03*
X138800000Y-91200000D03*
X133500000Y-91900000D03*
X165000000Y-93900000D03*
X163900000Y-98600000D03*
X138200000Y-95800000D03*
X150300000Y-111900000D03*
X165100000Y-92400000D03*
X142900000Y-92000000D03*
X166700000Y-96400000D03*
X167200000Y-92300000D03*
X131000000Y-92700000D03*
X140400000Y-91100000D03*
X138100000Y-93200000D03*
X132300000Y-93400000D03*
X163700000Y-111900000D03*
X135100000Y-91200000D03*
X159200000Y-116000000D03*
X150400000Y-103900000D03*
X177400000Y-102600000D03*
X169300000Y-111200000D03*
X132750000Y-100612500D03*
X137000000Y-91100000D03*
X132300000Y-91700000D03*
X161900000Y-91900000D03*
X141900000Y-91100000D03*
X161900000Y-93000000D03*
X135900000Y-107100000D03*
X136300000Y-108000000D03*
X137000000Y-107300000D03*
X172800000Y-111500000D03*
X139700000Y-113100000D03*
X162300000Y-94200000D03*
X142200000Y-108400000D03*
X137900000Y-100800000D03*
X139250000Y-102112500D03*
D40*
X135300000Y-92200000D02*
X140800000Y-92200000D01*
X140800000Y-92200000D02*
X141800000Y-93200000D01*
X134500000Y-93000000D02*
X135300000Y-92200000D01*
D41*
X134700000Y-107100000D02*
X133300000Y-105700000D01*
X133300000Y-105700000D02*
X133300000Y-101200000D01*
D40*
X134500000Y-94500000D02*
X134500000Y-93000000D01*
D41*
X133300000Y-101200000D02*
X136600000Y-97900000D01*
X134500000Y-95800000D02*
X134500000Y-94500000D01*
X136600000Y-97900000D02*
X134500000Y-95800000D01*
D40*
X141800000Y-93200000D02*
X141800000Y-94500000D01*
D41*
X136600000Y-97900000D02*
X138100000Y-97900000D01*
X162350000Y-103950000D02*
X160667500Y-103950000D01*
X153500000Y-102667500D02*
X154432500Y-102667500D01*
X154432500Y-102667500D02*
X154900000Y-102200000D01*
X161300000Y-101700000D02*
X162100000Y-100900000D01*
X160667500Y-101700000D02*
X160667500Y-101732500D01*
D42*
X160667500Y-101732500D02*
X159200000Y-103200000D01*
D41*
X159467500Y-103932500D02*
X160700000Y-103932500D01*
D42*
X151500000Y-102300000D02*
X152300000Y-103100000D01*
D41*
X162400000Y-104000000D02*
X162350000Y-103950000D01*
D42*
X153232500Y-103100000D02*
X153532500Y-102800000D01*
D41*
X160667500Y-101700000D02*
X161300000Y-101700000D01*
D42*
X152300000Y-103100000D02*
X153232500Y-103100000D01*
D40*
X179162500Y-109500000D02*
X179362500Y-109300000D01*
D41*
X160600000Y-100632500D02*
X160667500Y-100700000D01*
D42*
X162100000Y-103200000D02*
X162932500Y-103200000D01*
D43*
X145529500Y-91570500D02*
X143800000Y-93300000D01*
X161800000Y-99100000D02*
X161600000Y-99300000D01*
D41*
X160600000Y-99000000D02*
X160600000Y-100632500D01*
X160000000Y-107267500D02*
X159700000Y-106967500D01*
X152132500Y-103932500D02*
X151500000Y-103300000D01*
D42*
X158300000Y-100132500D02*
X158300000Y-99300000D01*
D43*
X158300000Y-100132500D02*
X156100000Y-100132500D01*
D41*
X156100000Y-99000000D02*
X156100000Y-100132500D01*
X161600000Y-99767500D02*
X160667500Y-100700000D01*
X160000000Y-108500000D02*
X160000000Y-107267500D01*
X153500000Y-103932500D02*
X152132500Y-103932500D01*
D43*
X156100000Y-100132500D02*
X154995000Y-100132500D01*
X161800000Y-97612500D02*
X161800000Y-99100000D01*
X148095000Y-91570500D02*
X145529500Y-91570500D01*
D40*
X177400000Y-109500000D02*
X179162500Y-109500000D01*
D41*
X161600000Y-99300000D02*
X161600000Y-99767500D01*
D42*
X162932500Y-103200000D02*
X163332500Y-103600000D01*
X155600000Y-108400000D02*
X156100000Y-107900000D01*
D43*
X143800000Y-93300000D02*
X143800000Y-96500000D01*
D42*
X158300000Y-99300000D02*
X158700000Y-98900000D01*
D43*
X154995000Y-100132500D02*
X154562500Y-99700000D01*
D42*
X156100000Y-107900000D02*
X156100000Y-107167500D01*
D40*
X184962500Y-110212500D02*
X185000000Y-110175000D01*
X183400000Y-110212500D02*
X184962500Y-110212500D01*
D41*
X152700000Y-109400000D02*
X151200000Y-110900000D01*
X177087500Y-114800000D02*
X181637500Y-110250000D01*
X151200000Y-115300000D02*
X153000000Y-117100000D01*
X151200000Y-110900000D02*
X151200000Y-115300000D01*
X167600000Y-117100000D02*
X169900000Y-114800000D01*
X153000000Y-117100000D02*
X167600000Y-117100000D01*
X156700000Y-108400000D02*
X155700000Y-109400000D01*
X169900000Y-114800000D02*
X177087500Y-114800000D01*
X155700000Y-109400000D02*
X152700000Y-109400000D01*
D40*
X183362500Y-108350000D02*
X183400000Y-108387500D01*
X181637500Y-108350000D02*
X183362500Y-108350000D01*
D41*
X150600000Y-94100000D02*
X150635000Y-94065000D01*
X150635000Y-94065000D02*
X150635000Y-91570500D01*
D42*
X149400000Y-94100000D02*
X149400000Y-91605500D01*
X149400000Y-91605500D02*
X149365000Y-91570500D01*
D41*
X176700000Y-99000000D02*
X176700000Y-99800000D01*
X178000000Y-101100000D02*
X178887500Y-101100000D01*
X176700000Y-99800000D02*
X178000000Y-101100000D01*
X174150000Y-96950000D02*
X174900000Y-96200000D01*
X180800000Y-96200000D02*
X181600000Y-97000000D01*
X174150000Y-97650000D02*
X174150000Y-96950000D01*
X181600000Y-97000000D02*
X181600000Y-97587500D01*
X174900000Y-96200000D02*
X180800000Y-96200000D01*
D43*
X161800000Y-95787500D02*
X163262500Y-95787500D01*
D42*
X161212500Y-95200000D02*
X161800000Y-95787500D01*
D43*
X163700000Y-91250000D02*
X163700000Y-95350000D01*
X163262500Y-95787500D02*
X163700000Y-95350000D01*
D42*
X160400000Y-95200000D02*
X161212500Y-95200000D01*
D41*
X139400000Y-103200000D02*
X139900000Y-103200000D01*
X139900000Y-103200000D02*
X140900000Y-102200000D01*
D43*
X184500000Y-99800000D02*
X172800000Y-111500000D01*
X184500000Y-94900000D02*
X184500000Y-99800000D01*
X169000000Y-91250000D02*
X169000000Y-95350000D01*
X180850000Y-91250000D02*
X181950000Y-92350000D01*
X169000000Y-91250000D02*
X180850000Y-91250000D01*
X181950000Y-92350000D02*
X184500000Y-94900000D01*
D40*
X162300000Y-94200000D02*
X159500000Y-94200000D01*
D43*
X144300000Y-108600000D02*
X144300000Y-101300000D01*
D40*
X155400000Y-98300000D02*
X147300000Y-98300000D01*
D43*
X139750000Y-113150000D02*
X143800000Y-109100000D01*
X144300000Y-101300000D02*
X147300000Y-98300000D01*
D40*
X159500000Y-94200000D02*
X155400000Y-98300000D01*
D43*
X143800000Y-109100000D02*
X144300000Y-108600000D01*
X154200840Y-96700000D02*
X154249620Y-96748780D01*
X142200000Y-100700000D02*
X146200000Y-96700000D01*
X146200000Y-96700000D02*
X154200840Y-96700000D01*
X142200000Y-108400000D02*
X142200000Y-100700000D01*
D41*
X137900000Y-100800000D02*
X139000000Y-99700000D01*
X138600000Y-96600000D02*
X137200000Y-96600000D01*
X137200000Y-96600000D02*
X135800000Y-95200000D01*
X139000000Y-99700000D02*
X139000000Y-97000000D01*
X135800000Y-95200000D02*
X135800000Y-94500000D01*
X139000000Y-97000000D02*
X138600000Y-96600000D01*
X140500000Y-99300000D02*
X140500000Y-94500000D01*
X139250000Y-102112500D02*
X139250000Y-100550000D01*
X139250000Y-100550000D02*
X140500000Y-99300000D01*
X175850000Y-98050000D02*
X175850000Y-97650000D01*
X175000000Y-99000000D02*
X175000000Y-98900000D01*
X175000000Y-98900000D02*
X175850000Y-98050000D01*
G04 #@! TA.AperFunction,Conductor*
G36*
X163539399Y-90400407D02*
G01*
X163575363Y-90449907D01*
X163575363Y-90511093D01*
X163539399Y-90560593D01*
X163504900Y-90576623D01*
X163449773Y-90590210D01*
X163444173Y-90592334D01*
X163443537Y-90590656D01*
X163407673Y-90599500D01*
X163180252Y-90599500D01*
X163180251Y-90599500D01*
X163180241Y-90599501D01*
X163121772Y-90611132D01*
X163121766Y-90611134D01*
X163055451Y-90655445D01*
X163055445Y-90655451D01*
X163011134Y-90721766D01*
X163011132Y-90721772D01*
X162999501Y-90780241D01*
X162999500Y-90780253D01*
X162999500Y-93833532D01*
X162980593Y-93891723D01*
X162931093Y-93927687D01*
X162869907Y-93927687D01*
X162821958Y-93893799D01*
X162728286Y-93771723D01*
X162728285Y-93771722D01*
X162728282Y-93771718D01*
X162728277Y-93771714D01*
X162728276Y-93771713D01*
X162617092Y-93686399D01*
X162602841Y-93675464D01*
X162602840Y-93675463D01*
X162602838Y-93675462D01*
X162456766Y-93614957D01*
X162456758Y-93614955D01*
X162300001Y-93594318D01*
X162299999Y-93594318D01*
X162143241Y-93614955D01*
X162143233Y-93614957D01*
X161997161Y-93675462D01*
X161959687Y-93704217D01*
X161927334Y-93729042D01*
X161869659Y-93749466D01*
X161867068Y-93749500D01*
X159528087Y-93749500D01*
X159522541Y-93749189D01*
X159482966Y-93744730D01*
X159482965Y-93744730D01*
X159461680Y-93748756D01*
X159425429Y-93755615D01*
X159423606Y-93755925D01*
X159365714Y-93764651D01*
X159358632Y-93766836D01*
X159358503Y-93766418D01*
X159356386Y-93767114D01*
X159356531Y-93767526D01*
X159349525Y-93769977D01*
X159297733Y-93797350D01*
X159296082Y-93798183D01*
X159243362Y-93823572D01*
X159237233Y-93827751D01*
X159236987Y-93827391D01*
X159235172Y-93828679D01*
X159235430Y-93829029D01*
X159229463Y-93833433D01*
X159188078Y-93874817D01*
X159186746Y-93876100D01*
X159143803Y-93915947D01*
X159139181Y-93921743D01*
X159138837Y-93921469D01*
X159130295Y-93932600D01*
X155242393Y-97820504D01*
X155187876Y-97848281D01*
X155172389Y-97849500D01*
X155079697Y-97849500D01*
X155021506Y-97830593D01*
X154985542Y-97781093D01*
X154985542Y-97719907D01*
X155012999Y-97677340D01*
X155140601Y-97561016D01*
X155274678Y-97383469D01*
X155373849Y-97184308D01*
X155434735Y-96970316D01*
X155455263Y-96748780D01*
X155434735Y-96527244D01*
X155373849Y-96313252D01*
X155274678Y-96114091D01*
X155140601Y-95936544D01*
X154976182Y-95786656D01*
X154787021Y-95669533D01*
X154579560Y-95589162D01*
X154579559Y-95589161D01*
X154579557Y-95589161D01*
X154360863Y-95548280D01*
X154138377Y-95548280D01*
X153919682Y-95589161D01*
X153908224Y-95593600D01*
X153712219Y-95669533D01*
X153523058Y-95786656D01*
X153370604Y-95925637D01*
X153358636Y-95936547D01*
X153340803Y-95960162D01*
X153290647Y-95995204D01*
X153261800Y-95999500D01*
X146222648Y-95999500D01*
X146219683Y-95999410D01*
X146193352Y-95997818D01*
X146157394Y-95995642D01*
X146096015Y-96006889D01*
X146093061Y-96007339D01*
X146031124Y-96014860D01*
X146019522Y-96019260D01*
X146002271Y-96024069D01*
X145990070Y-96026305D01*
X145990066Y-96026306D01*
X145933180Y-96051908D01*
X145930418Y-96053052D01*
X145872070Y-96075181D01*
X145872067Y-96075183D01*
X145861850Y-96082235D01*
X145846257Y-96091029D01*
X145834946Y-96096120D01*
X145834940Y-96096124D01*
X145785833Y-96134597D01*
X145783425Y-96136368D01*
X145732071Y-96171816D01*
X145690704Y-96218509D01*
X145688655Y-96220686D01*
X141720686Y-100188655D01*
X141718509Y-100190704D01*
X141671816Y-100232071D01*
X141658950Y-100250711D01*
X141636360Y-100283436D01*
X141634611Y-100285813D01*
X141615831Y-100309786D01*
X141596121Y-100334944D01*
X141596120Y-100334944D01*
X141591028Y-100346259D01*
X141582230Y-100361858D01*
X141575181Y-100372070D01*
X141575180Y-100372071D01*
X141553063Y-100430390D01*
X141551919Y-100433152D01*
X141526305Y-100490066D01*
X141526302Y-100490074D01*
X141524065Y-100502282D01*
X141519258Y-100519527D01*
X141514860Y-100531125D01*
X141507341Y-100593045D01*
X141506891Y-100595999D01*
X141495641Y-100657395D01*
X141496841Y-100677214D01*
X141499410Y-100719692D01*
X141499500Y-100722658D01*
X141499500Y-101575283D01*
X141480593Y-101633474D01*
X141431093Y-101669438D01*
X141369907Y-101669438D01*
X141334851Y-101649386D01*
X141300853Y-101619267D01*
X141300852Y-101619266D01*
X141150225Y-101540210D01*
X141150224Y-101540209D01*
X141150223Y-101540209D01*
X140985058Y-101499500D01*
X140985056Y-101499500D01*
X140814944Y-101499500D01*
X140814941Y-101499500D01*
X140649776Y-101540209D01*
X140499146Y-101619267D01*
X140371818Y-101732069D01*
X140371816Y-101732072D01*
X140283707Y-101859720D01*
X140275182Y-101872070D01*
X140214860Y-102031128D01*
X140208024Y-102087418D01*
X140194355Y-102199998D01*
X140194355Y-102200001D01*
X140215106Y-102370903D01*
X140203351Y-102430948D01*
X140186832Y-102452840D01*
X139912121Y-102727551D01*
X139857604Y-102755328D01*
X139797172Y-102745757D01*
X139781850Y-102736089D01*
X139700879Y-102673958D01*
X139666223Y-102623534D01*
X139667824Y-102562369D01*
X139682604Y-102535149D01*
X139774536Y-102415341D01*
X139835044Y-102269262D01*
X139855682Y-102112500D01*
X139835044Y-101955738D01*
X139817638Y-101913716D01*
X139774537Y-101809661D01*
X139774537Y-101809660D01*
X139710761Y-101726546D01*
X139678282Y-101684218D01*
X139678281Y-101684217D01*
X139614232Y-101635070D01*
X139579577Y-101584645D01*
X139575500Y-101556528D01*
X139575500Y-100725833D01*
X139594407Y-100667642D01*
X139604490Y-100655835D01*
X140718583Y-99541741D01*
X140721760Y-99538829D01*
X140753194Y-99512455D01*
X140773714Y-99476911D01*
X140776012Y-99473303D01*
X140799554Y-99439684D01*
X140799941Y-99438236D01*
X140809838Y-99414345D01*
X140810588Y-99413045D01*
X140813745Y-99395139D01*
X140817710Y-99372650D01*
X140818640Y-99368452D01*
X140829264Y-99328807D01*
X140825687Y-99287927D01*
X140825500Y-99283625D01*
X140825500Y-95549500D01*
X140844407Y-95491309D01*
X140893907Y-95455345D01*
X140924500Y-95450500D01*
X141019747Y-95450500D01*
X141019748Y-95450500D01*
X141078231Y-95438867D01*
X141078236Y-95438863D01*
X141087113Y-95435187D01*
X141148110Y-95430386D01*
X141162885Y-95435187D01*
X141171765Y-95438865D01*
X141171766Y-95438865D01*
X141171769Y-95438867D01*
X141250000Y-95454428D01*
X141250001Y-95454428D01*
X141871888Y-95454428D01*
X141871889Y-95454428D01*
X141929483Y-95446147D01*
X142067438Y-95405640D01*
X142120366Y-95381469D01*
X142160193Y-95355874D01*
X142241310Y-95303744D01*
X142241318Y-95303738D01*
X142241320Y-95303737D01*
X142285295Y-95265632D01*
X142350694Y-95190156D01*
X142379445Y-95156976D01*
X142379446Y-95156974D01*
X142379449Y-95156971D01*
X142410906Y-95108023D01*
X142470634Y-94977238D01*
X142487027Y-94921408D01*
X142505485Y-94793033D01*
X142507489Y-94779097D01*
X142507489Y-94720905D01*
X142505436Y-94706629D01*
X142504428Y-94692537D01*
X142504428Y-94307462D01*
X142505436Y-94293369D01*
X142507489Y-94279093D01*
X142507489Y-94220902D01*
X142487027Y-94078594D01*
X142487026Y-94078590D01*
X142470634Y-94022762D01*
X142410906Y-93891977D01*
X142410743Y-93891723D01*
X142379454Y-93843036D01*
X142379445Y-93843023D01*
X142285303Y-93734377D01*
X142285301Y-93734375D01*
X142285295Y-93734368D01*
X142284664Y-93733821D01*
X142284537Y-93733611D01*
X142282795Y-93731869D01*
X142283226Y-93731437D01*
X142253071Y-93681422D01*
X142250500Y-93659006D01*
X142250500Y-93257395D01*
X143095641Y-93257395D01*
X143097519Y-93288426D01*
X143099410Y-93319692D01*
X143099500Y-93322658D01*
X143099500Y-96542381D01*
X143112134Y-96646420D01*
X143114860Y-96668872D01*
X143175182Y-96827930D01*
X143269252Y-96964213D01*
X143271816Y-96967927D01*
X143271818Y-96967930D01*
X143275501Y-96971193D01*
X143399148Y-97080734D01*
X143549775Y-97159790D01*
X143714944Y-97200500D01*
X143714947Y-97200500D01*
X143885053Y-97200500D01*
X143885056Y-97200500D01*
X144050225Y-97159790D01*
X144200852Y-97080734D01*
X144328183Y-96967929D01*
X144424818Y-96827930D01*
X144485140Y-96668872D01*
X144500500Y-96542372D01*
X144500500Y-93631163D01*
X144519407Y-93572973D01*
X144529496Y-93561160D01*
X145790661Y-92299996D01*
X145845178Y-92272219D01*
X145860665Y-92271000D01*
X146851552Y-92271000D01*
X146909743Y-92289907D01*
X146945707Y-92339407D01*
X146945707Y-92400593D01*
X146937284Y-92419507D01*
X146935462Y-92422661D01*
X146874957Y-92568733D01*
X146874955Y-92568741D01*
X146854318Y-92725499D01*
X146854318Y-92725500D01*
X146874955Y-92882258D01*
X146874957Y-92882266D01*
X146935462Y-93028338D01*
X146935462Y-93028339D01*
X147014335Y-93131128D01*
X147031718Y-93153782D01*
X147031722Y-93153785D01*
X147031723Y-93153786D01*
X147045029Y-93163996D01*
X147157159Y-93250036D01*
X147157160Y-93250036D01*
X147157161Y-93250037D01*
X147260866Y-93292993D01*
X147303238Y-93310544D01*
X147420639Y-93326000D01*
X147420640Y-93326000D01*
X147499360Y-93326000D01*
X147499361Y-93326000D01*
X147616762Y-93310544D01*
X147762841Y-93250036D01*
X147888282Y-93153782D01*
X147984536Y-93028341D01*
X148045044Y-92882262D01*
X148048703Y-92854472D01*
X148075042Y-92799249D01*
X148128813Y-92770054D01*
X148189475Y-92778040D01*
X148233858Y-92820157D01*
X148241845Y-92839505D01*
X148270046Y-92935550D01*
X148270049Y-92935557D01*
X148347855Y-93056626D01*
X148347856Y-93056627D01*
X148347857Y-93056628D01*
X148456627Y-93150877D01*
X148560628Y-93198373D01*
X148587543Y-93210665D01*
X148694196Y-93226000D01*
X148694201Y-93226000D01*
X148765804Y-93226000D01*
X148841983Y-93215046D01*
X148872457Y-93210665D01*
X148959374Y-93170970D01*
X149020159Y-93163996D01*
X149073437Y-93194082D01*
X149098855Y-93249738D01*
X149099500Y-93261024D01*
X149099500Y-93524846D01*
X149080593Y-93583037D01*
X149060767Y-93603388D01*
X148971723Y-93671713D01*
X148971713Y-93671723D01*
X148875462Y-93797160D01*
X148875462Y-93797161D01*
X148814957Y-93943233D01*
X148814955Y-93943241D01*
X148794318Y-94099999D01*
X148794318Y-94100000D01*
X148814955Y-94256758D01*
X148814957Y-94256766D01*
X148875462Y-94402838D01*
X148875462Y-94402839D01*
X148971713Y-94528276D01*
X148971718Y-94528282D01*
X148971722Y-94528285D01*
X148971723Y-94528286D01*
X149001082Y-94550813D01*
X149097159Y-94624536D01*
X149097160Y-94624536D01*
X149097161Y-94624537D01*
X149162784Y-94651719D01*
X149243238Y-94685044D01*
X149353924Y-94699616D01*
X149399999Y-94705682D01*
X149400000Y-94705682D01*
X149400001Y-94705682D01*
X149446076Y-94699616D01*
X149556762Y-94685044D01*
X149702841Y-94624536D01*
X149828282Y-94528282D01*
X149921458Y-94406851D01*
X149971882Y-94372196D01*
X150033047Y-94373797D01*
X150078541Y-94406851D01*
X150097891Y-94432069D01*
X150162600Y-94516400D01*
X150171718Y-94528282D01*
X150171722Y-94528285D01*
X150171723Y-94528286D01*
X150201082Y-94550813D01*
X150297159Y-94624536D01*
X150297160Y-94624536D01*
X150297161Y-94624537D01*
X150362784Y-94651719D01*
X150443238Y-94685044D01*
X150553924Y-94699616D01*
X150599999Y-94705682D01*
X150600000Y-94705682D01*
X150600001Y-94705682D01*
X150646076Y-94699616D01*
X150756762Y-94685044D01*
X150902841Y-94624536D01*
X151028282Y-94528282D01*
X151124536Y-94402841D01*
X151185044Y-94256762D01*
X151205682Y-94100000D01*
X151185044Y-93943238D01*
X151176822Y-93923388D01*
X151124537Y-93797161D01*
X151124537Y-93797160D01*
X151028286Y-93671723D01*
X151028285Y-93671722D01*
X151028282Y-93671718D01*
X151028277Y-93671714D01*
X151028275Y-93671712D01*
X150999232Y-93649426D01*
X150964576Y-93599001D01*
X150960500Y-93570885D01*
X150960500Y-93288426D01*
X150979407Y-93230235D01*
X151028907Y-93194271D01*
X151090093Y-93194271D01*
X151100627Y-93198373D01*
X151110446Y-93202857D01*
X151127543Y-93210665D01*
X151145319Y-93213220D01*
X151234196Y-93226000D01*
X151234201Y-93226000D01*
X151305804Y-93226000D01*
X151394680Y-93213220D01*
X151412457Y-93210665D01*
X151543373Y-93150877D01*
X151652143Y-93056628D01*
X151729953Y-92935553D01*
X151758155Y-92839502D01*
X151792689Y-92788998D01*
X151850316Y-92768436D01*
X151909023Y-92785674D01*
X151946386Y-92834126D01*
X151951297Y-92854472D01*
X151954955Y-92882259D01*
X151954957Y-92882266D01*
X152015462Y-93028338D01*
X152015462Y-93028339D01*
X152094335Y-93131128D01*
X152111718Y-93153782D01*
X152111722Y-93153785D01*
X152111723Y-93153786D01*
X152125029Y-93163996D01*
X152237159Y-93250036D01*
X152237160Y-93250036D01*
X152237161Y-93250037D01*
X152340866Y-93292993D01*
X152383238Y-93310544D01*
X152500639Y-93326000D01*
X152500640Y-93326000D01*
X152579360Y-93326000D01*
X152579361Y-93326000D01*
X152696762Y-93310544D01*
X152842841Y-93250036D01*
X152968282Y-93153782D01*
X153064536Y-93028341D01*
X153125044Y-92882262D01*
X153145682Y-92725500D01*
X153125044Y-92568738D01*
X153064537Y-92422661D01*
X153064537Y-92422660D01*
X152968286Y-92297223D01*
X152968285Y-92297222D01*
X152968282Y-92297218D01*
X152968277Y-92297214D01*
X152968276Y-92297213D01*
X152842838Y-92200962D01*
X152696766Y-92140457D01*
X152696758Y-92140455D01*
X152579362Y-92125000D01*
X152579361Y-92125000D01*
X152500639Y-92125000D01*
X152500637Y-92125000D01*
X152383241Y-92140455D01*
X152383233Y-92140457D01*
X152237161Y-92200962D01*
X152237160Y-92200962D01*
X152111723Y-92297213D01*
X152111713Y-92297223D01*
X152015462Y-92422660D01*
X152015462Y-92422661D01*
X151954957Y-92568733D01*
X151954955Y-92568740D01*
X151951297Y-92596527D01*
X151924954Y-92651752D01*
X151871183Y-92680946D01*
X151810521Y-92672958D01*
X151766140Y-92630840D01*
X151758156Y-92611499D01*
X151729953Y-92515447D01*
X151680871Y-92439074D01*
X151652144Y-92394373D01*
X151652143Y-92394372D01*
X151543373Y-92300123D01*
X151537001Y-92297213D01*
X151412456Y-92240334D01*
X151305803Y-92224999D01*
X151302279Y-92224748D01*
X151302368Y-92223491D01*
X151248822Y-92206093D01*
X151212858Y-92156593D01*
X151212858Y-92095407D01*
X151215548Y-92088116D01*
X151220044Y-92077262D01*
X151235500Y-91959861D01*
X151235500Y-91181139D01*
X151220044Y-91063738D01*
X151177708Y-90961529D01*
X151159537Y-90917661D01*
X151159537Y-90917660D01*
X151063286Y-90792223D01*
X151063285Y-90792222D01*
X151063282Y-90792218D01*
X151063277Y-90792214D01*
X151063276Y-90792213D01*
X150937838Y-90695962D01*
X150791766Y-90635457D01*
X150791758Y-90635455D01*
X150635001Y-90614818D01*
X150634999Y-90614818D01*
X150478241Y-90635455D01*
X150478233Y-90635457D01*
X150332161Y-90695962D01*
X150332160Y-90695962D01*
X150206723Y-90792213D01*
X150206713Y-90792223D01*
X150110463Y-90917660D01*
X150091464Y-90963528D01*
X150051727Y-91010054D01*
X149992232Y-91024337D01*
X149935704Y-91000922D01*
X149908536Y-90963528D01*
X149891503Y-90922408D01*
X149889536Y-90917659D01*
X149793282Y-90792218D01*
X149793277Y-90792214D01*
X149793276Y-90792213D01*
X149667838Y-90695962D01*
X149521766Y-90635457D01*
X149521758Y-90635455D01*
X149365001Y-90614818D01*
X149364999Y-90614818D01*
X149208241Y-90635455D01*
X149208233Y-90635457D01*
X149062161Y-90695962D01*
X149062160Y-90695962D01*
X148936723Y-90792213D01*
X148936713Y-90792223D01*
X148840463Y-90917660D01*
X148821464Y-90963528D01*
X148781727Y-91010054D01*
X148722232Y-91024337D01*
X148665704Y-91000922D01*
X148638536Y-90963528D01*
X148621503Y-90922408D01*
X148619536Y-90917659D01*
X148523282Y-90792218D01*
X148523277Y-90792214D01*
X148523276Y-90792213D01*
X148397838Y-90695962D01*
X148251766Y-90635457D01*
X148251758Y-90635455D01*
X148095001Y-90614818D01*
X148094999Y-90614818D01*
X147938241Y-90635455D01*
X147938233Y-90635457D01*
X147792161Y-90695962D01*
X147792160Y-90695962D01*
X147666723Y-90792213D01*
X147666714Y-90792222D01*
X147636755Y-90831267D01*
X147586331Y-90865923D01*
X147558213Y-90870000D01*
X145552148Y-90870000D01*
X145549183Y-90869910D01*
X145522852Y-90868318D01*
X145486894Y-90866142D01*
X145425515Y-90877389D01*
X145422561Y-90877839D01*
X145360624Y-90885360D01*
X145349022Y-90889760D01*
X145331771Y-90894569D01*
X145319570Y-90896805D01*
X145319566Y-90896806D01*
X145262680Y-90922408D01*
X145259918Y-90923552D01*
X145201570Y-90945681D01*
X145201567Y-90945683D01*
X145191350Y-90952735D01*
X145175757Y-90961529D01*
X145164446Y-90966620D01*
X145164440Y-90966624D01*
X145115333Y-91005097D01*
X145112925Y-91006868D01*
X145061571Y-91042316D01*
X145020204Y-91089009D01*
X145018155Y-91091186D01*
X143320686Y-92788655D01*
X143318509Y-92790704D01*
X143271816Y-92832071D01*
X143256354Y-92854472D01*
X143236360Y-92883436D01*
X143234611Y-92885813D01*
X143232858Y-92888052D01*
X143196121Y-92934944D01*
X143196120Y-92934944D01*
X143191028Y-92946259D01*
X143182230Y-92961858D01*
X143175181Y-92972070D01*
X143175180Y-92972071D01*
X143153063Y-93030390D01*
X143151919Y-93033152D01*
X143126305Y-93090066D01*
X143126302Y-93090074D01*
X143124065Y-93102282D01*
X143119258Y-93119527D01*
X143114860Y-93131125D01*
X143107341Y-93193045D01*
X143106891Y-93195999D01*
X143095641Y-93257395D01*
X142250500Y-93257395D01*
X142250500Y-93228085D01*
X142250811Y-93222538D01*
X142253019Y-93202940D01*
X142255270Y-93182965D01*
X142244377Y-93125394D01*
X142244081Y-93123659D01*
X142235348Y-93065713D01*
X142235347Y-93065710D01*
X142233162Y-93058626D01*
X142233583Y-93058495D01*
X142232889Y-93056386D01*
X142232474Y-93056532D01*
X142230024Y-93049533D01*
X142230024Y-93049529D01*
X142202645Y-92997727D01*
X142201826Y-92996103D01*
X142186880Y-92965069D01*
X142176425Y-92943358D01*
X142176421Y-92943353D01*
X142172246Y-92937229D01*
X142172610Y-92936980D01*
X142171324Y-92935169D01*
X142170970Y-92935431D01*
X142166567Y-92929466D01*
X142166566Y-92929463D01*
X142152398Y-92915295D01*
X142125156Y-92888052D01*
X142123872Y-92886719D01*
X142084056Y-92843806D01*
X142078258Y-92839183D01*
X142078532Y-92838839D01*
X142067397Y-92830294D01*
X141138402Y-91901298D01*
X141134700Y-91897155D01*
X141109879Y-91866030D01*
X141061494Y-91833041D01*
X141059985Y-91831970D01*
X141012881Y-91797206D01*
X141006322Y-91793740D01*
X141006526Y-91793352D01*
X141004544Y-91792352D01*
X141004355Y-91792746D01*
X140997670Y-91789526D01*
X140941713Y-91772266D01*
X140939955Y-91771688D01*
X140884702Y-91752355D01*
X140884701Y-91752354D01*
X140884699Y-91752354D01*
X140884696Y-91752353D01*
X140877414Y-91750976D01*
X140877495Y-91750544D01*
X140875302Y-91750171D01*
X140875237Y-91750605D01*
X140867903Y-91749500D01*
X140867902Y-91749500D01*
X140809358Y-91749500D01*
X140807508Y-91749465D01*
X140752174Y-91747395D01*
X140748990Y-91747276D01*
X140748989Y-91747276D01*
X140741615Y-91748107D01*
X140741565Y-91747668D01*
X140727656Y-91749500D01*
X135328087Y-91749500D01*
X135322541Y-91749189D01*
X135309041Y-91747668D01*
X135282965Y-91744730D01*
X135282964Y-91744730D01*
X135282963Y-91744730D01*
X135225404Y-91755619D01*
X135223581Y-91755928D01*
X135165715Y-91764651D01*
X135158629Y-91766837D01*
X135158500Y-91766419D01*
X135156385Y-91767115D01*
X135156529Y-91767526D01*
X135149529Y-91769975D01*
X135097744Y-91797344D01*
X135096093Y-91798178D01*
X135043356Y-91823575D01*
X135037229Y-91827753D01*
X135036984Y-91827393D01*
X135035168Y-91828681D01*
X135035427Y-91829032D01*
X135029458Y-91833437D01*
X134988066Y-91874829D01*
X134986734Y-91876113D01*
X134943802Y-91915948D01*
X134939179Y-91921746D01*
X134938835Y-91921472D01*
X134930297Y-91932597D01*
X134201301Y-92661593D01*
X134197160Y-92665294D01*
X134166030Y-92690119D01*
X134166029Y-92690120D01*
X134133035Y-92738512D01*
X134131965Y-92740020D01*
X134097207Y-92787116D01*
X134093742Y-92793674D01*
X134093353Y-92793468D01*
X134092350Y-92795455D01*
X134092746Y-92795646D01*
X134089526Y-92802331D01*
X134072264Y-92858294D01*
X134071686Y-92860050D01*
X134052355Y-92915295D01*
X134050976Y-92922587D01*
X134050544Y-92922505D01*
X134050171Y-92924700D01*
X134050605Y-92924766D01*
X134049500Y-92932099D01*
X134049500Y-92990641D01*
X134049465Y-92992491D01*
X134047276Y-93051010D01*
X134048107Y-93058385D01*
X134047668Y-93058434D01*
X134049500Y-93072344D01*
X134049500Y-93659006D01*
X134030593Y-93717197D01*
X134017164Y-93731828D01*
X134017205Y-93731869D01*
X134016262Y-93732811D01*
X134015336Y-93733821D01*
X134014713Y-93734360D01*
X134014696Y-93734377D01*
X133920554Y-93843023D01*
X133920545Y-93843036D01*
X133889099Y-93891967D01*
X133889092Y-93891980D01*
X133829364Y-94022767D01*
X133812973Y-94078590D01*
X133812972Y-94078594D01*
X133792511Y-94220902D01*
X133792511Y-94279093D01*
X133794564Y-94293375D01*
X133795571Y-94307462D01*
X133795571Y-94692537D01*
X133794564Y-94706623D01*
X133792511Y-94720904D01*
X133792511Y-94779097D01*
X133812972Y-94921405D01*
X133812973Y-94921409D01*
X133826602Y-94967826D01*
X133829366Y-94977238D01*
X133859509Y-95043241D01*
X133889092Y-95108019D01*
X133889099Y-95108032D01*
X133920545Y-95156963D01*
X133920554Y-95156976D01*
X134014696Y-95265622D01*
X134014705Y-95265632D01*
X134058680Y-95303737D01*
X134129022Y-95348942D01*
X134167753Y-95396308D01*
X134174499Y-95432227D01*
X134174500Y-95783625D01*
X134174312Y-95787927D01*
X134171529Y-95819746D01*
X134170736Y-95828806D01*
X134181354Y-95868436D01*
X134182289Y-95872652D01*
X134189411Y-95913045D01*
X134190164Y-95914348D01*
X134200054Y-95938224D01*
X134200443Y-95939679D01*
X134200446Y-95939684D01*
X134205431Y-95946804D01*
X134223971Y-95973281D01*
X134226288Y-95976918D01*
X134243592Y-96006889D01*
X134246806Y-96012455D01*
X134278224Y-96038818D01*
X134281410Y-96041737D01*
X135177779Y-96938105D01*
X136069669Y-97829996D01*
X136097446Y-97884512D01*
X136087875Y-97944944D01*
X136069669Y-97970003D01*
X133081413Y-100958259D01*
X133078229Y-100961176D01*
X133046807Y-100987542D01*
X133046806Y-100987544D01*
X133026292Y-101023075D01*
X133023972Y-101026716D01*
X133000446Y-101060316D01*
X133000442Y-101060324D01*
X133000051Y-101061786D01*
X132990170Y-101085640D01*
X132989414Y-101086948D01*
X132989410Y-101086960D01*
X132982287Y-101127349D01*
X132981353Y-101131564D01*
X132970736Y-101171187D01*
X132970736Y-101171193D01*
X132974312Y-101212072D01*
X132974500Y-101216373D01*
X132974500Y-105683625D01*
X132974312Y-105687927D01*
X132971170Y-105723844D01*
X132970736Y-105728806D01*
X132981354Y-105768436D01*
X132982289Y-105772652D01*
X132989411Y-105813045D01*
X132990164Y-105814348D01*
X133000054Y-105838224D01*
X133000443Y-105839679D01*
X133000446Y-105839684D01*
X133023971Y-105873281D01*
X133026292Y-105876924D01*
X133046806Y-105912455D01*
X133078224Y-105938818D01*
X133081410Y-105941737D01*
X134076706Y-106937032D01*
X134104483Y-106991549D01*
X134104855Y-107019957D01*
X134094318Y-107099998D01*
X134094318Y-107100000D01*
X134114955Y-107256758D01*
X134114957Y-107256766D01*
X134175462Y-107402838D01*
X134175462Y-107402839D01*
X134258073Y-107510500D01*
X134271718Y-107528282D01*
X134397159Y-107624536D01*
X134397160Y-107624536D01*
X134397161Y-107624537D01*
X134439690Y-107642153D01*
X134543238Y-107685044D01*
X134653043Y-107699500D01*
X134699999Y-107705682D01*
X134700000Y-107705682D01*
X134700001Y-107705682D01*
X134746957Y-107699500D01*
X134856762Y-107685044D01*
X134857607Y-107684693D01*
X134858259Y-107684642D01*
X134863030Y-107683364D01*
X134863266Y-107684247D01*
X134918601Y-107679887D01*
X134970773Y-107711850D01*
X134994194Y-107768376D01*
X134994500Y-107776154D01*
X134994500Y-109973998D01*
X134995674Y-109984919D01*
X134983094Y-110044797D01*
X134937722Y-110085846D01*
X134897241Y-110094500D01*
X132726000Y-110094500D01*
X132682708Y-110099154D01*
X132661061Y-110101481D01*
X132623547Y-110109641D01*
X132608721Y-110112867D01*
X132608718Y-110112867D01*
X132608708Y-110112870D01*
X132570515Y-110123823D01*
X132570512Y-110123825D01*
X132473595Y-110180506D01*
X132419943Y-110226996D01*
X132419942Y-110226997D01*
X132377762Y-110271733D01*
X132326877Y-110371809D01*
X132306874Y-110439933D01*
X132294500Y-110525995D01*
X132294500Y-111995500D01*
X132275593Y-112053691D01*
X132226093Y-112089655D01*
X132195500Y-112094500D01*
X131926000Y-112094500D01*
X131882708Y-112099154D01*
X131861061Y-112101481D01*
X131823547Y-112109641D01*
X131808721Y-112112867D01*
X131808718Y-112112867D01*
X131808708Y-112112870D01*
X131770515Y-112123823D01*
X131770512Y-112123825D01*
X131673595Y-112180506D01*
X131619943Y-112226996D01*
X131619942Y-112226997D01*
X131577762Y-112271733D01*
X131526877Y-112371809D01*
X131506874Y-112439933D01*
X131494500Y-112525995D01*
X131494499Y-119273996D01*
X131501481Y-119338938D01*
X131512870Y-119391291D01*
X131523823Y-119429484D01*
X131523824Y-119429486D01*
X131523825Y-119429488D01*
X131580504Y-119526401D01*
X131580506Y-119526404D01*
X131620884Y-119573002D01*
X131626997Y-119580057D01*
X131671733Y-119622238D01*
X131771810Y-119673123D01*
X131839931Y-119693125D01*
X131868620Y-119697249D01*
X131925996Y-119705500D01*
X131926000Y-119705500D01*
X138273996Y-119705500D01*
X138274000Y-119705500D01*
X138338937Y-119698519D01*
X138391279Y-119687133D01*
X138429488Y-119676175D01*
X138526401Y-119619496D01*
X138580057Y-119573003D01*
X138622238Y-119528267D01*
X138673123Y-119428190D01*
X138693125Y-119360069D01*
X138698428Y-119323182D01*
X138705500Y-119274004D01*
X138705500Y-117500002D01*
X141044732Y-117500002D01*
X141063777Y-117754152D01*
X141063779Y-117754161D01*
X141120492Y-118002639D01*
X141213604Y-118239881D01*
X141213607Y-118239888D01*
X141341041Y-118460612D01*
X141341045Y-118460618D01*
X141341047Y-118460620D01*
X141499940Y-118659866D01*
X141499951Y-118659878D01*
X141686776Y-118833226D01*
X141686778Y-118833227D01*
X141686783Y-118833232D01*
X141897366Y-118976805D01*
X142126996Y-119087389D01*
X142370542Y-119162513D01*
X142622565Y-119200500D01*
X142622570Y-119200500D01*
X142877430Y-119200500D01*
X142877435Y-119200500D01*
X143129458Y-119162513D01*
X143373004Y-119087389D01*
X143602634Y-118976805D01*
X143813217Y-118833232D01*
X144000050Y-118659877D01*
X144158959Y-118460612D01*
X144286393Y-118239888D01*
X144379508Y-118002637D01*
X144436222Y-117754157D01*
X144455268Y-117500000D01*
X144449129Y-117418085D01*
X144436222Y-117245847D01*
X144436222Y-117245843D01*
X144379508Y-116997363D01*
X144286393Y-116760112D01*
X144158959Y-116539388D01*
X144158952Y-116539379D01*
X144000059Y-116340133D01*
X144000048Y-116340121D01*
X143813223Y-116166773D01*
X143813220Y-116166771D01*
X143813217Y-116166768D01*
X143602634Y-116023195D01*
X143373004Y-115912611D01*
X143373003Y-115912610D01*
X143129462Y-115837488D01*
X143129459Y-115837487D01*
X143129458Y-115837487D01*
X143129453Y-115837486D01*
X143129452Y-115837486D01*
X142877438Y-115799500D01*
X142877435Y-115799500D01*
X142622565Y-115799500D01*
X142622561Y-115799500D01*
X142370547Y-115837486D01*
X142370537Y-115837488D01*
X142126995Y-115912611D01*
X141897373Y-116023191D01*
X141897369Y-116023193D01*
X141897366Y-116023195D01*
X141686783Y-116166768D01*
X141686776Y-116166773D01*
X141499951Y-116340121D01*
X141499940Y-116340133D01*
X141341047Y-116539379D01*
X141341043Y-116539384D01*
X141341041Y-116539388D01*
X141279181Y-116646533D01*
X141213608Y-116760109D01*
X141213604Y-116760118D01*
X141120492Y-116997360D01*
X141063779Y-117245838D01*
X141063777Y-117245847D01*
X141044732Y-117499997D01*
X141044732Y-117500002D01*
X138705500Y-117500002D01*
X138705500Y-115328806D01*
X150870736Y-115328806D01*
X150881354Y-115368436D01*
X150882289Y-115372652D01*
X150889411Y-115413045D01*
X150890164Y-115414348D01*
X150900054Y-115438224D01*
X150900443Y-115439679D01*
X150900446Y-115439684D01*
X150923971Y-115473281D01*
X150926292Y-115476924D01*
X150946806Y-115512455D01*
X150978224Y-115538818D01*
X150981410Y-115541737D01*
X152758268Y-117318596D01*
X152761187Y-117321782D01*
X152787545Y-117353194D01*
X152823083Y-117373711D01*
X152826716Y-117376026D01*
X152860316Y-117399553D01*
X152861766Y-117399941D01*
X152885649Y-117409834D01*
X152886955Y-117410588D01*
X152927366Y-117417713D01*
X152931555Y-117418641D01*
X152971193Y-117429263D01*
X153012065Y-117425687D01*
X153016365Y-117425500D01*
X167583626Y-117425500D01*
X167587926Y-117425687D01*
X167628807Y-117429264D01*
X167668452Y-117418640D01*
X167672650Y-117417710D01*
X167713045Y-117410588D01*
X167713047Y-117410587D01*
X167714345Y-117409838D01*
X167738236Y-117399942D01*
X167738464Y-117399880D01*
X167739684Y-117399554D01*
X167773303Y-117376012D01*
X167776911Y-117373714D01*
X167812455Y-117353194D01*
X167838827Y-117321763D01*
X167841729Y-117318596D01*
X170005830Y-115154496D01*
X170060348Y-115126719D01*
X170075835Y-115125500D01*
X177071126Y-115125500D01*
X177075426Y-115125687D01*
X177116307Y-115129264D01*
X177155952Y-115118640D01*
X177160150Y-115117710D01*
X177200545Y-115110588D01*
X177201845Y-115109838D01*
X177225736Y-115099942D01*
X177225964Y-115099880D01*
X177227184Y-115099554D01*
X177260803Y-115076012D01*
X177264411Y-115073714D01*
X177299955Y-115053194D01*
X177326327Y-115021763D01*
X177329226Y-115018598D01*
X178647825Y-113699999D01*
X182713694Y-113699999D01*
X182732893Y-113968443D01*
X182790104Y-114231438D01*
X182884156Y-114483601D01*
X182884160Y-114483609D01*
X183013133Y-114719808D01*
X183121864Y-114865055D01*
X183174425Y-114935268D01*
X183364732Y-115125575D01*
X183383537Y-115139652D01*
X183580191Y-115286866D01*
X183816390Y-115415839D01*
X183816398Y-115415843D01*
X183816400Y-115415844D01*
X184068561Y-115509895D01*
X184068566Y-115509897D01*
X184331551Y-115567106D01*
X184600000Y-115586306D01*
X184868449Y-115567106D01*
X185131434Y-115509897D01*
X185383600Y-115415844D01*
X185470422Y-115368436D01*
X185619808Y-115286866D01*
X185619811Y-115286863D01*
X185619814Y-115286862D01*
X185835268Y-115125575D01*
X186025575Y-114935268D01*
X186186862Y-114719814D01*
X186186863Y-114719811D01*
X186186866Y-114719808D01*
X186308701Y-114496682D01*
X186315844Y-114483600D01*
X186409897Y-114231434D01*
X186467106Y-113968449D01*
X186486306Y-113700000D01*
X186467106Y-113431551D01*
X186409897Y-113168566D01*
X186315844Y-112916400D01*
X186315839Y-112916390D01*
X186186866Y-112680191D01*
X186131897Y-112606762D01*
X186025575Y-112464732D01*
X185835268Y-112274425D01*
X185709807Y-112180506D01*
X185619808Y-112113133D01*
X185383609Y-111984160D01*
X185383601Y-111984156D01*
X185131437Y-111890104D01*
X185131439Y-111890104D01*
X185072746Y-111877336D01*
X184868449Y-111832894D01*
X184868446Y-111832893D01*
X184868443Y-111832893D01*
X184600000Y-111813694D01*
X184331556Y-111832893D01*
X184068561Y-111890104D01*
X183816398Y-111984156D01*
X183816390Y-111984160D01*
X183580191Y-112113133D01*
X183364734Y-112274423D01*
X183174423Y-112464734D01*
X183013133Y-112680191D01*
X182884160Y-112916390D01*
X182884156Y-112916398D01*
X182790104Y-113168561D01*
X182732893Y-113431556D01*
X182713694Y-113699999D01*
X178647825Y-113699999D01*
X181568329Y-110779496D01*
X181622847Y-110751719D01*
X181638334Y-110750500D01*
X182183257Y-110750500D01*
X182183260Y-110750500D01*
X182251393Y-110740573D01*
X182356483Y-110689198D01*
X182439198Y-110606483D01*
X182483791Y-110515266D01*
X182724500Y-110515266D01*
X182727274Y-110544844D01*
X182727276Y-110544852D01*
X182770884Y-110669476D01*
X182831582Y-110751719D01*
X182849289Y-110775711D01*
X182849292Y-110775713D01*
X182849293Y-110775714D01*
X182955523Y-110854115D01*
X182955524Y-110854115D01*
X182955525Y-110854116D01*
X183080151Y-110897725D01*
X183107441Y-110900284D01*
X183109733Y-110900499D01*
X183109738Y-110900500D01*
X183109744Y-110900500D01*
X183690262Y-110900500D01*
X183690265Y-110900499D01*
X183719849Y-110897725D01*
X183844475Y-110854116D01*
X183950711Y-110775711D01*
X184004218Y-110703210D01*
X184053984Y-110667619D01*
X184083872Y-110663000D01*
X184316128Y-110663000D01*
X184374319Y-110681907D01*
X184395779Y-110703207D01*
X184449289Y-110775711D01*
X184449292Y-110775713D01*
X184449293Y-110775714D01*
X184555523Y-110854115D01*
X184555524Y-110854115D01*
X184555525Y-110854116D01*
X184680151Y-110897725D01*
X184707441Y-110900284D01*
X184709733Y-110900499D01*
X184709738Y-110900500D01*
X184709744Y-110900500D01*
X185290262Y-110900500D01*
X185290265Y-110900499D01*
X185319849Y-110897725D01*
X185444475Y-110854116D01*
X185550711Y-110775711D01*
X185629116Y-110669475D01*
X185672725Y-110544849D01*
X185675500Y-110515256D01*
X185675500Y-109834744D01*
X185675500Y-109834743D01*
X185675500Y-109834738D01*
X185675499Y-109834733D01*
X185672725Y-109805155D01*
X185672725Y-109805151D01*
X185629116Y-109680525D01*
X185629113Y-109680521D01*
X185550714Y-109574293D01*
X185550713Y-109574292D01*
X185550711Y-109574289D01*
X185550706Y-109574285D01*
X185444476Y-109495884D01*
X185319852Y-109452276D01*
X185319851Y-109452275D01*
X185319849Y-109452275D01*
X185319847Y-109452274D01*
X185319844Y-109452274D01*
X185290266Y-109449500D01*
X185290256Y-109449500D01*
X184709744Y-109449500D01*
X184709733Y-109449500D01*
X184680155Y-109452274D01*
X184680147Y-109452276D01*
X184555523Y-109495884D01*
X184449293Y-109574285D01*
X184449285Y-109574293D01*
X184370885Y-109680521D01*
X184370883Y-109680525D01*
X184365574Y-109695699D01*
X184328508Y-109744379D01*
X184272130Y-109762000D01*
X184083872Y-109762000D01*
X184025681Y-109743093D01*
X184004220Y-109721792D01*
X183950711Y-109649289D01*
X183950706Y-109649285D01*
X183844476Y-109570884D01*
X183719852Y-109527276D01*
X183719851Y-109527275D01*
X183719849Y-109527275D01*
X183719847Y-109527274D01*
X183719844Y-109527274D01*
X183690266Y-109524500D01*
X183690256Y-109524500D01*
X183109744Y-109524500D01*
X183109733Y-109524500D01*
X183080155Y-109527274D01*
X183080147Y-109527276D01*
X182955523Y-109570884D01*
X182849293Y-109649285D01*
X182849285Y-109649293D01*
X182770884Y-109755523D01*
X182727276Y-109880147D01*
X182727274Y-109880155D01*
X182724500Y-109909733D01*
X182724500Y-110515266D01*
X182483791Y-110515266D01*
X182490573Y-110501393D01*
X182500500Y-110433260D01*
X182500500Y-110066740D01*
X182490573Y-109998607D01*
X182483881Y-109984919D01*
X182457825Y-109931620D01*
X182439198Y-109893517D01*
X182356483Y-109810802D01*
X182344924Y-109805151D01*
X182251395Y-109759427D01*
X182224139Y-109755456D01*
X182183260Y-109749500D01*
X181091740Y-109749500D01*
X181057673Y-109754463D01*
X181023604Y-109759427D01*
X180918518Y-109810801D01*
X180835801Y-109893518D01*
X180784427Y-109998604D01*
X180784427Y-109998607D01*
X180774500Y-110066740D01*
X180774500Y-110433260D01*
X180778551Y-110461061D01*
X180784427Y-110501395D01*
X180799795Y-110532830D01*
X180808366Y-110593412D01*
X180780858Y-110646314D01*
X176981670Y-114445504D01*
X176927153Y-114473281D01*
X176911666Y-114474500D01*
X169916366Y-114474500D01*
X169912065Y-114474312D01*
X169875726Y-114471133D01*
X169871194Y-114470737D01*
X169871189Y-114470737D01*
X169831570Y-114481353D01*
X169827354Y-114482288D01*
X169786956Y-114489411D01*
X169786948Y-114489414D01*
X169785640Y-114490170D01*
X169761786Y-114500051D01*
X169760324Y-114500442D01*
X169760314Y-114500447D01*
X169726716Y-114523971D01*
X169723075Y-114526290D01*
X169687545Y-114546804D01*
X169661186Y-114578218D01*
X169658268Y-114581402D01*
X167494170Y-116745504D01*
X167439653Y-116773281D01*
X167424166Y-116774500D01*
X153175835Y-116774500D01*
X153117644Y-116755593D01*
X153105831Y-116745504D01*
X151554496Y-115194169D01*
X151526719Y-115139652D01*
X151525500Y-115124165D01*
X151525500Y-111075834D01*
X151544407Y-111017643D01*
X151554496Y-111005830D01*
X152805831Y-109754496D01*
X152860348Y-109726719D01*
X152875835Y-109725500D01*
X155683626Y-109725500D01*
X155687926Y-109725687D01*
X155728807Y-109729264D01*
X155768452Y-109718640D01*
X155772650Y-109717710D01*
X155813045Y-109710588D01*
X155814345Y-109709838D01*
X155838236Y-109699942D01*
X155838464Y-109699880D01*
X155839684Y-109699554D01*
X155873303Y-109676012D01*
X155876911Y-109673714D01*
X155912455Y-109653194D01*
X155938838Y-109621750D01*
X155941726Y-109618598D01*
X156537034Y-109023290D01*
X156591549Y-108995515D01*
X156619952Y-108995143D01*
X156700000Y-109005682D01*
X156856762Y-108985044D01*
X157002841Y-108924536D01*
X157128282Y-108828282D01*
X157224536Y-108702841D01*
X157285044Y-108556762D01*
X157305682Y-108400000D01*
X157285044Y-108243238D01*
X157265958Y-108197160D01*
X157224537Y-108097161D01*
X157224537Y-108097160D01*
X157128286Y-107971723D01*
X157128285Y-107971722D01*
X157128282Y-107971718D01*
X157128277Y-107971714D01*
X157128276Y-107971713D01*
X157057104Y-107917101D01*
X157002841Y-107875464D01*
X157002840Y-107875463D01*
X157002838Y-107875462D01*
X156856766Y-107814957D01*
X156856758Y-107814955D01*
X156700001Y-107794318D01*
X156699999Y-107794318D01*
X156578524Y-107810310D01*
X156518363Y-107799160D01*
X156476246Y-107754777D01*
X156468260Y-107694115D01*
X156495597Y-107642155D01*
X156573324Y-107564429D01*
X156625433Y-107457840D01*
X156635500Y-107388742D01*
X156635500Y-107011258D01*
X156625433Y-106942160D01*
X156573324Y-106835571D01*
X156489429Y-106751676D01*
X156489427Y-106751675D01*
X156489426Y-106751674D01*
X156433813Y-106724486D01*
X156382840Y-106699567D01*
X156313742Y-106689500D01*
X155821258Y-106689500D01*
X155752160Y-106699567D01*
X155645573Y-106751674D01*
X155561674Y-106835573D01*
X155512074Y-106937032D01*
X155509567Y-106942160D01*
X155500486Y-107004496D01*
X155499500Y-107011261D01*
X155499500Y-107388738D01*
X155499499Y-107388738D01*
X155509567Y-107457839D01*
X155561674Y-107564426D01*
X155561675Y-107564427D01*
X155561676Y-107564429D01*
X155627327Y-107630080D01*
X155655103Y-107684595D01*
X155645532Y-107745027D01*
X155602267Y-107788292D01*
X155570244Y-107798235D01*
X155443241Y-107814955D01*
X155443233Y-107814957D01*
X155297161Y-107875462D01*
X155297160Y-107875462D01*
X155171723Y-107971713D01*
X155171713Y-107971723D01*
X155075462Y-108097160D01*
X155075462Y-108097161D01*
X155014957Y-108243233D01*
X155014955Y-108243241D01*
X154994318Y-108399999D01*
X154994318Y-108400000D01*
X155014955Y-108556758D01*
X155014957Y-108556766D01*
X155075462Y-108702838D01*
X155075462Y-108702839D01*
X155164908Y-108819407D01*
X155171718Y-108828282D01*
X155223732Y-108868194D01*
X155261219Y-108896958D01*
X155295875Y-108947382D01*
X155294274Y-109008546D01*
X155257027Y-109057088D01*
X155200952Y-109074500D01*
X152716363Y-109074500D01*
X152712062Y-109074312D01*
X152671193Y-109070737D01*
X152671189Y-109070737D01*
X152631570Y-109081353D01*
X152627354Y-109082288D01*
X152586956Y-109089411D01*
X152586948Y-109089414D01*
X152585640Y-109090170D01*
X152561786Y-109100051D01*
X152560324Y-109100442D01*
X152560314Y-109100447D01*
X152526716Y-109123971D01*
X152523075Y-109126290D01*
X152487545Y-109146804D01*
X152461186Y-109178218D01*
X152458268Y-109181402D01*
X150981413Y-110658258D01*
X150978229Y-110661176D01*
X150946807Y-110687542D01*
X150946806Y-110687544D01*
X150926292Y-110723075D01*
X150923972Y-110726716D01*
X150900446Y-110760316D01*
X150900442Y-110760324D01*
X150900051Y-110761786D01*
X150890170Y-110785640D01*
X150889414Y-110786948D01*
X150889410Y-110786960D01*
X150882287Y-110827349D01*
X150881353Y-110831564D01*
X150870736Y-110871187D01*
X150870736Y-110871193D01*
X150874312Y-110912072D01*
X150874500Y-110916373D01*
X150874500Y-115283625D01*
X150874312Y-115287927D01*
X150871170Y-115323844D01*
X150870736Y-115328806D01*
X138705500Y-115328806D01*
X138705500Y-110526003D01*
X138704346Y-110515266D01*
X138698519Y-110461063D01*
X138687133Y-110408721D01*
X138676175Y-110370512D01*
X138619496Y-110273599D01*
X138617879Y-110271733D01*
X138573003Y-110219943D01*
X138573002Y-110219942D01*
X138570447Y-110217532D01*
X138528267Y-110177762D01*
X138428190Y-110126877D01*
X138417789Y-110123823D01*
X138360066Y-110106874D01*
X138274004Y-110094500D01*
X138274000Y-110094500D01*
X137702427Y-110094500D01*
X137644236Y-110075593D01*
X137608272Y-110026093D01*
X137604435Y-109981409D01*
X137605500Y-109974002D01*
X137605500Y-107304633D01*
X137605682Y-107301855D01*
X137605682Y-107298148D01*
X137605500Y-107295369D01*
X137605500Y-105326004D01*
X137605499Y-105325995D01*
X137600804Y-105282319D01*
X137589418Y-105229977D01*
X137586930Y-105219797D01*
X137543921Y-105139084D01*
X137497428Y-105085428D01*
X137479835Y-105067473D01*
X137400017Y-105022826D01*
X137358331Y-105010586D01*
X137331893Y-105002823D01*
X137274004Y-104994500D01*
X137274000Y-104994500D01*
X135326000Y-104994500D01*
X135289599Y-104998413D01*
X135282318Y-104999196D01*
X135266865Y-105002557D01*
X135229977Y-105010582D01*
X135229957Y-105010586D01*
X135229961Y-105010586D01*
X135219795Y-105013070D01*
X135139085Y-105056078D01*
X135139081Y-105056081D01*
X135085430Y-105102569D01*
X135067474Y-105120163D01*
X135022826Y-105199982D01*
X135002823Y-105268106D01*
X134994500Y-105325995D01*
X134994500Y-106423845D01*
X134975593Y-106482036D01*
X134926093Y-106518000D01*
X134864907Y-106518000D01*
X134857621Y-106515312D01*
X134857286Y-106515173D01*
X134856763Y-106514956D01*
X134856758Y-106514955D01*
X134700001Y-106494318D01*
X134699998Y-106494318D01*
X134619957Y-106504855D01*
X134559797Y-106493705D01*
X134537032Y-106476706D01*
X133654495Y-105594169D01*
X133626718Y-105539652D01*
X133625499Y-105524165D01*
X133625499Y-103453193D01*
X133625499Y-101375830D01*
X133644406Y-101317643D01*
X133654489Y-101305836D01*
X136705829Y-98254496D01*
X136760347Y-98226719D01*
X136775834Y-98225500D01*
X137544030Y-98225500D01*
X137602221Y-98244407D01*
X137622570Y-98264231D01*
X137671718Y-98328282D01*
X137797159Y-98424536D01*
X137797160Y-98424536D01*
X137797161Y-98424537D01*
X137926918Y-98478284D01*
X137943238Y-98485044D01*
X138060809Y-98500522D01*
X138099999Y-98505682D01*
X138100000Y-98505682D01*
X138100001Y-98505682D01*
X138131352Y-98501554D01*
X138256762Y-98485044D01*
X138402841Y-98424536D01*
X138515235Y-98338292D01*
X138572908Y-98317870D01*
X138631574Y-98335247D01*
X138668821Y-98383789D01*
X138674500Y-98416836D01*
X138674500Y-99524165D01*
X138655593Y-99582356D01*
X138645504Y-99594169D01*
X138062966Y-100176706D01*
X138008449Y-100204483D01*
X137980040Y-100204855D01*
X137900001Y-100194318D01*
X137899999Y-100194318D01*
X137743241Y-100214955D01*
X137743233Y-100214957D01*
X137597161Y-100275462D01*
X137597160Y-100275462D01*
X137471723Y-100371713D01*
X137471713Y-100371723D01*
X137375462Y-100497160D01*
X137375462Y-100497161D01*
X137314957Y-100643233D01*
X137314955Y-100643241D01*
X137294318Y-100799999D01*
X137294318Y-100800000D01*
X137314955Y-100956758D01*
X137314957Y-100956766D01*
X137375462Y-101102838D01*
X137375462Y-101102839D01*
X137461900Y-101215487D01*
X137471718Y-101228282D01*
X137597159Y-101324536D01*
X137597160Y-101324536D01*
X137597161Y-101324537D01*
X137666343Y-101353193D01*
X137743238Y-101385044D01*
X137853453Y-101399554D01*
X137899999Y-101405682D01*
X137900000Y-101405682D01*
X137900001Y-101405682D01*
X137946547Y-101399554D01*
X138056762Y-101385044D01*
X138202841Y-101324536D01*
X138328282Y-101228282D01*
X138424536Y-101102841D01*
X138485044Y-100956762D01*
X138505682Y-100800000D01*
X138495143Y-100719956D01*
X138506292Y-100659799D01*
X138523289Y-100637035D01*
X138762553Y-100397771D01*
X138817068Y-100369996D01*
X138877500Y-100379567D01*
X138920765Y-100422832D01*
X138930336Y-100483264D01*
X138928182Y-100493398D01*
X138920736Y-100521187D01*
X138920736Y-100521193D01*
X138924312Y-100562072D01*
X138924500Y-100566373D01*
X138924500Y-101556528D01*
X138905593Y-101614719D01*
X138885768Y-101635070D01*
X138821718Y-101684217D01*
X138725462Y-101809660D01*
X138725462Y-101809661D01*
X138664957Y-101955733D01*
X138664955Y-101955741D01*
X138644318Y-102112499D01*
X138644318Y-102112500D01*
X138664955Y-102269258D01*
X138664957Y-102269266D01*
X138725462Y-102415338D01*
X138725462Y-102415339D01*
X138821713Y-102540776D01*
X138821718Y-102540782D01*
X138947159Y-102637036D01*
X138947160Y-102637036D01*
X138949121Y-102638541D01*
X138983777Y-102688965D01*
X138982176Y-102750129D01*
X138967396Y-102777350D01*
X138875462Y-102897160D01*
X138875462Y-102897161D01*
X138814957Y-103043233D01*
X138814955Y-103043241D01*
X138794318Y-103199999D01*
X138794318Y-103200000D01*
X138814955Y-103356758D01*
X138814957Y-103356766D01*
X138875462Y-103502838D01*
X138875462Y-103502839D01*
X138968582Y-103624195D01*
X138971718Y-103628282D01*
X139097159Y-103724536D01*
X139097160Y-103724536D01*
X139097161Y-103724537D01*
X139106212Y-103728286D01*
X139243238Y-103785044D01*
X139360809Y-103800522D01*
X139399999Y-103805682D01*
X139400000Y-103805682D01*
X139400001Y-103805682D01*
X139431352Y-103801554D01*
X139556762Y-103785044D01*
X139702841Y-103724536D01*
X139828282Y-103628282D01*
X139877451Y-103564202D01*
X139927872Y-103529548D01*
X139930246Y-103528878D01*
X139968452Y-103518640D01*
X139972645Y-103517711D01*
X140013045Y-103510588D01*
X140013074Y-103510571D01*
X140014345Y-103509838D01*
X140038236Y-103499942D01*
X140038464Y-103499880D01*
X140039684Y-103499554D01*
X140073303Y-103476012D01*
X140076911Y-103473714D01*
X140112455Y-103453194D01*
X140138838Y-103421750D01*
X140141726Y-103418598D01*
X140651018Y-102909306D01*
X140705533Y-102881531D01*
X140744709Y-102883188D01*
X140814944Y-102900500D01*
X140814947Y-102900500D01*
X140985053Y-102900500D01*
X140985056Y-102900500D01*
X141150225Y-102859790D01*
X141300852Y-102780734D01*
X141334851Y-102750613D01*
X141390944Y-102726178D01*
X141450688Y-102739380D01*
X141491262Y-102785178D01*
X141499500Y-102824716D01*
X141499500Y-108442381D01*
X141506497Y-108499999D01*
X141514860Y-108568872D01*
X141575182Y-108727930D01*
X141671817Y-108867929D01*
X141799148Y-108980734D01*
X141949775Y-109059790D01*
X142114944Y-109100500D01*
X142114947Y-109100500D01*
X142285053Y-109100500D01*
X142285056Y-109100500D01*
X142450225Y-109059790D01*
X142600852Y-108980734D01*
X142728183Y-108867929D01*
X142824818Y-108727930D01*
X142885140Y-108568872D01*
X142900500Y-108442372D01*
X142900500Y-101031163D01*
X142919407Y-100972973D01*
X142929490Y-100961166D01*
X146461161Y-97429496D01*
X146515678Y-97401719D01*
X146531165Y-97400500D01*
X147232801Y-97400500D01*
X147268209Y-97412004D01*
X147307631Y-97400500D01*
X153188127Y-97400500D01*
X153246318Y-97419407D01*
X153267128Y-97439836D01*
X153358639Y-97561016D01*
X153486240Y-97677340D01*
X153516505Y-97730514D01*
X153509734Y-97791323D01*
X153468514Y-97836540D01*
X153419543Y-97849500D01*
X147881165Y-97849500D01*
X147822974Y-97830593D01*
X147811162Y-97820504D01*
X147735187Y-97744530D01*
X147735185Y-97744528D01*
X147624040Y-97677338D01*
X147589607Y-97656522D01*
X147589605Y-97656521D01*
X147492631Y-97626304D01*
X147427196Y-97605914D01*
X147427193Y-97605913D01*
X147427192Y-97605913D01*
X147301653Y-97598319D01*
X147273300Y-97587172D01*
X147250646Y-97596878D01*
X147090072Y-97626304D01*
X147090067Y-97626305D01*
X146934943Y-97696122D01*
X146834639Y-97774705D01*
X146834636Y-97774707D01*
X143820686Y-100788655D01*
X143818509Y-100790704D01*
X143771816Y-100832071D01*
X143768513Y-100836857D01*
X143736360Y-100883436D01*
X143734611Y-100885813D01*
X143707296Y-100920679D01*
X143696121Y-100934944D01*
X143696120Y-100934944D01*
X143691028Y-100946259D01*
X143682230Y-100961858D01*
X143675181Y-100972070D01*
X143675180Y-100972071D01*
X143653063Y-101030390D01*
X143651919Y-101033152D01*
X143626305Y-101090066D01*
X143626302Y-101090074D01*
X143624065Y-101102282D01*
X143619258Y-101119527D01*
X143614860Y-101131125D01*
X143607341Y-101193045D01*
X143606891Y-101195999D01*
X143595641Y-101257395D01*
X143597067Y-101280956D01*
X143599410Y-101319692D01*
X143599500Y-101322658D01*
X143599500Y-108268834D01*
X143580593Y-108327025D01*
X143570504Y-108338837D01*
X143334633Y-108574709D01*
X139224707Y-112684636D01*
X139224705Y-112684639D01*
X139146122Y-112784943D01*
X139076305Y-112940066D01*
X139076304Y-112940071D01*
X139045641Y-113107392D01*
X139055913Y-113277191D01*
X139055913Y-113277193D01*
X139055914Y-113277196D01*
X139078570Y-113349904D01*
X139106521Y-113439605D01*
X139106522Y-113439607D01*
X139171914Y-113547777D01*
X139194528Y-113585185D01*
X139314815Y-113705472D01*
X139460394Y-113793478D01*
X139622804Y-113844086D01*
X139792606Y-113854358D01*
X139792606Y-113854357D01*
X139792607Y-113854358D01*
X139826071Y-113848225D01*
X139959932Y-113823695D01*
X140115057Y-113753878D01*
X140215367Y-113675290D01*
X144325290Y-109565367D01*
X144779327Y-109111328D01*
X144781466Y-109109315D01*
X144828183Y-109067929D01*
X144863653Y-109016540D01*
X144865373Y-109014202D01*
X144903878Y-108965056D01*
X144908966Y-108953748D01*
X144917769Y-108938140D01*
X144924818Y-108927930D01*
X144946951Y-108869565D01*
X144948077Y-108866848D01*
X144973695Y-108809931D01*
X144975931Y-108797723D01*
X144980745Y-108780459D01*
X144985140Y-108768872D01*
X144992660Y-108706933D01*
X144993105Y-108704008D01*
X145004358Y-108642606D01*
X145000589Y-108580307D01*
X145000500Y-108577340D01*
X145000500Y-103300000D01*
X150894318Y-103300000D01*
X150914955Y-103456758D01*
X150914957Y-103456766D01*
X150975462Y-103602838D01*
X150975462Y-103602839D01*
X151068844Y-103724537D01*
X151071718Y-103728282D01*
X151197159Y-103824536D01*
X151343238Y-103885044D01*
X151500000Y-103905682D01*
X151580041Y-103895143D01*
X151640199Y-103906292D01*
X151662966Y-103923292D01*
X151890757Y-104151084D01*
X151893675Y-104154269D01*
X151920044Y-104185693D01*
X151920045Y-104185694D01*
X151955573Y-104206206D01*
X151959212Y-104208525D01*
X151992811Y-104232051D01*
X151992813Y-104232052D01*
X151992816Y-104232054D01*
X151994267Y-104232442D01*
X152018159Y-104242340D01*
X152018686Y-104242643D01*
X152019455Y-104243088D01*
X152059851Y-104250210D01*
X152064048Y-104251140D01*
X152103693Y-104261764D01*
X152144573Y-104258187D01*
X152148874Y-104258000D01*
X152942735Y-104258000D01*
X153000926Y-104276907D01*
X153031675Y-104313519D01*
X153051672Y-104354423D01*
X153051674Y-104354426D01*
X153051675Y-104354427D01*
X153051676Y-104354429D01*
X153135571Y-104438324D01*
X153242160Y-104490433D01*
X153311258Y-104500500D01*
X153311261Y-104500500D01*
X153688738Y-104500500D01*
X153688742Y-104500500D01*
X153757840Y-104490433D01*
X153864429Y-104438324D01*
X153948324Y-104354429D01*
X154000433Y-104247840D01*
X154010500Y-104178742D01*
X154010500Y-103686258D01*
X154000433Y-103617160D01*
X153948324Y-103510571D01*
X153864429Y-103426676D01*
X153864427Y-103426675D01*
X153864426Y-103426674D01*
X153813175Y-103401619D01*
X153787239Y-103388939D01*
X153743267Y-103346398D01*
X153732697Y-103286132D01*
X153759569Y-103231164D01*
X153787238Y-103211060D01*
X153864429Y-103173324D01*
X153948324Y-103089429D01*
X153957533Y-103070593D01*
X153968325Y-103048519D01*
X154010868Y-103004545D01*
X154057265Y-102993000D01*
X154095500Y-102993000D01*
X154153691Y-103011907D01*
X154189655Y-103061407D01*
X154194500Y-103092000D01*
X154194500Y-103220504D01*
X154194890Y-103229437D01*
X154196557Y-103248487D01*
X154196559Y-103248500D01*
X154223305Y-103333328D01*
X154223308Y-103333336D01*
X154223311Y-103333342D01*
X154223312Y-103333343D01*
X154252034Y-103383092D01*
X154252038Y-103383098D01*
X154282897Y-103423838D01*
X154328353Y-103453195D01*
X154359722Y-103473455D01*
X154413716Y-103493107D01*
X154413726Y-103493108D01*
X154417887Y-103494224D01*
X154417542Y-103495511D01*
X154466696Y-103521631D01*
X154493533Y-103576617D01*
X154494500Y-103590421D01*
X154494500Y-106020504D01*
X154494890Y-106029437D01*
X154496557Y-106048487D01*
X154496559Y-106048500D01*
X154523305Y-106133328D01*
X154523308Y-106133336D01*
X154523311Y-106133342D01*
X154523312Y-106133343D01*
X154552034Y-106183092D01*
X154552038Y-106183098D01*
X154582897Y-106223838D01*
X154620255Y-106247965D01*
X154659722Y-106273455D01*
X154713716Y-106293107D01*
X154784000Y-106305500D01*
X154784001Y-106305500D01*
X159324486Y-106305500D01*
X159382677Y-106324407D01*
X159418641Y-106373907D01*
X159418641Y-106435093D01*
X159382677Y-106484593D01*
X159353715Y-106499087D01*
X159352160Y-106499567D01*
X159245573Y-106551674D01*
X159161674Y-106635573D01*
X159109567Y-106742160D01*
X159099500Y-106811261D01*
X159099500Y-107188738D01*
X159099499Y-107188738D01*
X159100699Y-107196974D01*
X159109567Y-107257840D01*
X159121238Y-107281713D01*
X159161674Y-107364426D01*
X159161675Y-107364427D01*
X159161676Y-107364429D01*
X159245571Y-107448324D01*
X159352160Y-107500433D01*
X159421258Y-107510500D01*
X159575500Y-107510500D01*
X159633691Y-107529407D01*
X159669655Y-107578907D01*
X159674500Y-107609500D01*
X159674500Y-107944028D01*
X159655593Y-108002219D01*
X159635768Y-108022570D01*
X159571718Y-108071717D01*
X159475462Y-108197160D01*
X159475462Y-108197161D01*
X159414957Y-108343233D01*
X159414955Y-108343241D01*
X159394318Y-108499999D01*
X159394318Y-108500000D01*
X159414955Y-108656758D01*
X159414957Y-108656766D01*
X159475462Y-108802838D01*
X159475462Y-108802839D01*
X159568844Y-108924537D01*
X159571718Y-108928282D01*
X159571722Y-108928285D01*
X159571723Y-108928286D01*
X159591573Y-108943517D01*
X159697159Y-109024536D01*
X159697160Y-109024536D01*
X159697161Y-109024537D01*
X159820194Y-109075499D01*
X159843238Y-109085044D01*
X159957228Y-109100051D01*
X159999999Y-109105682D01*
X160000000Y-109105682D01*
X160000001Y-109105682D01*
X160039764Y-109100447D01*
X160156762Y-109085044D01*
X160302841Y-109024536D01*
X160428282Y-108928282D01*
X160524536Y-108802841D01*
X160585044Y-108656762D01*
X160605682Y-108500000D01*
X160585044Y-108343238D01*
X160524537Y-108197161D01*
X160524537Y-108197160D01*
X160476409Y-108134438D01*
X160428282Y-108071718D01*
X160406692Y-108055151D01*
X160364232Y-108022570D01*
X160329577Y-107972145D01*
X160325500Y-107944028D01*
X160325500Y-107283873D01*
X160325687Y-107279572D01*
X160329264Y-107238693D01*
X160318640Y-107199048D01*
X160317710Y-107194848D01*
X160310588Y-107154455D01*
X160309840Y-107153159D01*
X160299942Y-107129267D01*
X160299554Y-107127816D01*
X160276014Y-107094197D01*
X160273715Y-107090589D01*
X160253194Y-107055045D01*
X160253193Y-107055044D01*
X160248863Y-107047544D01*
X160252175Y-107045631D01*
X160235718Y-107004496D01*
X160235500Y-106997925D01*
X160235500Y-106811261D01*
X160235500Y-106811258D01*
X160225433Y-106742160D01*
X160173324Y-106635571D01*
X160089429Y-106551676D01*
X160089427Y-106551675D01*
X160089426Y-106551674D01*
X160033813Y-106524486D01*
X159982840Y-106499567D01*
X159913742Y-106489500D01*
X159601607Y-106489500D01*
X159543416Y-106470593D01*
X159507452Y-106421093D01*
X159507452Y-106359907D01*
X159543416Y-106310407D01*
X159571838Y-106296082D01*
X159633336Y-106276692D01*
X159683098Y-106247962D01*
X159723836Y-106217104D01*
X159723836Y-106217103D01*
X159723838Y-106217102D01*
X159745803Y-106183092D01*
X159773455Y-106140278D01*
X159793107Y-106086284D01*
X159805500Y-106016000D01*
X159805500Y-104357000D01*
X159824407Y-104298809D01*
X159873907Y-104262845D01*
X159904500Y-104258000D01*
X160142735Y-104258000D01*
X160200926Y-104276907D01*
X160231675Y-104313519D01*
X160251672Y-104354423D01*
X160251674Y-104354426D01*
X160251675Y-104354427D01*
X160251676Y-104354429D01*
X160335571Y-104438324D01*
X160442160Y-104490433D01*
X160511258Y-104500500D01*
X160511261Y-104500500D01*
X160888738Y-104500500D01*
X160888742Y-104500500D01*
X160957840Y-104490433D01*
X161064429Y-104438324D01*
X161148324Y-104354429D01*
X161159769Y-104331017D01*
X161202313Y-104287045D01*
X161248709Y-104275500D01*
X161931254Y-104275500D01*
X161989445Y-104294407D01*
X162006071Y-104309666D01*
X162044856Y-104354427D01*
X162068873Y-104382144D01*
X162156293Y-104438325D01*
X162189947Y-104459953D01*
X162293750Y-104490432D01*
X162328035Y-104500499D01*
X162328036Y-104500499D01*
X162328039Y-104500500D01*
X162328041Y-104500500D01*
X162471959Y-104500500D01*
X162471961Y-104500500D01*
X162610053Y-104459953D01*
X162731128Y-104382143D01*
X162825377Y-104273373D01*
X162882724Y-104147801D01*
X162924093Y-104102727D01*
X162984060Y-104090576D01*
X163016252Y-104099989D01*
X163017160Y-104100433D01*
X163086258Y-104110500D01*
X163086261Y-104110500D01*
X163578738Y-104110500D01*
X163578742Y-104110500D01*
X163647840Y-104100433D01*
X163754429Y-104048324D01*
X163838324Y-103964429D01*
X163890433Y-103857840D01*
X163900500Y-103788742D01*
X163900500Y-103411258D01*
X163890433Y-103342160D01*
X163838324Y-103235571D01*
X163754429Y-103151676D01*
X163754427Y-103151675D01*
X163754426Y-103151674D01*
X163698813Y-103124486D01*
X163647840Y-103099567D01*
X163578742Y-103089500D01*
X163578739Y-103089500D01*
X163287979Y-103089500D01*
X163229788Y-103070593D01*
X163217975Y-103060504D01*
X163191065Y-103033594D01*
X163182979Y-103022344D01*
X163181987Y-103023094D01*
X163176458Y-103015772D01*
X163156041Y-102997159D01*
X163140923Y-102983377D01*
X163139275Y-102981804D01*
X163125297Y-102967826D01*
X163122359Y-102965813D01*
X163116996Y-102961564D01*
X163093433Y-102940084D01*
X163084262Y-102936531D01*
X163064086Y-102925895D01*
X163055984Y-102920345D01*
X163055979Y-102920343D01*
X163024957Y-102913046D01*
X163018402Y-102911016D01*
X162988677Y-102899501D01*
X162988674Y-102899500D01*
X162988673Y-102899500D01*
X162988672Y-102899500D01*
X162978848Y-102899500D01*
X162956183Y-102896870D01*
X162946619Y-102894621D01*
X162946618Y-102894621D01*
X162915047Y-102899025D01*
X162908201Y-102899500D01*
X162675154Y-102899500D01*
X162616963Y-102880593D01*
X162596612Y-102860767D01*
X162528286Y-102771723D01*
X162528285Y-102771722D01*
X162528282Y-102771718D01*
X162528277Y-102771714D01*
X162528276Y-102771713D01*
X162457104Y-102717101D01*
X162402841Y-102675464D01*
X162402840Y-102675463D01*
X162402838Y-102675462D01*
X162256766Y-102614957D01*
X162256758Y-102614955D01*
X162100001Y-102594318D01*
X162099999Y-102594318D01*
X161943241Y-102614955D01*
X161943233Y-102614957D01*
X161797161Y-102675462D01*
X161797160Y-102675462D01*
X161671723Y-102771713D01*
X161671713Y-102771723D01*
X161575462Y-102897160D01*
X161575462Y-102897161D01*
X161514957Y-103043233D01*
X161514955Y-103043241D01*
X161494318Y-103199999D01*
X161494318Y-103200000D01*
X161513591Y-103346398D01*
X161514956Y-103356762D01*
X161561408Y-103468907D01*
X161569157Y-103487614D01*
X161573958Y-103548611D01*
X161541988Y-103600780D01*
X161485461Y-103624195D01*
X161477693Y-103624500D01*
X161265820Y-103624500D01*
X161207629Y-103605593D01*
X161176879Y-103568981D01*
X161161086Y-103536676D01*
X161148324Y-103510571D01*
X161064429Y-103426676D01*
X161064427Y-103426675D01*
X161064426Y-103426674D01*
X160975290Y-103383098D01*
X160957840Y-103374567D01*
X160888742Y-103364500D01*
X160511258Y-103364500D01*
X160442159Y-103374567D01*
X160442160Y-103374567D01*
X160335573Y-103426674D01*
X160251673Y-103510574D01*
X160251672Y-103510576D01*
X160231675Y-103551481D01*
X160189132Y-103595455D01*
X160142735Y-103607000D01*
X159904500Y-103607000D01*
X159846309Y-103588093D01*
X159810345Y-103538593D01*
X159805500Y-103508000D01*
X159805500Y-103060479D01*
X159824407Y-103002288D01*
X159834496Y-102990475D01*
X160585475Y-102239496D01*
X160639992Y-102211719D01*
X160655479Y-102210500D01*
X160913738Y-102210500D01*
X160913742Y-102210500D01*
X160982840Y-102200433D01*
X161089429Y-102148324D01*
X161173324Y-102064429D01*
X161173325Y-102064426D01*
X161179124Y-102058628D01*
X161180685Y-102060189D01*
X161220705Y-102030603D01*
X161252078Y-102025500D01*
X161283626Y-102025500D01*
X161287926Y-102025687D01*
X161328807Y-102029264D01*
X161368452Y-102018640D01*
X161372650Y-102017710D01*
X161413045Y-102010588D01*
X161414345Y-102009838D01*
X161438236Y-101999942D01*
X161438464Y-101999880D01*
X161439684Y-101999554D01*
X161473303Y-101976012D01*
X161476911Y-101973714D01*
X161512455Y-101953194D01*
X161538838Y-101921750D01*
X161541726Y-101918598D01*
X161937034Y-101523290D01*
X161991549Y-101495515D01*
X162019952Y-101495143D01*
X162100000Y-101505682D01*
X162256762Y-101485044D01*
X162402841Y-101424536D01*
X162528282Y-101328282D01*
X162624536Y-101202841D01*
X162685044Y-101056762D01*
X162705682Y-100900000D01*
X162685044Y-100743238D01*
X162676778Y-100723282D01*
X162624537Y-100597161D01*
X162624537Y-100597160D01*
X162528286Y-100471723D01*
X162528285Y-100471722D01*
X162528282Y-100471718D01*
X162528277Y-100471714D01*
X162528276Y-100471713D01*
X162431103Y-100397150D01*
X162402841Y-100375464D01*
X162402840Y-100375463D01*
X162402838Y-100375462D01*
X162256766Y-100314957D01*
X162256758Y-100314955D01*
X162100001Y-100294318D01*
X162099999Y-100294318D01*
X161943241Y-100314955D01*
X161943233Y-100314957D01*
X161797161Y-100375462D01*
X161797160Y-100375462D01*
X161671723Y-100471713D01*
X161671713Y-100471723D01*
X161575462Y-100597160D01*
X161575462Y-100597161D01*
X161514957Y-100743233D01*
X161514955Y-100743241D01*
X161494318Y-100900000D01*
X161504855Y-100980040D01*
X161493705Y-101040201D01*
X161476706Y-101062966D01*
X161258716Y-101280956D01*
X161204199Y-101308733D01*
X161143767Y-101299162D01*
X161118711Y-101280958D01*
X161107754Y-101270001D01*
X161079979Y-101215487D01*
X161089550Y-101155055D01*
X161107753Y-101129999D01*
X161173324Y-101064429D01*
X161225433Y-100957840D01*
X161235500Y-100888742D01*
X161235500Y-100633332D01*
X161254407Y-100575142D01*
X161264490Y-100563335D01*
X161818583Y-100009241D01*
X161821760Y-100006329D01*
X161853194Y-99979955D01*
X161857290Y-99972860D01*
X161902397Y-99932078D01*
X161965057Y-99903878D01*
X162065367Y-99825290D01*
X162279327Y-99611328D01*
X162281466Y-99609315D01*
X162328183Y-99567929D01*
X162363653Y-99516540D01*
X162365373Y-99514202D01*
X162403878Y-99465056D01*
X162408966Y-99453748D01*
X162417769Y-99438140D01*
X162424818Y-99427930D01*
X162446951Y-99369565D01*
X162448077Y-99366848D01*
X162473695Y-99309931D01*
X162475931Y-99297723D01*
X162480745Y-99280459D01*
X162485140Y-99268872D01*
X162492660Y-99206933D01*
X162493105Y-99204008D01*
X162504358Y-99142606D01*
X162500589Y-99080307D01*
X162500500Y-99077340D01*
X162500500Y-98810925D01*
X170449500Y-98810925D01*
X170464927Y-98933053D01*
X170464928Y-98933056D01*
X170464929Y-98933058D01*
X170523238Y-99080330D01*
X170525432Y-99085870D01*
X170525434Y-99085874D01*
X170622037Y-99218837D01*
X170748674Y-99323600D01*
X170897387Y-99393579D01*
X171058823Y-99424375D01*
X171058828Y-99424376D01*
X171058829Y-99424375D01*
X171058830Y-99424376D01*
X171222860Y-99414056D01*
X171379171Y-99363268D01*
X171517940Y-99275202D01*
X171630448Y-99155393D01*
X171709627Y-99011368D01*
X171712546Y-99000000D01*
X172759879Y-99000000D01*
X172778282Y-99139790D01*
X172778284Y-99139799D01*
X172832239Y-99270058D01*
X172832240Y-99270060D01*
X172832241Y-99270061D01*
X172857061Y-99302407D01*
X172918075Y-99381921D01*
X172918078Y-99381924D01*
X172935876Y-99395581D01*
X173029939Y-99467759D01*
X173029940Y-99467759D01*
X173029941Y-99467760D01*
X173160200Y-99521715D01*
X173160202Y-99521715D01*
X173160206Y-99521717D01*
X173265051Y-99535520D01*
X173299999Y-99540121D01*
X173300000Y-99540121D01*
X173300001Y-99540121D01*
X173327958Y-99536440D01*
X173439794Y-99521717D01*
X173452194Y-99516581D01*
X173498793Y-99497279D01*
X173570061Y-99467759D01*
X173664732Y-99395113D01*
X173722407Y-99374689D01*
X173781073Y-99392066D01*
X173785260Y-99395108D01*
X173808698Y-99413093D01*
X173879936Y-99467757D01*
X173879941Y-99467760D01*
X174010200Y-99521715D01*
X174010202Y-99521715D01*
X174010206Y-99521717D01*
X174115051Y-99535520D01*
X174149999Y-99540121D01*
X174150000Y-99540121D01*
X174150001Y-99540121D01*
X174177958Y-99536440D01*
X174289794Y-99521717D01*
X174302194Y-99516581D01*
X174348793Y-99497279D01*
X174420061Y-99467759D01*
X174514734Y-99395112D01*
X174572406Y-99374689D01*
X174631072Y-99392065D01*
X174635267Y-99395114D01*
X174729936Y-99467757D01*
X174729941Y-99467760D01*
X174860200Y-99521715D01*
X174860202Y-99521715D01*
X174860206Y-99521717D01*
X174965051Y-99535520D01*
X174999999Y-99540121D01*
X175000000Y-99540121D01*
X175000001Y-99540121D01*
X175027958Y-99536440D01*
X175139794Y-99521717D01*
X175152194Y-99516581D01*
X175198793Y-99497279D01*
X175270061Y-99467759D01*
X175364732Y-99395113D01*
X175422407Y-99374689D01*
X175481073Y-99392066D01*
X175485260Y-99395108D01*
X175508698Y-99413093D01*
X175579936Y-99467757D01*
X175579941Y-99467760D01*
X175710200Y-99521715D01*
X175710202Y-99521715D01*
X175710206Y-99521717D01*
X175815051Y-99535520D01*
X175849999Y-99540121D01*
X175850000Y-99540121D01*
X175850001Y-99540121D01*
X175877958Y-99536440D01*
X175989794Y-99521717D01*
X176002194Y-99516581D01*
X176048793Y-99497279D01*
X176120061Y-99467759D01*
X176214732Y-99395113D01*
X176272407Y-99374689D01*
X176331073Y-99392066D01*
X176335289Y-99395130D01*
X176335801Y-99395523D01*
X176370435Y-99445962D01*
X176374500Y-99474039D01*
X176374500Y-99783625D01*
X176374312Y-99787927D01*
X176370736Y-99828807D01*
X176374433Y-99842605D01*
X176381354Y-99868436D01*
X176382289Y-99872652D01*
X176389411Y-99913045D01*
X176390164Y-99914348D01*
X176400054Y-99938224D01*
X176400443Y-99939679D01*
X176400446Y-99939684D01*
X176423677Y-99972862D01*
X176423971Y-99973281D01*
X176426288Y-99976918D01*
X176433989Y-99990256D01*
X176446806Y-100012455D01*
X176478224Y-100038818D01*
X176481410Y-100041737D01*
X177758257Y-101318584D01*
X177761175Y-101321769D01*
X177787544Y-101353193D01*
X177787545Y-101353194D01*
X177823073Y-101373706D01*
X177826712Y-101376025D01*
X177860311Y-101399551D01*
X177860313Y-101399552D01*
X177860316Y-101399554D01*
X177861767Y-101399942D01*
X177885659Y-101409840D01*
X177886186Y-101410143D01*
X177886955Y-101410588D01*
X177927351Y-101417710D01*
X177931548Y-101418640D01*
X177971193Y-101429264D01*
X178012077Y-101425687D01*
X178016377Y-101425500D01*
X178134008Y-101425500D01*
X178192199Y-101444407D01*
X178227452Y-101491802D01*
X178245882Y-101544472D01*
X178245885Y-101544478D01*
X178323311Y-101649386D01*
X178324289Y-101650711D01*
X178324292Y-101650713D01*
X178324293Y-101650714D01*
X178430523Y-101729115D01*
X178430524Y-101729115D01*
X178430525Y-101729116D01*
X178555151Y-101772725D01*
X178582441Y-101775284D01*
X178584733Y-101775499D01*
X178584738Y-101775500D01*
X178584744Y-101775500D01*
X179190262Y-101775500D01*
X179190265Y-101775499D01*
X179219849Y-101772725D01*
X179344475Y-101729116D01*
X179450711Y-101650711D01*
X179529116Y-101544475D01*
X179572725Y-101419849D01*
X179575500Y-101390256D01*
X179575500Y-100809744D01*
X179575499Y-100809744D01*
X179575500Y-100809738D01*
X179575499Y-100809733D01*
X179574586Y-100799999D01*
X179572725Y-100780151D01*
X179529116Y-100655525D01*
X179529113Y-100655521D01*
X179450714Y-100549293D01*
X179450713Y-100549292D01*
X179450711Y-100549289D01*
X179450706Y-100549285D01*
X179344476Y-100470884D01*
X179219852Y-100427276D01*
X179219851Y-100427275D01*
X179219849Y-100427275D01*
X179219847Y-100427274D01*
X179219844Y-100427274D01*
X179190266Y-100424500D01*
X179190256Y-100424500D01*
X178584744Y-100424500D01*
X178584733Y-100424500D01*
X178555155Y-100427274D01*
X178555147Y-100427276D01*
X178430523Y-100470884D01*
X178324293Y-100549285D01*
X178324285Y-100549293D01*
X178245885Y-100655521D01*
X178245882Y-100655527D01*
X178238294Y-100677214D01*
X178201228Y-100725895D01*
X178142628Y-100743491D01*
X178084876Y-100723282D01*
X178074846Y-100714520D01*
X177054496Y-99694170D01*
X177026719Y-99639653D01*
X177025500Y-99624166D01*
X177025500Y-99474039D01*
X177044407Y-99415848D01*
X177064121Y-99395582D01*
X177064625Y-99395195D01*
X177122270Y-99374693D01*
X177180960Y-99391989D01*
X177185267Y-99395114D01*
X177279936Y-99467757D01*
X177279941Y-99467760D01*
X177410200Y-99521715D01*
X177410202Y-99521715D01*
X177410206Y-99521717D01*
X177515051Y-99535520D01*
X177549999Y-99540121D01*
X177550000Y-99540121D01*
X177550001Y-99540121D01*
X177577958Y-99536440D01*
X177689794Y-99521717D01*
X177702194Y-99516581D01*
X177748793Y-99497279D01*
X177820061Y-99467759D01*
X177931923Y-99381923D01*
X178017759Y-99270061D01*
X178071717Y-99139794D01*
X178090121Y-99000000D01*
X178071717Y-98860206D01*
X178035227Y-98772112D01*
X178017760Y-98729942D01*
X178017759Y-98729941D01*
X178017759Y-98729940D01*
X177931923Y-98618077D01*
X177931921Y-98618076D01*
X177931921Y-98618075D01*
X177820058Y-98532239D01*
X177689799Y-98478284D01*
X177689790Y-98478282D01*
X177550001Y-98459879D01*
X177549999Y-98459879D01*
X177410209Y-98478282D01*
X177410201Y-98478284D01*
X177279942Y-98532239D01*
X177279937Y-98532241D01*
X177185267Y-98604885D01*
X177127591Y-98625309D01*
X177068925Y-98607931D01*
X177064733Y-98604885D01*
X176970062Y-98532241D01*
X176970058Y-98532239D01*
X176839799Y-98478284D01*
X176839790Y-98478282D01*
X176700001Y-98459879D01*
X176699999Y-98459879D01*
X176560209Y-98478282D01*
X176560201Y-98478284D01*
X176429942Y-98532239D01*
X176429937Y-98532241D01*
X176335267Y-98604885D01*
X176277591Y-98625309D01*
X176218925Y-98607931D01*
X176214733Y-98604885D01*
X176120062Y-98532241D01*
X176120058Y-98532239D01*
X176050488Y-98503423D01*
X176003962Y-98463687D01*
X175989678Y-98404192D01*
X176013092Y-98347664D01*
X176018356Y-98341968D01*
X176068582Y-98291742D01*
X176071760Y-98288829D01*
X176103194Y-98262455D01*
X176123714Y-98226911D01*
X176126012Y-98223303D01*
X176149554Y-98189684D01*
X176149941Y-98188236D01*
X176159838Y-98164345D01*
X176160587Y-98163047D01*
X176160587Y-98163046D01*
X176160588Y-98163045D01*
X176167711Y-98122640D01*
X176168641Y-98118446D01*
X176172751Y-98103108D01*
X176206076Y-98051798D01*
X176208058Y-98050234D01*
X176214734Y-98045112D01*
X176272408Y-98024689D01*
X176331073Y-98042067D01*
X176335267Y-98045114D01*
X176429936Y-98117757D01*
X176429941Y-98117760D01*
X176560200Y-98171715D01*
X176560202Y-98171715D01*
X176560206Y-98171717D01*
X176665051Y-98185520D01*
X176699999Y-98190121D01*
X176700000Y-98190121D01*
X176700001Y-98190121D01*
X176727958Y-98186440D01*
X176839794Y-98171717D01*
X176970061Y-98117759D01*
X177064732Y-98045113D01*
X177122407Y-98024689D01*
X177181073Y-98042066D01*
X177185260Y-98045108D01*
X177221266Y-98072737D01*
X177279936Y-98117757D01*
X177279941Y-98117760D01*
X177410200Y-98171715D01*
X177410202Y-98171715D01*
X177410206Y-98171717D01*
X177515051Y-98185520D01*
X177549999Y-98190121D01*
X177550000Y-98190121D01*
X177550001Y-98190121D01*
X177577958Y-98186440D01*
X177689794Y-98171717D01*
X177820061Y-98117759D01*
X177931923Y-98031923D01*
X178017759Y-97920061D01*
X178071717Y-97789794D01*
X178090121Y-97650000D01*
X178071717Y-97510206D01*
X178051627Y-97461705D01*
X178017760Y-97379942D01*
X178017759Y-97379941D01*
X178017759Y-97379940D01*
X177931923Y-97268077D01*
X177931921Y-97268076D01*
X177931921Y-97268075D01*
X177827335Y-97187823D01*
X177820061Y-97182241D01*
X177820060Y-97182240D01*
X177820058Y-97182239D01*
X177689799Y-97128284D01*
X177689790Y-97128282D01*
X177550001Y-97109879D01*
X177549999Y-97109879D01*
X177410209Y-97128282D01*
X177410201Y-97128284D01*
X177279942Y-97182239D01*
X177279938Y-97182241D01*
X177185266Y-97254886D01*
X177127590Y-97275310D01*
X177068925Y-97257932D01*
X177064731Y-97254885D01*
X177064122Y-97254418D01*
X177052339Y-97245376D01*
X176970063Y-97182242D01*
X176970058Y-97182239D01*
X176839799Y-97128284D01*
X176839790Y-97128282D01*
X176700001Y-97109879D01*
X176699999Y-97109879D01*
X176560209Y-97128282D01*
X176560201Y-97128284D01*
X176429942Y-97182239D01*
X176429937Y-97182241D01*
X176335267Y-97254885D01*
X176277591Y-97275309D01*
X176218925Y-97257931D01*
X176214733Y-97254885D01*
X176120062Y-97182241D01*
X176120058Y-97182239D01*
X175989799Y-97128284D01*
X175989790Y-97128282D01*
X175850001Y-97109879D01*
X175849999Y-97109879D01*
X175710209Y-97128282D01*
X175710201Y-97128284D01*
X175579942Y-97182239D01*
X175579937Y-97182241D01*
X175485267Y-97254885D01*
X175427591Y-97275309D01*
X175368925Y-97257931D01*
X175364733Y-97254885D01*
X175270062Y-97182241D01*
X175270058Y-97182239D01*
X175139799Y-97128284D01*
X175139790Y-97128282D01*
X175000001Y-97109879D01*
X174999999Y-97109879D01*
X174860209Y-97128282D01*
X174860201Y-97128284D01*
X174729942Y-97182239D01*
X174729938Y-97182241D01*
X174635266Y-97254886D01*
X174577590Y-97275310D01*
X174518925Y-97257932D01*
X174514643Y-97254817D01*
X174514123Y-97254418D01*
X174479538Y-97203945D01*
X174475500Y-97175960D01*
X174475500Y-97125834D01*
X174494407Y-97067643D01*
X174504496Y-97055830D01*
X175005831Y-96554496D01*
X175060348Y-96526719D01*
X175075835Y-96525500D01*
X179368372Y-96525500D01*
X179426563Y-96544407D01*
X179462527Y-96593907D01*
X179462527Y-96655093D01*
X179426563Y-96704593D01*
X179421419Y-96708088D01*
X179332060Y-96764797D01*
X179219551Y-96884606D01*
X179140373Y-97028630D01*
X179099500Y-97187820D01*
X179099500Y-98810925D01*
X179114927Y-98933053D01*
X179114928Y-98933056D01*
X179114929Y-98933058D01*
X179173238Y-99080330D01*
X179175432Y-99085870D01*
X179175434Y-99085874D01*
X179272037Y-99218837D01*
X179398674Y-99323600D01*
X179547387Y-99393579D01*
X179708823Y-99424375D01*
X179708828Y-99424376D01*
X179708829Y-99424375D01*
X179708830Y-99424376D01*
X179872860Y-99414056D01*
X180029171Y-99363268D01*
X180167940Y-99275202D01*
X180280448Y-99155393D01*
X180359627Y-99011368D01*
X180400500Y-98852177D01*
X180400500Y-97229075D01*
X180399958Y-97224781D01*
X180385072Y-97106946D01*
X180385071Y-97106943D01*
X180384630Y-97105829D01*
X180324568Y-96954129D01*
X180227963Y-96821163D01*
X180101326Y-96716400D01*
X180101324Y-96716399D01*
X180101323Y-96716398D01*
X180096391Y-96714077D01*
X180051789Y-96672193D01*
X180040325Y-96612091D01*
X180066377Y-96556729D01*
X180119994Y-96527253D01*
X180138544Y-96525500D01*
X180624166Y-96525500D01*
X180682357Y-96544407D01*
X180694170Y-96554496D01*
X181037740Y-96898066D01*
X181065517Y-96952583D01*
X181055946Y-97013015D01*
X181047392Y-97026857D01*
X180970884Y-97130524D01*
X180927276Y-97255147D01*
X180927274Y-97255155D01*
X180924500Y-97284733D01*
X180924500Y-97890266D01*
X180927274Y-97919844D01*
X180927276Y-97919852D01*
X180970884Y-98044476D01*
X181024970Y-98117760D01*
X181049289Y-98150711D01*
X181049292Y-98150713D01*
X181049293Y-98150714D01*
X181155523Y-98229115D01*
X181155524Y-98229115D01*
X181155525Y-98229116D01*
X181280151Y-98272725D01*
X181307441Y-98275284D01*
X181309733Y-98275499D01*
X181309738Y-98275500D01*
X181309744Y-98275500D01*
X181890262Y-98275500D01*
X181890265Y-98275499D01*
X181919849Y-98272725D01*
X182044475Y-98229116D01*
X182150711Y-98150711D01*
X182229116Y-98044475D01*
X182272725Y-97919849D01*
X182275500Y-97890256D01*
X182275500Y-97284744D01*
X182275499Y-97284744D01*
X182275500Y-97284738D01*
X182275499Y-97284733D01*
X182273937Y-97268075D01*
X182272725Y-97255151D01*
X182229116Y-97130525D01*
X182227462Y-97128284D01*
X182150714Y-97024293D01*
X182150713Y-97024292D01*
X182150711Y-97024289D01*
X182150706Y-97024285D01*
X182044476Y-96945884D01*
X181958367Y-96915753D01*
X181909687Y-96878688D01*
X181901338Y-96864142D01*
X181899554Y-96860318D01*
X181899554Y-96860316D01*
X181883200Y-96836960D01*
X181876025Y-96826712D01*
X181873703Y-96823068D01*
X181871996Y-96820112D01*
X181853194Y-96787545D01*
X181853193Y-96787543D01*
X181826084Y-96764797D01*
X181821765Y-96761173D01*
X181818588Y-96758261D01*
X181041741Y-95981414D01*
X181038822Y-95978229D01*
X181012456Y-95946806D01*
X180989818Y-95933736D01*
X180976918Y-95926288D01*
X180973288Y-95923975D01*
X180939684Y-95900446D01*
X180939679Y-95900443D01*
X180938224Y-95900054D01*
X180914348Y-95890164D01*
X180913045Y-95889411D01*
X180872652Y-95882289D01*
X180868436Y-95881354D01*
X180842153Y-95874312D01*
X180828807Y-95870736D01*
X180828806Y-95870736D01*
X180824381Y-95871123D01*
X180787926Y-95874312D01*
X180783626Y-95874500D01*
X179911794Y-95874500D01*
X179853603Y-95855593D01*
X179817639Y-95806093D01*
X179817639Y-95744907D01*
X179853603Y-95695407D01*
X179881199Y-95681346D01*
X180029171Y-95633268D01*
X180037022Y-95628286D01*
X180091677Y-95593600D01*
X180167940Y-95545202D01*
X180280448Y-95425393D01*
X180359627Y-95281368D01*
X180400500Y-95122177D01*
X180400500Y-94199075D01*
X180395289Y-94157823D01*
X180385072Y-94076946D01*
X180385071Y-94076943D01*
X180385071Y-94076942D01*
X180324568Y-93924129D01*
X180227963Y-93791163D01*
X180202354Y-93769977D01*
X180101325Y-93686399D01*
X179952612Y-93616420D01*
X179791176Y-93585624D01*
X179791171Y-93585623D01*
X179627142Y-93595943D01*
X179470826Y-93646732D01*
X179332060Y-93734797D01*
X179219551Y-93854606D01*
X179140373Y-93998630D01*
X179099500Y-94157820D01*
X179099500Y-95080925D01*
X179114927Y-95203053D01*
X179114928Y-95203056D01*
X179114929Y-95203058D01*
X179168056Y-95337242D01*
X179175432Y-95355870D01*
X179175434Y-95355874D01*
X179272037Y-95488837D01*
X179398674Y-95593600D01*
X179547387Y-95663579D01*
X179624313Y-95678254D01*
X179677930Y-95707730D01*
X179703981Y-95763093D01*
X179692516Y-95823194D01*
X179647914Y-95865078D01*
X179605762Y-95874500D01*
X174916366Y-95874500D01*
X174912065Y-95874312D01*
X174875726Y-95871133D01*
X174871194Y-95870737D01*
X174871189Y-95870737D01*
X174831570Y-95881353D01*
X174827354Y-95882288D01*
X174786956Y-95889411D01*
X174786948Y-95889414D01*
X174785640Y-95890170D01*
X174761786Y-95900051D01*
X174760324Y-95900442D01*
X174760314Y-95900447D01*
X174726716Y-95923971D01*
X174723075Y-95926290D01*
X174687545Y-95946804D01*
X174661186Y-95978218D01*
X174658268Y-95981402D01*
X173931413Y-96708258D01*
X173928229Y-96711176D01*
X173896807Y-96737542D01*
X173896806Y-96737544D01*
X173876292Y-96773075D01*
X173873972Y-96776716D01*
X173850446Y-96810316D01*
X173850442Y-96810324D01*
X173850051Y-96811786D01*
X173840170Y-96835640D01*
X173839414Y-96836948D01*
X173839410Y-96836960D01*
X173832287Y-96877349D01*
X173831353Y-96881564D01*
X173820736Y-96921187D01*
X173820736Y-96921193D01*
X173824312Y-96962072D01*
X173824500Y-96966373D01*
X173824500Y-97175960D01*
X173805593Y-97234151D01*
X173785702Y-97254552D01*
X173785202Y-97254935D01*
X173727509Y-97275311D01*
X173668858Y-97257885D01*
X173664733Y-97254885D01*
X173570062Y-97182241D01*
X173570058Y-97182239D01*
X173439799Y-97128284D01*
X173439790Y-97128282D01*
X173300001Y-97109879D01*
X173299999Y-97109879D01*
X173160209Y-97128282D01*
X173160201Y-97128284D01*
X173029942Y-97182239D01*
X172918079Y-97268075D01*
X172918075Y-97268079D01*
X172832239Y-97379942D01*
X172778284Y-97510201D01*
X172778282Y-97510209D01*
X172759879Y-97649999D01*
X172759879Y-97650000D01*
X172778282Y-97789790D01*
X172778284Y-97789799D01*
X172832239Y-97920058D01*
X172918075Y-98031921D01*
X172918078Y-98031924D01*
X172941889Y-98050195D01*
X173029939Y-98117759D01*
X173029940Y-98117759D01*
X173029941Y-98117760D01*
X173160200Y-98171715D01*
X173160202Y-98171715D01*
X173160206Y-98171717D01*
X173265051Y-98185520D01*
X173299999Y-98190121D01*
X173300000Y-98190121D01*
X173300001Y-98190121D01*
X173327958Y-98186440D01*
X173439794Y-98171717D01*
X173570061Y-98117759D01*
X173664732Y-98045113D01*
X173722407Y-98024689D01*
X173781073Y-98042066D01*
X173785260Y-98045108D01*
X173821266Y-98072737D01*
X173879936Y-98117757D01*
X173879941Y-98117760D01*
X174010200Y-98171715D01*
X174010202Y-98171715D01*
X174010206Y-98171717D01*
X174115051Y-98185520D01*
X174149999Y-98190121D01*
X174150000Y-98190121D01*
X174150001Y-98190121D01*
X174177958Y-98186440D01*
X174289794Y-98171717D01*
X174420061Y-98117759D01*
X174514734Y-98045112D01*
X174572406Y-98024689D01*
X174631072Y-98042065D01*
X174635267Y-98045114D01*
X174729936Y-98117757D01*
X174729941Y-98117760D01*
X174860200Y-98171715D01*
X174860202Y-98171715D01*
X174860206Y-98171717D01*
X174965051Y-98185520D01*
X174999999Y-98190121D01*
X175006489Y-98190121D01*
X175006489Y-98191884D01*
X175058391Y-98201500D01*
X175100511Y-98245879D01*
X175108501Y-98306541D01*
X175081162Y-98358510D01*
X175000493Y-98439179D01*
X174945976Y-98466956D01*
X174943412Y-98467328D01*
X174860205Y-98478283D01*
X174729942Y-98532239D01*
X174729937Y-98532241D01*
X174635267Y-98604885D01*
X174577591Y-98625309D01*
X174518925Y-98607931D01*
X174514733Y-98604885D01*
X174420062Y-98532241D01*
X174420058Y-98532239D01*
X174289799Y-98478284D01*
X174289790Y-98478282D01*
X174150001Y-98459879D01*
X174149999Y-98459879D01*
X174010209Y-98478282D01*
X174010201Y-98478284D01*
X173879942Y-98532239D01*
X173879938Y-98532241D01*
X173785266Y-98604886D01*
X173727590Y-98625310D01*
X173668925Y-98607932D01*
X173664731Y-98604885D01*
X173570063Y-98532242D01*
X173570058Y-98532239D01*
X173439799Y-98478284D01*
X173439790Y-98478282D01*
X173300001Y-98459879D01*
X173299999Y-98459879D01*
X173160209Y-98478282D01*
X173160201Y-98478284D01*
X173029942Y-98532239D01*
X172918079Y-98618075D01*
X172918075Y-98618079D01*
X172832239Y-98729942D01*
X172778284Y-98860201D01*
X172778282Y-98860209D01*
X172759879Y-98999999D01*
X172759879Y-99000000D01*
X171712546Y-99000000D01*
X171750500Y-98852177D01*
X171750500Y-97229075D01*
X171749958Y-97224781D01*
X171735072Y-97106946D01*
X171735071Y-97106943D01*
X171734630Y-97105829D01*
X171674568Y-96954129D01*
X171577963Y-96821163D01*
X171537324Y-96787543D01*
X171451325Y-96716399D01*
X171302612Y-96646420D01*
X171141176Y-96615624D01*
X171141171Y-96615623D01*
X170977142Y-96625943D01*
X170820826Y-96676732D01*
X170682060Y-96764797D01*
X170569551Y-96884606D01*
X170490373Y-97028630D01*
X170449500Y-97187820D01*
X170449500Y-98810925D01*
X162500500Y-98810925D01*
X162500500Y-97570131D01*
X162500499Y-97570118D01*
X162493223Y-97510201D01*
X162485140Y-97443628D01*
X162481933Y-97435171D01*
X162475500Y-97400067D01*
X162475500Y-97309738D01*
X162475499Y-97309733D01*
X162474053Y-97294318D01*
X162472725Y-97280151D01*
X162429116Y-97155525D01*
X162410665Y-97130525D01*
X162350714Y-97049293D01*
X162350713Y-97049292D01*
X162350711Y-97049289D01*
X162334110Y-97037037D01*
X162244476Y-96970884D01*
X162119852Y-96927276D01*
X162119851Y-96927275D01*
X162119849Y-96927275D01*
X162119847Y-96927274D01*
X162119844Y-96927274D01*
X162090266Y-96924500D01*
X162090256Y-96924500D01*
X161947790Y-96924500D01*
X161924098Y-96921623D01*
X161885058Y-96912000D01*
X161885056Y-96912000D01*
X161714944Y-96912000D01*
X161714941Y-96912000D01*
X161675902Y-96921623D01*
X161652210Y-96924500D01*
X161509733Y-96924500D01*
X161480155Y-96927274D01*
X161480147Y-96927276D01*
X161355523Y-96970884D01*
X161249293Y-97049285D01*
X161249285Y-97049293D01*
X161170884Y-97155523D01*
X161127276Y-97280147D01*
X161127274Y-97280155D01*
X161124500Y-97309733D01*
X161124500Y-97400067D01*
X161118067Y-97435171D01*
X161114860Y-97443626D01*
X161099500Y-97570118D01*
X161099500Y-98425613D01*
X161080593Y-98483804D01*
X161031093Y-98519768D01*
X160969907Y-98519768D01*
X160940234Y-98504156D01*
X160902838Y-98475462D01*
X160756766Y-98414957D01*
X160756758Y-98414955D01*
X160600001Y-98394318D01*
X160599999Y-98394318D01*
X160443241Y-98414955D01*
X160443233Y-98414957D01*
X160297161Y-98475462D01*
X160297160Y-98475462D01*
X160171723Y-98571713D01*
X160171713Y-98571723D01*
X160075462Y-98697160D01*
X160075462Y-98697161D01*
X160014957Y-98843233D01*
X160014955Y-98843241D01*
X159994318Y-98999999D01*
X159994318Y-99000000D01*
X160014955Y-99156758D01*
X160014957Y-99156766D01*
X160075462Y-99302838D01*
X160075462Y-99302839D01*
X160168844Y-99424537D01*
X160171718Y-99428282D01*
X160230358Y-99473278D01*
X160235767Y-99477428D01*
X160270423Y-99527852D01*
X160274500Y-99555970D01*
X160274500Y-100181740D01*
X160255593Y-100239931D01*
X160245509Y-100251737D01*
X160202929Y-100294318D01*
X160161674Y-100335573D01*
X160116844Y-100427274D01*
X160109567Y-100442160D01*
X160102587Y-100490074D01*
X160099500Y-100511261D01*
X160099500Y-100888738D01*
X160099499Y-100888738D01*
X160099500Y-100888742D01*
X160109567Y-100957840D01*
X160120420Y-100980040D01*
X160161674Y-101064426D01*
X160161675Y-101064427D01*
X160161676Y-101064429D01*
X160227245Y-101129998D01*
X160255021Y-101184513D01*
X160245450Y-101244945D01*
X160227246Y-101270000D01*
X160191417Y-101305830D01*
X160161674Y-101335573D01*
X160109566Y-101442160D01*
X160109567Y-101442160D01*
X160100313Y-101505682D01*
X160099500Y-101511261D01*
X160099500Y-101834520D01*
X160080593Y-101892711D01*
X160070503Y-101904524D01*
X159823322Y-102151704D01*
X159768806Y-102179481D01*
X159708374Y-102169910D01*
X159699608Y-102164864D01*
X159679749Y-102152038D01*
X159640278Y-102126545D01*
X159586284Y-102106893D01*
X159516002Y-102094500D01*
X159516000Y-102094500D01*
X158979516Y-102094500D01*
X158979495Y-102094500D01*
X158970562Y-102094890D01*
X158951512Y-102096557D01*
X158951499Y-102096559D01*
X158866671Y-102123305D01*
X158866665Y-102123307D01*
X158866664Y-102123308D01*
X158866661Y-102123309D01*
X158866656Y-102123312D01*
X158816907Y-102152034D01*
X158816901Y-102152038D01*
X158776161Y-102182897D01*
X158726546Y-102259720D01*
X158706893Y-102313715D01*
X158694500Y-102383997D01*
X158694500Y-105195500D01*
X158675593Y-105253691D01*
X158626093Y-105289655D01*
X158595500Y-105294500D01*
X155604500Y-105294500D01*
X155546309Y-105275593D01*
X155510345Y-105226093D01*
X155505500Y-105195500D01*
X155505500Y-101979535D01*
X155505499Y-101979495D01*
X155505348Y-101976029D01*
X155505109Y-101970558D01*
X155503442Y-101951505D01*
X155476692Y-101866664D01*
X155447962Y-101816902D01*
X155422204Y-101782897D01*
X155417102Y-101776161D01*
X155353470Y-101735065D01*
X155340278Y-101726545D01*
X155286284Y-101706893D01*
X155216002Y-101694500D01*
X155216000Y-101694500D01*
X154479516Y-101694500D01*
X154479495Y-101694500D01*
X154470562Y-101694890D01*
X154451512Y-101696557D01*
X154451499Y-101696559D01*
X154366671Y-101723305D01*
X154366665Y-101723307D01*
X154366664Y-101723308D01*
X154366661Y-101723309D01*
X154366656Y-101723312D01*
X154316907Y-101752034D01*
X154316901Y-101752038D01*
X154276161Y-101782897D01*
X154226546Y-101859720D01*
X154226545Y-101859722D01*
X154224016Y-101866671D01*
X154206893Y-101913715D01*
X154194500Y-101983997D01*
X154194500Y-102243000D01*
X154175593Y-102301191D01*
X154126093Y-102337155D01*
X154095500Y-102342000D01*
X154057265Y-102342000D01*
X153999074Y-102323093D01*
X153968325Y-102286481D01*
X153948327Y-102245576D01*
X153948326Y-102245574D01*
X153948324Y-102245572D01*
X153948324Y-102245571D01*
X153864429Y-102161676D01*
X153864427Y-102161675D01*
X153864426Y-102161674D01*
X153808813Y-102134486D01*
X153757840Y-102109567D01*
X153688742Y-102099500D01*
X153311258Y-102099500D01*
X153242159Y-102109567D01*
X153242160Y-102109567D01*
X153135573Y-102161674D01*
X153051674Y-102245573D01*
X153004534Y-102342000D01*
X152999567Y-102352160D01*
X152990363Y-102415339D01*
X152989500Y-102421261D01*
X152989500Y-102700500D01*
X152970593Y-102758691D01*
X152921093Y-102794655D01*
X152890500Y-102799500D01*
X152465479Y-102799500D01*
X152407288Y-102780593D01*
X152395475Y-102770504D01*
X152119180Y-102494209D01*
X152091403Y-102439692D01*
X152091031Y-102411283D01*
X152094624Y-102383997D01*
X152105682Y-102300000D01*
X152085044Y-102143238D01*
X152076789Y-102123308D01*
X152024537Y-101997161D01*
X152024537Y-101997160D01*
X151928286Y-101871723D01*
X151928285Y-101871722D01*
X151928282Y-101871718D01*
X151928277Y-101871714D01*
X151928276Y-101871713D01*
X151856843Y-101816901D01*
X151802841Y-101775464D01*
X151802840Y-101775463D01*
X151802838Y-101775462D01*
X151656766Y-101714957D01*
X151656758Y-101714955D01*
X151500001Y-101694318D01*
X151499999Y-101694318D01*
X151343241Y-101714955D01*
X151343233Y-101714957D01*
X151197161Y-101775462D01*
X151197160Y-101775462D01*
X151071723Y-101871713D01*
X151071713Y-101871723D01*
X150975462Y-101997160D01*
X150975462Y-101997161D01*
X150914957Y-102143233D01*
X150914955Y-102143241D01*
X150894318Y-102299999D01*
X150894318Y-102300000D01*
X150914955Y-102456758D01*
X150914957Y-102456766D01*
X150975462Y-102602838D01*
X150975462Y-102602839D01*
X151071719Y-102728284D01*
X151073437Y-102730002D01*
X151074225Y-102731550D01*
X151075668Y-102733430D01*
X151075319Y-102733697D01*
X151101210Y-102784521D01*
X151091634Y-102844952D01*
X151073437Y-102869998D01*
X151071719Y-102871715D01*
X150975462Y-102997160D01*
X150975462Y-102997161D01*
X150914957Y-103143233D01*
X150914955Y-103143241D01*
X150894318Y-103299999D01*
X150894318Y-103300000D01*
X145000500Y-103300000D01*
X145000500Y-101631164D01*
X145019407Y-101572973D01*
X145029490Y-101561166D01*
X147811162Y-98779494D01*
X147865677Y-98751719D01*
X147881164Y-98750500D01*
X155371913Y-98750500D01*
X155377459Y-98750811D01*
X155417035Y-98755270D01*
X155417036Y-98755269D01*
X155424406Y-98756100D01*
X155424013Y-98759580D01*
X155468566Y-98772112D01*
X155506480Y-98820135D01*
X155511776Y-98867388D01*
X155494318Y-98999999D01*
X155494318Y-99000000D01*
X155514955Y-99156758D01*
X155514957Y-99156766D01*
X155572263Y-99295115D01*
X155577064Y-99356111D01*
X155545094Y-99408280D01*
X155488566Y-99431695D01*
X155480799Y-99432000D01*
X155386112Y-99432000D01*
X155327921Y-99413093D01*
X155292668Y-99365698D01*
X155254115Y-99255523D01*
X155175714Y-99149293D01*
X155175713Y-99149292D01*
X155175711Y-99149289D01*
X155166656Y-99142606D01*
X155069476Y-99070884D01*
X154944852Y-99027276D01*
X154944851Y-99027275D01*
X154944849Y-99027275D01*
X154944847Y-99027274D01*
X154944844Y-99027274D01*
X154915266Y-99024500D01*
X154915256Y-99024500D01*
X154771576Y-99024500D01*
X154753731Y-99022878D01*
X154605106Y-98995641D01*
X154435307Y-99005913D01*
X154390042Y-99020018D01*
X154360590Y-99024500D01*
X154209733Y-99024500D01*
X154180155Y-99027274D01*
X154180147Y-99027276D01*
X154055523Y-99070884D01*
X153949293Y-99149285D01*
X153949285Y-99149293D01*
X153870884Y-99255523D01*
X153827276Y-99380147D01*
X153827274Y-99380155D01*
X153824500Y-99409733D01*
X153824500Y-99990266D01*
X153827274Y-100019844D01*
X153827276Y-100019852D01*
X153870884Y-100144476D01*
X153924821Y-100217558D01*
X153949289Y-100250711D01*
X153949292Y-100250713D01*
X153949293Y-100250714D01*
X154055523Y-100329115D01*
X154055524Y-100329115D01*
X154055525Y-100329116D01*
X154180151Y-100372725D01*
X154193791Y-100374004D01*
X154209718Y-100375498D01*
X154209727Y-100375498D01*
X154209744Y-100375500D01*
X154209761Y-100375500D01*
X154210891Y-100375553D01*
X154211086Y-100375626D01*
X154212050Y-100375717D01*
X154212025Y-100375980D01*
X154268138Y-100397150D01*
X154276285Y-100404442D01*
X154483653Y-100611811D01*
X154485703Y-100613989D01*
X154527069Y-100660682D01*
X154527073Y-100660685D01*
X154542820Y-100671554D01*
X154578437Y-100696138D01*
X154580812Y-100697886D01*
X154629943Y-100736377D01*
X154641248Y-100741464D01*
X154656856Y-100750267D01*
X154667070Y-100757318D01*
X154725429Y-100779450D01*
X154728153Y-100780578D01*
X154785068Y-100806194D01*
X154797275Y-100808430D01*
X154814528Y-100813240D01*
X154826128Y-100817640D01*
X154888100Y-100825164D01*
X154890986Y-100825603D01*
X154952394Y-100836857D01*
X155014683Y-100833089D01*
X155017648Y-100833000D01*
X158342368Y-100833000D01*
X158342372Y-100833000D01*
X158342378Y-100832999D01*
X158342381Y-100832999D01*
X158352048Y-100831825D01*
X158468872Y-100817640D01*
X158627930Y-100757318D01*
X158767929Y-100660683D01*
X158880734Y-100533352D01*
X158959790Y-100382725D01*
X159000500Y-100217556D01*
X159000500Y-100047444D01*
X158959790Y-99882275D01*
X158880734Y-99731648D01*
X158839738Y-99685373D01*
X158805742Y-99646999D01*
X158781307Y-99590905D01*
X158794510Y-99531161D01*
X158840308Y-99490588D01*
X158854233Y-99485720D01*
X158856745Y-99485046D01*
X158856762Y-99485044D01*
X159002841Y-99424536D01*
X159128282Y-99328282D01*
X159224536Y-99202841D01*
X159285044Y-99056762D01*
X159305682Y-98900000D01*
X159285044Y-98743238D01*
X159265958Y-98697160D01*
X159224537Y-98597161D01*
X159224537Y-98597160D01*
X159128286Y-98471723D01*
X159128285Y-98471722D01*
X159128282Y-98471718D01*
X159128277Y-98471714D01*
X159128276Y-98471713D01*
X159040280Y-98404192D01*
X159002841Y-98375464D01*
X159002840Y-98375463D01*
X159002838Y-98375462D01*
X158856766Y-98314957D01*
X158856758Y-98314955D01*
X158700001Y-98294318D01*
X158699999Y-98294318D01*
X158543241Y-98314955D01*
X158543233Y-98314957D01*
X158397161Y-98375462D01*
X158397160Y-98375462D01*
X158271723Y-98471713D01*
X158271713Y-98471723D01*
X158175462Y-98597160D01*
X158175462Y-98597161D01*
X158114957Y-98743233D01*
X158114955Y-98743241D01*
X158094318Y-98899999D01*
X158094318Y-98900000D01*
X158108968Y-99011283D01*
X158097818Y-99071444D01*
X158080823Y-99094204D01*
X158067830Y-99107198D01*
X158067817Y-99107213D01*
X158065813Y-99110138D01*
X158061561Y-99115504D01*
X158040084Y-99139065D01*
X158040083Y-99139067D01*
X158036529Y-99148240D01*
X158025896Y-99168412D01*
X158020346Y-99176515D01*
X158020342Y-99176524D01*
X158013045Y-99207545D01*
X158011016Y-99214098D01*
X157999500Y-99243824D01*
X157999500Y-99253651D01*
X157996870Y-99276318D01*
X157995152Y-99283625D01*
X157994621Y-99285881D01*
X157996987Y-99302839D01*
X157999025Y-99317452D01*
X157999500Y-99324298D01*
X157999500Y-99333000D01*
X157980593Y-99391191D01*
X157931093Y-99427155D01*
X157900500Y-99432000D01*
X156719201Y-99432000D01*
X156661010Y-99413093D01*
X156625046Y-99363593D01*
X156625046Y-99302407D01*
X156627737Y-99295115D01*
X156669549Y-99194169D01*
X156685044Y-99156762D01*
X156705682Y-99000000D01*
X156685044Y-98843238D01*
X156675474Y-98820135D01*
X156624537Y-98697161D01*
X156624537Y-98697160D01*
X156528286Y-98571723D01*
X156528285Y-98571722D01*
X156528282Y-98571718D01*
X156528277Y-98571714D01*
X156528276Y-98571713D01*
X156406516Y-98478284D01*
X156402841Y-98475464D01*
X156402840Y-98475463D01*
X156402838Y-98475462D01*
X156256766Y-98414957D01*
X156256759Y-98414955D01*
X156160108Y-98402231D01*
X156104884Y-98375890D01*
X156075689Y-98322119D01*
X156083675Y-98261457D01*
X156103024Y-98234077D01*
X159657606Y-94679496D01*
X159712124Y-94651719D01*
X159727611Y-94650500D01*
X159863980Y-94650500D01*
X159922171Y-94669407D01*
X159958135Y-94718907D01*
X159958135Y-94780093D01*
X159942522Y-94809767D01*
X159875462Y-94897160D01*
X159875462Y-94897161D01*
X159814957Y-95043233D01*
X159814955Y-95043241D01*
X159794318Y-95199999D01*
X159794318Y-95200000D01*
X159814955Y-95356758D01*
X159814957Y-95356766D01*
X159875462Y-95502838D01*
X159875462Y-95502839D01*
X159968559Y-95624165D01*
X159971718Y-95628282D01*
X159971722Y-95628285D01*
X159971723Y-95628286D01*
X159978216Y-95633268D01*
X160097159Y-95724536D01*
X160097160Y-95724536D01*
X160097161Y-95724537D01*
X160239812Y-95783625D01*
X160243238Y-95785044D01*
X160360809Y-95800522D01*
X160399999Y-95805682D01*
X160400000Y-95805682D01*
X160400001Y-95805682D01*
X160431352Y-95801554D01*
X160556762Y-95785044D01*
X160702841Y-95724536D01*
X160828282Y-95628282D01*
X160874198Y-95568443D01*
X160896612Y-95539233D01*
X160947037Y-95504577D01*
X160975154Y-95500500D01*
X161022910Y-95500500D01*
X161081101Y-95519407D01*
X161117065Y-95568907D01*
X161119033Y-95623191D01*
X161099500Y-95702438D01*
X161099500Y-95872558D01*
X161121623Y-95962313D01*
X161124500Y-95986005D01*
X161124500Y-96090266D01*
X161127274Y-96119844D01*
X161127276Y-96119852D01*
X161170884Y-96244476D01*
X161226486Y-96319814D01*
X161249289Y-96350711D01*
X161249292Y-96350713D01*
X161249293Y-96350714D01*
X161355523Y-96429115D01*
X161355524Y-96429115D01*
X161355525Y-96429116D01*
X161480151Y-96472725D01*
X161507441Y-96475284D01*
X161509733Y-96475499D01*
X161509738Y-96475500D01*
X161509744Y-96475500D01*
X161651687Y-96475500D01*
X161657651Y-96475860D01*
X161726589Y-96484231D01*
X161757618Y-96487999D01*
X161757622Y-96487999D01*
X161757628Y-96488000D01*
X163239841Y-96488000D01*
X163242806Y-96488089D01*
X163300404Y-96491573D01*
X163305105Y-96491858D01*
X163305105Y-96491857D01*
X163305106Y-96491858D01*
X163366519Y-96480603D01*
X163369424Y-96480161D01*
X163431372Y-96472640D01*
X163442962Y-96468244D01*
X163460225Y-96463431D01*
X163472432Y-96461195D01*
X163529354Y-96435575D01*
X163532088Y-96434443D01*
X163590430Y-96412318D01*
X163600642Y-96405268D01*
X163616250Y-96396465D01*
X163627557Y-96391378D01*
X163676674Y-96352895D01*
X163679082Y-96351125D01*
X163730429Y-96315683D01*
X163743930Y-96300443D01*
X163771815Y-96268966D01*
X163773828Y-96266827D01*
X164011160Y-96029496D01*
X164065677Y-96001719D01*
X164081164Y-96000500D01*
X164219747Y-96000500D01*
X164219748Y-96000500D01*
X164278231Y-95988867D01*
X164344552Y-95944552D01*
X164388867Y-95878231D01*
X164400500Y-95819748D01*
X164400500Y-95422647D01*
X164402122Y-95404800D01*
X164403679Y-95396308D01*
X164404357Y-95392606D01*
X164400589Y-95330316D01*
X164400500Y-95327352D01*
X164400500Y-90780253D01*
X164400498Y-90780241D01*
X164397711Y-90766231D01*
X164388867Y-90721769D01*
X164344552Y-90655448D01*
X164322973Y-90641029D01*
X164278233Y-90611134D01*
X164278231Y-90611133D01*
X164278228Y-90611132D01*
X164278227Y-90611132D01*
X164219758Y-90599501D01*
X164219748Y-90599500D01*
X164219747Y-90599500D01*
X163992327Y-90599500D01*
X163956462Y-90590656D01*
X163955827Y-90592334D01*
X163950226Y-90590210D01*
X163895100Y-90576623D01*
X163843125Y-90544340D01*
X163820052Y-90487672D01*
X163834694Y-90428264D01*
X163881459Y-90388809D01*
X163918792Y-90381500D01*
X168774382Y-90381500D01*
X168832573Y-90400407D01*
X168868537Y-90449907D01*
X168868537Y-90511093D01*
X168832573Y-90560593D01*
X168809483Y-90573067D01*
X168802863Y-90575578D01*
X168794021Y-90578931D01*
X168788314Y-90580709D01*
X168749777Y-90590208D01*
X168744183Y-90592331D01*
X168743548Y-90590659D01*
X168707674Y-90599500D01*
X168480252Y-90599500D01*
X168480251Y-90599500D01*
X168480241Y-90599501D01*
X168421772Y-90611132D01*
X168421766Y-90611134D01*
X168355451Y-90655445D01*
X168355445Y-90655451D01*
X168311134Y-90721766D01*
X168311132Y-90721772D01*
X168299501Y-90780241D01*
X168299500Y-90780253D01*
X168299500Y-95819746D01*
X168299501Y-95819758D01*
X168311132Y-95878227D01*
X168311134Y-95878233D01*
X168352192Y-95939679D01*
X168355448Y-95944552D01*
X168421769Y-95988867D01*
X168466231Y-95997711D01*
X168480241Y-96000498D01*
X168480246Y-96000498D01*
X168480252Y-96000500D01*
X168707673Y-96000500D01*
X168743537Y-96009343D01*
X168744173Y-96007666D01*
X168749773Y-96009789D01*
X168749775Y-96009790D01*
X168914944Y-96050500D01*
X168914947Y-96050500D01*
X169085053Y-96050500D01*
X169085056Y-96050500D01*
X169250225Y-96009790D01*
X169250229Y-96009787D01*
X169255827Y-96007666D01*
X169256462Y-96009343D01*
X169292327Y-96000500D01*
X169519747Y-96000500D01*
X169519748Y-96000500D01*
X169578231Y-95988867D01*
X169644552Y-95944552D01*
X169688867Y-95878231D01*
X169700500Y-95819748D01*
X169700500Y-95080925D01*
X170449500Y-95080925D01*
X170464927Y-95203053D01*
X170464928Y-95203056D01*
X170464929Y-95203058D01*
X170518056Y-95337242D01*
X170525432Y-95355870D01*
X170525434Y-95355874D01*
X170622037Y-95488837D01*
X170748674Y-95593600D01*
X170897387Y-95663579D01*
X171058823Y-95694375D01*
X171058828Y-95694376D01*
X171058829Y-95694375D01*
X171058830Y-95694376D01*
X171222860Y-95684056D01*
X171379171Y-95633268D01*
X171387022Y-95628286D01*
X171441677Y-95593600D01*
X171517940Y-95545202D01*
X171630448Y-95425393D01*
X171709627Y-95281368D01*
X171750500Y-95122177D01*
X171750500Y-94199075D01*
X171745289Y-94157823D01*
X171735072Y-94076946D01*
X171735071Y-94076943D01*
X171735071Y-94076942D01*
X171674568Y-93924129D01*
X171577963Y-93791163D01*
X171552354Y-93769977D01*
X171451325Y-93686399D01*
X171302612Y-93616420D01*
X171141176Y-93585624D01*
X171141171Y-93585623D01*
X170977142Y-93595943D01*
X170820826Y-93646732D01*
X170682060Y-93734797D01*
X170569551Y-93854606D01*
X170490373Y-93998630D01*
X170449500Y-94157820D01*
X170449500Y-95080925D01*
X169700500Y-95080925D01*
X169700500Y-94880252D01*
X169700500Y-92049500D01*
X169719407Y-91991309D01*
X169768907Y-91955345D01*
X169799500Y-91950500D01*
X180518835Y-91950500D01*
X180577026Y-91969407D01*
X180588839Y-91979496D01*
X183770503Y-95161160D01*
X183798280Y-95215677D01*
X183799499Y-95231164D01*
X183799499Y-99468834D01*
X183780592Y-99527025D01*
X183770503Y-99538838D01*
X172274707Y-111034636D01*
X172274705Y-111034639D01*
X172196122Y-111134943D01*
X172126305Y-111290066D01*
X172126304Y-111290071D01*
X172095641Y-111457392D01*
X172105913Y-111627191D01*
X172105913Y-111627193D01*
X172105914Y-111627196D01*
X172128570Y-111699904D01*
X172156521Y-111789605D01*
X172156522Y-111789607D01*
X172217275Y-111890103D01*
X172244528Y-111935185D01*
X172364815Y-112055472D01*
X172510394Y-112143478D01*
X172672804Y-112194086D01*
X172842606Y-112204358D01*
X172842606Y-112204357D01*
X172842607Y-112204358D01*
X172876071Y-112198225D01*
X173009932Y-112173695D01*
X173165057Y-112103878D01*
X173265367Y-112025290D01*
X175790657Y-109500000D01*
X176794318Y-109500000D01*
X176814955Y-109656758D01*
X176814957Y-109656766D01*
X176875462Y-109802838D01*
X176875462Y-109802839D01*
X176957493Y-109909744D01*
X176971718Y-109928282D01*
X176971722Y-109928285D01*
X176971723Y-109928286D01*
X176992293Y-109944070D01*
X177097159Y-110024536D01*
X177097160Y-110024536D01*
X177097161Y-110024537D01*
X177206974Y-110070023D01*
X177243238Y-110085044D01*
X177360809Y-110100522D01*
X177399999Y-110105682D01*
X177400000Y-110105682D01*
X177400001Y-110105682D01*
X177431910Y-110101481D01*
X177556762Y-110085044D01*
X177702841Y-110024536D01*
X177772665Y-109970957D01*
X177830341Y-109950534D01*
X177832932Y-109950500D01*
X179134413Y-109950500D01*
X179139959Y-109950811D01*
X179179535Y-109955270D01*
X179237084Y-109944380D01*
X179238900Y-109944072D01*
X179296787Y-109935348D01*
X179296790Y-109935346D01*
X179303881Y-109933159D01*
X179304012Y-109933584D01*
X179306113Y-109932892D01*
X179305967Y-109932473D01*
X179312963Y-109930024D01*
X179312972Y-109930023D01*
X179344609Y-109913301D01*
X179364752Y-109902656D01*
X179366406Y-109901821D01*
X179386556Y-109892116D01*
X179419142Y-109876425D01*
X179419146Y-109876421D01*
X179425278Y-109872242D01*
X179425528Y-109872609D01*
X179427332Y-109871329D01*
X179427068Y-109870971D01*
X179433029Y-109866570D01*
X179433038Y-109866566D01*
X179470106Y-109829496D01*
X179524622Y-109801719D01*
X179540110Y-109800500D01*
X179908257Y-109800500D01*
X179908260Y-109800500D01*
X179976393Y-109790573D01*
X180081483Y-109739198D01*
X180164198Y-109656483D01*
X180215573Y-109551393D01*
X180225500Y-109483260D01*
X180225500Y-109116740D01*
X180215573Y-109048607D01*
X180206044Y-109029116D01*
X180179815Y-108975462D01*
X180164198Y-108943517D01*
X180081483Y-108860802D01*
X180060410Y-108850500D01*
X179976395Y-108809427D01*
X179949139Y-108805456D01*
X179908260Y-108799500D01*
X178816740Y-108799500D01*
X178782673Y-108804463D01*
X178748604Y-108809427D01*
X178643518Y-108860801D01*
X178560802Y-108943517D01*
X178536132Y-108993981D01*
X178493588Y-109037955D01*
X178447191Y-109049500D01*
X177832932Y-109049500D01*
X177774741Y-109030593D01*
X177772684Y-109029056D01*
X177702841Y-108975464D01*
X177702840Y-108975463D01*
X177702838Y-108975462D01*
X177556766Y-108914957D01*
X177556758Y-108914955D01*
X177400001Y-108894318D01*
X177399999Y-108894318D01*
X177243241Y-108914955D01*
X177243233Y-108914957D01*
X177097161Y-108975462D01*
X177097160Y-108975462D01*
X176971723Y-109071713D01*
X176971713Y-109071723D01*
X176875462Y-109197160D01*
X176875462Y-109197161D01*
X176814957Y-109343233D01*
X176814955Y-109343241D01*
X176794318Y-109499999D01*
X176794318Y-109500000D01*
X175790657Y-109500000D01*
X176757397Y-108533260D01*
X180774500Y-108533260D01*
X180777925Y-108556766D01*
X180784427Y-108601395D01*
X180834583Y-108703990D01*
X180835802Y-108706483D01*
X180918517Y-108789198D01*
X180960942Y-108809938D01*
X181023604Y-108840572D01*
X181023605Y-108840572D01*
X181023607Y-108840573D01*
X181091740Y-108850500D01*
X181091743Y-108850500D01*
X182183257Y-108850500D01*
X182183260Y-108850500D01*
X182251393Y-108840573D01*
X182312787Y-108810559D01*
X182356268Y-108800500D01*
X182688451Y-108800500D01*
X182746642Y-108819407D01*
X182768106Y-108840712D01*
X182846832Y-108947382D01*
X182849289Y-108950711D01*
X182849292Y-108950713D01*
X182849293Y-108950714D01*
X182955523Y-109029115D01*
X182955524Y-109029115D01*
X182955525Y-109029116D01*
X183080151Y-109072725D01*
X183107441Y-109075284D01*
X183109733Y-109075499D01*
X183109738Y-109075500D01*
X183109744Y-109075500D01*
X183690262Y-109075500D01*
X183690265Y-109075499D01*
X183719849Y-109072725D01*
X183844475Y-109029116D01*
X183950711Y-108950711D01*
X184029116Y-108844475D01*
X184072725Y-108719849D01*
X184075500Y-108690256D01*
X184075500Y-108084744D01*
X184075499Y-108084743D01*
X184075500Y-108084738D01*
X184075499Y-108084733D01*
X184075284Y-108082441D01*
X184072725Y-108055151D01*
X184029116Y-107930525D01*
X184014559Y-107910801D01*
X183950714Y-107824293D01*
X183950713Y-107824292D01*
X183950711Y-107824289D01*
X183950706Y-107824285D01*
X183844476Y-107745884D01*
X183719852Y-107702276D01*
X183719851Y-107702275D01*
X183719849Y-107702275D01*
X183719847Y-107702274D01*
X183719844Y-107702274D01*
X183690266Y-107699500D01*
X183690256Y-107699500D01*
X183109744Y-107699500D01*
X183109733Y-107699500D01*
X183080155Y-107702274D01*
X183080147Y-107702276D01*
X182955523Y-107745884D01*
X182849289Y-107824288D01*
X182823459Y-107859288D01*
X182773691Y-107894881D01*
X182743803Y-107899500D01*
X182356268Y-107899500D01*
X182312788Y-107889441D01*
X182281366Y-107874080D01*
X182251393Y-107859427D01*
X182183260Y-107849500D01*
X181091740Y-107849500D01*
X181057673Y-107854463D01*
X181023604Y-107859427D01*
X180918518Y-107910801D01*
X180835801Y-107993518D01*
X180784427Y-108098604D01*
X180784427Y-108098607D01*
X180774500Y-108166740D01*
X180774500Y-108533260D01*
X176757397Y-108533260D01*
X184979319Y-100311336D01*
X184981474Y-100309307D01*
X185028183Y-100267929D01*
X185063653Y-100216540D01*
X185065373Y-100214202D01*
X185103878Y-100165056D01*
X185108966Y-100153748D01*
X185117769Y-100138140D01*
X185124818Y-100127930D01*
X185146951Y-100069565D01*
X185148077Y-100066848D01*
X185173695Y-100009931D01*
X185175931Y-99997723D01*
X185180745Y-99980459D01*
X185185140Y-99968872D01*
X185192660Y-99906933D01*
X185193105Y-99904008D01*
X185204358Y-99842606D01*
X185200588Y-99780307D01*
X185200499Y-99777338D01*
X185200499Y-94922660D01*
X185200588Y-94919692D01*
X185204358Y-94857394D01*
X185195631Y-94809768D01*
X185193106Y-94795989D01*
X185192656Y-94793033D01*
X185190963Y-94779093D01*
X185185140Y-94731128D01*
X185180741Y-94719529D01*
X185175931Y-94702274D01*
X185175444Y-94699616D01*
X185173695Y-94690069D01*
X185148075Y-94633145D01*
X185146947Y-94630421D01*
X185124818Y-94572070D01*
X185121986Y-94567967D01*
X185117768Y-94561856D01*
X185108965Y-94546247D01*
X185103878Y-94534945D01*
X185103878Y-94534944D01*
X185065396Y-94485826D01*
X185063630Y-94483425D01*
X185028182Y-94432070D01*
X185028181Y-94432069D01*
X185002915Y-94409686D01*
X184981476Y-94390693D01*
X184979304Y-94388647D01*
X182415367Y-91824710D01*
X182415367Y-91824709D01*
X181888092Y-91297434D01*
X181361344Y-90770686D01*
X181359294Y-90768508D01*
X181342173Y-90749183D01*
X181317929Y-90721817D01*
X181317864Y-90721772D01*
X181266576Y-90686369D01*
X181264168Y-90684598D01*
X181215057Y-90646122D01*
X181215055Y-90646121D01*
X181215054Y-90646120D01*
X181203743Y-90641029D01*
X181188141Y-90632229D01*
X181177933Y-90625183D01*
X181119600Y-90603060D01*
X181116848Y-90601920D01*
X181089048Y-90589409D01*
X181059933Y-90576305D01*
X181055799Y-90575017D01*
X181005869Y-90539652D01*
X180986261Y-90481694D01*
X181004465Y-90423279D01*
X181053528Y-90386721D01*
X181085254Y-90381500D01*
X186032122Y-90381500D01*
X186090313Y-90400407D01*
X186126277Y-90449907D01*
X186130822Y-90472799D01*
X186133810Y-90511093D01*
X186134824Y-90524091D01*
X186199391Y-90908707D01*
X186297676Y-91286116D01*
X186309883Y-91320275D01*
X186428913Y-91653374D01*
X186592074Y-92007599D01*
X186785881Y-92346028D01*
X187008814Y-92666005D01*
X187008820Y-92666013D01*
X187008825Y-92666020D01*
X187029000Y-92690121D01*
X187259157Y-92965065D01*
X187534934Y-93240842D01*
X187674421Y-93357607D01*
X187833980Y-93491175D01*
X187833990Y-93491182D01*
X187833994Y-93491185D01*
X188093105Y-93671712D01*
X188153971Y-93714118D01*
X188492403Y-93907927D01*
X188689322Y-93998630D01*
X188846625Y-94071086D01*
X188846627Y-94071087D01*
X188846630Y-94071088D01*
X189213884Y-94202324D01*
X189591293Y-94300609D01*
X189975909Y-94365176D01*
X189975916Y-94365176D01*
X189975919Y-94365177D01*
X189997435Y-94366855D01*
X190027199Y-94369177D01*
X190083743Y-94392552D01*
X190115748Y-94444699D01*
X190118500Y-94467877D01*
X190118500Y-96460522D01*
X190099593Y-96518713D01*
X190050093Y-96554677D01*
X189988907Y-96554677D01*
X189939407Y-96518713D01*
X189924280Y-96487617D01*
X189874669Y-96313252D01*
X189775498Y-96114091D01*
X189641421Y-95936544D01*
X189477002Y-95786656D01*
X189287841Y-95669533D01*
X189080380Y-95589162D01*
X189080379Y-95589161D01*
X189080377Y-95589161D01*
X188861683Y-95548280D01*
X188639197Y-95548280D01*
X188420502Y-95589161D01*
X188409044Y-95593600D01*
X188213039Y-95669533D01*
X188061934Y-95763093D01*
X188023878Y-95786656D01*
X187871890Y-95925212D01*
X187859459Y-95936544D01*
X187857092Y-95939679D01*
X187725383Y-96114089D01*
X187725378Y-96114098D01*
X187626212Y-96313249D01*
X187626211Y-96313252D01*
X187565325Y-96527244D01*
X187544797Y-96748780D01*
X187565325Y-96970316D01*
X187625623Y-97182242D01*
X187626212Y-97184310D01*
X187676219Y-97284738D01*
X187725382Y-97383469D01*
X187859459Y-97561016D01*
X188023878Y-97710904D01*
X188213039Y-97828027D01*
X188420500Y-97908398D01*
X188639197Y-97949280D01*
X188861683Y-97949280D01*
X189080380Y-97908398D01*
X189287841Y-97828027D01*
X189477002Y-97710904D01*
X189641421Y-97561016D01*
X189775498Y-97383469D01*
X189874669Y-97184308D01*
X189924279Y-97009943D01*
X189958389Y-96959149D01*
X190015842Y-96938105D01*
X190074691Y-96954849D01*
X190112460Y-97002986D01*
X190118500Y-97037037D01*
X190118500Y-119532121D01*
X190099593Y-119590312D01*
X190050093Y-119626276D01*
X190027202Y-119630821D01*
X189975916Y-119634823D01*
X189975910Y-119634823D01*
X189975909Y-119634824D01*
X189664336Y-119687129D01*
X189591293Y-119699391D01*
X189213890Y-119797674D01*
X188846625Y-119928913D01*
X188492400Y-120092074D01*
X188153971Y-120285881D01*
X187833994Y-120508814D01*
X187833977Y-120508827D01*
X187534934Y-120759157D01*
X187259157Y-121034934D01*
X187008827Y-121333977D01*
X187008814Y-121333994D01*
X186785881Y-121653971D01*
X186592074Y-121992400D01*
X186428913Y-122346625D01*
X186405872Y-122411105D01*
X186297676Y-122713884D01*
X186199391Y-123091293D01*
X186134824Y-123475909D01*
X186134823Y-123475914D01*
X186134823Y-123475918D01*
X186130822Y-123527201D01*
X186107446Y-123583744D01*
X186055298Y-123615749D01*
X186032122Y-123618500D01*
X127467878Y-123618500D01*
X127409687Y-123599593D01*
X127373723Y-123550093D01*
X127369178Y-123527201D01*
X127367438Y-123504910D01*
X127365176Y-123475909D01*
X127300609Y-123091293D01*
X127202324Y-122713884D01*
X127071088Y-122346630D01*
X126907927Y-121992403D01*
X126714118Y-121653971D01*
X126491175Y-121333980D01*
X126240839Y-121034931D01*
X125965069Y-120759161D01*
X125965069Y-120759160D01*
X125965065Y-120759157D01*
X125666022Y-120508827D01*
X125666020Y-120508825D01*
X125666013Y-120508820D01*
X125666005Y-120508814D01*
X125346028Y-120285881D01*
X125007599Y-120092074D01*
X124653374Y-119928913D01*
X124483952Y-119868371D01*
X124286116Y-119797676D01*
X124286110Y-119797674D01*
X124286109Y-119797674D01*
X124133365Y-119757896D01*
X123908707Y-119699391D01*
X123524091Y-119634824D01*
X123524087Y-119634823D01*
X123524083Y-119634823D01*
X123472798Y-119630821D01*
X123416254Y-119607444D01*
X123384251Y-119555296D01*
X123381500Y-119532121D01*
X123381500Y-95299999D01*
X125713694Y-95299999D01*
X125732893Y-95568443D01*
X125732893Y-95568446D01*
X125732894Y-95568449D01*
X125789531Y-95828806D01*
X125790104Y-95831438D01*
X125884156Y-96083601D01*
X125884160Y-96083609D01*
X126013133Y-96319808D01*
X126098944Y-96434437D01*
X126174425Y-96535268D01*
X126364732Y-96725575D01*
X126493232Y-96821769D01*
X126580191Y-96886866D01*
X126816390Y-97015839D01*
X126816398Y-97015843D01*
X126816400Y-97015844D01*
X127068561Y-97109895D01*
X127068566Y-97109897D01*
X127331551Y-97167106D01*
X127600000Y-97186306D01*
X127868449Y-97167106D01*
X128131434Y-97109897D01*
X128383600Y-97015844D01*
X128465373Y-96971193D01*
X128619808Y-96886866D01*
X128619811Y-96886863D01*
X128619814Y-96886862D01*
X128835268Y-96725575D01*
X129025575Y-96535268D01*
X129186862Y-96319814D01*
X129186863Y-96319811D01*
X129186866Y-96319808D01*
X129315839Y-96083609D01*
X129315843Y-96083601D01*
X129315844Y-96083600D01*
X129409897Y-95831434D01*
X129467106Y-95568449D01*
X129486306Y-95300000D01*
X129467106Y-95031551D01*
X129409897Y-94768566D01*
X129315844Y-94516400D01*
X129315839Y-94516390D01*
X129186866Y-94280191D01*
X129051976Y-94100000D01*
X129025575Y-94064732D01*
X128835268Y-93874425D01*
X128733421Y-93798183D01*
X128619808Y-93713133D01*
X128383609Y-93584160D01*
X128383601Y-93584156D01*
X128131437Y-93490104D01*
X128131439Y-93490104D01*
X128071959Y-93477165D01*
X127868449Y-93432894D01*
X127868446Y-93432893D01*
X127868443Y-93432893D01*
X127600000Y-93413694D01*
X127331556Y-93432893D01*
X127331551Y-93432893D01*
X127331551Y-93432894D01*
X127200058Y-93461498D01*
X127068561Y-93490104D01*
X126816398Y-93584156D01*
X126816390Y-93584160D01*
X126580191Y-93713133D01*
X126364734Y-93874423D01*
X126174423Y-94064734D01*
X126013133Y-94280191D01*
X125884160Y-94516390D01*
X125884156Y-94516398D01*
X125790104Y-94768561D01*
X125784455Y-94794528D01*
X125757233Y-94919669D01*
X125732893Y-95031556D01*
X125713694Y-95299999D01*
X123381500Y-95299999D01*
X123381500Y-94467877D01*
X123400407Y-94409686D01*
X123449907Y-94373722D01*
X123472798Y-94369177D01*
X123507770Y-94366449D01*
X123524080Y-94365177D01*
X123524081Y-94365176D01*
X123524091Y-94365176D01*
X123908707Y-94300609D01*
X124286116Y-94202324D01*
X124653370Y-94071088D01*
X125007597Y-93907927D01*
X125346029Y-93714118D01*
X125666020Y-93491175D01*
X125965069Y-93240839D01*
X126240839Y-92965069D01*
X126491175Y-92666020D01*
X126714118Y-92346029D01*
X126907927Y-92007597D01*
X127071088Y-91653370D01*
X127202324Y-91286116D01*
X127300609Y-90908707D01*
X127365176Y-90524091D01*
X127368484Y-90481694D01*
X127369178Y-90472799D01*
X127392554Y-90416256D01*
X127444702Y-90384251D01*
X127467878Y-90381500D01*
X163481208Y-90381500D01*
X163539399Y-90400407D01*
G37*
G04 #@! TD.AperFunction*
G04 #@! TA.AperFunction,Conductor*
G36*
X140630579Y-92669407D02*
G01*
X140642392Y-92679496D01*
X141320504Y-93357607D01*
X141348281Y-93412124D01*
X141349500Y-93427611D01*
X141349500Y-93446572D01*
X141330593Y-93504763D01*
X141281093Y-93540727D01*
X141254815Y-93544888D01*
X141254836Y-93545096D01*
X141251319Y-93545442D01*
X141250500Y-93545572D01*
X141249997Y-93545572D01*
X141171765Y-93561133D01*
X141162882Y-93564813D01*
X141101886Y-93569612D01*
X141087116Y-93564813D01*
X141078230Y-93561132D01*
X141019758Y-93549501D01*
X141019748Y-93549500D01*
X139980252Y-93549500D01*
X139980251Y-93549500D01*
X139980241Y-93549501D01*
X139921772Y-93561132D01*
X139921766Y-93561134D01*
X139855451Y-93605445D01*
X139855445Y-93605451D01*
X139811134Y-93671766D01*
X139811132Y-93671772D01*
X139799501Y-93730241D01*
X139799500Y-93730253D01*
X139799500Y-95269746D01*
X139799501Y-95269758D01*
X139811132Y-95328227D01*
X139811134Y-95328233D01*
X139855445Y-95394548D01*
X139855448Y-95394552D01*
X139921769Y-95438867D01*
X139966231Y-95447711D01*
X139980241Y-95450498D01*
X139980246Y-95450498D01*
X139980252Y-95450500D01*
X140075500Y-95450500D01*
X140133691Y-95469407D01*
X140169655Y-95518907D01*
X140174500Y-95549500D01*
X140174500Y-99124165D01*
X140155593Y-99182356D01*
X140145504Y-99194169D01*
X139487447Y-99852225D01*
X139432930Y-99880002D01*
X139372498Y-99870431D01*
X139329233Y-99827166D01*
X139319662Y-99766734D01*
X139321814Y-99756608D01*
X139329264Y-99728807D01*
X139325687Y-99687927D01*
X139325500Y-99683625D01*
X139325500Y-97016362D01*
X139325687Y-97012061D01*
X139329263Y-96971193D01*
X139318642Y-96931559D01*
X139317712Y-96927360D01*
X139310588Y-96886955D01*
X139309834Y-96885649D01*
X139299941Y-96861765D01*
X139299553Y-96860316D01*
X139294565Y-96853193D01*
X139276027Y-96826717D01*
X139273711Y-96823083D01*
X139253194Y-96787545D01*
X139221765Y-96761172D01*
X139218588Y-96758261D01*
X138841746Y-96381420D01*
X138838827Y-96378235D01*
X138812456Y-96346806D01*
X138789818Y-96333736D01*
X138776918Y-96326288D01*
X138773288Y-96323975D01*
X138739684Y-96300446D01*
X138739679Y-96300443D01*
X138738224Y-96300054D01*
X138714348Y-96290164D01*
X138713045Y-96289411D01*
X138672652Y-96282289D01*
X138668436Y-96281354D01*
X138642153Y-96274312D01*
X138628807Y-96270736D01*
X138628806Y-96270736D01*
X138624381Y-96271123D01*
X138587926Y-96274312D01*
X138583626Y-96274500D01*
X137375834Y-96274500D01*
X137317643Y-96255593D01*
X137305830Y-96245504D01*
X136506138Y-95445812D01*
X136478361Y-95391295D01*
X136486811Y-95337936D01*
X136485134Y-95337242D01*
X136488862Y-95328237D01*
X136488867Y-95328231D01*
X136500500Y-95269748D01*
X136500500Y-93730252D01*
X136488867Y-93671769D01*
X136444552Y-93605448D01*
X136444548Y-93605445D01*
X136378233Y-93561134D01*
X136378231Y-93561133D01*
X136378228Y-93561132D01*
X136378227Y-93561132D01*
X136319758Y-93549501D01*
X136319748Y-93549500D01*
X135280252Y-93549500D01*
X135280251Y-93549500D01*
X135280241Y-93549501D01*
X135221769Y-93561132D01*
X135212881Y-93564814D01*
X135151884Y-93569611D01*
X135137115Y-93564812D01*
X135128233Y-93561133D01*
X135050002Y-93545572D01*
X135050000Y-93545572D01*
X135049500Y-93545572D01*
X135049283Y-93545501D01*
X135045164Y-93545096D01*
X135045252Y-93544192D01*
X134991309Y-93526665D01*
X134955345Y-93477165D01*
X134950500Y-93446572D01*
X134950500Y-93227610D01*
X134969407Y-93169419D01*
X134979497Y-93157606D01*
X135457608Y-92679496D01*
X135512124Y-92651719D01*
X135527611Y-92650500D01*
X140572388Y-92650500D01*
X140630579Y-92669407D01*
G37*
G04 #@! TD.AperFunction*
G04 #@! TA.AperFunction,Conductor*
G36*
X155269994Y-101919652D02*
G01*
X155298724Y-101969414D01*
X155300000Y-101984000D01*
X155300000Y-105500000D01*
X158900000Y-105500000D01*
X158900000Y-102384000D01*
X158919652Y-102330006D01*
X158969414Y-102301276D01*
X158984000Y-102300000D01*
X159516000Y-102300000D01*
X159569994Y-102319652D01*
X159598724Y-102369414D01*
X159600000Y-102384000D01*
X159600000Y-106016000D01*
X159580348Y-106069994D01*
X159530586Y-106098724D01*
X159516000Y-106100000D01*
X154784000Y-106100000D01*
X154730006Y-106080348D01*
X154701276Y-106030586D01*
X154700000Y-106016000D01*
X154700000Y-103300000D01*
X154484000Y-103300000D01*
X154430006Y-103280348D01*
X154401276Y-103230586D01*
X154400000Y-103216000D01*
X154400000Y-101984000D01*
X154419652Y-101930006D01*
X154469414Y-101901276D01*
X154484000Y-101900000D01*
X155216000Y-101900000D01*
X155269994Y-101919652D01*
G37*
G04 #@! TD.AperFunction*
G04 #@! TA.AperFunction,Conductor*
G36*
X135296669Y-110401282D02*
G01*
X135326000Y-110405500D01*
X137273994Y-110405500D01*
X137274000Y-110405500D01*
X137321806Y-110400360D01*
X137328539Y-110400000D01*
X138274000Y-110400000D01*
X138342121Y-110420002D01*
X138388614Y-110473658D01*
X138400000Y-110526000D01*
X138400000Y-119274000D01*
X138379998Y-119342121D01*
X138326342Y-119388614D01*
X138274000Y-119400000D01*
X131926000Y-119400000D01*
X131857879Y-119379998D01*
X131811386Y-119326342D01*
X131800000Y-119274000D01*
X131800000Y-112526000D01*
X131820002Y-112457879D01*
X131873658Y-112411386D01*
X131926000Y-112400000D01*
X132600000Y-112400000D01*
X132600000Y-110526000D01*
X132620002Y-110457879D01*
X132673658Y-110411386D01*
X132726000Y-110400000D01*
X135278738Y-110400000D01*
X135296669Y-110401282D01*
G37*
G04 #@! TD.AperFunction*
G04 #@! TA.AperFunction,Conductor*
G36*
X137342121Y-105220002D02*
G01*
X137388614Y-105273658D01*
X137400000Y-105326000D01*
X137400000Y-109974000D01*
X137379998Y-110042121D01*
X137326342Y-110088614D01*
X137274000Y-110100000D01*
X135326000Y-110100000D01*
X135257879Y-110079998D01*
X135211386Y-110026342D01*
X135200000Y-109974000D01*
X135200000Y-107477588D01*
X135220002Y-107409467D01*
X135223956Y-107403844D01*
X135224531Y-107402847D01*
X135224536Y-107402841D01*
X135285044Y-107256762D01*
X135305682Y-107100000D01*
X135285044Y-106943238D01*
X135259981Y-106882731D01*
X135224537Y-106797160D01*
X135220408Y-106790009D01*
X135222130Y-106789014D01*
X135200436Y-106732888D01*
X135200000Y-106722411D01*
X135200000Y-105326000D01*
X135220002Y-105257879D01*
X135273658Y-105211386D01*
X135326000Y-105200000D01*
X137274000Y-105200000D01*
X137342121Y-105220002D01*
G37*
G04 #@! TD.AperFunction*
M02*
