G04 #@! TF.GenerationSoftware,KiCad,Pcbnew,7.0.5-0*
G04 #@! TF.CreationDate,2023-10-09T15:45:39-04:00*
G04 #@! TF.ProjectId,SLAPS_Solar_Harvester,534c4150-535f-4536-9f6c-61725f486172,V1.1*
G04 #@! TF.SameCoordinates,Original*
G04 #@! TF.FileFunction,Soldermask,Bot*
G04 #@! TF.FilePolarity,Negative*
%FSLAX46Y46*%
G04 Gerber Fmt 4.6, Leading zero omitted, Abs format (unit mm)*
G04 Created by KiCad (PCBNEW 7.0.5-0) date 2023-10-09 15:45:39*
%MOMM*%
%LPD*%
G01*
G04 APERTURE LIST*
G04 Aperture macros list*
%AMRoundRect*
0 Rectangle with rounded corners*
0 $1 Rounding radius*
0 $2 $3 $4 $5 $6 $7 $8 $9 X,Y pos of 4 corners*
0 Add a 4 corners polygon primitive as box body*
4,1,4,$2,$3,$4,$5,$6,$7,$8,$9,$2,$3,0*
0 Add four circle primitives for the rounded corners*
1,1,$1+$1,$2,$3*
1,1,$1+$1,$4,$5*
1,1,$1+$1,$6,$7*
1,1,$1+$1,$8,$9*
0 Add four rect primitives between the rounded corners*
20,1,$1+$1,$2,$3,$4,$5,0*
20,1,$1+$1,$4,$5,$6,$7,0*
20,1,$1+$1,$6,$7,$8,$9,0*
20,1,$1+$1,$8,$9,$2,$3,0*%
%AMFreePoly0*
4,1,39,1.035011,1.991743,1.035046,1.991728,1.061728,1.965046,1.061743,1.965011,1.065850,1.945000,1.065850,1.170000,1.062217,1.151133,1.062203,1.151098,1.051413,1.134505,0.485850,0.554315,0.485850,-0.554315,1.051413,-1.134505,1.062203,-1.151098,1.062217,-1.151133,1.065850,-1.170000,1.065850,-1.945000,1.061743,-1.965011,1.061728,-1.965046,1.035046,-1.991728,1.035011,-1.991743,
1.015000,-1.995850,0.115000,-1.995850,0.095462,-1.991942,0.095426,-1.991927,0.079043,-1.980956,-0.470956,-1.430956,-0.481728,-1.415046,-0.481743,-1.415011,-0.485850,-1.395000,-0.485850,1.395000,-0.481942,1.414538,-0.481927,1.414574,-0.470631,1.431279,0.089369,1.981278,0.104954,1.991728,0.104989,1.991743,0.125000,1.995850,1.015000,1.995850,1.035011,1.991743,1.035011,1.991743,
$1*%
%AMFreePoly1*
4,1,44,-0.108300,1.992306,-0.108075,1.992946,-0.108058,1.992940,-0.106394,1.991901,-0.104368,1.991472,-0.104350,1.991464,-0.104641,1.990808,-0.089369,1.981279,0.470631,1.431278,0.481728,1.415046,0.481743,1.415011,0.485850,1.395000,0.485850,-1.395000,0.481942,-1.414538,0.481927,-1.414574,0.470956,-1.430957,-0.079044,-1.980956,-0.094954,-1.991728,-0.094989,-1.991743,-0.115000,-1.995850,
-1.015000,-1.995850,-1.035011,-1.991743,-1.035046,-1.991728,-1.061728,-1.965046,-1.061743,-1.965011,-1.065850,-1.945000,-1.065850,-1.170000,-1.062217,-1.151133,-1.062203,-1.151098,-1.051413,-1.134505,-0.485850,-0.554315,-0.485850,0.554315,-1.051413,1.134505,-1.062203,1.151098,-1.062217,1.151133,-1.065850,1.170000,-1.065850,1.945000,-1.061743,1.965011,-1.061728,1.965046,-1.035046,1.991728,
-1.035011,1.991743,-1.015000,1.995850,-0.125000,1.995850,-0.108300,1.992306,-0.108300,1.992306,$1*%
G04 Aperture macros list end*
%ADD10C,2.101600*%
%ADD11C,3.101600*%
%ADD12C,0.801600*%
%ADD13C,0.601600*%
%ADD14O,0.901600X1.601600*%
%ADD15C,0.771600*%
%ADD16O,1.001600X2.501600*%
%ADD17O,1.001600X1.801600*%
%ADD18C,0.951600*%
%ADD19RoundRect,0.288300X0.300000X0.237500X-0.300000X0.237500X-0.300000X-0.237500X0.300000X-0.237500X0*%
%ADD20RoundRect,0.150800X0.100000X-0.625000X0.100000X0.625000X-0.100000X0.625000X-0.100000X-0.625000X0*%
%ADD21RoundRect,0.050800X1.425000X-0.825000X1.425000X0.825000X-1.425000X0.825000X-1.425000X-0.825000X0*%
%ADD22RoundRect,0.288300X-0.237500X0.300000X-0.237500X-0.300000X0.237500X-0.300000X0.237500X0.300000X0*%
%ADD23RoundRect,0.050800X-1.200000X1.000000X-1.200000X-1.000000X1.200000X-1.000000X1.200000X1.000000X0*%
%ADD24C,1.101600*%
%ADD25FreePoly0,90.000000*%
%ADD26FreePoly1,90.000000*%
%ADD27RoundRect,0.200800X0.150000X-0.650000X0.150000X0.650000X-0.150000X0.650000X-0.150000X-0.650000X0*%
%ADD28RoundRect,0.288300X0.237500X-0.300000X0.237500X0.300000X-0.237500X0.300000X-0.237500X-0.300000X0*%
%ADD29RoundRect,0.100800X0.050000X-0.387500X0.050000X0.387500X-0.050000X0.387500X-0.050000X-0.387500X0*%
%ADD30RoundRect,0.100800X0.387500X-0.050000X0.387500X0.050000X-0.387500X0.050000X-0.387500X-0.050000X0*%
%ADD31RoundRect,0.194800X1.456000X-1.456000X1.456000X1.456000X-1.456000X1.456000X-1.456000X-1.456000X0*%
%ADD32RoundRect,0.288300X0.250000X0.237500X-0.250000X0.237500X-0.250000X-0.237500X0.250000X-0.237500X0*%
%ADD33RoundRect,0.050800X0.475000X0.275000X-0.475000X0.275000X-0.475000X-0.275000X0.475000X-0.275000X0*%
%ADD34RoundRect,0.200800X0.512500X0.150000X-0.512500X0.150000X-0.512500X-0.150000X0.512500X-0.150000X0*%
%ADD35RoundRect,0.288300X-0.250000X-0.237500X0.250000X-0.237500X0.250000X0.237500X-0.250000X0.237500X0*%
%ADD36RoundRect,0.288300X0.287500X0.237500X-0.287500X0.237500X-0.287500X-0.237500X0.287500X-0.237500X0*%
%ADD37RoundRect,0.288300X0.237500X-0.250000X0.237500X0.250000X-0.237500X0.250000X-0.237500X-0.250000X0*%
%ADD38RoundRect,0.288300X-0.237500X0.250000X-0.237500X-0.250000X0.237500X-0.250000X0.237500X0.250000X0*%
%ADD39RoundRect,0.113300X-0.062500X0.337500X-0.062500X-0.337500X0.062500X-0.337500X0.062500X0.337500X0*%
%ADD40RoundRect,0.113300X-0.337500X0.062500X-0.337500X-0.062500X0.337500X-0.062500X0.337500X0.062500X0*%
%ADD41RoundRect,0.050800X-1.675000X1.675000X-1.675000X-1.675000X1.675000X-1.675000X1.675000X1.675000X0*%
%ADD42C,0.901600*%
%ADD43RoundRect,0.213300X0.162500X-0.367500X0.162500X0.367500X-0.162500X0.367500X-0.162500X-0.367500X0*%
G04 APERTURE END LIST*
D10*
X188750440Y-96748780D03*
D11*
X134980000Y-117500000D03*
X142750000Y-117500000D03*
X170750000Y-117500000D03*
X178520000Y-117500000D03*
D10*
X159250880Y-96748780D03*
X124750060Y-96748780D03*
X186200000Y-101700000D03*
D12*
X152540000Y-92725500D03*
D13*
X151270000Y-92725500D03*
X150000000Y-92725500D03*
X148730000Y-92725500D03*
D12*
X147460000Y-92725500D03*
D14*
X151905000Y-91570500D03*
X150635000Y-91570500D03*
X149365000Y-91570500D03*
X148095000Y-91570500D03*
D10*
X154249620Y-96748780D03*
D15*
X178400000Y-99000000D03*
X177550000Y-99000000D03*
X176700000Y-99000000D03*
X175850000Y-99000000D03*
X175000000Y-99000000D03*
X174150000Y-99000000D03*
X173300000Y-99000000D03*
X172450000Y-99000000D03*
X172450000Y-97650000D03*
X173300000Y-97650000D03*
X174150000Y-97650000D03*
X175000000Y-97650000D03*
X175850000Y-97650000D03*
X176700000Y-97650000D03*
X177550000Y-97650000D03*
X178400000Y-97650000D03*
D16*
X179750000Y-98020000D03*
D17*
X179750000Y-94640000D03*
D16*
X171100000Y-98020000D03*
D17*
X171100000Y-94640000D03*
D18*
X168014969Y-103382309D03*
D19*
X132112500Y-115500000D03*
X130387500Y-115500000D03*
D20*
X132375000Y-113150000D03*
X131725000Y-113150000D03*
X131075000Y-113150000D03*
X130425000Y-113150000D03*
X129775000Y-113150000D03*
X129125000Y-113150000D03*
X129125000Y-108850000D03*
X129775000Y-108850000D03*
X130425000Y-108850000D03*
X131075000Y-108850000D03*
X131725000Y-108850000D03*
X132375000Y-108850000D03*
D21*
X130750000Y-111000000D03*
D22*
X169300000Y-108037500D03*
X169300000Y-109762500D03*
D18*
X168125653Y-101757502D03*
D23*
X147500000Y-105550000D03*
X147500000Y-109250000D03*
D24*
X153900000Y-109900000D03*
D22*
X159400000Y-112837500D03*
X159400000Y-114562500D03*
D25*
X129000000Y-103627500D03*
D26*
X129000000Y-100097500D03*
D22*
X163900000Y-95537500D03*
X163900000Y-97262500D03*
D19*
X130362500Y-107000000D03*
X128637500Y-107000000D03*
D24*
X153700000Y-115400000D03*
D19*
X130362500Y-105362500D03*
X128637500Y-105362500D03*
D27*
X167505000Y-113500000D03*
X166235000Y-113500000D03*
X164965000Y-113500000D03*
X163695000Y-113500000D03*
X163695000Y-106300000D03*
X164965000Y-106300000D03*
X166235000Y-106300000D03*
X167505000Y-106300000D03*
D28*
X150300000Y-110562500D03*
X150300000Y-108837500D03*
D29*
X159700000Y-107137500D03*
X159300000Y-107137500D03*
X158900000Y-107137500D03*
X158500000Y-107137500D03*
X158100000Y-107137500D03*
X157700000Y-107137500D03*
X157300000Y-107137500D03*
X156900000Y-107137500D03*
X156500000Y-107137500D03*
X156100000Y-107137500D03*
X155700000Y-107137500D03*
X155300000Y-107137500D03*
X154900000Y-107137500D03*
X154500000Y-107137500D03*
D30*
X153662500Y-106300000D03*
X153662500Y-105900000D03*
X153662500Y-105500000D03*
X153662500Y-105100000D03*
X153662500Y-104700000D03*
X153662500Y-104300000D03*
X153662500Y-103900000D03*
X153662500Y-103500000D03*
X153662500Y-103100000D03*
X153662500Y-102700000D03*
X153662500Y-102300000D03*
X153662500Y-101900000D03*
X153662500Y-101500000D03*
X153662500Y-101100000D03*
D29*
X154500000Y-100262500D03*
X154900000Y-100262500D03*
X155300000Y-100262500D03*
X155700000Y-100262500D03*
X156100000Y-100262500D03*
X156500000Y-100262500D03*
X156900000Y-100262500D03*
X157300000Y-100262500D03*
X157700000Y-100262500D03*
X158100000Y-100262500D03*
X158500000Y-100262500D03*
X158900000Y-100262500D03*
X159300000Y-100262500D03*
X159700000Y-100262500D03*
D30*
X160537500Y-101100000D03*
X160537500Y-101500000D03*
X160537500Y-101900000D03*
X160537500Y-102300000D03*
X160537500Y-102700000D03*
X160537500Y-103100000D03*
X160537500Y-103500000D03*
X160537500Y-103900000D03*
X160537500Y-104300000D03*
X160537500Y-104700000D03*
X160537500Y-105100000D03*
X160537500Y-105500000D03*
X160537500Y-105900000D03*
X160537500Y-106300000D03*
D31*
X157100000Y-103700000D03*
D24*
X127600000Y-116800000D03*
D32*
X171212500Y-112800000D03*
X169387500Y-112800000D03*
D33*
X157775000Y-111725000D03*
X157775000Y-112975000D03*
X157775000Y-114225000D03*
X157775000Y-115475000D03*
X155625000Y-115475000D03*
X155625000Y-114225000D03*
X155625000Y-112975000D03*
X155625000Y-111725000D03*
D24*
X139900000Y-105700000D03*
D34*
X167937500Y-95450000D03*
X167937500Y-96400000D03*
X167937500Y-97350000D03*
X165662500Y-97350000D03*
X165662500Y-95450000D03*
D32*
X171212500Y-114400000D03*
X169387500Y-114400000D03*
D35*
X152187500Y-111800000D03*
X154012500Y-111800000D03*
D36*
X137375000Y-99362500D03*
X135625000Y-99362500D03*
D28*
X139500000Y-100725000D03*
X139500000Y-99000000D03*
D37*
X150300000Y-107112500D03*
X150300000Y-105287500D03*
D19*
X148962500Y-103400000D03*
X147237500Y-103400000D03*
D35*
X163887500Y-102250000D03*
X165712500Y-102250000D03*
D38*
X125750000Y-111587500D03*
X125750000Y-113412500D03*
D35*
X152187500Y-113400000D03*
X154012500Y-113400000D03*
D39*
X134000000Y-100912500D03*
X134500000Y-100912500D03*
X135000000Y-100912500D03*
X135500000Y-100912500D03*
X136000000Y-100912500D03*
X136500000Y-100912500D03*
X137000000Y-100912500D03*
D40*
X137950000Y-101862500D03*
X137950000Y-102362500D03*
X137950000Y-102862500D03*
X137950000Y-103362500D03*
X137950000Y-103862500D03*
X137950000Y-104362500D03*
X137950000Y-104862500D03*
D39*
X137000000Y-105812500D03*
X136500000Y-105812500D03*
X136000000Y-105812500D03*
X135500000Y-105812500D03*
X135000000Y-105812500D03*
X134500000Y-105812500D03*
X134000000Y-105812500D03*
D40*
X133050000Y-104862500D03*
X133050000Y-104362500D03*
X133050000Y-103862500D03*
X133050000Y-103362500D03*
X133050000Y-102862500D03*
X133050000Y-102362500D03*
X133050000Y-101862500D03*
D41*
X135500000Y-103362500D03*
D19*
X133862500Y-99362500D03*
X132137500Y-99362500D03*
D37*
X127500000Y-113412500D03*
X127500000Y-111587500D03*
D42*
X131957040Y-107099999D03*
D24*
X136500000Y-97400000D03*
X169000000Y-99200000D03*
D43*
X176375000Y-103375000D03*
X175425000Y-103375000D03*
X174475000Y-103375000D03*
X174475000Y-101175000D03*
X175425000Y-101175000D03*
X176375000Y-101175000D03*
D19*
X168062500Y-93800000D03*
X166337500Y-93800000D03*
D35*
X163887500Y-100500000D03*
X165712500Y-100500000D03*
M02*
