%TF.GenerationSoftware,KiCad,Pcbnew,(6.0.11-0)*%
%TF.CreationDate,2023-04-11T08:14:18-04:00*%
%TF.ProjectId,SLAPS_Solar_Harvester,534c4150-535f-4536-9f6c-61725f486172,rev?*%
%TF.SameCoordinates,Original*%
%TF.FileFunction,Copper,L2,Bot*%
%TF.FilePolarity,Positive*%
%FSLAX46Y46*%
G04 Gerber Fmt 4.6, Leading zero omitted, Abs format (unit mm)*
G04 Created by KiCad (PCBNEW (6.0.11-0)) date 2023-04-11 08:14:18*
%MOMM*%
%LPD*%
G01*
G04 APERTURE LIST*
G04 Aperture macros list*
%AMRoundRect*
0 Rectangle with rounded corners*
0 $1 Rounding radius*
0 $2 $3 $4 $5 $6 $7 $8 $9 X,Y pos of 4 corners*
0 Add a 4 corners polygon primitive as box body*
4,1,4,$2,$3,$4,$5,$6,$7,$8,$9,$2,$3,0*
0 Add four circle primitives for the rounded corners*
1,1,$1+$1,$2,$3*
1,1,$1+$1,$4,$5*
1,1,$1+$1,$6,$7*
1,1,$1+$1,$8,$9*
0 Add four rect primitives between the rounded corners*
20,1,$1+$1,$2,$3,$4,$5,0*
20,1,$1+$1,$4,$5,$6,$7,0*
20,1,$1+$1,$6,$7,$8,$9,0*
20,1,$1+$1,$8,$9,$2,$3,0*%
%AMRotRect*
0 Rectangle, with rotation*
0 The origin of the aperture is its center*
0 $1 length*
0 $2 width*
0 $3 Rotation angle, in degrees counterclockwise*
0 Add horizontal line*
21,1,$1,$2,0,0,$3*%
%AMFreePoly0*
4,1,22,0.550000,-0.750000,0.000000,-0.750000,0.000000,-0.745033,-0.079941,-0.743568,-0.215256,-0.701293,-0.333266,-0.622738,-0.424486,-0.514219,-0.481581,-0.384460,-0.499164,-0.250000,-0.500000,-0.250000,-0.500000,0.250000,-0.499164,0.250000,-0.499963,0.256109,-0.478152,0.396186,-0.417904,0.524511,-0.324060,0.630769,-0.204165,0.706417,-0.067858,0.745374,0.000000,0.744959,0.000000,0.750000,
0.550000,0.750000,0.550000,-0.750000,0.550000,-0.750000,$1*%
%AMFreePoly1*
4,1,20,0.000000,0.744959,0.073905,0.744508,0.209726,0.703889,0.328688,0.626782,0.421226,0.519385,0.479903,0.390333,0.500000,0.250000,0.500000,-0.250000,0.499851,-0.262216,0.476331,-0.402017,0.414519,-0.529596,0.319384,-0.634700,0.198574,-0.708877,0.061801,-0.746166,0.000000,-0.745033,0.000000,-0.750000,-0.550000,-0.750000,-0.550000,0.750000,0.000000,0.750000,0.000000,0.744959,
0.000000,0.744959,$1*%
%AMFreePoly2*
4,1,21,1.015035,1.945035,1.015050,1.945000,1.015050,1.170000,1.015036,1.169965,0.435050,0.574979,0.435050,-0.574979,1.015036,-1.169965,1.015050,-1.170000,1.015050,-1.945000,1.015035,-1.945035,1.015000,-1.945050,0.115000,-1.945050,0.114964,-1.945035,-0.435035,-1.395035,-0.435050,-1.395000,-0.435050,1.395000,-0.435035,1.395036,0.124965,1.945035,0.125000,1.945050,1.015000,1.945050,
1.015035,1.945035,1.015035,1.945035,$1*%
%AMFreePoly3*
4,1,22,-0.124983,1.945043,-0.124965,1.945036,0.435035,1.395035,0.435050,1.395000,0.435050,-1.395000,0.435035,-1.395036,-0.114965,-1.945035,-0.115000,-1.945050,-1.015000,-1.945050,-1.015035,-1.945035,-1.015050,-1.945000,-1.015050,-1.170000,-1.015036,-1.169965,-0.435050,-0.574979,-0.435050,0.574979,-1.015036,1.169965,-1.015050,1.170000,-1.015050,1.945000,-1.015035,1.945035,-1.015000,1.945050,
-0.125000,1.945050,-0.124983,1.945043,-0.124983,1.945043,$1*%
G04 Aperture macros list end*
%TA.AperFunction,ComponentPad*%
%ADD10C,2.000000*%
%TD*%
%TA.AperFunction,ComponentPad*%
%ADD11C,0.670000*%
%TD*%
%TA.AperFunction,ComponentPad*%
%ADD12O,0.900000X1.700000*%
%TD*%
%TA.AperFunction,ComponentPad*%
%ADD13O,0.900000X2.400000*%
%TD*%
%TA.AperFunction,ComponentPad*%
%ADD14C,3.000000*%
%TD*%
%TA.AperFunction,SMDPad,CuDef*%
%ADD15RoundRect,0.237500X0.344715X-0.008839X-0.008839X0.344715X-0.344715X0.008839X0.008839X-0.344715X0*%
%TD*%
%TA.AperFunction,SMDPad,CuDef*%
%ADD16RoundRect,0.237500X0.237500X-0.300000X0.237500X0.300000X-0.237500X0.300000X-0.237500X-0.300000X0*%
%TD*%
%TA.AperFunction,SMDPad,CuDef*%
%ADD17RoundRect,0.275000X-0.282843X0.671751X-0.671751X0.282843X0.282843X-0.671751X0.671751X-0.282843X0*%
%TD*%
%TA.AperFunction,SMDPad,CuDef*%
%ADD18RotRect,1.600000X0.550000X45.000000*%
%TD*%
%TA.AperFunction,SMDPad,CuDef*%
%ADD19RotRect,1.600000X0.550000X315.000000*%
%TD*%
%TA.AperFunction,SMDPad,CuDef*%
%ADD20C,1.000000*%
%TD*%
%TA.AperFunction,SMDPad,CuDef*%
%ADD21RoundRect,0.237500X0.237500X-0.250000X0.237500X0.250000X-0.237500X0.250000X-0.237500X-0.250000X0*%
%TD*%
%TA.AperFunction,SMDPad,CuDef*%
%ADD22RoundRect,0.150000X-0.512500X-0.150000X0.512500X-0.150000X0.512500X0.150000X-0.512500X0.150000X0*%
%TD*%
%TA.AperFunction,SMDPad,CuDef*%
%ADD23FreePoly0,270.000000*%
%TD*%
%TA.AperFunction,SMDPad,CuDef*%
%ADD24R,1.500000X1.000000*%
%TD*%
%TA.AperFunction,SMDPad,CuDef*%
%ADD25FreePoly1,270.000000*%
%TD*%
%TA.AperFunction,SMDPad,CuDef*%
%ADD26RoundRect,0.237500X-0.380070X0.044194X0.044194X-0.380070X0.380070X-0.044194X-0.044194X0.380070X0*%
%TD*%
%TA.AperFunction,SMDPad,CuDef*%
%ADD27RoundRect,0.150000X0.353553X0.565685X-0.565685X-0.353553X-0.353553X-0.565685X0.565685X0.353553X0*%
%TD*%
%TA.AperFunction,SMDPad,CuDef*%
%ADD28RoundRect,0.237500X-0.300000X-0.237500X0.300000X-0.237500X0.300000X0.237500X-0.300000X0.237500X0*%
%TD*%
%TA.AperFunction,SMDPad,CuDef*%
%ADD29RoundRect,0.237500X-0.344715X0.008839X0.008839X-0.344715X0.344715X-0.008839X-0.008839X0.344715X0*%
%TD*%
%TA.AperFunction,SMDPad,CuDef*%
%ADD30RoundRect,0.100000X-0.625000X-0.100000X0.625000X-0.100000X0.625000X0.100000X-0.625000X0.100000X0*%
%TD*%
%TA.AperFunction,ComponentPad*%
%ADD31C,0.600000*%
%TD*%
%TA.AperFunction,SMDPad,CuDef*%
%ADD32R,1.650000X2.850000*%
%TD*%
%TA.AperFunction,SMDPad,CuDef*%
%ADD33RoundRect,0.162500X0.162500X-0.367500X0.162500X0.367500X-0.162500X0.367500X-0.162500X-0.367500X0*%
%TD*%
%TA.AperFunction,SMDPad,CuDef*%
%ADD34RoundRect,0.237500X-0.008839X-0.344715X0.344715X0.008839X0.008839X0.344715X-0.344715X-0.008839X0*%
%TD*%
%TA.AperFunction,SMDPad,CuDef*%
%ADD35RoundRect,0.237500X0.287500X0.237500X-0.287500X0.237500X-0.287500X-0.237500X0.287500X-0.237500X0*%
%TD*%
%TA.AperFunction,SMDPad,CuDef*%
%ADD36RoundRect,0.062500X-0.062500X0.337500X-0.062500X-0.337500X0.062500X-0.337500X0.062500X0.337500X0*%
%TD*%
%TA.AperFunction,SMDPad,CuDef*%
%ADD37RoundRect,0.062500X-0.337500X0.062500X-0.337500X-0.062500X0.337500X-0.062500X0.337500X0.062500X0*%
%TD*%
%TA.AperFunction,SMDPad,CuDef*%
%ADD38R,3.350000X3.350000*%
%TD*%
%TA.AperFunction,SMDPad,CuDef*%
%ADD39RoundRect,0.237500X-0.237500X0.300000X-0.237500X-0.300000X0.237500X-0.300000X0.237500X0.300000X0*%
%TD*%
%TA.AperFunction,SMDPad,CuDef*%
%ADD40RoundRect,0.237500X0.380070X-0.044194X-0.044194X0.380070X-0.380070X0.044194X0.044194X-0.380070X0*%
%TD*%
%TA.AperFunction,SMDPad,CuDef*%
%ADD41RotRect,0.950000X0.550000X45.000000*%
%TD*%
%TA.AperFunction,SMDPad,CuDef*%
%ADD42FreePoly2,90.000000*%
%TD*%
%TA.AperFunction,SMDPad,CuDef*%
%ADD43FreePoly3,90.000000*%
%TD*%
%TA.AperFunction,SMDPad,CuDef*%
%ADD44RoundRect,0.237500X-0.044194X-0.380070X0.380070X0.044194X0.044194X0.380070X-0.380070X-0.044194X0*%
%TD*%
%TA.AperFunction,ViaPad*%
%ADD45C,0.800000*%
%TD*%
%TA.AperFunction,Conductor*%
%ADD46C,0.250000*%
%TD*%
%TA.AperFunction,Conductor*%
%ADD47C,0.500000*%
%TD*%
%TA.AperFunction,Conductor*%
%ADD48C,0.900000*%
%TD*%
%TA.AperFunction,Conductor*%
%ADD49C,0.770000*%
%TD*%
%TA.AperFunction,Conductor*%
%ADD50C,0.200000*%
%TD*%
%TA.AperFunction,Conductor*%
%ADD51C,1.000000*%
%TD*%
G04 APERTURE END LIST*
D10*
%TO.P,J3,1,Pin_1*%
%TO.N,GND*%
X159250000Y-96750000D03*
%TD*%
%TO.P,J2,1,Pin_1*%
%TO.N,GND*%
X124750000Y-96750000D03*
%TD*%
D11*
%TO.P,J1,A1,GND*%
%TO.N,GND*%
X171875000Y-96098579D03*
%TO.P,J1,A4,VBUS*%
%TO.N,VBUS*%
X171025000Y-96098579D03*
%TO.P,J1,A5,CC1*%
%TO.N,Net-(J1-PadA5)*%
X170175000Y-96098579D03*
%TO.P,J1,A6,D+*%
%TO.N,Net-(D2-Pad6)*%
X169325000Y-96098579D03*
%TO.P,J1,A7,D-*%
%TO.N,Net-(D2-Pad4)*%
X168475000Y-96098579D03*
%TO.P,J1,A8,SBU1*%
%TO.N,unconnected-(J1-PadA8)*%
X167625000Y-96098579D03*
%TO.P,J1,A9,VBUS*%
%TO.N,VBUS*%
X166775000Y-96098579D03*
%TO.P,J1,A12,GND*%
%TO.N,GND*%
X165925000Y-96098579D03*
%TO.P,J1,B1,GND*%
X165925000Y-94748579D03*
%TO.P,J1,B4,VBUS*%
%TO.N,VBUS*%
X166775000Y-94748579D03*
%TO.P,J1,B5,CC2*%
%TO.N,Net-(J1-PadB5)*%
X167625000Y-94748579D03*
%TO.P,J1,B6,D+*%
%TO.N,Net-(D2-Pad6)*%
X168475000Y-94748579D03*
%TO.P,J1,B7,D-*%
%TO.N,Net-(D2-Pad4)*%
X169325000Y-94748579D03*
%TO.P,J1,B8,SBU2*%
%TO.N,unconnected-(J1-PadB8)*%
X170175000Y-94748579D03*
%TO.P,J1,B9,VBUS*%
%TO.N,VBUS*%
X171025000Y-94748579D03*
%TO.P,J1,B12,GND*%
%TO.N,GND*%
X171875000Y-94748579D03*
D12*
%TO.P,J1,S1,SHIELD*%
X164575000Y-91738579D03*
X173225000Y-91738579D03*
D13*
X173225000Y-95118579D03*
X164575000Y-95118579D03*
%TD*%
D14*
%TO.P,BT1,1,+*%
%TO.N,Net-(BT1-Pad1)*%
X135230000Y-118000000D03*
X143000000Y-118000000D03*
%TO.P,BT1,2,-*%
%TO.N,GND*%
X178770000Y-118000000D03*
X171000000Y-118000000D03*
%TD*%
D10*
%TO.P,J5,1,Pin_1*%
%TO.N,Net-(J4-Pad1)*%
X154250000Y-96750000D03*
%TD*%
%TO.P,J4,1,Pin_1*%
%TO.N,Net-(J4-Pad1)*%
X188750000Y-96750000D03*
%TD*%
D15*
%TO.P,R1,1*%
%TO.N,Net-(J1-PadB5)*%
X167945235Y-92945235D03*
%TO.P,R1,2*%
%TO.N,GND*%
X166654765Y-91654765D03*
%TD*%
D16*
%TO.P,CBOOST1,1*%
%TO.N,Net-(CBOOST1-Pad1)*%
X132000000Y-99162500D03*
%TO.P,CBOOST1,2*%
%TO.N,GND*%
X132000000Y-97437500D03*
%TD*%
D17*
%TO.P,Y1,1,1*%
%TO.N,Net-(C9-Pad2)*%
X160516117Y-118483883D03*
%TO.P,Y1,2,2*%
%TO.N,Net-(C8-Pad2)*%
X162283883Y-116716117D03*
%TD*%
D18*
%TO.P,U1,1,PA00*%
%TO.N,Net-(U1-Pad1)*%
X155724695Y-111985103D03*
%TO.P,U1,2,PA01*%
%TO.N,Net-(U1-Pad2)*%
X155159010Y-111419417D03*
%TO.P,U1,3,PA02*%
%TO.N,unconnected-(U1-Pad3)*%
X154593324Y-110853732D03*
%TO.P,U1,4,PA03*%
%TO.N,unconnected-(U1-Pad4)*%
X154027639Y-110288047D03*
%TO.P,U1,5,PA04*%
%TO.N,/SCL*%
X153461953Y-109722361D03*
%TO.P,U1,6,PA05*%
%TO.N,/SDA*%
X152896268Y-109156676D03*
%TO.P,U1,7,PA06*%
%TO.N,unconnected-(U1-Pad7)*%
X152330583Y-108590990D03*
%TO.P,U1,8,PA07*%
%TO.N,unconnected-(U1-Pad8)*%
X151764897Y-108025305D03*
D19*
%TO.P,U1,9,VDDANA*%
%TO.N,+1V8*%
X151764897Y-105974695D03*
%TO.P,U1,10,GND*%
%TO.N,GND*%
X152330583Y-105409010D03*
%TO.P,U1,11,PA08*%
%TO.N,unconnected-(U1-Pad11)*%
X152896268Y-104843324D03*
%TO.P,U1,12,PA09*%
%TO.N,/MISO*%
X153461953Y-104277639D03*
%TO.P,U1,13,PA10*%
%TO.N,/MOSI*%
X154027639Y-103711953D03*
%TO.P,U1,14,PA11*%
%TO.N,/SCK*%
X154593324Y-103146268D03*
%TO.P,U1,15,PA14*%
%TO.N,/SSEL*%
X155159010Y-102580583D03*
%TO.P,U1,16,PA15*%
%TO.N,unconnected-(U1-Pad16)*%
X155724695Y-102014897D03*
D18*
%TO.P,U1,17,PA16*%
%TO.N,unconnected-(U1-Pad17)*%
X157775305Y-102014897D03*
%TO.P,U1,18,PA17*%
%TO.N,unconnected-(U1-Pad18)*%
X158340990Y-102580583D03*
%TO.P,U1,19,PA18*%
%TO.N,unconnected-(U1-Pad19)*%
X158906676Y-103146268D03*
%TO.P,U1,20,PA19*%
%TO.N,unconnected-(U1-Pad20)*%
X159472361Y-103711953D03*
%TO.P,U1,21,PA22*%
%TO.N,/D1*%
X160038047Y-104277639D03*
%TO.P,U1,22,PA23*%
%TO.N,unconnected-(U1-Pad22)*%
X160603732Y-104843324D03*
%TO.P,U1,23,PA24*%
%TO.N,/D-*%
X161169417Y-105409010D03*
%TO.P,U1,24,PA25*%
%TO.N,/D+*%
X161735103Y-105974695D03*
D19*
%TO.P,U1,25,PA27*%
%TO.N,unconnected-(U1-Pad25)*%
X161735103Y-108025305D03*
%TO.P,U1,26,~{RESET}*%
%TO.N,Net-(B1-Pad1)*%
X161169417Y-108590990D03*
%TO.P,U1,27,PA28*%
%TO.N,unconnected-(U1-Pad27)*%
X160603732Y-109156676D03*
%TO.P,U1,28,GND*%
%TO.N,GND*%
X160038047Y-109722361D03*
%TO.P,U1,29,VDDCORE*%
%TO.N,Net-(C1-Pad1)*%
X159472361Y-110288047D03*
%TO.P,U1,30,VDDIN*%
%TO.N,+1V8*%
X158906676Y-110853732D03*
%TO.P,U1,31,PA30*%
%TO.N,Net-(U1-Pad31)*%
X158340990Y-111419417D03*
%TO.P,U1,32,PA31*%
%TO.N,Net-(U1-Pad32)*%
X157775305Y-111985103D03*
%TD*%
D20*
%TO.P,TP5,1,1*%
%TO.N,/SCL*%
X156100000Y-116500000D03*
%TD*%
%TO.P,TP15,1,1*%
%TO.N,+1V8*%
X142500000Y-107600000D03*
%TD*%
D21*
%TO.P,R6,1*%
%TO.N,Net-(R5-Pad2)*%
X124700000Y-107112500D03*
%TO.P,R6,2*%
%TO.N,GND*%
X124700000Y-105287500D03*
%TD*%
D22*
%TO.P,U7,1,IN*%
%TO.N,VBUS*%
X177162500Y-95650000D03*
%TO.P,U7,2,GND*%
%TO.N,GND*%
X177162500Y-94700000D03*
%TO.P,U7,3,EN*%
%TO.N,VBUS*%
X177162500Y-93750000D03*
%TO.P,U7,4,NC*%
%TO.N,unconnected-(U7-Pad4)*%
X179437500Y-93750000D03*
%TO.P,U7,5,OUT*%
%TO.N,+3V0*%
X179437500Y-95650000D03*
%TD*%
D21*
%TO.P,R5,1*%
%TO.N,+3V0*%
X124700000Y-110512500D03*
%TO.P,R5,2*%
%TO.N,Net-(R5-Pad2)*%
X124700000Y-108687500D03*
%TD*%
D20*
%TO.P,TP7,1,1*%
%TO.N,+3V0*%
X184000000Y-94300000D03*
%TD*%
D23*
%TO.P,JP2,1,A*%
%TO.N,GND*%
X135600000Y-92500000D03*
D24*
%TO.P,JP2,2,C*%
%TO.N,Net-(JP2-Pad2)*%
X135600000Y-93800000D03*
D25*
%TO.P,JP2,3,B*%
%TO.N,/VBUCK*%
X135600000Y-95100000D03*
%TD*%
D26*
%TO.P,C2,1*%
%TO.N,+3V3*%
X143290120Y-103590120D03*
%TO.P,C2,2*%
%TO.N,GND*%
X144509880Y-104809880D03*
%TD*%
D27*
%TO.P,U4,1,SD2*%
%TO.N,unconnected-(U4-Pad1)*%
X150747038Y-97158885D03*
%TO.P,U4,2,SSEL/SD3*%
%TO.N,/SSEL*%
X151645064Y-98056910D03*
%TO.P,U4,3,SCK*%
%TO.N,/SCK*%
X152543090Y-98954936D03*
%TO.P,U4,4,Vss*%
%TO.N,GND*%
X153441115Y-99852962D03*
%TO.P,U4,5,MOSI/CMD*%
%TO.N,/MOSI*%
X148052962Y-105241115D03*
%TO.P,U4,6,MSIO/SD0*%
%TO.N,/MISO*%
X147154936Y-104343090D03*
%TO.P,U4,7,SD1*%
%TO.N,unconnected-(U4-Pad7)*%
X146256910Y-103445064D03*
%TO.P,U4,8,Vdd*%
%TO.N,+3V3*%
X145358885Y-102547038D03*
%TD*%
D20*
%TO.P,TP1,1,1*%
%TO.N,VBUS*%
X175300000Y-97800000D03*
%TD*%
D28*
%TO.P,C6,1*%
%TO.N,+3V0*%
X126337500Y-111700000D03*
%TO.P,C6,2*%
%TO.N,GND*%
X128062500Y-111700000D03*
%TD*%
D29*
%TO.P,R4,1*%
%TO.N,+3V3*%
X147054765Y-109754765D03*
%TO.P,R4,2*%
%TO.N,/SDA*%
X148345235Y-111045235D03*
%TD*%
D20*
%TO.P,TP9,1,1*%
%TO.N,/VSRC*%
X133900000Y-111000000D03*
%TD*%
D23*
%TO.P,JP1,1,A*%
%TO.N,GND*%
X131100000Y-92500000D03*
D24*
%TO.P,JP1,2,C*%
%TO.N,Net-(JP1-Pad2)*%
X131100000Y-93800000D03*
D25*
%TO.P,JP1,3,B*%
%TO.N,/VBUCK*%
X131100000Y-95100000D03*
%TD*%
D16*
%TO.P,CBUCK1,1*%
%TO.N,GND*%
X135100000Y-109162500D03*
%TO.P,CBUCK1,2*%
%TO.N,/VBUCK*%
X135100000Y-107437500D03*
%TD*%
D20*
%TO.P,TP6,1,1*%
%TO.N,/SDA*%
X146800000Y-112300000D03*
%TD*%
D30*
%TO.P,U8,1,V1*%
%TO.N,+3V0*%
X126550000Y-110225000D03*
%TO.P,U8,2,NC*%
%TO.N,unconnected-(U8-Pad2)*%
X126550000Y-109575000D03*
%TO.P,U8,3,CMP1*%
%TO.N,GND*%
X126550000Y-108925000D03*
%TO.P,U8,4,ADJ*%
%TO.N,Net-(R5-Pad2)*%
X126550000Y-108275000D03*
%TO.P,U8,5,GND*%
%TO.N,GND*%
X126550000Y-107625000D03*
%TO.P,U8,6,CMPOUT1*%
%TO.N,unconnected-(U8-Pad6)*%
X126550000Y-106975000D03*
%TO.P,U8,7,CMPOUT2*%
%TO.N,unconnected-(U8-Pad7)*%
X130850000Y-106975000D03*
%TO.P,U8,8,V2ON*%
%TO.N,unconnected-(U8-Pad8)*%
X130850000Y-107625000D03*
%TO.P,U8,9,OUT*%
%TO.N,/VSRC*%
X130850000Y-108275000D03*
%TO.P,U8,10,CMP2*%
%TO.N,GND*%
X130850000Y-108925000D03*
%TO.P,U8,11,GND*%
X130850000Y-109575000D03*
%TO.P,U8,12,V2*%
%TO.N,Net-(J4-Pad1)*%
X130850000Y-110225000D03*
D31*
%TO.P,U8,13,GND*%
%TO.N,GND*%
X129200000Y-107600000D03*
X128200000Y-109600000D03*
X129200000Y-109600000D03*
D32*
X128700000Y-108600000D03*
D31*
X128200000Y-107600000D03*
X129200000Y-108600000D03*
X128200000Y-108600000D03*
%TD*%
D33*
%TO.P,D2,1,L1*%
%TO.N,/D-*%
X169850000Y-100100000D03*
%TO.P,D2,2,VN*%
%TO.N,GND*%
X168900000Y-100100000D03*
%TO.P,D2,3,L2*%
%TO.N,/D+*%
X167950000Y-100100000D03*
%TO.P,D2,4,L2*%
%TO.N,Net-(D2-Pad4)*%
X167950000Y-97900000D03*
%TO.P,D2,5,VP*%
%TO.N,VBUS*%
X168900000Y-97900000D03*
%TO.P,D2,6,L1*%
%TO.N,Net-(D2-Pad6)*%
X169850000Y-97900000D03*
%TD*%
D34*
%TO.P,R3,1*%
%TO.N,+3V3*%
X153454765Y-116445235D03*
%TO.P,R3,2*%
%TO.N,/SCL*%
X154745235Y-115154765D03*
%TD*%
D35*
%TO.P,LBUCK1,1*%
%TO.N,/VBUCK*%
X135475000Y-98800000D03*
%TO.P,LBUCK1,2*%
%TO.N,Net-(LBUCK1-Pad2)*%
X133725000Y-98800000D03*
%TD*%
D16*
%TO.P,C5,1*%
%TO.N,+3V0*%
X181300000Y-95562500D03*
%TO.P,C5,2*%
%TO.N,GND*%
X181300000Y-93837500D03*
%TD*%
D26*
%TO.P,C9,1*%
%TO.N,Net-(U1-Pad2)*%
X157690120Y-115090120D03*
%TO.P,C9,2*%
%TO.N,Net-(C9-Pad2)*%
X158909880Y-116309880D03*
%TD*%
D20*
%TO.P,TP8,1,1*%
%TO.N,/VBUCK*%
X138600000Y-97800000D03*
%TD*%
%TO.P,TP2,1,1*%
%TO.N,Net-(D2-Pad6)*%
X169200000Y-91400000D03*
%TD*%
D28*
%TO.P,C4,1*%
%TO.N,VBUS*%
X177437500Y-97700000D03*
%TO.P,C4,2*%
%TO.N,GND*%
X179162500Y-97700000D03*
%TD*%
D20*
%TO.P,TP3,1,1*%
%TO.N,Net-(D2-Pad4)*%
X171400000Y-91600000D03*
%TD*%
D36*
%TO.P,U3,1,BOOST*%
%TO.N,Net-(CBOOST1-Pad1)*%
X133600000Y-100850000D03*
%TO.P,U3,2,SWBUCK*%
%TO.N,Net-(LBUCK1-Pad2)*%
X134100000Y-100850000D03*
%TO.P,U3,3,BUCK*%
%TO.N,unconnected-(U3-Pad3)*%
X134600000Y-100850000D03*
%TO.P,U3,4,CFG[2]*%
%TO.N,/VBUCK*%
X135100000Y-100850000D03*
%TO.P,U3,5,CFG[1]*%
X135600000Y-100850000D03*
%TO.P,U3,6,CFG[0]*%
X136100000Y-100850000D03*
%TO.P,U3,7,SELMPP[1]*%
%TO.N,Net-(JP1-Pad2)*%
X136600000Y-100850000D03*
D37*
%TO.P,U3,8,SELMPP[0]*%
%TO.N,Net-(JP2-Pad2)*%
X137550000Y-101800000D03*
%TO.P,U3,9,FB_PRIM_D*%
%TO.N,GND*%
X137550000Y-102300000D03*
%TO.P,U3,10,FB_PRIM_U*%
X137550000Y-102800000D03*
%TO.P,U3,11,LVOUT*%
%TO.N,+1V8*%
X137550000Y-103300000D03*
%TO.P,U3,12,ENHV*%
%TO.N,/VBUCK*%
X137550000Y-103800000D03*
%TO.P,U3,13,FB_HV*%
%TO.N,unconnected-(U3-Pad13)*%
X137550000Y-104300000D03*
%TO.P,U3,14,HVOUT*%
%TO.N,+3V3*%
X137550000Y-104800000D03*
D36*
%TO.P,U3,15,BAL*%
%TO.N,GND*%
X136600000Y-105750000D03*
%TO.P,U3,16,BATT*%
%TO.N,Net-(F1-Pad2)*%
X136100000Y-105750000D03*
%TO.P,U3,17,PRIM*%
%TO.N,GND*%
X135600000Y-105750000D03*
%TO.P,U3,18,ENLV*%
%TO.N,/VBUCK*%
X135100000Y-105750000D03*
%TO.P,U3,19,STATUS[2]*%
%TO.N,unconnected-(U3-Pad19)*%
X134600000Y-105750000D03*
%TO.P,U3,20,STATUS[1]*%
%TO.N,unconnected-(U3-Pad20)*%
X134100000Y-105750000D03*
%TO.P,U3,21,STATUS[0]*%
%TO.N,unconnected-(U3-Pad21)*%
X133600000Y-105750000D03*
D37*
%TO.P,U3,22,SET_OVCH*%
%TO.N,unconnected-(U3-Pad22)*%
X132650000Y-104800000D03*
%TO.P,U3,23,SET_CHRDY*%
%TO.N,unconnected-(U3-Pad23)*%
X132650000Y-104300000D03*
%TO.P,U3,24,SET_OVDIS*%
%TO.N,unconnected-(U3-Pad24)*%
X132650000Y-103800000D03*
%TO.P,U3,25,SRC*%
%TO.N,/VSRC*%
X132650000Y-103300000D03*
%TO.P,U3,26,FB_COLD*%
X132650000Y-102800000D03*
%TO.P,U3,27,BUFSRC*%
%TO.N,Net-(CSRC1-Pad1)*%
X132650000Y-102300000D03*
%TO.P,U3,28,SWBOOST*%
%TO.N,Net-(LBOOST1-Pad2)*%
X132650000Y-101800000D03*
D31*
%TO.P,U3,29,GND*%
%TO.N,GND*%
X136100000Y-103300000D03*
X135100000Y-102300000D03*
X135100000Y-103300000D03*
X134100000Y-102300000D03*
X135100000Y-104300000D03*
X136100000Y-104300000D03*
D38*
X135100000Y-103300000D03*
D31*
X136100000Y-102300000D03*
X134100000Y-104300000D03*
X134100000Y-103300000D03*
%TD*%
D39*
%TO.P,C7,1*%
%TO.N,/VSRC*%
X132700000Y-107337500D03*
%TO.P,C7,2*%
%TO.N,GND*%
X132700000Y-109062500D03*
%TD*%
D40*
%TO.P,C3,1*%
%TO.N,+3V3*%
X149509880Y-109909880D03*
%TO.P,C3,2*%
%TO.N,GND*%
X148290120Y-108690120D03*
%TD*%
D28*
%TO.P,CSRC1,1*%
%TO.N,Net-(CSRC1-Pad1)*%
X127737500Y-105300000D03*
%TO.P,CSRC1,2*%
%TO.N,GND*%
X129462500Y-105300000D03*
%TD*%
D41*
%TO.P,U2,1,VDD*%
%TO.N,+3V3*%
X151865685Y-115385965D03*
%TO.P,U2,2,PS*%
X150981802Y-114502082D03*
%TO.P,U2,3,GND*%
%TO.N,GND*%
X150097918Y-113618198D03*
%TO.P,U2,4,CSB*%
X149214035Y-112734315D03*
%TO.P,U2,5,CSB*%
X150734315Y-111214035D03*
%TO.P,U2,6,SDO*%
%TO.N,unconnected-(U2-Pad6)*%
X151618198Y-112097918D03*
%TO.P,U2,7,SDI/SDA*%
%TO.N,/SDA*%
X152502082Y-112981802D03*
%TO.P,U2,8,SCLK*%
%TO.N,/SCL*%
X153385965Y-113865685D03*
%TD*%
D29*
%TO.P,R2,1*%
%TO.N,Net-(J1-PadA5)*%
X172054765Y-98254765D03*
%TO.P,R2,2*%
%TO.N,GND*%
X173345235Y-99545235D03*
%TD*%
D42*
%TO.P,LBOOST1,1*%
%TO.N,Net-(CSRC1-Pad1)*%
X128100000Y-103565000D03*
D43*
%TO.P,LBOOST1,2*%
%TO.N,Net-(LBOOST1-Pad2)*%
X128100000Y-100035000D03*
%TD*%
D44*
%TO.P,C1,1*%
%TO.N,Net-(C1-Pad1)*%
X161107277Y-111609880D03*
%TO.P,C1,2*%
%TO.N,GND*%
X162327037Y-110390120D03*
%TD*%
D26*
%TO.P,C8,1*%
%TO.N,Net-(U1-Pad1)*%
X158990120Y-113790120D03*
%TO.P,C8,2*%
%TO.N,Net-(C8-Pad2)*%
X160209880Y-115009880D03*
%TD*%
D45*
%TO.N,+3V3*%
X142400000Y-102300000D03*
X138800000Y-104900000D03*
X147150000Y-94450000D03*
X141400000Y-106000000D03*
%TO.N,Net-(JP1-Pad2)*%
X136600000Y-99700000D03*
X133200000Y-93800000D03*
%TO.N,Net-(JP2-Pad2)*%
X137600000Y-99900000D03*
X137550000Y-94350000D03*
%TO.N,/D1*%
X157200000Y-95700000D03*
%TO.N,Net-(F1-Pad2)*%
X137300000Y-106600000D03*
X137600000Y-105700000D03*
%TO.N,VBUS*%
X175900000Y-94800000D03*
X174900000Y-94200000D03*
X174900000Y-95400000D03*
X175800000Y-93600000D03*
X175800000Y-96000000D03*
%TO.N,+1V8*%
X141300000Y-103300000D03*
X138900000Y-103300000D03*
%TO.N,/SSEL*%
X156650000Y-99100000D03*
%TO.N,GND*%
X151400000Y-104500000D03*
X150300000Y-109000000D03*
X169300000Y-101500000D03*
X133950000Y-107500000D03*
X153600000Y-101000000D03*
X145200000Y-106200000D03*
X180700000Y-97400000D03*
X129300000Y-92500000D03*
X133200000Y-96900000D03*
X153700000Y-106700000D03*
X147900000Y-113500000D03*
X137600000Y-92200000D03*
X172400000Y-100400000D03*
X163300000Y-109100000D03*
%TO.N,/SCK*%
X149900000Y-98600000D03*
%TO.N,/MOSI*%
X149050000Y-102050000D03*
%TO.N,/MISO*%
X147850000Y-102850000D03*
%TO.N,Net-(J4-Pad1)*%
X130850000Y-114000000D03*
%TO.N,Net-(B1-Pad1)*%
X156850000Y-103450000D03*
X153950000Y-94850000D03*
X157900000Y-99600000D03*
%TO.N,Net-(U1-Pad31)*%
X161900000Y-113700000D03*
%TO.N,Net-(U1-Pad32)*%
X160900000Y-113800000D03*
%TD*%
D46*
%TO.N,Net-(U1-Pad1)*%
X157529712Y-113790120D02*
X158990120Y-113790120D01*
X155724695Y-111985103D02*
X157529712Y-113790120D01*
D47*
%TO.N,Net-(C8-Pad2)*%
X162283883Y-116716117D02*
X161916117Y-116716117D01*
X161916117Y-116716117D02*
X160209880Y-115009880D01*
D46*
%TO.N,/VSRC*%
X133900000Y-108537500D02*
X133900000Y-111000000D01*
X132700000Y-107337500D02*
X133900000Y-108537500D01*
%TO.N,Net-(C1-Pad1)*%
X161107277Y-111609880D02*
X160794194Y-111609880D01*
X160794194Y-111609880D02*
X159472361Y-110288047D01*
%TO.N,+3V3*%
X143290120Y-103590120D02*
X144333202Y-102547038D01*
X144333202Y-102547038D02*
X145358885Y-102547038D01*
X137550000Y-104800000D02*
X138700000Y-104800000D01*
X138700000Y-104800000D02*
X138800000Y-104900000D01*
%TO.N,Net-(JP1-Pad2)*%
X136600000Y-100850000D02*
X136600000Y-99700000D01*
X133200000Y-93800000D02*
X131100000Y-93800000D01*
%TO.N,Net-(JP2-Pad2)*%
X137550000Y-94350000D02*
X137000000Y-93800000D01*
X137550000Y-99950000D02*
X137600000Y-99900000D01*
X137000000Y-93800000D02*
X135600000Y-93800000D01*
X137550000Y-101800000D02*
X137550000Y-99950000D01*
%TO.N,/D1*%
X157500000Y-97900000D02*
X157200000Y-97600000D01*
X160900000Y-101300000D02*
X157500000Y-97900000D01*
X157200000Y-97600000D02*
X157200000Y-95700000D01*
X160900000Y-102800000D02*
X160900000Y-101300000D01*
X160900000Y-103415686D02*
X160900000Y-102800000D01*
X160038047Y-104277639D02*
X160900000Y-103415686D01*
%TO.N,/SCL*%
X153385965Y-111485965D02*
X152900000Y-111000000D01*
X153385965Y-113865685D02*
X153385965Y-111485965D01*
D47*
X153385965Y-113865685D02*
X153465685Y-113865685D01*
D46*
X153456155Y-113865685D02*
X154745235Y-115154765D01*
X154745235Y-115154765D02*
X154754765Y-115154765D01*
X152900000Y-110284314D02*
X153461953Y-109722361D01*
X153385965Y-113865685D02*
X153456155Y-113865685D01*
X154754765Y-115154765D02*
X156100000Y-116500000D01*
X152900000Y-111000000D02*
X152900000Y-110284314D01*
%TO.N,Net-(CBOOST1-Pad1)*%
X133600000Y-100762500D02*
X132000000Y-99162500D01*
X133600000Y-100850000D02*
X133600000Y-100762500D01*
%TO.N,Net-(CSRC1-Pad1)*%
X131400000Y-103100000D02*
X132200000Y-102300000D01*
D48*
X128100000Y-103565000D02*
X128100000Y-104937500D01*
X128100000Y-104937500D02*
X127737500Y-105300000D01*
X130935000Y-103565000D02*
X128100000Y-103565000D01*
X131400000Y-103100000D02*
X130935000Y-103565000D01*
D46*
X132200000Y-102300000D02*
X132650000Y-102300000D01*
%TO.N,Net-(J1-PadA5)*%
X170175000Y-96375000D02*
X172054765Y-98254765D01*
X170175000Y-96098579D02*
X170175000Y-96375000D01*
%TO.N,Net-(U1-Pad2)*%
X157090120Y-115090120D02*
X157690120Y-115090120D01*
X154600000Y-112000000D02*
X154600000Y-112600000D01*
X155159010Y-111440990D02*
X154600000Y-112000000D01*
X154600000Y-112600000D02*
X157090120Y-115090120D01*
X155159010Y-111419417D02*
X155159010Y-111440990D01*
D47*
%TO.N,Net-(C9-Pad2)*%
X160516117Y-117916117D02*
X158909880Y-116309880D01*
X160516117Y-118483883D02*
X160516117Y-117916117D01*
D46*
%TO.N,/SDA*%
X146800000Y-112300000D02*
X147090470Y-112300000D01*
X152383884Y-113100000D02*
X152502082Y-112981802D01*
X151100000Y-113100000D02*
X152383884Y-113100000D01*
X149045235Y-111045235D02*
X151100000Y-113100000D01*
X152502082Y-112981802D02*
X152502082Y-111402082D01*
X152000000Y-110900000D02*
X152000000Y-110052944D01*
X147090470Y-112300000D02*
X148345235Y-111045235D01*
X152502082Y-111402082D02*
X152000000Y-110900000D01*
X148345235Y-111045235D02*
X149045235Y-111045235D01*
X152000000Y-110052944D02*
X152896268Y-109156676D01*
%TO.N,Net-(J1-PadB5)*%
X167625000Y-93265470D02*
X167945235Y-92945235D01*
X167625000Y-94748579D02*
X167625000Y-93265470D01*
%TO.N,/D-*%
X167300000Y-99200000D02*
X166700000Y-99800000D01*
X166700000Y-99800000D02*
X166700000Y-99900000D01*
X169850000Y-100100000D02*
X169850000Y-99450000D01*
D49*
X166700000Y-99900000D02*
X162300000Y-104300000D01*
D46*
X169850000Y-99450000D02*
X169600000Y-99200000D01*
X162278427Y-104300000D02*
X162300000Y-104300000D01*
X169600000Y-99200000D02*
X167300000Y-99200000D01*
X161169417Y-105409010D02*
X162278427Y-104300000D01*
%TO.N,/D+*%
X167950000Y-100100000D02*
X167950000Y-100850000D01*
D49*
X167000000Y-101300000D02*
X166050000Y-102250000D01*
D46*
X167950000Y-100850000D02*
X167500000Y-101300000D01*
D49*
X165222684Y-102935893D02*
X165222683Y-102935893D01*
D50*
X161735103Y-105974695D02*
X162409798Y-105300000D01*
D49*
X163850895Y-104307682D02*
X163850894Y-104307682D01*
X165767156Y-102250000D02*
X165222683Y-102794472D01*
X163850894Y-104449103D02*
X163000000Y-105300000D01*
X164395367Y-103621789D02*
X163850894Y-104166261D01*
X163850893Y-104449103D02*
X163850894Y-104449103D01*
X165657556Y-104056658D02*
X165657555Y-104056659D01*
X167500000Y-101300000D02*
X167000000Y-101300000D01*
X165767157Y-102249999D02*
X165767156Y-102250000D01*
X165222683Y-102935893D02*
X165657555Y-103370765D01*
D50*
X162409798Y-105300000D02*
X163000000Y-105300000D01*
D49*
X164971663Y-104056659D02*
X164971661Y-104056660D01*
X164971661Y-104056660D02*
X164536789Y-103621789D01*
X165767190Y-102250032D02*
G75*
G02*
X165908578Y-102250000I70710J-70668D01*
G01*
X164395368Y-103621790D02*
G75*
G02*
X164536788Y-103621790I70710J-70712D01*
G01*
X165657544Y-104056646D02*
G75*
G03*
X165657555Y-103370765I-342944J342946D01*
G01*
X163850901Y-104449111D02*
G75*
G03*
X163850894Y-104307682I-70701J70711D01*
G01*
X165908579Y-102249999D02*
G75*
G03*
X166049999Y-102249999I70710J70712D01*
G01*
X163850867Y-104307710D02*
G75*
G02*
X163850895Y-104166262I70733J70710D01*
G01*
X165222667Y-102935910D02*
G75*
G02*
X165222684Y-102794473I70733J70710D01*
G01*
X164971663Y-104056659D02*
G75*
G03*
X165657555Y-104056659I342946J342942D01*
G01*
D46*
%TO.N,Net-(LBUCK1-Pad2)*%
X134100000Y-100850000D02*
X134100000Y-99175000D01*
X134100000Y-99175000D02*
X133725000Y-98800000D01*
%TO.N,Net-(D2-Pad4)*%
X168475000Y-96825000D02*
X168475000Y-96098579D01*
X168475000Y-96098579D02*
X168475000Y-95925000D01*
X169325000Y-93675000D02*
X169325000Y-94748579D01*
X168475000Y-95925000D02*
X169325000Y-95075000D01*
X169325000Y-95075000D02*
X169325000Y-94748579D01*
X167950000Y-97350000D02*
X168475000Y-96825000D01*
X171400000Y-91600000D02*
X169325000Y-93675000D01*
X167950000Y-97900000D02*
X167950000Y-97350000D01*
%TO.N,Net-(D2-Pad6)*%
X169850000Y-97350000D02*
X169325000Y-96825000D01*
X169200000Y-93100000D02*
X168475000Y-93825000D01*
X168475000Y-93825000D02*
X168475000Y-94748579D01*
X169850000Y-97900000D02*
X169850000Y-97350000D01*
X169200000Y-91400000D02*
X169200000Y-93100000D01*
X169325000Y-96825000D02*
X169325000Y-96098579D01*
%TO.N,Net-(LBOOST1-Pad2)*%
X131700000Y-101800000D02*
X131500000Y-101600000D01*
X132650000Y-101800000D02*
X131700000Y-101800000D01*
D48*
X129935000Y-100035000D02*
X128100000Y-100035000D01*
X131500000Y-101600000D02*
X129935000Y-100035000D01*
D46*
%TO.N,+1V8*%
X147500000Y-108100000D02*
X149625305Y-105974695D01*
X149625305Y-105974695D02*
X151764897Y-105974695D01*
X141400000Y-103400000D02*
X141300000Y-103300000D01*
X156600000Y-108400000D02*
X154190202Y-108400000D01*
X145500000Y-108100000D02*
X147500000Y-108100000D01*
X154190202Y-108400000D02*
X151764897Y-105974695D01*
X145000000Y-107600000D02*
X145500000Y-108100000D01*
X143800000Y-106400000D02*
X145500000Y-108100000D01*
X141400000Y-104000000D02*
X141400000Y-103400000D01*
X141400000Y-104000000D02*
X143800000Y-106400000D01*
X142500000Y-107600000D02*
X145000000Y-107600000D01*
X137550000Y-103300000D02*
X138900000Y-103300000D01*
X158906676Y-110853732D02*
X158906676Y-110706676D01*
X158906676Y-110706676D02*
X156600000Y-108400000D01*
%TO.N,/SSEL*%
X151645064Y-98056910D02*
X152101974Y-97600000D01*
X154946933Y-98999998D02*
X154946933Y-98999999D01*
X154899202Y-99424263D02*
X154899201Y-99424263D01*
X152101974Y-97600000D02*
X153000000Y-97600000D01*
X155323467Y-99000000D02*
X155323466Y-98999999D01*
X154899202Y-99800796D02*
X154899201Y-99800796D01*
X156550000Y-99000000D02*
X156650000Y-99100000D01*
X155050000Y-97850000D02*
X155350000Y-97850000D01*
X153700000Y-98300000D02*
X154600000Y-98300000D01*
X154899201Y-99800796D02*
X154400000Y-100300000D01*
X154946933Y-98999999D02*
X154899201Y-99047730D01*
X153000000Y-97600000D02*
X153700000Y-98300000D01*
X155350000Y-97850000D02*
X155700000Y-98200000D01*
X154400000Y-101821573D02*
X155159010Y-102580583D01*
X155323466Y-99000000D02*
X155323467Y-99000000D01*
X154400000Y-100300000D02*
X154400000Y-101821573D01*
X154600000Y-98300000D02*
X155050000Y-97850000D01*
X155700000Y-98200000D02*
X155700000Y-99000000D01*
X155700000Y-99000000D02*
X156550000Y-99000000D01*
X155323466Y-99000000D02*
G75*
G03*
X155700000Y-99000000I188267J188266D01*
G01*
X154899198Y-99424267D02*
G75*
G02*
X154899201Y-99047730I188302J188267D01*
G01*
X154946934Y-98999999D02*
G75*
G02*
X155323466Y-98999999I188266J-188301D01*
G01*
X154899172Y-99800766D02*
G75*
G03*
X154899201Y-99424263I-188272J188266D01*
G01*
%TO.N,GND*%
X136600000Y-105750000D02*
X136600000Y-104800000D01*
X178300000Y-96837500D02*
X178300000Y-95100000D01*
X135100000Y-109162500D02*
X135100000Y-109100000D01*
X152409010Y-105409010D02*
X153700000Y-106700000D01*
D47*
X166654765Y-91654765D02*
X166570951Y-91738579D01*
D46*
X128200000Y-107100000D02*
X128200000Y-107600000D01*
X150300000Y-109000000D02*
X150734315Y-109434315D01*
X132000000Y-97437500D02*
X132662500Y-97437500D01*
X144509880Y-105509880D02*
X145200000Y-106200000D01*
X179162500Y-97700000D02*
X180400000Y-97700000D01*
X172500000Y-100300000D02*
X172400000Y-100400000D01*
X180400000Y-97700000D02*
X180700000Y-97400000D01*
X149990120Y-108690120D02*
X150300000Y-109000000D01*
X130825000Y-109600000D02*
X130850000Y-109575000D01*
X132662500Y-97437500D02*
X133200000Y-96900000D01*
X136600000Y-104800000D02*
X136100000Y-104300000D01*
X130850000Y-108925000D02*
X130850000Y-109575000D01*
X160705806Y-110390120D02*
X162327037Y-110390120D01*
X144509880Y-104809880D02*
X144509880Y-105509880D01*
X177162500Y-94700000D02*
X177900000Y-94700000D01*
X148665685Y-112734315D02*
X147900000Y-113500000D01*
X127875000Y-108925000D02*
X128200000Y-108600000D01*
X168900000Y-101100000D02*
X169300000Y-101500000D01*
X163300000Y-109417157D02*
X163300000Y-109100000D01*
X133950000Y-107950000D02*
X133950000Y-107500000D01*
D47*
X128200000Y-111562500D02*
X128200000Y-109600000D01*
D46*
X149214035Y-112734315D02*
X150097918Y-113618198D01*
X135600000Y-92500000D02*
X137300000Y-92500000D01*
X168900000Y-100100000D02*
X168900000Y-101100000D01*
X162327037Y-110390120D02*
X163300000Y-109417157D01*
X151400000Y-104500000D02*
X151421573Y-104500000D01*
D47*
X166570951Y-91738579D02*
X164575000Y-91738579D01*
D46*
X126550000Y-107625000D02*
X128175000Y-107625000D01*
X153441115Y-99852962D02*
X153441115Y-100841115D01*
X177900000Y-94700000D02*
X180437500Y-94700000D01*
X178300000Y-95100000D02*
X177900000Y-94700000D01*
X153441115Y-100841115D02*
X153600000Y-101000000D01*
X136600000Y-102800000D02*
X136100000Y-103300000D01*
X148290120Y-108690120D02*
X149990120Y-108690120D01*
X130850000Y-108925000D02*
X132562500Y-108925000D01*
X135100000Y-109100000D02*
X133950000Y-107950000D01*
X130850000Y-109575000D02*
X132187500Y-109575000D01*
X124700000Y-105287500D02*
X126387500Y-105287500D01*
X135600000Y-105750000D02*
X135600000Y-104800000D01*
X128175000Y-107625000D02*
X128200000Y-107600000D01*
D47*
X128062500Y-111700000D02*
X128200000Y-111562500D01*
D46*
X180437500Y-94700000D02*
X181300000Y-93837500D01*
X149214035Y-112734315D02*
X148665685Y-112734315D01*
X132187500Y-109575000D02*
X132700000Y-109062500D01*
X135600000Y-104800000D02*
X135100000Y-104300000D01*
X131100000Y-92500000D02*
X129300000Y-92500000D01*
X179162500Y-97700000D02*
X178300000Y-96837500D01*
X137550000Y-102300000D02*
X136100000Y-102300000D01*
X132562500Y-108925000D02*
X132700000Y-109062500D01*
X137300000Y-92500000D02*
X137600000Y-92200000D01*
X150734315Y-109434315D02*
X150734315Y-111214035D01*
X137550000Y-102800000D02*
X136600000Y-102800000D01*
X129200000Y-109600000D02*
X130825000Y-109600000D01*
X129462500Y-107337500D02*
X129200000Y-107600000D01*
X173254765Y-99545235D02*
X172500000Y-100300000D01*
X126387500Y-105287500D02*
X128200000Y-107100000D01*
X160038047Y-109722361D02*
X160705806Y-110390120D01*
X129462500Y-105300000D02*
X129462500Y-107337500D01*
X152330583Y-105409010D02*
X152409010Y-105409010D01*
X151421573Y-104500000D02*
X152330583Y-105409010D01*
X173345235Y-99545235D02*
X173254765Y-99545235D01*
X126550000Y-108925000D02*
X127875000Y-108925000D01*
%TO.N,/SCK*%
X152198026Y-99300000D02*
X152543090Y-98954936D01*
X154593324Y-103146268D02*
X154496268Y-103146268D01*
X150900000Y-101400000D02*
X150650000Y-101400000D01*
X154496268Y-103146268D02*
X152750000Y-101400000D01*
X152750000Y-101400000D02*
X152100000Y-101400000D01*
X150939056Y-101400000D02*
X150900000Y-101400000D01*
X151539056Y-100839056D02*
X151500000Y-100839056D01*
X149950000Y-99300000D02*
X149950000Y-98650000D01*
X149950000Y-99300000D02*
X152198026Y-99300000D01*
X149600000Y-100350000D02*
X149600000Y-99650000D01*
X149600000Y-99650000D02*
X149950000Y-99300000D01*
X150650000Y-101400000D02*
X149600000Y-100350000D01*
X149950000Y-98650000D02*
X149900000Y-98600000D01*
X150939056Y-101399928D02*
G75*
G03*
X151219528Y-101119528I44J280428D01*
G01*
X151819500Y-101119528D02*
G75*
G03*
X152100000Y-101400000I280500J28D01*
G01*
X151539056Y-100839072D02*
G75*
G02*
X151819528Y-101119528I44J-280428D01*
G01*
X151219556Y-101119528D02*
G75*
G02*
X151500000Y-100839056I280444J28D01*
G01*
%TO.N,/MOSI*%
X152329691Y-103171228D02*
X152558463Y-103171228D01*
X149547039Y-103322774D02*
X149319897Y-103095632D01*
X152144077Y-102178772D02*
X152144077Y-102500000D01*
X151544077Y-102500000D02*
X151544077Y-102178772D01*
X152144077Y-102500000D02*
X152144077Y-102985614D01*
X148052962Y-105241115D02*
X149547039Y-103747038D01*
X153115686Y-102800000D02*
X154027639Y-103711953D01*
X149744163Y-102671368D02*
X149744163Y-102671367D01*
X149319897Y-102671368D02*
X149319897Y-102319897D01*
X149319897Y-102319897D02*
X149050000Y-102050000D01*
X152929691Y-102800000D02*
X153115686Y-102800000D01*
X149744163Y-102671367D02*
X149971306Y-102898510D01*
X150395570Y-102898510D02*
X150395569Y-102898509D01*
X150494077Y-102800000D02*
X151244077Y-102800000D01*
X150395569Y-102898509D02*
X150494077Y-102800000D01*
X150395569Y-102898509D02*
G75*
G02*
X149971307Y-102898509I-212131J212131D01*
G01*
X149319897Y-102671368D02*
G75*
G03*
X149319897Y-103095632I212103J-212132D01*
G01*
X152744128Y-102985614D02*
G75*
G02*
X152558463Y-103171228I-185628J14D01*
G01*
X151544100Y-102500000D02*
G75*
G02*
X151244077Y-102800000I-300000J0D01*
G01*
X152929691Y-102799977D02*
G75*
G03*
X152744077Y-102985614I9J-185623D01*
G01*
X151844077Y-101878777D02*
G75*
G03*
X151544077Y-102178772I23J-300023D01*
G01*
X149744162Y-102671369D02*
G75*
G03*
X149319898Y-102671369I-212132J-212130D01*
G01*
X152329691Y-103171223D02*
G75*
G02*
X152144077Y-102985614I9J185623D01*
G01*
X149547045Y-103322768D02*
G75*
G02*
X149547039Y-103747038I-212145J-212132D01*
G01*
X152144128Y-102178772D02*
G75*
G03*
X151844077Y-101878772I-300028J-28D01*
G01*
%TO.N,/MISO*%
X147850000Y-103648026D02*
X147850000Y-102850000D01*
X152884314Y-103700000D02*
X153461953Y-104277639D01*
X147900002Y-106800000D02*
X148975001Y-105725001D01*
X148975001Y-105725001D02*
X149246465Y-105453535D01*
X147154936Y-104343090D02*
X147850000Y-103648026D01*
X149246465Y-105453535D02*
X151000000Y-103700000D01*
X146100000Y-106000000D02*
X146900000Y-106800000D01*
X146900000Y-106800000D02*
X147900002Y-106800000D01*
X151000000Y-103700000D02*
X152884314Y-103700000D01*
X146100000Y-105398026D02*
X146100000Y-106000000D01*
X147154936Y-104343090D02*
X146100000Y-105398026D01*
D51*
%TO.N,+3V0*%
X134500000Y-121900000D02*
X126300000Y-113700000D01*
X181212500Y-95650000D02*
X181300000Y-95562500D01*
D47*
X126550000Y-110225000D02*
X126262500Y-110512500D01*
D51*
X182737500Y-95562500D02*
X184000000Y-94300000D01*
D47*
X126262500Y-111625000D02*
X126337500Y-111700000D01*
D51*
X182737500Y-118862500D02*
X179700000Y-121900000D01*
X126300000Y-111737500D02*
X126337500Y-111700000D01*
X182737500Y-95562500D02*
X182737500Y-118862500D01*
X126300000Y-113700000D02*
X126300000Y-111737500D01*
D47*
X126262500Y-110512500D02*
X124700000Y-110512500D01*
D51*
X179437500Y-95650000D02*
X181212500Y-95650000D01*
D47*
X126262500Y-110512500D02*
X126262500Y-111625000D01*
D51*
X179700000Y-121900000D02*
X134500000Y-121900000D01*
X181300000Y-95562500D02*
X182737500Y-95562500D01*
D47*
%TO.N,Net-(J4-Pad1)*%
X130850000Y-111500000D02*
X130850000Y-110225000D01*
X140400000Y-108550000D02*
X134950000Y-114000000D01*
X140400000Y-97900000D02*
X140400000Y-108550000D01*
X130850000Y-114000000D02*
X130850000Y-111500000D01*
X133350000Y-114000000D02*
X130850000Y-111500000D01*
X134950000Y-114000000D02*
X133350000Y-114000000D01*
X144750000Y-93550000D02*
X151050000Y-93550000D01*
X151050000Y-93550000D02*
X154250000Y-96750000D01*
X144750000Y-93550000D02*
X140400000Y-97900000D01*
D46*
%TO.N,Net-(B1-Pad1)*%
X154850000Y-94850000D02*
X153950000Y-94850000D01*
X156100000Y-97300000D02*
X156100000Y-96100000D01*
X157900000Y-99600000D02*
X157900000Y-99100000D01*
X157900000Y-99100000D02*
X156250000Y-97450000D01*
X156850000Y-104400000D02*
X156850000Y-103450000D01*
X156100000Y-96100000D02*
X154850000Y-94850000D01*
X157550000Y-105100000D02*
X156850000Y-104400000D01*
X161040990Y-108590990D02*
X157550000Y-105100000D01*
X156250000Y-97450000D02*
X156100000Y-97300000D01*
X161169417Y-108590990D02*
X161040990Y-108590990D01*
%TO.N,Net-(U1-Pad31)*%
X158519417Y-111419417D02*
X159100000Y-112000000D01*
X159100000Y-112000000D02*
X160200000Y-112000000D01*
X158340990Y-111419417D02*
X158519417Y-111419417D01*
X160200000Y-112000000D02*
X161900000Y-113700000D01*
%TO.N,Net-(U1-Pad32)*%
X157985103Y-111985103D02*
X158500000Y-112500000D01*
X158500000Y-112500000D02*
X159200000Y-112500000D01*
X159200000Y-112500000D02*
X159600000Y-112500000D01*
X157775305Y-111985103D02*
X157985103Y-111985103D01*
X159600000Y-112500000D02*
X160900000Y-113800000D01*
%TD*%
%TA.AperFunction,Conductor*%
%TO.N,/VSRC*%
G36*
X133200782Y-102636388D02*
G01*
X133224195Y-102692917D01*
X133224500Y-102700682D01*
X133224500Y-103399318D01*
X133205593Y-103457509D01*
X133156093Y-103493473D01*
X133095674Y-103493473D01*
X133090117Y-103489760D01*
X133013401Y-103474500D01*
X132650075Y-103474500D01*
X132286600Y-103474501D01*
X132281834Y-103475449D01*
X132219444Y-103487858D01*
X132219443Y-103487859D01*
X132209883Y-103489760D01*
X132122888Y-103547888D01*
X132117613Y-103555782D01*
X132108444Y-103560454D01*
X132102866Y-103577853D01*
X132070177Y-103626775D01*
X132070176Y-103626777D01*
X132064760Y-103634883D01*
X132049500Y-103711599D01*
X132049501Y-103888400D01*
X132064760Y-103965117D01*
X132084728Y-103995001D01*
X132101336Y-104053886D01*
X132084728Y-104104999D01*
X132064760Y-104134883D01*
X132049500Y-104211599D01*
X132049501Y-104388400D01*
X132064760Y-104465117D01*
X132084728Y-104495001D01*
X132101336Y-104553886D01*
X132084728Y-104604999D01*
X132064760Y-104634883D01*
X132049500Y-104711599D01*
X132049501Y-104888400D01*
X132064760Y-104965117D01*
X132122888Y-105052112D01*
X132209883Y-105110240D01*
X132286599Y-105125500D01*
X132649925Y-105125500D01*
X133013400Y-105125499D01*
X133025633Y-105123066D01*
X133080556Y-105112142D01*
X133080557Y-105112141D01*
X133090117Y-105110240D01*
X133098221Y-105104825D01*
X133098226Y-105104823D01*
X133135084Y-105080195D01*
X133193972Y-105063586D01*
X133251375Y-105084764D01*
X133272399Y-105107506D01*
X133280448Y-105119552D01*
X133288558Y-105124971D01*
X133292494Y-105127601D01*
X133330372Y-105175652D01*
X133332772Y-105236790D01*
X133319805Y-105264916D01*
X133295178Y-105301773D01*
X133295177Y-105301777D01*
X133289760Y-105309883D01*
X133274500Y-105386599D01*
X133274501Y-106113400D01*
X133289760Y-106190117D01*
X133347888Y-106277112D01*
X133355998Y-106282531D01*
X133426778Y-106329825D01*
X133426780Y-106329826D01*
X133434883Y-106335240D01*
X133440713Y-106336400D01*
X133485413Y-106374579D01*
X133500000Y-106426304D01*
X133500000Y-107066416D01*
X133479542Y-107126683D01*
X133425464Y-107197159D01*
X133364956Y-107343238D01*
X133344318Y-107500000D01*
X133364956Y-107656762D01*
X133425464Y-107802841D01*
X133429415Y-107807990D01*
X133479542Y-107873317D01*
X133500000Y-107933584D01*
X133500000Y-108401000D01*
X133481093Y-108459191D01*
X133431593Y-108495155D01*
X133401000Y-108500000D01*
X133338121Y-108500000D01*
X133279930Y-108481093D01*
X133258487Y-108459817D01*
X133255110Y-108455245D01*
X133250711Y-108449289D01*
X133144768Y-108371039D01*
X133020500Y-108327399D01*
X133014496Y-108326831D01*
X133014494Y-108326831D01*
X132992144Y-108324718D01*
X132992134Y-108324718D01*
X132989833Y-108324500D01*
X132700125Y-108324500D01*
X132410168Y-108324501D01*
X132379500Y-108327399D01*
X132373816Y-108329395D01*
X132373812Y-108329396D01*
X132262214Y-108368587D01*
X132255232Y-108371039D01*
X132149289Y-108449289D01*
X132144890Y-108455245D01*
X132141513Y-108459817D01*
X132091732Y-108495392D01*
X132061879Y-108500000D01*
X129999000Y-108500000D01*
X129940809Y-108481093D01*
X129904845Y-108431593D01*
X129900000Y-108401000D01*
X129900000Y-108058710D01*
X129918907Y-108000519D01*
X129968407Y-107964555D01*
X130029593Y-107964555D01*
X130049286Y-107974245D01*
X130052287Y-107977241D01*
X130104940Y-108000519D01*
X130147864Y-108019496D01*
X130147866Y-108019496D01*
X130154673Y-108022506D01*
X130162067Y-108023368D01*
X130177378Y-108025153D01*
X130180354Y-108025500D01*
X131519646Y-108025500D01*
X131537561Y-108023368D01*
X131538469Y-108023260D01*
X131538470Y-108023260D01*
X131545846Y-108022382D01*
X131648153Y-107976939D01*
X131660516Y-107964555D01*
X131720786Y-107904179D01*
X131727241Y-107897713D01*
X131772506Y-107795327D01*
X131775500Y-107769646D01*
X131775500Y-107480354D01*
X131772382Y-107454154D01*
X131726939Y-107351847D01*
X131726399Y-107351308D01*
X131710432Y-107297402D01*
X131726189Y-107248767D01*
X131727241Y-107247713D01*
X131751868Y-107192010D01*
X131769496Y-107152136D01*
X131769496Y-107152134D01*
X131772506Y-107145327D01*
X131775500Y-107119646D01*
X131775500Y-106830354D01*
X131772382Y-106804154D01*
X131726939Y-106701847D01*
X131647713Y-106622759D01*
X131618591Y-106609884D01*
X131552136Y-106580504D01*
X131552134Y-106580504D01*
X131545327Y-106577494D01*
X131531322Y-106575861D01*
X131522494Y-106574832D01*
X131522493Y-106574832D01*
X131519646Y-106574500D01*
X130180354Y-106574500D01*
X130163951Y-106576452D01*
X130161531Y-106576740D01*
X130161530Y-106576740D01*
X130154154Y-106577618D01*
X130085954Y-106607911D01*
X130060846Y-106619064D01*
X130051847Y-106623061D01*
X130050758Y-106624152D01*
X129996407Y-106640251D01*
X129938731Y-106619826D01*
X129904076Y-106569401D01*
X129900000Y-106541285D01*
X129900000Y-106023623D01*
X129918907Y-105965432D01*
X129957289Y-105936850D01*
X129956244Y-105934877D01*
X129962786Y-105931413D01*
X129969768Y-105928961D01*
X130075711Y-105850711D01*
X130153961Y-105744768D01*
X130197601Y-105620500D01*
X130200500Y-105589833D01*
X130200499Y-105010168D01*
X130197601Y-104979500D01*
X130195397Y-104973222D01*
X130156413Y-104862214D01*
X130153961Y-104855232D01*
X130075711Y-104749289D01*
X129969768Y-104671039D01*
X129962786Y-104668587D01*
X129956244Y-104665123D01*
X129957351Y-104663033D01*
X129917559Y-104632666D01*
X129900000Y-104576377D01*
X129900000Y-104314500D01*
X129918907Y-104256309D01*
X129968407Y-104220345D01*
X129999000Y-104215500D01*
X130853013Y-104215500D01*
X130862329Y-104215939D01*
X130867215Y-104216401D01*
X130873296Y-104217760D01*
X130943644Y-104215549D01*
X130946754Y-104215500D01*
X130975925Y-104215500D01*
X130981469Y-104214800D01*
X130990761Y-104214068D01*
X131009322Y-104213485D01*
X131031345Y-104212793D01*
X131031348Y-104212793D01*
X131037569Y-104212597D01*
X131043547Y-104210860D01*
X131043554Y-104210859D01*
X131059835Y-104206129D01*
X131075045Y-104202979D01*
X131091873Y-104200853D01*
X131091879Y-104200852D01*
X131098058Y-104200071D01*
X131141618Y-104182824D01*
X131150426Y-104179809D01*
X131154915Y-104178505D01*
X131195398Y-104166744D01*
X131200762Y-104163572D01*
X131200764Y-104163571D01*
X131215358Y-104154940D01*
X131229307Y-104148106D01*
X131250871Y-104139568D01*
X131255909Y-104135908D01*
X131255912Y-104135906D01*
X131288757Y-104112043D01*
X131296554Y-104106921D01*
X131331504Y-104086252D01*
X131331507Y-104086250D01*
X131336865Y-104083081D01*
X131353264Y-104066682D01*
X131365077Y-104056593D01*
X131378801Y-104046622D01*
X131378802Y-104046621D01*
X131383837Y-104042963D01*
X131387803Y-104038169D01*
X131387806Y-104038166D01*
X131413684Y-104006884D01*
X131419961Y-103999985D01*
X131888911Y-103531035D01*
X131890818Y-103528577D01*
X131890822Y-103528572D01*
X131942326Y-103462173D01*
X131956286Y-103452686D01*
X131962004Y-103436804D01*
X131964362Y-103433764D01*
X132029635Y-103282927D01*
X132055346Y-103120595D01*
X132041109Y-102969981D01*
X132054457Y-102910269D01*
X132069666Y-102890660D01*
X132305830Y-102654496D01*
X132360347Y-102626719D01*
X132375834Y-102625500D01*
X132678475Y-102625500D01*
X132678477Y-102625499D01*
X133013400Y-102625499D01*
X133090117Y-102610240D01*
X133092186Y-102608857D01*
X133148613Y-102604418D01*
X133200782Y-102636388D01*
G37*
%TD.AperFunction*%
%TD*%
%TA.AperFunction,Conductor*%
%TO.N,VBUS*%
G36*
X177259191Y-92918907D02*
G01*
X177295155Y-92968407D01*
X177300000Y-92999000D01*
X177300000Y-94100500D01*
X177281093Y-94158691D01*
X177231593Y-94194655D01*
X177201000Y-94199500D01*
X176616782Y-94199500D01*
X176613199Y-94200028D01*
X176613192Y-94200028D01*
X176555501Y-94208521D01*
X176555499Y-94208522D01*
X176547888Y-94209642D01*
X176443145Y-94261068D01*
X176360707Y-94343650D01*
X176309464Y-94448482D01*
X176308355Y-94456084D01*
X176308354Y-94456087D01*
X176300017Y-94513237D01*
X176299500Y-94516782D01*
X176299500Y-94883218D01*
X176309642Y-94952112D01*
X176361068Y-95056855D01*
X176443650Y-95139293D01*
X176548482Y-95190536D01*
X176556084Y-95191645D01*
X176556087Y-95191646D01*
X176613237Y-95199983D01*
X176613239Y-95199983D01*
X176616782Y-95200500D01*
X177201000Y-95200500D01*
X177259191Y-95219407D01*
X177295155Y-95268907D01*
X177300000Y-95299500D01*
X177300000Y-98601000D01*
X177281093Y-98659191D01*
X177231593Y-98695155D01*
X177201000Y-98700000D01*
X174299000Y-98700000D01*
X174240809Y-98681093D01*
X174204845Y-98631593D01*
X174200000Y-98601000D01*
X174200000Y-92999000D01*
X174218907Y-92940809D01*
X174268407Y-92904845D01*
X174299000Y-92900000D01*
X177201000Y-92900000D01*
X177259191Y-92918907D01*
G37*
%TD.AperFunction*%
%TD*%
%TA.AperFunction,Conductor*%
%TO.N,+3V3*%
G36*
X172593367Y-96048768D02*
G01*
X172605322Y-96070514D01*
X172650432Y-96184450D01*
X172692767Y-96242720D01*
X172733053Y-96298168D01*
X172747037Y-96317416D01*
X172751832Y-96321382D01*
X172751834Y-96321385D01*
X172789305Y-96352383D01*
X172873674Y-96422179D01*
X172879307Y-96424830D01*
X172879309Y-96424831D01*
X172898002Y-96433627D01*
X173022387Y-96492158D01*
X173183830Y-96522955D01*
X173265845Y-96517795D01*
X173341649Y-96513026D01*
X173341651Y-96513026D01*
X173347860Y-96512635D01*
X173353778Y-96510712D01*
X173353779Y-96510712D01*
X173498247Y-96463772D01*
X173498248Y-96463771D01*
X173504171Y-96461847D01*
X173642940Y-96373781D01*
X173647200Y-96369245D01*
X173647202Y-96369243D01*
X173751182Y-96258515D01*
X173751183Y-96258514D01*
X173755448Y-96253972D01*
X173808746Y-96157024D01*
X173853348Y-96115140D01*
X173914051Y-96107472D01*
X173967668Y-96136948D01*
X173993719Y-96192310D01*
X173994500Y-96204718D01*
X173994500Y-98601000D01*
X173997030Y-98633144D01*
X174001875Y-98663737D01*
X174004107Y-98669126D01*
X174004108Y-98669129D01*
X174036358Y-98746990D01*
X174038592Y-98752383D01*
X174074556Y-98801883D01*
X174076019Y-98803557D01*
X174091370Y-98821127D01*
X174098797Y-98829628D01*
X174105490Y-98833627D01*
X174107904Y-98835069D01*
X174177307Y-98876536D01*
X174235498Y-98895443D01*
X174239342Y-98896052D01*
X174239347Y-98896053D01*
X174295152Y-98904891D01*
X174295157Y-98904891D01*
X174299000Y-98905500D01*
X177201000Y-98905500D01*
X177233144Y-98902970D01*
X177263737Y-98898125D01*
X177269126Y-98895893D01*
X177269129Y-98895892D01*
X177346990Y-98863642D01*
X177346992Y-98863641D01*
X177352383Y-98861408D01*
X177401883Y-98825444D01*
X177421108Y-98808647D01*
X177423758Y-98806332D01*
X177423759Y-98806331D01*
X177429628Y-98801203D01*
X177476536Y-98722693D01*
X177482193Y-98705284D01*
X177494240Y-98668205D01*
X177494240Y-98668203D01*
X177495443Y-98664502D01*
X177496478Y-98657970D01*
X177504891Y-98604848D01*
X177504891Y-98604843D01*
X177505500Y-98601000D01*
X177505500Y-98474499D01*
X177524407Y-98416308D01*
X177573907Y-98380344D01*
X177604500Y-98375499D01*
X177789832Y-98375499D01*
X177820500Y-98372601D01*
X177826184Y-98370605D01*
X177826188Y-98370604D01*
X177937786Y-98331413D01*
X177944768Y-98328961D01*
X178050711Y-98250711D01*
X178128961Y-98144768D01*
X178172601Y-98020500D01*
X178173538Y-98010588D01*
X178175282Y-97992144D01*
X178175282Y-97992134D01*
X178175500Y-97989833D01*
X178175499Y-97412333D01*
X178194406Y-97354142D01*
X178243906Y-97318178D01*
X178305092Y-97318178D01*
X178344503Y-97342329D01*
X178395504Y-97393330D01*
X178423281Y-97447847D01*
X178424500Y-97463334D01*
X178424501Y-97732085D01*
X178424501Y-97989832D01*
X178427399Y-98020500D01*
X178429395Y-98026184D01*
X178429396Y-98026188D01*
X178464173Y-98125216D01*
X178471039Y-98144768D01*
X178549289Y-98250711D01*
X178655232Y-98328961D01*
X178779500Y-98372601D01*
X178785504Y-98373169D01*
X178785506Y-98373169D01*
X178807856Y-98375282D01*
X178807866Y-98375282D01*
X178810167Y-98375500D01*
X179162348Y-98375500D01*
X179514832Y-98375499D01*
X179545500Y-98372601D01*
X179551184Y-98370605D01*
X179551188Y-98370604D01*
X179662786Y-98331413D01*
X179669768Y-98328961D01*
X179775711Y-98250711D01*
X179832985Y-98173168D01*
X179849565Y-98150720D01*
X179849565Y-98150719D01*
X179853961Y-98144768D01*
X179872598Y-98091696D01*
X179909719Y-98043058D01*
X179966006Y-98025500D01*
X180381466Y-98025500D01*
X180390095Y-98025877D01*
X180428807Y-98029264D01*
X180466350Y-98019204D01*
X180474784Y-98017334D01*
X180504517Y-98012092D01*
X180504519Y-98012091D01*
X180513045Y-98010588D01*
X180520543Y-98006259D01*
X180526030Y-98004262D01*
X180531318Y-98001796D01*
X180539684Y-97999554D01*
X180540503Y-97998981D01*
X180590565Y-97991275D01*
X180700000Y-98005682D01*
X180717957Y-98003318D01*
X180725569Y-98002316D01*
X180856762Y-97985044D01*
X181002841Y-97924536D01*
X181128282Y-97828282D01*
X181224536Y-97702841D01*
X181285044Y-97556762D01*
X181305682Y-97400000D01*
X181285044Y-97243238D01*
X181278968Y-97228568D01*
X181258167Y-97178351D01*
X181224536Y-97097159D01*
X181128282Y-96971718D01*
X181002841Y-96875464D01*
X180856762Y-96814956D01*
X180700000Y-96794318D01*
X180543238Y-96814956D01*
X180397159Y-96875464D01*
X180271718Y-96971718D01*
X180175464Y-97097159D01*
X180141833Y-97178351D01*
X180121033Y-97228568D01*
X180114956Y-97243238D01*
X180113254Y-97256167D01*
X180109007Y-97288423D01*
X180082665Y-97343648D01*
X180028894Y-97372842D01*
X180010854Y-97374500D01*
X179966006Y-97374500D01*
X179907815Y-97355593D01*
X179872598Y-97308303D01*
X179869839Y-97300446D01*
X179853961Y-97255232D01*
X179823596Y-97214120D01*
X179780110Y-97155245D01*
X179775711Y-97149289D01*
X179669768Y-97071039D01*
X179545500Y-97027399D01*
X179539496Y-97026831D01*
X179539494Y-97026831D01*
X179517144Y-97024718D01*
X179517134Y-97024718D01*
X179514833Y-97024500D01*
X179484384Y-97024500D01*
X178988335Y-97024501D01*
X178930144Y-97005594D01*
X178918331Y-96995505D01*
X178654496Y-96731670D01*
X178626719Y-96677153D01*
X178625500Y-96661666D01*
X178625500Y-96202347D01*
X178644407Y-96144156D01*
X178693907Y-96108192D01*
X178755093Y-96108192D01*
X178767975Y-96113404D01*
X178823482Y-96140536D01*
X178831084Y-96141645D01*
X178831087Y-96141646D01*
X178888237Y-96149983D01*
X178888239Y-96149983D01*
X178891782Y-96150500D01*
X178901861Y-96150500D01*
X178960052Y-96169407D01*
X178963210Y-96171964D01*
X178965331Y-96174396D01*
X178970213Y-96177827D01*
X178970214Y-96177828D01*
X179087429Y-96260208D01*
X179104047Y-96271887D01*
X179148262Y-96289126D01*
X179244257Y-96326553D01*
X179262013Y-96333476D01*
X179267928Y-96334255D01*
X179267929Y-96334255D01*
X179364664Y-96346990D01*
X179391326Y-96350500D01*
X181184771Y-96350500D01*
X181191505Y-96350729D01*
X181249430Y-96354678D01*
X181255301Y-96353653D01*
X181255306Y-96353653D01*
X181312320Y-96343702D01*
X181317447Y-96342945D01*
X181374896Y-96335993D01*
X181374897Y-96335993D01*
X181380820Y-96335276D01*
X181389432Y-96332022D01*
X181407395Y-96327108D01*
X181416454Y-96325527D01*
X181454451Y-96308848D01*
X181494242Y-96300499D01*
X181589832Y-96300499D01*
X181620500Y-96297601D01*
X181626184Y-96295605D01*
X181626188Y-96295604D01*
X181687581Y-96274044D01*
X181703106Y-96268592D01*
X181735908Y-96263000D01*
X181938000Y-96263000D01*
X181996191Y-96281907D01*
X182032155Y-96331407D01*
X182037000Y-96362000D01*
X182037000Y-118531336D01*
X182018093Y-118589527D01*
X182008004Y-118601340D01*
X179438839Y-121170504D01*
X179384322Y-121198281D01*
X179368835Y-121199500D01*
X134831165Y-121199500D01*
X134772974Y-121180593D01*
X134761161Y-121170504D01*
X131546018Y-117955361D01*
X133525316Y-117955361D01*
X133537443Y-118207820D01*
X133586752Y-118455713D01*
X133587992Y-118459168D01*
X133587993Y-118459170D01*
X133604605Y-118505439D01*
X133672160Y-118693595D01*
X133791792Y-118916240D01*
X133793992Y-118919186D01*
X133905890Y-119069035D01*
X133943018Y-119118756D01*
X134122517Y-119296696D01*
X134125476Y-119298866D01*
X134125480Y-119298869D01*
X134167646Y-119329786D01*
X134326346Y-119446149D01*
X134550026Y-119563833D01*
X134553497Y-119565045D01*
X134553499Y-119565046D01*
X134631446Y-119592266D01*
X134788644Y-119647162D01*
X135036958Y-119694306D01*
X135174408Y-119699706D01*
X135285843Y-119704085D01*
X135285846Y-119704085D01*
X135289513Y-119704229D01*
X135540760Y-119676713D01*
X135662971Y-119644538D01*
X135781635Y-119613297D01*
X135781640Y-119613295D01*
X135785181Y-119612363D01*
X136017405Y-119512591D01*
X136020532Y-119510656D01*
X136229205Y-119381526D01*
X136229210Y-119381522D01*
X136232331Y-119379591D01*
X136425238Y-119216283D01*
X136576727Y-119043544D01*
X136589462Y-119029023D01*
X136589466Y-119029018D01*
X136591888Y-119026256D01*
X136595982Y-119019892D01*
X136664735Y-118913003D01*
X136728619Y-118813684D01*
X136746627Y-118773709D01*
X136830918Y-118586588D01*
X136832428Y-118583236D01*
X136847066Y-118531336D01*
X136900035Y-118343517D01*
X136901034Y-118339976D01*
X136932931Y-118089247D01*
X136933534Y-118066211D01*
X136935203Y-118002492D01*
X136935203Y-118002487D01*
X136935268Y-118000000D01*
X136935084Y-117997527D01*
X136935084Y-117997517D01*
X136931951Y-117955361D01*
X141295316Y-117955361D01*
X141307443Y-118207820D01*
X141356752Y-118455713D01*
X141357992Y-118459168D01*
X141357993Y-118459170D01*
X141374605Y-118505439D01*
X141442160Y-118693595D01*
X141561792Y-118916240D01*
X141563992Y-118919186D01*
X141675890Y-119069035D01*
X141713018Y-119118756D01*
X141892517Y-119296696D01*
X141895476Y-119298866D01*
X141895480Y-119298869D01*
X141937646Y-119329786D01*
X142096346Y-119446149D01*
X142320026Y-119563833D01*
X142323497Y-119565045D01*
X142323499Y-119565046D01*
X142401446Y-119592266D01*
X142558644Y-119647162D01*
X142806958Y-119694306D01*
X142944408Y-119699706D01*
X143055843Y-119704085D01*
X143055846Y-119704085D01*
X143059513Y-119704229D01*
X143310760Y-119676713D01*
X143432971Y-119644538D01*
X143551635Y-119613297D01*
X143551640Y-119613295D01*
X143555181Y-119612363D01*
X143787405Y-119512591D01*
X143790532Y-119510656D01*
X143999205Y-119381526D01*
X143999210Y-119381522D01*
X144002331Y-119379591D01*
X144195238Y-119216283D01*
X144346727Y-119043544D01*
X144359462Y-119029023D01*
X144359466Y-119029018D01*
X144361888Y-119026256D01*
X144365982Y-119019892D01*
X144434735Y-118913003D01*
X144498619Y-118813684D01*
X144516627Y-118773709D01*
X144600918Y-118586588D01*
X144602428Y-118583236D01*
X144617066Y-118531336D01*
X144670035Y-118343517D01*
X144671034Y-118339976D01*
X144702931Y-118089247D01*
X144703534Y-118066211D01*
X144705203Y-118002492D01*
X144705203Y-118002487D01*
X144705268Y-118000000D01*
X144705084Y-117997527D01*
X144705084Y-117997517D01*
X144686809Y-117751599D01*
X144686808Y-117751593D01*
X144686537Y-117747945D01*
X144630756Y-117501428D01*
X144612904Y-117455521D01*
X144540480Y-117269282D01*
X144540478Y-117269277D01*
X144539150Y-117265863D01*
X144413731Y-117046426D01*
X144257255Y-116847938D01*
X144254582Y-116845424D01*
X144254577Y-116845418D01*
X144137517Y-116735299D01*
X144073160Y-116674758D01*
X143865489Y-116530691D01*
X143833221Y-116514778D01*
X143642107Y-116420531D01*
X143642103Y-116420529D01*
X143638805Y-116418903D01*
X143635303Y-116417782D01*
X143635298Y-116417780D01*
X143436278Y-116354074D01*
X143398087Y-116341849D01*
X143394472Y-116341260D01*
X143394471Y-116341260D01*
X143152241Y-116301810D01*
X143152240Y-116301810D01*
X143148624Y-116301221D01*
X143144961Y-116301173D01*
X143144960Y-116301173D01*
X143022260Y-116299567D01*
X142895896Y-116297913D01*
X142892268Y-116298407D01*
X142892264Y-116298407D01*
X142732698Y-116320123D01*
X142645455Y-116331996D01*
X142402803Y-116402723D01*
X142173270Y-116508539D01*
X141961899Y-116647120D01*
X141959166Y-116649559D01*
X141959165Y-116649560D01*
X141851341Y-116745796D01*
X141773333Y-116815421D01*
X141770986Y-116818243D01*
X141770985Y-116818244D01*
X141738166Y-116857705D01*
X141611715Y-117009746D01*
X141480595Y-117225825D01*
X141382854Y-117458911D01*
X141381949Y-117462473D01*
X141381949Y-117462474D01*
X141331843Y-117659768D01*
X141320639Y-117703883D01*
X141295316Y-117955361D01*
X136931951Y-117955361D01*
X136916809Y-117751599D01*
X136916808Y-117751593D01*
X136916537Y-117747945D01*
X136860756Y-117501428D01*
X136842904Y-117455521D01*
X136770480Y-117269282D01*
X136770478Y-117269277D01*
X136769150Y-117265863D01*
X136643731Y-117046426D01*
X136487255Y-116847938D01*
X136484582Y-116845424D01*
X136484577Y-116845418D01*
X136367517Y-116735299D01*
X136303160Y-116674758D01*
X136095489Y-116530691D01*
X136063221Y-116514778D01*
X135872107Y-116420531D01*
X135872103Y-116420529D01*
X135868805Y-116418903D01*
X135865303Y-116417782D01*
X135865298Y-116417780D01*
X135666278Y-116354074D01*
X135628087Y-116341849D01*
X135624472Y-116341260D01*
X135624471Y-116341260D01*
X135382241Y-116301810D01*
X135382240Y-116301810D01*
X135378624Y-116301221D01*
X135374961Y-116301173D01*
X135374960Y-116301173D01*
X135252260Y-116299567D01*
X135125896Y-116297913D01*
X135122268Y-116298407D01*
X135122264Y-116298407D01*
X134962698Y-116320123D01*
X134875455Y-116331996D01*
X134632803Y-116402723D01*
X134403270Y-116508539D01*
X134191899Y-116647120D01*
X134189166Y-116649559D01*
X134189165Y-116649560D01*
X134081341Y-116745796D01*
X134003333Y-116815421D01*
X134000986Y-116818243D01*
X134000985Y-116818244D01*
X133968166Y-116857705D01*
X133841715Y-117009746D01*
X133710595Y-117225825D01*
X133612854Y-117458911D01*
X133611949Y-117462473D01*
X133611949Y-117462474D01*
X133561843Y-117659768D01*
X133550639Y-117703883D01*
X133525316Y-117955361D01*
X131546018Y-117955361D01*
X127029496Y-113438839D01*
X127001719Y-113384322D01*
X127000500Y-113368835D01*
X127000500Y-112215898D01*
X127019866Y-112157081D01*
X127028961Y-112144768D01*
X127072601Y-112020500D01*
X127073603Y-112009905D01*
X127075282Y-111992144D01*
X127075282Y-111992134D01*
X127075500Y-111989833D01*
X127075499Y-111410168D01*
X127072601Y-111379500D01*
X127070603Y-111373809D01*
X127031413Y-111262214D01*
X127028961Y-111255232D01*
X126950711Y-111149289D01*
X126844768Y-111071039D01*
X126779197Y-111048012D01*
X126730559Y-111010892D01*
X126713000Y-110954604D01*
X126713000Y-110740111D01*
X126731907Y-110681920D01*
X126741996Y-110670107D01*
X126757607Y-110654496D01*
X126812124Y-110626719D01*
X126827611Y-110625500D01*
X127219646Y-110625500D01*
X127237561Y-110623368D01*
X127238469Y-110623260D01*
X127238470Y-110623260D01*
X127245846Y-110622382D01*
X127348153Y-110576939D01*
X127427241Y-110497713D01*
X127461299Y-110420676D01*
X127469496Y-110402136D01*
X127469496Y-110402134D01*
X127472506Y-110395327D01*
X127475500Y-110369646D01*
X127475500Y-110080354D01*
X127472382Y-110054154D01*
X127426939Y-109951847D01*
X127426399Y-109951308D01*
X127410432Y-109897402D01*
X127426189Y-109848767D01*
X127427241Y-109847713D01*
X127434862Y-109830477D01*
X127469496Y-109752136D01*
X127469496Y-109752134D01*
X127472506Y-109745327D01*
X127475500Y-109719646D01*
X127475500Y-109430354D01*
X127472382Y-109404154D01*
X127469368Y-109397368D01*
X127469367Y-109397365D01*
X127465957Y-109389690D01*
X127459613Y-109328835D01*
X127490250Y-109275873D01*
X127546167Y-109251034D01*
X127556432Y-109250500D01*
X127575500Y-109250500D01*
X127633691Y-109269407D01*
X127669655Y-109318907D01*
X127674500Y-109349500D01*
X127674500Y-110044748D01*
X127686133Y-110103231D01*
X127723246Y-110158774D01*
X127730448Y-110169552D01*
X127727832Y-110171300D01*
X127748281Y-110211434D01*
X127749500Y-110226921D01*
X127749500Y-110933157D01*
X127730593Y-110991348D01*
X127681194Y-111027239D01*
X127679500Y-111027399D01*
X127675176Y-111028917D01*
X127675174Y-111028918D01*
X127601189Y-111054900D01*
X127555232Y-111071039D01*
X127449289Y-111149289D01*
X127371039Y-111255232D01*
X127327399Y-111379500D01*
X127326832Y-111385503D01*
X127326831Y-111385506D01*
X127324719Y-111407852D01*
X127324500Y-111410167D01*
X127324501Y-111989832D01*
X127327399Y-112020500D01*
X127329395Y-112026184D01*
X127329396Y-112026188D01*
X127358917Y-112110251D01*
X127371039Y-112144768D01*
X127449289Y-112250711D01*
X127555232Y-112328961D01*
X127679500Y-112372601D01*
X127685504Y-112373169D01*
X127685506Y-112373169D01*
X127707856Y-112375282D01*
X127707866Y-112375282D01*
X127710167Y-112375500D01*
X128062348Y-112375500D01*
X128414832Y-112375499D01*
X128445500Y-112372601D01*
X128451184Y-112370605D01*
X128451188Y-112370604D01*
X128562786Y-112331413D01*
X128569768Y-112328961D01*
X128675711Y-112250711D01*
X128753961Y-112144768D01*
X128797601Y-112020500D01*
X128798603Y-112009905D01*
X128800282Y-111992144D01*
X128800282Y-111992134D01*
X128800500Y-111989833D01*
X128800499Y-111410168D01*
X128797601Y-111379500D01*
X128795603Y-111373809D01*
X128756413Y-111262214D01*
X128753961Y-111255232D01*
X128675711Y-111149289D01*
X128676483Y-111148718D01*
X128651719Y-111100114D01*
X128650500Y-111084627D01*
X128650500Y-110324500D01*
X128669407Y-110266309D01*
X128718907Y-110230345D01*
X128749500Y-110225500D01*
X129544748Y-110225500D01*
X129570995Y-110220279D01*
X129593666Y-110215770D01*
X129593668Y-110215769D01*
X129603231Y-110213867D01*
X129669552Y-110169552D01*
X129713867Y-110103231D01*
X129725500Y-110044748D01*
X129725500Y-110024500D01*
X129744407Y-109966309D01*
X129793907Y-109930345D01*
X129824500Y-109925500D01*
X129834261Y-109925500D01*
X129892452Y-109944407D01*
X129928416Y-109993907D01*
X129929752Y-110049566D01*
X129927494Y-110054673D01*
X129926632Y-110062069D01*
X129926631Y-110062072D01*
X129926476Y-110063401D01*
X129924500Y-110080354D01*
X129924500Y-110369646D01*
X129927618Y-110395846D01*
X129973061Y-110498153D01*
X130052287Y-110577241D01*
X130060645Y-110580936D01*
X130147864Y-110619496D01*
X130147866Y-110619496D01*
X130154673Y-110622506D01*
X130162067Y-110623368D01*
X130177378Y-110625153D01*
X130180354Y-110625500D01*
X130300500Y-110625500D01*
X130358691Y-110644407D01*
X130394655Y-110693907D01*
X130399500Y-110724500D01*
X130399500Y-111467373D01*
X130398814Y-111479009D01*
X130394636Y-111514310D01*
X130395965Y-111521586D01*
X130395965Y-111521589D01*
X130397889Y-111532121D01*
X130399500Y-111549908D01*
X130399500Y-113567067D01*
X130379042Y-113627334D01*
X130347937Y-113667871D01*
X130325464Y-113697159D01*
X130303553Y-113750056D01*
X130271149Y-113828288D01*
X130264956Y-113843238D01*
X130244318Y-114000000D01*
X130245165Y-114006434D01*
X130247028Y-114020585D01*
X130264956Y-114156762D01*
X130325464Y-114302841D01*
X130421718Y-114428282D01*
X130547159Y-114524536D01*
X130619392Y-114554456D01*
X130679772Y-114579466D01*
X130693238Y-114585044D01*
X130850000Y-114605682D01*
X131006762Y-114585044D01*
X131020229Y-114579466D01*
X131080608Y-114554456D01*
X131152841Y-114524536D01*
X131278282Y-114428282D01*
X131374536Y-114302841D01*
X131435044Y-114156762D01*
X131452972Y-114020585D01*
X131454835Y-114006434D01*
X131455682Y-114000000D01*
X131435044Y-113843238D01*
X131428852Y-113828288D01*
X131396447Y-113750056D01*
X131374536Y-113697159D01*
X131352063Y-113667871D01*
X131320958Y-113627334D01*
X131300500Y-113567067D01*
X131300500Y-112826611D01*
X131319407Y-112768420D01*
X131368907Y-112732456D01*
X131430093Y-112732456D01*
X131469504Y-112756607D01*
X133008381Y-114295484D01*
X133016122Y-114304196D01*
X133038128Y-114332110D01*
X133086737Y-114365706D01*
X133089264Y-114367513D01*
X133130860Y-114398235D01*
X133130864Y-114398237D01*
X133136817Y-114402634D01*
X133143631Y-114405027D01*
X133149569Y-114409131D01*
X133205914Y-114426951D01*
X133208850Y-114427930D01*
X133217320Y-114430904D01*
X133264631Y-114447519D01*
X133270668Y-114447756D01*
X133273352Y-114448279D01*
X133278730Y-114449980D01*
X133285337Y-114450500D01*
X133338541Y-114450500D01*
X133342428Y-114450576D01*
X133392603Y-114452548D01*
X133392606Y-114452548D01*
X133399994Y-114452838D01*
X133406772Y-114451041D01*
X133416597Y-114450500D01*
X134917373Y-114450500D01*
X134929009Y-114451186D01*
X134964310Y-114455364D01*
X134971586Y-114454035D01*
X134971589Y-114454035D01*
X135007265Y-114447519D01*
X135022430Y-114444749D01*
X135025476Y-114444242D01*
X135083962Y-114435449D01*
X135090475Y-114432321D01*
X135097573Y-114431025D01*
X135149982Y-114403801D01*
X135152762Y-114402412D01*
X135199408Y-114380013D01*
X135199411Y-114380011D01*
X135206079Y-114376809D01*
X135210521Y-114372703D01*
X135212781Y-114371180D01*
X135217788Y-114368579D01*
X135222828Y-114364275D01*
X135260460Y-114326643D01*
X135263263Y-114323949D01*
X135300124Y-114289876D01*
X135300126Y-114289873D01*
X135305556Y-114284854D01*
X135309078Y-114278790D01*
X135315638Y-114271465D01*
X140695484Y-108891619D01*
X140704197Y-108883877D01*
X140726299Y-108866453D01*
X140732110Y-108861872D01*
X140765713Y-108813253D01*
X140767513Y-108810736D01*
X140798235Y-108769140D01*
X140798237Y-108769136D01*
X140802634Y-108763183D01*
X140805027Y-108756369D01*
X140809131Y-108750431D01*
X140826951Y-108694086D01*
X140827930Y-108691150D01*
X140834858Y-108671422D01*
X140847519Y-108635369D01*
X140847756Y-108629332D01*
X140848279Y-108626648D01*
X140849980Y-108621270D01*
X140850500Y-108614663D01*
X140850500Y-108561459D01*
X140850576Y-108557572D01*
X140852548Y-108507397D01*
X140852548Y-108507394D01*
X140852838Y-108500006D01*
X140851041Y-108493228D01*
X140850500Y-108483403D01*
X140850500Y-103910357D01*
X140869407Y-103852166D01*
X140918907Y-103816202D01*
X140980093Y-103816202D01*
X140994878Y-103822786D01*
X140997159Y-103824536D01*
X141003156Y-103827020D01*
X141013388Y-103831259D01*
X141059913Y-103870997D01*
X141074500Y-103922722D01*
X141074500Y-103981466D01*
X141074123Y-103990095D01*
X141070736Y-104028807D01*
X141080394Y-104064847D01*
X141080796Y-104066349D01*
X141082666Y-104074783D01*
X141089412Y-104113045D01*
X141093742Y-104120544D01*
X141095738Y-104126029D01*
X141098204Y-104131316D01*
X141100446Y-104139684D01*
X141117595Y-104164174D01*
X141122732Y-104171511D01*
X141127371Y-104178792D01*
X141146806Y-104212455D01*
X141156209Y-104220345D01*
X141176571Y-104237431D01*
X141182939Y-104243265D01*
X144045170Y-107105496D01*
X144072947Y-107160013D01*
X144063376Y-107220445D01*
X144020111Y-107263710D01*
X143975166Y-107274500D01*
X143178409Y-107274500D01*
X143120218Y-107255593D01*
X143096821Y-107231575D01*
X143089268Y-107220585D01*
X143029312Y-107133349D01*
X142902721Y-107020560D01*
X142752881Y-106941224D01*
X142648305Y-106914956D01*
X142594231Y-106901373D01*
X142594228Y-106901373D01*
X142588441Y-106899919D01*
X142502841Y-106899471D01*
X142424861Y-106899062D01*
X142424859Y-106899062D01*
X142418895Y-106899031D01*
X142413099Y-106900423D01*
X142413095Y-106900423D01*
X142322166Y-106922254D01*
X142254032Y-106938612D01*
X142184766Y-106974363D01*
X142108675Y-107013636D01*
X142108673Y-107013638D01*
X142103369Y-107016375D01*
X141975604Y-107127831D01*
X141972173Y-107132713D01*
X141972172Y-107132714D01*
X141883634Y-107258691D01*
X141878113Y-107266547D01*
X141872637Y-107280593D01*
X141820534Y-107414229D01*
X141816524Y-107424513D01*
X141815745Y-107430428D01*
X141815745Y-107430429D01*
X141813097Y-107450545D01*
X141794394Y-107592611D01*
X141795049Y-107598544D01*
X141795049Y-107598548D01*
X141811273Y-107745503D01*
X141812999Y-107761135D01*
X141871266Y-107920356D01*
X141874591Y-107925305D01*
X141874592Y-107925306D01*
X141885196Y-107941086D01*
X141965830Y-108061083D01*
X142091233Y-108175191D01*
X142240235Y-108256092D01*
X142288389Y-108268725D01*
X142398464Y-108297603D01*
X142398468Y-108297604D01*
X142404233Y-108299116D01*
X142410194Y-108299210D01*
X142410197Y-108299210D01*
X142488996Y-108300447D01*
X142573760Y-108301779D01*
X142579575Y-108300447D01*
X142579577Y-108300447D01*
X142733206Y-108265262D01*
X142733209Y-108265261D01*
X142739029Y-108263928D01*
X142754610Y-108256092D01*
X142814763Y-108225838D01*
X142890498Y-108187747D01*
X142895035Y-108183872D01*
X142895038Y-108183870D01*
X143014888Y-108081508D01*
X143014891Y-108081505D01*
X143019423Y-108077634D01*
X143023148Y-108072450D01*
X143099116Y-107966730D01*
X143148427Y-107930507D01*
X143179512Y-107925500D01*
X144824166Y-107925500D01*
X144882357Y-107944407D01*
X144894170Y-107954496D01*
X145256731Y-108317057D01*
X145262565Y-108323424D01*
X145287545Y-108353194D01*
X145321205Y-108372627D01*
X145328489Y-108377268D01*
X145330944Y-108378987D01*
X145360316Y-108399554D01*
X145368684Y-108401796D01*
X145373971Y-108404262D01*
X145379456Y-108406258D01*
X145386955Y-108410588D01*
X145395481Y-108412091D01*
X145395483Y-108412092D01*
X145425216Y-108417334D01*
X145433651Y-108419204D01*
X145453415Y-108424500D01*
X145471193Y-108429264D01*
X145509908Y-108425877D01*
X145518537Y-108425500D01*
X147385246Y-108425500D01*
X147443437Y-108444407D01*
X147479401Y-108493907D01*
X147483146Y-108539219D01*
X147481632Y-108549289D01*
X147467103Y-108645926D01*
X147486685Y-108776170D01*
X147504128Y-108812495D01*
X147530038Y-108866453D01*
X147543697Y-108894899D01*
X147547540Y-108899545D01*
X147547543Y-108899549D01*
X147558403Y-108912675D01*
X147563332Y-108918634D01*
X148061606Y-109416906D01*
X148085341Y-109436543D01*
X148090777Y-109439153D01*
X148090778Y-109439154D01*
X148115846Y-109451191D01*
X148204070Y-109493555D01*
X148334314Y-109513137D01*
X148464558Y-109493555D01*
X148552782Y-109451191D01*
X148577848Y-109439155D01*
X148577850Y-109439154D01*
X148583287Y-109436543D01*
X148587935Y-109432698D01*
X148587937Y-109432697D01*
X148602135Y-109420951D01*
X148607022Y-109416908D01*
X148979311Y-109044617D01*
X149033828Y-109016839D01*
X149049315Y-109015620D01*
X149609554Y-109015620D01*
X149667745Y-109034527D01*
X149703709Y-109084027D01*
X149707706Y-109101693D01*
X149714956Y-109156762D01*
X149775464Y-109302841D01*
X149871718Y-109428282D01*
X149997159Y-109524536D01*
X150143238Y-109585044D01*
X150274431Y-109602316D01*
X150293566Y-109604835D01*
X150300000Y-109605682D01*
X150306433Y-109604835D01*
X150309815Y-109604835D01*
X150368006Y-109623742D01*
X150403970Y-109673242D01*
X150408815Y-109703835D01*
X150408815Y-110826068D01*
X150389908Y-110884259D01*
X150379819Y-110896072D01*
X150048246Y-111227645D01*
X150015118Y-111277225D01*
X150013217Y-111286784D01*
X150013216Y-111286786D01*
X150005201Y-111327083D01*
X149975305Y-111380467D01*
X149919740Y-111406083D01*
X149859730Y-111394146D01*
X149838099Y-111377773D01*
X149288504Y-110828178D01*
X149282669Y-110821810D01*
X149278757Y-110817148D01*
X149257690Y-110792041D01*
X149224027Y-110772606D01*
X149216746Y-110767967D01*
X149206823Y-110761019D01*
X149184919Y-110745681D01*
X149176551Y-110743439D01*
X149171264Y-110740973D01*
X149165779Y-110738977D01*
X149158280Y-110734647D01*
X149149754Y-110733144D01*
X149149752Y-110733143D01*
X149120019Y-110727901D01*
X149111584Y-110726031D01*
X149082409Y-110718213D01*
X149074042Y-110715971D01*
X149065413Y-110716726D01*
X149035330Y-110719358D01*
X149026701Y-110719735D01*
X149016043Y-110719735D01*
X148957852Y-110700828D01*
X148946040Y-110690739D01*
X148610745Y-110355445D01*
X148609104Y-110353804D01*
X148585369Y-110334168D01*
X148579930Y-110331556D01*
X148579928Y-110331555D01*
X148502184Y-110294223D01*
X148466640Y-110277155D01*
X148336396Y-110257573D01*
X148206152Y-110277155D01*
X148170608Y-110294223D01*
X148092865Y-110331555D01*
X148087423Y-110334168D01*
X148082777Y-110338011D01*
X148082773Y-110338014D01*
X148082053Y-110338610D01*
X148063688Y-110353803D01*
X147653804Y-110763688D01*
X147634168Y-110787423D01*
X147631556Y-110792862D01*
X147631555Y-110792864D01*
X147616065Y-110825123D01*
X147577155Y-110906152D01*
X147557573Y-111036396D01*
X147577155Y-111166640D01*
X147580359Y-111173312D01*
X147607238Y-111229288D01*
X147615383Y-111289929D01*
X147587998Y-111342146D01*
X147258914Y-111671230D01*
X147204397Y-111699007D01*
X147142586Y-111688719D01*
X147058159Y-111644018D01*
X147058155Y-111644017D01*
X147052881Y-111641224D01*
X146943990Y-111613872D01*
X146894231Y-111601373D01*
X146894228Y-111601373D01*
X146888441Y-111599919D01*
X146802841Y-111599471D01*
X146724861Y-111599062D01*
X146724859Y-111599062D01*
X146718895Y-111599031D01*
X146713099Y-111600423D01*
X146713095Y-111600423D01*
X146629701Y-111620445D01*
X146554032Y-111638612D01*
X146494953Y-111669105D01*
X146408675Y-111713636D01*
X146408673Y-111713638D01*
X146403369Y-111716375D01*
X146275604Y-111827831D01*
X146272173Y-111832713D01*
X146272172Y-111832714D01*
X146201527Y-111933232D01*
X146178113Y-111966547D01*
X146163042Y-112005201D01*
X146122085Y-112110251D01*
X146116524Y-112124513D01*
X146115745Y-112130428D01*
X146115745Y-112130429D01*
X146113857Y-112144768D01*
X146094394Y-112292611D01*
X146095049Y-112298544D01*
X146095049Y-112298548D01*
X146109568Y-112430057D01*
X146112999Y-112461135D01*
X146171266Y-112620356D01*
X146174591Y-112625305D01*
X146174592Y-112625306D01*
X146187689Y-112644796D01*
X146265830Y-112761083D01*
X146326412Y-112816208D01*
X146368490Y-112854496D01*
X146391233Y-112875191D01*
X146396482Y-112878041D01*
X146400451Y-112880196D01*
X146540235Y-112956092D01*
X146575189Y-112965262D01*
X146698464Y-112997603D01*
X146698468Y-112997604D01*
X146704233Y-112999116D01*
X146710194Y-112999210D01*
X146710197Y-112999210D01*
X146788996Y-113000447D01*
X146873760Y-113001779D01*
X146879575Y-113000447D01*
X146879577Y-113000447D01*
X147033206Y-112965262D01*
X147033209Y-112965261D01*
X147039029Y-112963928D01*
X147054610Y-112956092D01*
X147145487Y-112910385D01*
X147190498Y-112887747D01*
X147195035Y-112883872D01*
X147195038Y-112883870D01*
X147314888Y-112781508D01*
X147314891Y-112781505D01*
X147319423Y-112777634D01*
X147331316Y-112761083D01*
X147414877Y-112644796D01*
X147414878Y-112644794D01*
X147418361Y-112639947D01*
X147422840Y-112628807D01*
X147479377Y-112488167D01*
X147479378Y-112488165D01*
X147481601Y-112482634D01*
X147484890Y-112459528D01*
X147495770Y-112383073D01*
X147523778Y-112327018D01*
X148048324Y-111802472D01*
X148102841Y-111774695D01*
X148161183Y-111783232D01*
X148223830Y-111813315D01*
X148354074Y-111832897D01*
X148484318Y-111813315D01*
X148564744Y-111774695D01*
X148597608Y-111758914D01*
X148597609Y-111758913D01*
X148603047Y-111756302D01*
X148607693Y-111752459D01*
X148607697Y-111752456D01*
X148624983Y-111738155D01*
X148626782Y-111736667D01*
X148881557Y-111481891D01*
X148936074Y-111454114D01*
X148996506Y-111463685D01*
X149021565Y-111481891D01*
X149377773Y-111838099D01*
X149405550Y-111892616D01*
X149395979Y-111953048D01*
X149352714Y-111996313D01*
X149327083Y-112005201D01*
X149286786Y-112013216D01*
X149286784Y-112013217D01*
X149277225Y-112015118D01*
X149227645Y-112048246D01*
X148896072Y-112379819D01*
X148841555Y-112407596D01*
X148826068Y-112408815D01*
X148684211Y-112408815D01*
X148675583Y-112408438D01*
X148672261Y-112408147D01*
X148636878Y-112405052D01*
X148628515Y-112407293D01*
X148628512Y-112407293D01*
X148599341Y-112415109D01*
X148590914Y-112416978D01*
X148552640Y-112423727D01*
X148545137Y-112428058D01*
X148539646Y-112430057D01*
X148534366Y-112432519D01*
X148526001Y-112434761D01*
X148497689Y-112454586D01*
X148494174Y-112457047D01*
X148486893Y-112461686D01*
X148453230Y-112481121D01*
X148447663Y-112487756D01*
X148428254Y-112510886D01*
X148422420Y-112517254D01*
X148062967Y-112876707D01*
X148008450Y-112904484D01*
X147980045Y-112904856D01*
X147900000Y-112894318D01*
X147743238Y-112914956D01*
X147597159Y-112975464D01*
X147471718Y-113071718D01*
X147375464Y-113197159D01*
X147366106Y-113219751D01*
X147318416Y-113334886D01*
X147314956Y-113343238D01*
X147294318Y-113500000D01*
X147314956Y-113656762D01*
X147317440Y-113662759D01*
X147320676Y-113670571D01*
X147375464Y-113802841D01*
X147471718Y-113928282D01*
X147597159Y-114024536D01*
X147743238Y-114085044D01*
X147900000Y-114105682D01*
X148056762Y-114085044D01*
X148202841Y-114024536D01*
X148328282Y-113928282D01*
X148424536Y-113802841D01*
X148479324Y-113670571D01*
X148482560Y-113662759D01*
X148485044Y-113656762D01*
X148505682Y-113500000D01*
X148495144Y-113419957D01*
X148506294Y-113359798D01*
X148523290Y-113337037D01*
X148622371Y-113237955D01*
X148676885Y-113210180D01*
X148737317Y-113219751D01*
X148762376Y-113237957D01*
X148944803Y-113420384D01*
X148948840Y-113423081D01*
X148948843Y-113423084D01*
X148982710Y-113445713D01*
X148994382Y-113453512D01*
X149003945Y-113455414D01*
X149044102Y-113463401D01*
X149072614Y-113469072D01*
X149082177Y-113467170D01*
X149141284Y-113455414D01*
X149141286Y-113455413D01*
X149150845Y-113453512D01*
X149200425Y-113420384D01*
X149250097Y-113370712D01*
X149304614Y-113342935D01*
X149365046Y-113352506D01*
X149390105Y-113370712D01*
X149461521Y-113442128D01*
X149489298Y-113496645D01*
X149479727Y-113557077D01*
X149461521Y-113582136D01*
X149411849Y-113631808D01*
X149378721Y-113681388D01*
X149376820Y-113690947D01*
X149376819Y-113690949D01*
X149371049Y-113719960D01*
X149363161Y-113759619D01*
X149378721Y-113837851D01*
X149384138Y-113845958D01*
X149409149Y-113883390D01*
X149409152Y-113883393D01*
X149411849Y-113887430D01*
X149828686Y-114304267D01*
X149832723Y-114306964D01*
X149832726Y-114306967D01*
X149853107Y-114320585D01*
X149878265Y-114337395D01*
X149956497Y-114352955D01*
X149966060Y-114351053D01*
X150025167Y-114339297D01*
X150025169Y-114339296D01*
X150034728Y-114337395D01*
X150084308Y-114304267D01*
X150783987Y-113604588D01*
X150817115Y-113555008D01*
X150824332Y-113518726D01*
X150832675Y-113476777D01*
X150835805Y-113477400D01*
X150849680Y-113434695D01*
X150899180Y-113398731D01*
X150959141Y-113398731D01*
X150960316Y-113399554D01*
X150967004Y-113401346D01*
X150971616Y-113403163D01*
X150973969Y-113404260D01*
X150979451Y-113406255D01*
X150986955Y-113410588D01*
X151011108Y-113414847D01*
X151025222Y-113417336D01*
X151033651Y-113419205D01*
X151057146Y-113425500D01*
X151071194Y-113429264D01*
X151109909Y-113425877D01*
X151118538Y-113425500D01*
X151949471Y-113425500D01*
X152007662Y-113444407D01*
X152019475Y-113454496D01*
X152232850Y-113667871D01*
X152236887Y-113670568D01*
X152236890Y-113670571D01*
X152249513Y-113679005D01*
X152282429Y-113700999D01*
X152360661Y-113716559D01*
X152370224Y-113714657D01*
X152429331Y-113702901D01*
X152429333Y-113702900D01*
X152438892Y-113700999D01*
X152488472Y-113667871D01*
X152891461Y-113264882D01*
X152945978Y-113237105D01*
X153006410Y-113246676D01*
X153049675Y-113289941D01*
X153060465Y-113334886D01*
X153060465Y-113477718D01*
X153041558Y-113535909D01*
X153031469Y-113547722D01*
X152699896Y-113879295D01*
X152666768Y-113928875D01*
X152664867Y-113938434D01*
X152664866Y-113938436D01*
X152653901Y-113993566D01*
X152651208Y-114007106D01*
X152653110Y-114016669D01*
X152655169Y-114027019D01*
X152666768Y-114085338D01*
X152672185Y-114093445D01*
X152697196Y-114130877D01*
X152697199Y-114130880D01*
X152699896Y-114134917D01*
X153116733Y-114551754D01*
X153120770Y-114554451D01*
X153120773Y-114554454D01*
X153141208Y-114568108D01*
X153166312Y-114584882D01*
X153244544Y-114600442D01*
X153254107Y-114598540D01*
X153313214Y-114586784D01*
X153313216Y-114586783D01*
X153322775Y-114584882D01*
X153372355Y-114551754D01*
X153457122Y-114466987D01*
X153511639Y-114439210D01*
X153572071Y-114448781D01*
X153597130Y-114466987D01*
X153987998Y-114857855D01*
X154015775Y-114912372D01*
X154007238Y-114970712D01*
X153977155Y-115033360D01*
X153957573Y-115163604D01*
X153977155Y-115293848D01*
X153980359Y-115300520D01*
X154031501Y-115407022D01*
X154034168Y-115412577D01*
X154038011Y-115417223D01*
X154038014Y-115417227D01*
X154039798Y-115419383D01*
X154053803Y-115436312D01*
X154463688Y-115846196D01*
X154487423Y-115865832D01*
X154492862Y-115868444D01*
X154492864Y-115868445D01*
X154561862Y-115901577D01*
X154606152Y-115922845D01*
X154736396Y-115942427D01*
X154866640Y-115922845D01*
X154935727Y-115889670D01*
X154996366Y-115881525D01*
X155048584Y-115908910D01*
X155387547Y-116247873D01*
X155415324Y-116302390D01*
X155415696Y-116330799D01*
X155414094Y-116342968D01*
X155394394Y-116492611D01*
X155395049Y-116498544D01*
X155395049Y-116498548D01*
X155408591Y-116621210D01*
X155412999Y-116661135D01*
X155471266Y-116820356D01*
X155474591Y-116825305D01*
X155474592Y-116825306D01*
X155487689Y-116844796D01*
X155565830Y-116961083D01*
X155691233Y-117075191D01*
X155840235Y-117156092D01*
X155875189Y-117165262D01*
X155998464Y-117197603D01*
X155998468Y-117197604D01*
X156004233Y-117199116D01*
X156010194Y-117199210D01*
X156010197Y-117199210D01*
X156088996Y-117200447D01*
X156173760Y-117201779D01*
X156179575Y-117200447D01*
X156179577Y-117200447D01*
X156333206Y-117165262D01*
X156333209Y-117165261D01*
X156339029Y-117163928D01*
X156354610Y-117156092D01*
X156422789Y-117121801D01*
X156490498Y-117087747D01*
X156495035Y-117083872D01*
X156495038Y-117083870D01*
X156614888Y-116981508D01*
X156614891Y-116981505D01*
X156619423Y-116977634D01*
X156718361Y-116839947D01*
X156728221Y-116815421D01*
X156779377Y-116688167D01*
X156779378Y-116688165D01*
X156781601Y-116682634D01*
X156782722Y-116674758D01*
X156805034Y-116517985D01*
X156805034Y-116517979D01*
X156805490Y-116514778D01*
X156805645Y-116500000D01*
X156786507Y-116341849D01*
X156785993Y-116337602D01*
X156785992Y-116337599D01*
X156785276Y-116331680D01*
X156760339Y-116265686D01*
X158086863Y-116265686D01*
X158106445Y-116395930D01*
X158163457Y-116514659D01*
X158167300Y-116519305D01*
X158167303Y-116519309D01*
X158175375Y-116529066D01*
X158183092Y-116538394D01*
X158681366Y-117036666D01*
X158705101Y-117056303D01*
X158823830Y-117113315D01*
X158954074Y-117132897D01*
X159027872Y-117121801D01*
X159088225Y-117131846D01*
X159112594Y-117149697D01*
X159597919Y-117635022D01*
X159625696Y-117689539D01*
X159616125Y-117749971D01*
X159597923Y-117775024D01*
X159476307Y-117896641D01*
X159474631Y-117898725D01*
X159474626Y-117898731D01*
X159456508Y-117921265D01*
X159439659Y-117942220D01*
X159437089Y-117947872D01*
X159437088Y-117947874D01*
X159433684Y-117955361D01*
X159383285Y-118066211D01*
X159382285Y-118073193D01*
X159382284Y-118073197D01*
X159364976Y-118194057D01*
X159363976Y-118201040D01*
X159364976Y-118208023D01*
X159382284Y-118328883D01*
X159382285Y-118328887D01*
X159383285Y-118335869D01*
X159439659Y-118459860D01*
X159476306Y-118505439D01*
X160494561Y-119523693D01*
X160540140Y-119560341D01*
X160545792Y-119562911D01*
X160545794Y-119562912D01*
X160547820Y-119563833D01*
X160664131Y-119616715D01*
X160671113Y-119617715D01*
X160671117Y-119617716D01*
X160791977Y-119635024D01*
X160798960Y-119636024D01*
X160805943Y-119635024D01*
X160926803Y-119617716D01*
X160926807Y-119617715D01*
X160933789Y-119616715D01*
X161057780Y-119560341D01*
X161103359Y-119523694D01*
X161555927Y-119071125D01*
X161557603Y-119069041D01*
X161557608Y-119069035D01*
X161588683Y-119030386D01*
X161592575Y-119025546D01*
X161648949Y-118901555D01*
X161649949Y-118894573D01*
X161649950Y-118894569D01*
X161667258Y-118773709D01*
X161668258Y-118766726D01*
X161657289Y-118690133D01*
X161649950Y-118638883D01*
X161649949Y-118638879D01*
X161648949Y-118631897D01*
X161592575Y-118507906D01*
X161555928Y-118462327D01*
X161048962Y-117955361D01*
X169295316Y-117955361D01*
X169307443Y-118207820D01*
X169356752Y-118455713D01*
X169357992Y-118459168D01*
X169357993Y-118459170D01*
X169374605Y-118505439D01*
X169442160Y-118693595D01*
X169561792Y-118916240D01*
X169563992Y-118919186D01*
X169675890Y-119069035D01*
X169713018Y-119118756D01*
X169892517Y-119296696D01*
X169895476Y-119298866D01*
X169895480Y-119298869D01*
X169937646Y-119329786D01*
X170096346Y-119446149D01*
X170320026Y-119563833D01*
X170323497Y-119565045D01*
X170323499Y-119565046D01*
X170401446Y-119592266D01*
X170558644Y-119647162D01*
X170806958Y-119694306D01*
X170944408Y-119699706D01*
X171055843Y-119704085D01*
X171055846Y-119704085D01*
X171059513Y-119704229D01*
X171310760Y-119676713D01*
X171432971Y-119644538D01*
X171551635Y-119613297D01*
X171551640Y-119613295D01*
X171555181Y-119612363D01*
X171787405Y-119512591D01*
X171790532Y-119510656D01*
X171999205Y-119381526D01*
X171999210Y-119381522D01*
X172002331Y-119379591D01*
X172195238Y-119216283D01*
X172346727Y-119043544D01*
X172359462Y-119029023D01*
X172359466Y-119029018D01*
X172361888Y-119026256D01*
X172365982Y-119019892D01*
X172434735Y-118913003D01*
X172498619Y-118813684D01*
X172516627Y-118773709D01*
X172600918Y-118586588D01*
X172602428Y-118583236D01*
X172617066Y-118531336D01*
X172670035Y-118343517D01*
X172671034Y-118339976D01*
X172702931Y-118089247D01*
X172703534Y-118066211D01*
X172705203Y-118002492D01*
X172705203Y-118002487D01*
X172705268Y-118000000D01*
X172705084Y-117997527D01*
X172705084Y-117997517D01*
X172701951Y-117955361D01*
X177065316Y-117955361D01*
X177077443Y-118207820D01*
X177126752Y-118455713D01*
X177127992Y-118459168D01*
X177127993Y-118459170D01*
X177144605Y-118505439D01*
X177212160Y-118693595D01*
X177331792Y-118916240D01*
X177333992Y-118919186D01*
X177445890Y-119069035D01*
X177483018Y-119118756D01*
X177662517Y-119296696D01*
X177665476Y-119298866D01*
X177665480Y-119298869D01*
X177707646Y-119329786D01*
X177866346Y-119446149D01*
X178090026Y-119563833D01*
X178093497Y-119565045D01*
X178093499Y-119565046D01*
X178171446Y-119592266D01*
X178328644Y-119647162D01*
X178576958Y-119694306D01*
X178714408Y-119699706D01*
X178825843Y-119704085D01*
X178825846Y-119704085D01*
X178829513Y-119704229D01*
X179080760Y-119676713D01*
X179202971Y-119644538D01*
X179321635Y-119613297D01*
X179321640Y-119613295D01*
X179325181Y-119612363D01*
X179557405Y-119512591D01*
X179560532Y-119510656D01*
X179769205Y-119381526D01*
X179769210Y-119381522D01*
X179772331Y-119379591D01*
X179965238Y-119216283D01*
X180116727Y-119043544D01*
X180129462Y-119029023D01*
X180129466Y-119029018D01*
X180131888Y-119026256D01*
X180135982Y-119019892D01*
X180204735Y-118913003D01*
X180268619Y-118813684D01*
X180286627Y-118773709D01*
X180370918Y-118586588D01*
X180372428Y-118583236D01*
X180387066Y-118531336D01*
X180440035Y-118343517D01*
X180441034Y-118339976D01*
X180472931Y-118089247D01*
X180473534Y-118066211D01*
X180475203Y-118002492D01*
X180475203Y-118002487D01*
X180475268Y-118000000D01*
X180475084Y-117997527D01*
X180475084Y-117997517D01*
X180456809Y-117751599D01*
X180456808Y-117751593D01*
X180456537Y-117747945D01*
X180400756Y-117501428D01*
X180382904Y-117455521D01*
X180310480Y-117269282D01*
X180310478Y-117269277D01*
X180309150Y-117265863D01*
X180183731Y-117046426D01*
X180027255Y-116847938D01*
X180024582Y-116845424D01*
X180024577Y-116845418D01*
X179907517Y-116735299D01*
X179843160Y-116674758D01*
X179635489Y-116530691D01*
X179603221Y-116514778D01*
X179412107Y-116420531D01*
X179412103Y-116420529D01*
X179408805Y-116418903D01*
X179405303Y-116417782D01*
X179405298Y-116417780D01*
X179206278Y-116354074D01*
X179168087Y-116341849D01*
X179164472Y-116341260D01*
X179164471Y-116341260D01*
X178922241Y-116301810D01*
X178922240Y-116301810D01*
X178918624Y-116301221D01*
X178914961Y-116301173D01*
X178914960Y-116301173D01*
X178792260Y-116299567D01*
X178665896Y-116297913D01*
X178662268Y-116298407D01*
X178662264Y-116298407D01*
X178502698Y-116320123D01*
X178415455Y-116331996D01*
X178172803Y-116402723D01*
X177943270Y-116508539D01*
X177731899Y-116647120D01*
X177729166Y-116649559D01*
X177729165Y-116649560D01*
X177621341Y-116745796D01*
X177543333Y-116815421D01*
X177540986Y-116818243D01*
X177540985Y-116818244D01*
X177508166Y-116857705D01*
X177381715Y-117009746D01*
X177250595Y-117225825D01*
X177152854Y-117458911D01*
X177151949Y-117462473D01*
X177151949Y-117462474D01*
X177101843Y-117659768D01*
X177090639Y-117703883D01*
X177065316Y-117955361D01*
X172701951Y-117955361D01*
X172686809Y-117751599D01*
X172686808Y-117751593D01*
X172686537Y-117747945D01*
X172630756Y-117501428D01*
X172612904Y-117455521D01*
X172540480Y-117269282D01*
X172540478Y-117269277D01*
X172539150Y-117265863D01*
X172413731Y-117046426D01*
X172257255Y-116847938D01*
X172254582Y-116845424D01*
X172254577Y-116845418D01*
X172137517Y-116735299D01*
X172073160Y-116674758D01*
X171865489Y-116530691D01*
X171833221Y-116514778D01*
X171642107Y-116420531D01*
X171642103Y-116420529D01*
X171638805Y-116418903D01*
X171635303Y-116417782D01*
X171635298Y-116417780D01*
X171436278Y-116354074D01*
X171398087Y-116341849D01*
X171394472Y-116341260D01*
X171394471Y-116341260D01*
X171152241Y-116301810D01*
X171152240Y-116301810D01*
X171148624Y-116301221D01*
X171144961Y-116301173D01*
X171144960Y-116301173D01*
X171022260Y-116299567D01*
X170895896Y-116297913D01*
X170892268Y-116298407D01*
X170892264Y-116298407D01*
X170732698Y-116320123D01*
X170645455Y-116331996D01*
X170402803Y-116402723D01*
X170173270Y-116508539D01*
X169961899Y-116647120D01*
X169959166Y-116649559D01*
X169959165Y-116649560D01*
X169851341Y-116745796D01*
X169773333Y-116815421D01*
X169770986Y-116818243D01*
X169770985Y-116818244D01*
X169738166Y-116857705D01*
X169611715Y-117009746D01*
X169480595Y-117225825D01*
X169382854Y-117458911D01*
X169381949Y-117462473D01*
X169381949Y-117462474D01*
X169331843Y-117659768D01*
X169320639Y-117703883D01*
X169295316Y-117955361D01*
X161048962Y-117955361D01*
X160988029Y-117894428D01*
X160960133Y-117839142D01*
X160953133Y-117792575D01*
X160951566Y-117782155D01*
X160948438Y-117775642D01*
X160947142Y-117768544D01*
X160919910Y-117716119D01*
X160918520Y-117713338D01*
X160896129Y-117666709D01*
X160892926Y-117660038D01*
X160888822Y-117655598D01*
X160887297Y-117653335D01*
X160884696Y-117648328D01*
X160880392Y-117643289D01*
X160842760Y-117605657D01*
X160840066Y-117602854D01*
X160805993Y-117565993D01*
X160805990Y-117565991D01*
X160800971Y-117560561D01*
X160794907Y-117557039D01*
X160787582Y-117550479D01*
X159749697Y-116512594D01*
X159721920Y-116458077D01*
X159721801Y-116427874D01*
X159732897Y-116354074D01*
X159713315Y-116223830D01*
X159656303Y-116105101D01*
X159652460Y-116100455D01*
X159652457Y-116100451D01*
X159638156Y-116083165D01*
X159636668Y-116081366D01*
X159138394Y-115583094D01*
X159114659Y-115563457D01*
X159109220Y-115560845D01*
X159002602Y-115509649D01*
X159002603Y-115509649D01*
X158995930Y-115506445D01*
X158865686Y-115486863D01*
X158735442Y-115506445D01*
X158728769Y-115509649D01*
X158728770Y-115509649D01*
X158622152Y-115560845D01*
X158622150Y-115560846D01*
X158616713Y-115563457D01*
X158612067Y-115567300D01*
X158612063Y-115567303D01*
X158598937Y-115578163D01*
X158592978Y-115583092D01*
X158183094Y-115992978D01*
X158163457Y-116016713D01*
X158160847Y-116022149D01*
X158160846Y-116022150D01*
X158153107Y-116038267D01*
X158106445Y-116135442D01*
X158086863Y-116265686D01*
X156760339Y-116265686D01*
X156725345Y-116173077D01*
X156694894Y-116128770D01*
X156632692Y-116038267D01*
X156629312Y-116033349D01*
X156502721Y-115920560D01*
X156488702Y-115913137D01*
X156444380Y-115889670D01*
X156352881Y-115841224D01*
X156256068Y-115816906D01*
X156194231Y-115801373D01*
X156194228Y-115801373D01*
X156188441Y-115799919D01*
X156102841Y-115799471D01*
X156024861Y-115799062D01*
X156024859Y-115799062D01*
X156018895Y-115799031D01*
X156013098Y-115800423D01*
X156013087Y-115800424D01*
X155944156Y-115816974D01*
X155883159Y-115812174D01*
X155851040Y-115790714D01*
X155505564Y-115445238D01*
X155477787Y-115390721D01*
X155486324Y-115332380D01*
X155510111Y-115282842D01*
X155513315Y-115276170D01*
X155532897Y-115145926D01*
X155513315Y-115015682D01*
X155456302Y-114896953D01*
X155452459Y-114892307D01*
X155452456Y-114892303D01*
X155438155Y-114875017D01*
X155436667Y-114873218D01*
X155026782Y-114463334D01*
X155009191Y-114448781D01*
X155007696Y-114447544D01*
X155007695Y-114447544D01*
X155003047Y-114443698D01*
X154997608Y-114441086D01*
X154997606Y-114441085D01*
X154917069Y-114402412D01*
X154884318Y-114386685D01*
X154754074Y-114367103D01*
X154623830Y-114386685D01*
X154617157Y-114389889D01*
X154617158Y-114389889D01*
X154561182Y-114416768D01*
X154500541Y-114424913D01*
X154448324Y-114397527D01*
X154057457Y-114006659D01*
X154029680Y-113952143D01*
X154039251Y-113891711D01*
X154057457Y-113866652D01*
X154072034Y-113852075D01*
X154105162Y-113802495D01*
X154120722Y-113724264D01*
X154105162Y-113646032D01*
X154095658Y-113631808D01*
X154074734Y-113600493D01*
X154074731Y-113600490D01*
X154072034Y-113596453D01*
X153740461Y-113264880D01*
X153712684Y-113210363D01*
X153711465Y-113194876D01*
X153711465Y-111625802D01*
X153730372Y-111567611D01*
X153779872Y-111531647D01*
X153841058Y-111531647D01*
X153880469Y-111555798D01*
X154094282Y-111769611D01*
X154098319Y-111772308D01*
X154098322Y-111772311D01*
X154114667Y-111783232D01*
X154143861Y-111802739D01*
X154153424Y-111804641D01*
X154154201Y-111804963D01*
X154200727Y-111844699D01*
X154207780Y-111858542D01*
X154208101Y-111859317D01*
X154210003Y-111868880D01*
X154243131Y-111918459D01*
X154246565Y-111921893D01*
X154249368Y-111925309D01*
X154271461Y-111979482D01*
X154274123Y-112009905D01*
X154274500Y-112018534D01*
X154274500Y-112581466D01*
X154274123Y-112590095D01*
X154270736Y-112628807D01*
X154272978Y-112637174D01*
X154280796Y-112666349D01*
X154282666Y-112674783D01*
X154289412Y-112713045D01*
X154293742Y-112720544D01*
X154295738Y-112726029D01*
X154298204Y-112731316D01*
X154300446Y-112739684D01*
X154311586Y-112755593D01*
X154322732Y-112771511D01*
X154327371Y-112778792D01*
X154346806Y-112812455D01*
X154364166Y-112827022D01*
X154376571Y-112837431D01*
X154382939Y-112843265D01*
X156846862Y-115307189D01*
X156852685Y-115313544D01*
X156877665Y-115343314D01*
X156885162Y-115347643D01*
X156885164Y-115347644D01*
X156911326Y-115362748D01*
X156918604Y-115367384D01*
X156950436Y-115389673D01*
X156958802Y-115391915D01*
X156964093Y-115394382D01*
X156969570Y-115396375D01*
X156977075Y-115400708D01*
X157002722Y-115405230D01*
X157015351Y-115407457D01*
X157023784Y-115409327D01*
X157039473Y-115413531D01*
X157083852Y-115439153D01*
X157461606Y-115816906D01*
X157485341Y-115836543D01*
X157490777Y-115839153D01*
X157490778Y-115839154D01*
X157527350Y-115856715D01*
X157604070Y-115893555D01*
X157734314Y-115913137D01*
X157864558Y-115893555D01*
X157930301Y-115861986D01*
X157977848Y-115839155D01*
X157977850Y-115839154D01*
X157983287Y-115836543D01*
X157987935Y-115832698D01*
X157987937Y-115832697D01*
X158005223Y-115818396D01*
X158007022Y-115816908D01*
X158416906Y-115407022D01*
X158436543Y-115383287D01*
X158445369Y-115364908D01*
X158473084Y-115307189D01*
X158493555Y-115264558D01*
X158513137Y-115134314D01*
X158493555Y-115004070D01*
X158436543Y-114885341D01*
X158432700Y-114880695D01*
X158432697Y-114880691D01*
X158418396Y-114863405D01*
X158416908Y-114861606D01*
X157918634Y-114363334D01*
X157894899Y-114343697D01*
X157889460Y-114341085D01*
X157811946Y-114303864D01*
X157767674Y-114261631D01*
X157756681Y-114201441D01*
X157783166Y-114146285D01*
X157837013Y-114117231D01*
X157854800Y-114115620D01*
X158319311Y-114115620D01*
X158377502Y-114134527D01*
X158389314Y-114144616D01*
X158667829Y-114423129D01*
X158761606Y-114516906D01*
X158785341Y-114536543D01*
X158790777Y-114539153D01*
X158790778Y-114539154D01*
X158809869Y-114548321D01*
X158904070Y-114593555D01*
X159034314Y-114613137D01*
X159164558Y-114593555D01*
X159258759Y-114548321D01*
X159277848Y-114539155D01*
X159277850Y-114539154D01*
X159283287Y-114536543D01*
X159287935Y-114532698D01*
X159287937Y-114532697D01*
X159305223Y-114518396D01*
X159307022Y-114516908D01*
X159716906Y-114107022D01*
X159736543Y-114083287D01*
X159744178Y-114067388D01*
X159790351Y-113971230D01*
X159793555Y-113964558D01*
X159813137Y-113834314D01*
X159793555Y-113704070D01*
X159757205Y-113628370D01*
X159739155Y-113590780D01*
X159739154Y-113590778D01*
X159736543Y-113585341D01*
X159732700Y-113580695D01*
X159732697Y-113580691D01*
X159718396Y-113563405D01*
X159716908Y-113561606D01*
X159218634Y-113063334D01*
X159194899Y-113043697D01*
X159189460Y-113041085D01*
X159132521Y-113013744D01*
X159088249Y-112971511D01*
X159077256Y-112911322D01*
X159103741Y-112856166D01*
X159157588Y-112827111D01*
X159175375Y-112825500D01*
X159424166Y-112825500D01*
X159482357Y-112844407D01*
X159494170Y-112854496D01*
X160276707Y-113637033D01*
X160304484Y-113691550D01*
X160304856Y-113719955D01*
X160294318Y-113800000D01*
X160295165Y-113806434D01*
X160297684Y-113825569D01*
X160314956Y-113956762D01*
X160359351Y-114063939D01*
X160359479Y-114064249D01*
X160364280Y-114125246D01*
X160332311Y-114177415D01*
X160275783Y-114200830D01*
X160253296Y-114200035D01*
X160173002Y-114187963D01*
X160165686Y-114186863D01*
X160035442Y-114206445D01*
X160005995Y-114220585D01*
X159922152Y-114260845D01*
X159922150Y-114260846D01*
X159916713Y-114263457D01*
X159912067Y-114267300D01*
X159912063Y-114267303D01*
X159898937Y-114278163D01*
X159892978Y-114283092D01*
X159891330Y-114284740D01*
X159789386Y-114386685D01*
X159483094Y-114692978D01*
X159463457Y-114716713D01*
X159406445Y-114835442D01*
X159386863Y-114965686D01*
X159406445Y-115095930D01*
X159463457Y-115214659D01*
X159467300Y-115219305D01*
X159467303Y-115219309D01*
X159478163Y-115232435D01*
X159483092Y-115238394D01*
X159981366Y-115736666D01*
X160005101Y-115756303D01*
X160123830Y-115813315D01*
X160254074Y-115832897D01*
X160327872Y-115821801D01*
X160388225Y-115831846D01*
X160412594Y-115849697D01*
X161155078Y-116592181D01*
X161175196Y-116621210D01*
X161204852Y-116686438D01*
X161204858Y-116686447D01*
X161207425Y-116692094D01*
X161244072Y-116737673D01*
X162262327Y-117755927D01*
X162307906Y-117792575D01*
X162313558Y-117795145D01*
X162313560Y-117795146D01*
X162369441Y-117820553D01*
X162431897Y-117848949D01*
X162438879Y-117849949D01*
X162438883Y-117849950D01*
X162559743Y-117867258D01*
X162566726Y-117868258D01*
X162573709Y-117867258D01*
X162694569Y-117849950D01*
X162694573Y-117849949D01*
X162701555Y-117848949D01*
X162825546Y-117792575D01*
X162860932Y-117764124D01*
X162869037Y-117757607D01*
X162869043Y-117757602D01*
X162871125Y-117755928D01*
X163323693Y-117303359D01*
X163325369Y-117301275D01*
X163325374Y-117301269D01*
X163356449Y-117262620D01*
X163360341Y-117257780D01*
X163416715Y-117133789D01*
X163417715Y-117126807D01*
X163417716Y-117126803D01*
X163435024Y-117005943D01*
X163436024Y-116998960D01*
X163429890Y-116956130D01*
X163417716Y-116871117D01*
X163417715Y-116871113D01*
X163416715Y-116864131D01*
X163360341Y-116740140D01*
X163323694Y-116694561D01*
X162305439Y-115676307D01*
X162259860Y-115639659D01*
X162254208Y-115637089D01*
X162254206Y-115637088D01*
X162198325Y-115611681D01*
X162135869Y-115583285D01*
X162128887Y-115582285D01*
X162128883Y-115582284D01*
X162008023Y-115564976D01*
X162001040Y-115563976D01*
X161994057Y-115564976D01*
X161873197Y-115582284D01*
X161873193Y-115582285D01*
X161866211Y-115583285D01*
X161742220Y-115639659D01*
X161696641Y-115676306D01*
X161675029Y-115697918D01*
X161620512Y-115725695D01*
X161560080Y-115716124D01*
X161535021Y-115697918D01*
X161049697Y-115212594D01*
X161021920Y-115158077D01*
X161021801Y-115127874D01*
X161032897Y-115054074D01*
X161013315Y-114923830D01*
X160956303Y-114805101D01*
X160952460Y-114800455D01*
X160952457Y-114800451D01*
X160938156Y-114783165D01*
X160936668Y-114781366D01*
X160715808Y-114560507D01*
X160688030Y-114505990D01*
X160697601Y-114445558D01*
X160740866Y-114402293D01*
X160798733Y-114392350D01*
X160889556Y-114404307D01*
X160900000Y-114405682D01*
X160910445Y-114404307D01*
X160926707Y-114402166D01*
X161056762Y-114385044D01*
X161202841Y-114324536D01*
X161328282Y-114228282D01*
X161369468Y-114174607D01*
X161419892Y-114139953D01*
X161481056Y-114141555D01*
X161508276Y-114156334D01*
X161548062Y-114186863D01*
X161597159Y-114224536D01*
X161743238Y-114285044D01*
X161900000Y-114305682D01*
X162056762Y-114285044D01*
X162202841Y-114224536D01*
X162328282Y-114128282D01*
X162424536Y-114002841D01*
X162485044Y-113856762D01*
X162505682Y-113700000D01*
X162485044Y-113543238D01*
X162424536Y-113397159D01*
X162328282Y-113271718D01*
X162202841Y-113175464D01*
X162056762Y-113114956D01*
X161925569Y-113097684D01*
X161906434Y-113095165D01*
X161900000Y-113094318D01*
X161819958Y-113104856D01*
X161759799Y-113093706D01*
X161737033Y-113076707D01*
X161211247Y-112550921D01*
X161183470Y-112496404D01*
X161193041Y-112435972D01*
X161238397Y-112391673D01*
X161306617Y-112358915D01*
X161306619Y-112358914D01*
X161312056Y-112356303D01*
X161316702Y-112352460D01*
X161316706Y-112352457D01*
X161333992Y-112338156D01*
X161335791Y-112336668D01*
X161460466Y-112211993D01*
X161832420Y-111840037D01*
X161834063Y-111838394D01*
X161853700Y-111814659D01*
X161910712Y-111695930D01*
X161930294Y-111565686D01*
X161910712Y-111435442D01*
X161880690Y-111372920D01*
X161856312Y-111322152D01*
X161856311Y-111322150D01*
X161853700Y-111316713D01*
X161849857Y-111312067D01*
X161849854Y-111312063D01*
X161835553Y-111294777D01*
X161834065Y-111292978D01*
X161731438Y-111190351D01*
X161527776Y-110986690D01*
X161425709Y-110884624D01*
X161397931Y-110830107D01*
X161407502Y-110769675D01*
X161450767Y-110726410D01*
X161495712Y-110715620D01*
X161567840Y-110715620D01*
X161626031Y-110734527D01*
X161637843Y-110744616D01*
X161917730Y-111024501D01*
X162010135Y-111116906D01*
X162033870Y-111136543D01*
X162039306Y-111139153D01*
X162039307Y-111139154D01*
X162060414Y-111149289D01*
X162152599Y-111193555D01*
X162282843Y-111213137D01*
X162413087Y-111193555D01*
X162492954Y-111155204D01*
X162526377Y-111139155D01*
X162526379Y-111139154D01*
X162531816Y-111136543D01*
X162536464Y-111132698D01*
X162536466Y-111132697D01*
X162553752Y-111118396D01*
X162555551Y-111116908D01*
X163053823Y-110618634D01*
X163073460Y-110594899D01*
X163085191Y-110570470D01*
X163120127Y-110497713D01*
X163130472Y-110476170D01*
X163150054Y-110345926D01*
X163130472Y-110215682D01*
X163106124Y-110164976D01*
X163097979Y-110104338D01*
X163125364Y-110052120D01*
X163503744Y-109673740D01*
X163535862Y-109652280D01*
X163567547Y-109639155D01*
X163602841Y-109624536D01*
X163728282Y-109528282D01*
X163824536Y-109402841D01*
X163885044Y-109256762D01*
X163887152Y-109240750D01*
X167814625Y-109240750D01*
X167814762Y-109244241D01*
X167814762Y-109244246D01*
X167819230Y-109357970D01*
X167825085Y-109506992D01*
X167825714Y-109510435D01*
X167825714Y-109510437D01*
X167869857Y-109752136D01*
X167872956Y-109769105D01*
X167874064Y-109772426D01*
X167942927Y-109978835D01*
X167957280Y-110021858D01*
X168076377Y-110260208D01*
X168227869Y-110479399D01*
X168408735Y-110675058D01*
X168411445Y-110677265D01*
X168411449Y-110677268D01*
X168608388Y-110837602D01*
X168615364Y-110843281D01*
X168618356Y-110845083D01*
X168618357Y-110845083D01*
X168648876Y-110863457D01*
X168843635Y-110980711D01*
X168927871Y-111016380D01*
X169083257Y-111082177D01*
X169088993Y-111084606D01*
X169346542Y-111152894D01*
X169350015Y-111153305D01*
X169350020Y-111153306D01*
X169558802Y-111178017D01*
X169611143Y-111184212D01*
X169614632Y-111184130D01*
X169614637Y-111184130D01*
X169735800Y-111181275D01*
X169877517Y-111177935D01*
X169884775Y-111176727D01*
X170017524Y-111154631D01*
X170140349Y-111134187D01*
X170143681Y-111133133D01*
X170143686Y-111133132D01*
X170238288Y-111103213D01*
X170394396Y-111053843D01*
X170397554Y-111052327D01*
X170397558Y-111052325D01*
X170631426Y-110940023D01*
X170631427Y-110940022D01*
X170634587Y-110938505D01*
X170856130Y-110790474D01*
X170989109Y-110671368D01*
X171051995Y-110615043D01*
X171051998Y-110615040D01*
X171054606Y-110612704D01*
X171081551Y-110580650D01*
X171146370Y-110503538D01*
X171226054Y-110408743D01*
X171230175Y-110402136D01*
X171347589Y-110213867D01*
X171367052Y-110182659D01*
X171474789Y-109938963D01*
X171476404Y-109933239D01*
X171527480Y-109752136D01*
X171547114Y-109682519D01*
X171582584Y-109418442D01*
X171582684Y-109415260D01*
X171586227Y-109302528D01*
X171586227Y-109302519D01*
X171586306Y-109300000D01*
X171585120Y-109283239D01*
X171574646Y-109135312D01*
X171567488Y-109034217D01*
X171511408Y-108773737D01*
X171507515Y-108763183D01*
X171439718Y-108579415D01*
X171419185Y-108523758D01*
X171366989Y-108427022D01*
X171294322Y-108292345D01*
X171294321Y-108292343D01*
X171292661Y-108289267D01*
X171280476Y-108272769D01*
X171198970Y-108162420D01*
X171134358Y-108074942D01*
X171124670Y-108065100D01*
X170949893Y-107887556D01*
X170947437Y-107885061D01*
X170936127Y-107876429D01*
X170833755Y-107798302D01*
X170735625Y-107723412D01*
X170503150Y-107593219D01*
X170254650Y-107497082D01*
X170251244Y-107496293D01*
X170251239Y-107496291D01*
X170053874Y-107450545D01*
X169995083Y-107436918D01*
X169787648Y-107418952D01*
X169733117Y-107414229D01*
X169733116Y-107414229D01*
X169729629Y-107413927D01*
X169614949Y-107420238D01*
X169467082Y-107428375D01*
X169467076Y-107428376D01*
X169463583Y-107428568D01*
X169202255Y-107480550D01*
X168950858Y-107568834D01*
X168947757Y-107570445D01*
X168947752Y-107570447D01*
X168893656Y-107598548D01*
X168714408Y-107691660D01*
X168711567Y-107693690D01*
X168711564Y-107693692D01*
X168500473Y-107844539D01*
X168500470Y-107844542D01*
X168497623Y-107846576D01*
X168495090Y-107848992D01*
X168495088Y-107848994D01*
X168485116Y-107858507D01*
X168304829Y-108030492D01*
X168302666Y-108033235D01*
X168302663Y-108033239D01*
X168252649Y-108096682D01*
X168139873Y-108239739D01*
X168138117Y-108242761D01*
X168138115Y-108242765D01*
X168026402Y-108435093D01*
X168006045Y-108470140D01*
X167906016Y-108717099D01*
X167905174Y-108720490D01*
X167905173Y-108720492D01*
X167843470Y-108968895D01*
X167841782Y-108975689D01*
X167835754Y-109034527D01*
X167816763Y-109219886D01*
X167814625Y-109240750D01*
X163887152Y-109240750D01*
X163905682Y-109100000D01*
X163903055Y-109080042D01*
X163898391Y-109044617D01*
X163885044Y-108943238D01*
X163824536Y-108797159D01*
X163728282Y-108671718D01*
X163602841Y-108575464D01*
X163470571Y-108520676D01*
X163462759Y-108517440D01*
X163456762Y-108514956D01*
X163300000Y-108494318D01*
X163143238Y-108514956D01*
X163137241Y-108517440D01*
X163129429Y-108520676D01*
X162997159Y-108575464D01*
X162871718Y-108671718D01*
X162775464Y-108797159D01*
X162714956Y-108943238D01*
X162701609Y-109044617D01*
X162696946Y-109080042D01*
X162694318Y-109100000D01*
X162714956Y-109256762D01*
X162717440Y-109262759D01*
X162773149Y-109397253D01*
X162777950Y-109458250D01*
X162751688Y-109505142D01*
X162665037Y-109591793D01*
X162610520Y-109619570D01*
X162552180Y-109611033D01*
X162541989Y-109606139D01*
X162501475Y-109586685D01*
X162371231Y-109567103D01*
X162240987Y-109586685D01*
X162222007Y-109595799D01*
X162127697Y-109641085D01*
X162127695Y-109641086D01*
X162122258Y-109643697D01*
X162117612Y-109647540D01*
X162117608Y-109647543D01*
X162107727Y-109655718D01*
X162098523Y-109663332D01*
X161801212Y-109960645D01*
X161726234Y-110035623D01*
X161671717Y-110063401D01*
X161656230Y-110064620D01*
X161349717Y-110064620D01*
X161291526Y-110045713D01*
X161255562Y-109996213D01*
X161255562Y-109935027D01*
X161279713Y-109895616D01*
X161519611Y-109655718D01*
X161522308Y-109651681D01*
X161522311Y-109651678D01*
X161547322Y-109614246D01*
X161552739Y-109606139D01*
X161554641Y-109596576D01*
X161554963Y-109595799D01*
X161594699Y-109549273D01*
X161608542Y-109542220D01*
X161609317Y-109541899D01*
X161618880Y-109539997D01*
X161643183Y-109523758D01*
X161664419Y-109509569D01*
X161664422Y-109509566D01*
X161668459Y-109506869D01*
X162085296Y-109090032D01*
X162087993Y-109085995D01*
X162087996Y-109085992D01*
X162113007Y-109048560D01*
X162118424Y-109040453D01*
X162120326Y-109030890D01*
X162120647Y-109030115D01*
X162160383Y-108983589D01*
X162174226Y-108976536D01*
X162175003Y-108976214D01*
X162184566Y-108974312D01*
X162193711Y-108968201D01*
X162230105Y-108943884D01*
X162230108Y-108943881D01*
X162234145Y-108941184D01*
X162650982Y-108524347D01*
X162653679Y-108520310D01*
X162653682Y-108520307D01*
X162678693Y-108482875D01*
X162684110Y-108474768D01*
X162699670Y-108396536D01*
X162693019Y-108363098D01*
X162686012Y-108327866D01*
X162686011Y-108327864D01*
X162684110Y-108318305D01*
X162650982Y-108268725D01*
X161491683Y-107109426D01*
X161451110Y-107082316D01*
X161413230Y-107034266D01*
X161410828Y-106973127D01*
X161444821Y-106922254D01*
X161451110Y-106917684D01*
X161487639Y-106893276D01*
X161487638Y-106893276D01*
X161491683Y-106890574D01*
X162567569Y-105814688D01*
X162622086Y-105786911D01*
X162682518Y-105796482D01*
X162697840Y-105806150D01*
X162704725Y-105811433D01*
X162785171Y-105844755D01*
X162818289Y-105858473D01*
X162847155Y-105870430D01*
X163000001Y-105890552D01*
X163152847Y-105870429D01*
X163295277Y-105811432D01*
X163320170Y-105792331D01*
X163384298Y-105743124D01*
X163384301Y-105743122D01*
X163386878Y-105741144D01*
X164233169Y-104894851D01*
X164242910Y-104886309D01*
X164263263Y-104870694D01*
X164263266Y-104870691D01*
X164268447Y-104866716D01*
X164268460Y-104866699D01*
X164268477Y-104866686D01*
X164290793Y-104837603D01*
X164291844Y-104836259D01*
X164364283Y-104745433D01*
X164366695Y-104740425D01*
X164428908Y-104611247D01*
X164428909Y-104611244D01*
X164431320Y-104606238D01*
X164433629Y-104596123D01*
X164438437Y-104575054D01*
X164440525Y-104565904D01*
X164471905Y-104513379D01*
X164528166Y-104489330D01*
X164587818Y-104502943D01*
X164600679Y-104512093D01*
X164686006Y-104583691D01*
X164698248Y-104593963D01*
X164701988Y-104596122D01*
X164701989Y-104596123D01*
X164724670Y-104609218D01*
X164860467Y-104687620D01*
X164864532Y-104689100D01*
X164864533Y-104689100D01*
X165032417Y-104750206D01*
X165032420Y-104750207D01*
X165036484Y-104751686D01*
X165220952Y-104784213D01*
X165408266Y-104784213D01*
X165592734Y-104751686D01*
X165596798Y-104750207D01*
X165596801Y-104750206D01*
X165764685Y-104689100D01*
X165764686Y-104689100D01*
X165768751Y-104687620D01*
X165904548Y-104609218D01*
X165927229Y-104596123D01*
X165927230Y-104596122D01*
X165930970Y-104593963D01*
X165943212Y-104583691D01*
X166056041Y-104489016D01*
X166059403Y-104486317D01*
X166064013Y-104482779D01*
X166064020Y-104482774D01*
X166066210Y-104481094D01*
X166066211Y-104481093D01*
X166075138Y-104474243D01*
X166075139Y-104474241D01*
X166075141Y-104474240D01*
X166082997Y-104464001D01*
X166087464Y-104458181D01*
X166090167Y-104454813D01*
X166148088Y-104385786D01*
X166194846Y-104330062D01*
X166197794Y-104324957D01*
X166221494Y-104283907D01*
X166288502Y-104167848D01*
X166325099Y-104067302D01*
X166351091Y-103995891D01*
X166351092Y-103995888D01*
X166352567Y-103991835D01*
X166385096Y-103807372D01*
X166385098Y-103655900D01*
X166385099Y-103624382D01*
X166385099Y-103620062D01*
X166383812Y-103612759D01*
X166353327Y-103439857D01*
X166353327Y-103439856D01*
X166352576Y-103435598D01*
X166349399Y-103426867D01*
X166289995Y-103263647D01*
X166288516Y-103259583D01*
X166231661Y-103161102D01*
X166197025Y-103101107D01*
X166197024Y-103101105D01*
X166194865Y-103097366D01*
X166185313Y-103085981D01*
X166135065Y-103026095D01*
X166112980Y-102999773D01*
X166090061Y-102943043D01*
X166104865Y-102883676D01*
X166151736Y-102844348D01*
X166166790Y-102839622D01*
X166173489Y-102838093D01*
X166207124Y-102830416D01*
X166346300Y-102763394D01*
X166350645Y-102759929D01*
X166350650Y-102759926D01*
X166436753Y-102691263D01*
X166438210Y-102690123D01*
X166462423Y-102671544D01*
X166462424Y-102671543D01*
X166467577Y-102667589D01*
X166487186Y-102642035D01*
X166495722Y-102632300D01*
X167213526Y-101914496D01*
X167268043Y-101886719D01*
X167283530Y-101885500D01*
X167538373Y-101885500D01*
X167541586Y-101885077D01*
X167646415Y-101871276D01*
X167646417Y-101871275D01*
X167652846Y-101870429D01*
X167701249Y-101850380D01*
X167789278Y-101813918D01*
X167789281Y-101813916D01*
X167795276Y-101811433D01*
X167917583Y-101717583D01*
X168011433Y-101595276D01*
X168013916Y-101589281D01*
X168013918Y-101589278D01*
X168061067Y-101475448D01*
X168070429Y-101452846D01*
X168071441Y-101445165D01*
X168089705Y-101306433D01*
X168090552Y-101300000D01*
X168087992Y-101280556D01*
X168081775Y-101233327D01*
X168092925Y-101173167D01*
X168109924Y-101150402D01*
X168167057Y-101093269D01*
X168173425Y-101087434D01*
X168181336Y-101080796D01*
X168203194Y-101062455D01*
X168222629Y-101028792D01*
X168227268Y-101021511D01*
X168238064Y-101006093D01*
X168249554Y-100989684D01*
X168251796Y-100981319D01*
X168254258Y-100976039D01*
X168256257Y-100970548D01*
X168260588Y-100963045D01*
X168267337Y-100924771D01*
X168269206Y-100916344D01*
X168277022Y-100887173D01*
X168277022Y-100887170D01*
X168279263Y-100878807D01*
X168278347Y-100868331D01*
X168277620Y-100860021D01*
X168291384Y-100800404D01*
X168318613Y-100770898D01*
X168319390Y-100770342D01*
X168326732Y-100766737D01*
X168332510Y-100760949D01*
X168332514Y-100760946D01*
X168354961Y-100738460D01*
X168409453Y-100710635D01*
X168469894Y-100720154D01*
X168494968Y-100738339D01*
X168517999Y-100761330D01*
X168518002Y-100761332D01*
X168523790Y-100767110D01*
X168531137Y-100770702D01*
X168532990Y-100772023D01*
X168569384Y-100821207D01*
X168574500Y-100852620D01*
X168574500Y-101081466D01*
X168574123Y-101090095D01*
X168570736Y-101128807D01*
X168572978Y-101137174D01*
X168580796Y-101166349D01*
X168582666Y-101174784D01*
X168587400Y-101201632D01*
X168589412Y-101213045D01*
X168593742Y-101220544D01*
X168595738Y-101226029D01*
X168598204Y-101231316D01*
X168600446Y-101239684D01*
X168621013Y-101269056D01*
X168622732Y-101271511D01*
X168627371Y-101278792D01*
X168646806Y-101312455D01*
X168670220Y-101332102D01*
X168702643Y-101383987D01*
X168704737Y-101420859D01*
X168696892Y-101480448D01*
X168695917Y-101487858D01*
X168694318Y-101500000D01*
X168714956Y-101656762D01*
X168775464Y-101802841D01*
X168871718Y-101928282D01*
X168997159Y-102024536D01*
X169143238Y-102085044D01*
X169300000Y-102105682D01*
X169456762Y-102085044D01*
X169602841Y-102024536D01*
X169728282Y-101928282D01*
X169824536Y-101802841D01*
X169885044Y-101656762D01*
X169905682Y-101500000D01*
X169904084Y-101487858D01*
X169893189Y-101405108D01*
X169885044Y-101343238D01*
X169881667Y-101335084D01*
X169864469Y-101293565D01*
X169824536Y-101197159D01*
X169728282Y-101071718D01*
X169645298Y-101008042D01*
X169610642Y-100957617D01*
X169612244Y-100896453D01*
X169649491Y-100847911D01*
X169705565Y-100830500D01*
X170046904Y-100830500D01*
X170050476Y-100829974D01*
X170050479Y-100829974D01*
X170110647Y-100821117D01*
X170110648Y-100821117D01*
X170118254Y-100819997D01*
X170125157Y-100816608D01*
X170219390Y-100770342D01*
X170219391Y-100770341D01*
X170226732Y-100766737D01*
X170249386Y-100744044D01*
X170279328Y-100714049D01*
X170312110Y-100681210D01*
X170328978Y-100646703D01*
X170336952Y-100630389D01*
X170365181Y-100572639D01*
X170374533Y-100508535D01*
X170374983Y-100505449D01*
X170374983Y-100505447D01*
X170375500Y-100501904D01*
X170375500Y-100400000D01*
X171794318Y-100400000D01*
X171814956Y-100556762D01*
X171875464Y-100702841D01*
X171971718Y-100828282D01*
X172097159Y-100924536D01*
X172243238Y-100985044D01*
X172400000Y-101005682D01*
X172556762Y-100985044D01*
X172702841Y-100924536D01*
X172828282Y-100828282D01*
X172924536Y-100702841D01*
X172985044Y-100556762D01*
X173005682Y-100400000D01*
X173004835Y-100393565D01*
X173002652Y-100376982D01*
X173013803Y-100316821D01*
X173058185Y-100274705D01*
X173118847Y-100266719D01*
X173143655Y-100274815D01*
X173223830Y-100313315D01*
X173354074Y-100332897D01*
X173484318Y-100313315D01*
X173539375Y-100286877D01*
X173597608Y-100258914D01*
X173597609Y-100258913D01*
X173603047Y-100256302D01*
X173607693Y-100252459D01*
X173607697Y-100252456D01*
X173624983Y-100238155D01*
X173626782Y-100236667D01*
X174036666Y-99826782D01*
X174056302Y-99803047D01*
X174060594Y-99794110D01*
X174106699Y-99698096D01*
X174113315Y-99684318D01*
X174132897Y-99554074D01*
X174113315Y-99423830D01*
X174083943Y-99362663D01*
X174058914Y-99310540D01*
X174058913Y-99310539D01*
X174056302Y-99305101D01*
X174052459Y-99300455D01*
X174052456Y-99300451D01*
X174038155Y-99283165D01*
X174036667Y-99281366D01*
X173609104Y-98853804D01*
X173585369Y-98834168D01*
X173579930Y-98831556D01*
X173579928Y-98831555D01*
X173484031Y-98785506D01*
X173466640Y-98777155D01*
X173336396Y-98757573D01*
X173206152Y-98777155D01*
X173188761Y-98785506D01*
X173092865Y-98831555D01*
X173087423Y-98834168D01*
X173082777Y-98838011D01*
X173082773Y-98838014D01*
X173069647Y-98848874D01*
X173063688Y-98853803D01*
X172653804Y-99263688D01*
X172634168Y-99287423D01*
X172631556Y-99292862D01*
X172631555Y-99292864D01*
X172615307Y-99326700D01*
X172577155Y-99406152D01*
X172557573Y-99536396D01*
X172558673Y-99543712D01*
X172574245Y-99647283D01*
X172577155Y-99666640D01*
X172580358Y-99673310D01*
X172581425Y-99676778D01*
X172580467Y-99737955D01*
X172543731Y-99786886D01*
X172485252Y-99804879D01*
X172473882Y-99804044D01*
X172406435Y-99795165D01*
X172406434Y-99795165D01*
X172400000Y-99794318D01*
X172243238Y-99814956D01*
X172097159Y-99875464D01*
X171971718Y-99971718D01*
X171875464Y-100097159D01*
X171814956Y-100243238D01*
X171794318Y-100400000D01*
X170375500Y-100400000D01*
X170375500Y-99698096D01*
X170373704Y-99685891D01*
X170366117Y-99634353D01*
X170366117Y-99634352D01*
X170364997Y-99626746D01*
X170361608Y-99619843D01*
X170315342Y-99525610D01*
X170315341Y-99525609D01*
X170311737Y-99518268D01*
X170302266Y-99508813D01*
X170231997Y-99438667D01*
X170226210Y-99432890D01*
X170218864Y-99429299D01*
X170218861Y-99429297D01*
X170218181Y-99428965D01*
X170217581Y-99428384D01*
X170212198Y-99424545D01*
X170212775Y-99423736D01*
X170174204Y-99386425D01*
X170164160Y-99357214D01*
X170162092Y-99345487D01*
X170160588Y-99336955D01*
X170156256Y-99329451D01*
X170154262Y-99323973D01*
X170151795Y-99318682D01*
X170149553Y-99310316D01*
X170127264Y-99278484D01*
X170122633Y-99271214D01*
X170112693Y-99253998D01*
X170099974Y-99194150D01*
X170124861Y-99138255D01*
X170177850Y-99107663D01*
X170198431Y-99105500D01*
X171505693Y-99105500D01*
X171553665Y-99099822D01*
X171556488Y-99099144D01*
X171556495Y-99099143D01*
X171597400Y-99089323D01*
X171597419Y-99089318D01*
X171598610Y-99089032D01*
X171618510Y-99083178D01*
X171695948Y-99034520D01*
X171731244Y-98999224D01*
X171785761Y-98971447D01*
X171844102Y-98979984D01*
X171885971Y-99000089D01*
X171933360Y-99022845D01*
X172063604Y-99042427D01*
X172193848Y-99022845D01*
X172242214Y-98999620D01*
X172307138Y-98968444D01*
X172307139Y-98968443D01*
X172312577Y-98965832D01*
X172317223Y-98961989D01*
X172317227Y-98961986D01*
X172334513Y-98947685D01*
X172336312Y-98946197D01*
X172746196Y-98536312D01*
X172765832Y-98512577D01*
X172772296Y-98499117D01*
X172819641Y-98400520D01*
X172822845Y-98393848D01*
X172842427Y-98263604D01*
X172822845Y-98133360D01*
X172795044Y-98075464D01*
X172768444Y-98020070D01*
X172768443Y-98020069D01*
X172765832Y-98014631D01*
X172761989Y-98009985D01*
X172761986Y-98009981D01*
X172750337Y-97995900D01*
X172746197Y-97990896D01*
X172318634Y-97563334D01*
X172294899Y-97543698D01*
X172289460Y-97541086D01*
X172289458Y-97541085D01*
X172182842Y-97489889D01*
X172182843Y-97489889D01*
X172176170Y-97486685D01*
X172045926Y-97467103D01*
X171971945Y-97478226D01*
X171911590Y-97468180D01*
X171868666Y-97424577D01*
X171859569Y-97364072D01*
X171872237Y-97329553D01*
X171872683Y-97328807D01*
X171876536Y-97322358D01*
X171883656Y-97300446D01*
X171894240Y-97267870D01*
X171894240Y-97267868D01*
X171895443Y-97264167D01*
X171897739Y-97249674D01*
X171904891Y-97204513D01*
X171904891Y-97204508D01*
X171905500Y-97200665D01*
X171905500Y-96721506D01*
X171924407Y-96663315D01*
X171973907Y-96627351D01*
X171991576Y-96623353D01*
X171996503Y-96622704D01*
X172014794Y-96620296D01*
X172070652Y-96597159D01*
X172139063Y-96568823D01*
X172139066Y-96568821D01*
X172145061Y-96566338D01*
X172256923Y-96480502D01*
X172342759Y-96368639D01*
X172396717Y-96238373D01*
X172415121Y-96098579D01*
X172416920Y-96098816D01*
X172433181Y-96048768D01*
X172482681Y-96012804D01*
X172543867Y-96012804D01*
X172593367Y-96048768D01*
G37*
%TD.AperFunction*%
%TA.AperFunction,Conductor*%
G36*
X150880580Y-94019407D02*
G01*
X150892393Y-94029496D01*
X153097506Y-96234609D01*
X153125283Y-96289126D01*
X153122049Y-96333970D01*
X153072284Y-96494240D01*
X153070703Y-96499333D01*
X153070169Y-96503843D01*
X153070169Y-96503844D01*
X153046636Y-96702674D01*
X153044770Y-96718440D01*
X153047915Y-96766421D01*
X153058573Y-96929031D01*
X153059200Y-96938604D01*
X153060316Y-96942997D01*
X153060316Y-96942999D01*
X153112398Y-97148071D01*
X153108396Y-97209125D01*
X153069272Y-97256167D01*
X153025073Y-97271063D01*
X152999845Y-97273270D01*
X152990094Y-97274123D01*
X152981466Y-97274500D01*
X152318583Y-97274500D01*
X152260392Y-97255593D01*
X152248579Y-97245504D01*
X152222970Y-97219895D01*
X152215202Y-97214120D01*
X152173255Y-97182939D01*
X152167083Y-97178351D01*
X152056655Y-97140650D01*
X152048470Y-97140657D01*
X152048469Y-97140657D01*
X151997740Y-97140701D01*
X151939968Y-97140752D01*
X151897758Y-97155245D01*
X151836872Y-97176150D01*
X151836871Y-97176151D01*
X151829606Y-97178645D01*
X151774265Y-97219895D01*
X150808049Y-98186111D01*
X150805892Y-98189013D01*
X150805890Y-98189015D01*
X150788712Y-98212124D01*
X150766505Y-98241998D01*
X150728804Y-98352426D01*
X150728811Y-98360611D01*
X150728811Y-98360612D01*
X150728820Y-98370602D01*
X150728906Y-98469113D01*
X150744646Y-98514956D01*
X150763702Y-98570454D01*
X150766799Y-98579475D01*
X150808049Y-98634816D01*
X150978729Y-98805496D01*
X151006506Y-98860013D01*
X150996935Y-98920445D01*
X150953670Y-98963710D01*
X150908725Y-98974500D01*
X150543018Y-98974500D01*
X150484827Y-98955593D01*
X150448863Y-98906093D01*
X150448863Y-98844907D01*
X150451554Y-98837614D01*
X150482560Y-98762759D01*
X150485044Y-98756762D01*
X150503065Y-98619879D01*
X150504835Y-98606434D01*
X150505682Y-98600000D01*
X150485044Y-98443238D01*
X150424536Y-98297159D01*
X150376011Y-98233920D01*
X150355587Y-98176245D01*
X150372965Y-98117579D01*
X150421506Y-98080331D01*
X150438211Y-98076011D01*
X150443952Y-98075050D01*
X150452134Y-98075043D01*
X150540347Y-98044755D01*
X150555230Y-98039645D01*
X150555231Y-98039644D01*
X150562496Y-98037150D01*
X150617837Y-97995900D01*
X151584053Y-97029684D01*
X151586862Y-97025906D01*
X151621009Y-96979969D01*
X151625597Y-96973797D01*
X151663298Y-96863369D01*
X151663281Y-96843281D01*
X151663213Y-96766421D01*
X151663196Y-96746682D01*
X151625303Y-96636320D01*
X151584053Y-96580979D01*
X151324944Y-96321870D01*
X151318953Y-96317416D01*
X151275229Y-96284914D01*
X151269057Y-96280326D01*
X151158629Y-96242625D01*
X151150444Y-96242632D01*
X151150443Y-96242632D01*
X151099714Y-96242676D01*
X151041942Y-96242727D01*
X150982898Y-96263000D01*
X150938846Y-96278125D01*
X150938845Y-96278126D01*
X150931580Y-96280620D01*
X150876239Y-96321870D01*
X149910023Y-97288086D01*
X149907866Y-97290988D01*
X149907864Y-97290990D01*
X149882424Y-97325213D01*
X149868479Y-97343973D01*
X149830778Y-97454401D01*
X149830785Y-97462586D01*
X149830785Y-97462587D01*
X149830806Y-97486685D01*
X149830880Y-97571088D01*
X149868773Y-97681450D01*
X149910023Y-97736791D01*
X150001890Y-97828658D01*
X150029667Y-97883175D01*
X150020096Y-97943607D01*
X149976831Y-97986872D01*
X149918964Y-97996815D01*
X149900000Y-97994318D01*
X149743238Y-98014956D01*
X149597159Y-98075464D01*
X149471718Y-98171718D01*
X149375464Y-98297159D01*
X149314956Y-98443238D01*
X149294318Y-98600000D01*
X149295165Y-98606434D01*
X149296935Y-98619879D01*
X149314956Y-98756762D01*
X149375464Y-98902841D01*
X149471718Y-99028282D01*
X149546064Y-99085330D01*
X149580719Y-99135752D01*
X149579118Y-99196916D01*
X149555800Y-99233874D01*
X149382943Y-99406731D01*
X149376576Y-99412565D01*
X149346806Y-99437545D01*
X149335732Y-99456727D01*
X149327373Y-99471205D01*
X149322732Y-99478489D01*
X149300446Y-99510316D01*
X149298204Y-99518684D01*
X149295738Y-99523971D01*
X149293742Y-99529456D01*
X149289412Y-99536955D01*
X149287909Y-99545481D01*
X149287908Y-99545483D01*
X149282666Y-99575216D01*
X149280796Y-99583650D01*
X149270736Y-99621193D01*
X149271491Y-99629822D01*
X149274123Y-99659905D01*
X149274500Y-99668534D01*
X149274500Y-100331466D01*
X149274123Y-100340095D01*
X149270736Y-100378807D01*
X149272978Y-100387174D01*
X149280796Y-100416349D01*
X149282666Y-100424784D01*
X149284437Y-100434826D01*
X149289412Y-100463045D01*
X149293742Y-100470544D01*
X149295738Y-100476029D01*
X149298204Y-100481316D01*
X149300446Y-100489684D01*
X149316055Y-100511975D01*
X149322732Y-100521511D01*
X149327371Y-100528792D01*
X149346806Y-100562455D01*
X149359676Y-100573254D01*
X149376570Y-100587430D01*
X149382938Y-100593264D01*
X150406742Y-101617069D01*
X150412565Y-101623424D01*
X150437545Y-101653194D01*
X150471219Y-101672636D01*
X150478475Y-101677259D01*
X150510316Y-101699554D01*
X150518678Y-101701795D01*
X150523960Y-101704258D01*
X150529454Y-101706257D01*
X150536955Y-101710588D01*
X150575228Y-101717337D01*
X150583656Y-101719206D01*
X150612827Y-101727022D01*
X150612830Y-101727022D01*
X150621193Y-101729263D01*
X150659896Y-101725877D01*
X150668525Y-101725500D01*
X150901887Y-101725500D01*
X150919094Y-101727007D01*
X150930474Y-101729016D01*
X150930477Y-101729016D01*
X150939004Y-101730521D01*
X150950931Y-101728420D01*
X150955757Y-101727570D01*
X150961862Y-101726690D01*
X151069171Y-101714616D01*
X151069174Y-101714615D01*
X151074696Y-101713994D01*
X151159243Y-101684424D01*
X151198343Y-101670749D01*
X151198345Y-101670748D01*
X151203589Y-101668914D01*
X151208294Y-101665958D01*
X151213137Y-101663627D01*
X151273769Y-101655423D01*
X151327645Y-101684424D01*
X151354184Y-101739554D01*
X151343250Y-101799755D01*
X151339902Y-101805503D01*
X151332145Y-101817848D01*
X151276969Y-101905653D01*
X151275136Y-101910892D01*
X151275134Y-101910895D01*
X151266832Y-101934618D01*
X151230411Y-102038685D01*
X151229135Y-102050000D01*
X151216846Y-102158983D01*
X151215964Y-102165085D01*
X151215060Y-102170209D01*
X151215060Y-102170215D01*
X151213556Y-102178741D01*
X151215059Y-102187270D01*
X151217075Y-102198711D01*
X151218577Y-102215892D01*
X151218577Y-102375500D01*
X151199670Y-102433691D01*
X151150170Y-102469655D01*
X151119577Y-102474500D01*
X150512601Y-102474500D01*
X150503973Y-102474123D01*
X150491673Y-102473047D01*
X150465268Y-102470737D01*
X150427728Y-102480796D01*
X150419302Y-102482664D01*
X150381032Y-102489412D01*
X150373529Y-102493744D01*
X150368053Y-102495737D01*
X150362762Y-102498204D01*
X150354391Y-102500447D01*
X150347296Y-102505415D01*
X150347294Y-102505416D01*
X150322559Y-102522737D01*
X150315271Y-102527379D01*
X150289125Y-102542474D01*
X150289124Y-102542475D01*
X150281622Y-102546806D01*
X150260994Y-102571389D01*
X150259044Y-102573713D01*
X150207156Y-102606135D01*
X150146119Y-102601867D01*
X150113202Y-102580080D01*
X150013843Y-102480721D01*
X150007680Y-102472690D01*
X150007254Y-102473047D01*
X150001687Y-102466413D01*
X149997357Y-102458912D01*
X149990723Y-102453346D01*
X149986980Y-102448884D01*
X149982847Y-102444751D01*
X149977878Y-102437655D01*
X149966476Y-102429672D01*
X149961563Y-102425998D01*
X149881726Y-102362329D01*
X149871268Y-102353989D01*
X149866923Y-102350524D01*
X149860765Y-102347558D01*
X149744932Y-102291775D01*
X149744933Y-102291775D01*
X149739928Y-102289365D01*
X149734516Y-102288130D01*
X149734511Y-102288128D01*
X149715437Y-102283775D01*
X149662912Y-102252393D01*
X149638865Y-102196132D01*
X149639313Y-102174335D01*
X149654835Y-102056434D01*
X149655682Y-102050000D01*
X149635044Y-101893238D01*
X149574536Y-101747159D01*
X149478282Y-101621718D01*
X149352841Y-101525464D01*
X149206762Y-101464956D01*
X149075569Y-101447684D01*
X149056434Y-101445165D01*
X149050000Y-101444318D01*
X149043566Y-101445165D01*
X149024431Y-101447684D01*
X148893238Y-101464956D01*
X148747159Y-101525464D01*
X148621718Y-101621718D01*
X148525464Y-101747159D01*
X148464956Y-101893238D01*
X148444318Y-102050000D01*
X148464956Y-102206762D01*
X148525464Y-102352841D01*
X148621718Y-102478282D01*
X148747159Y-102574536D01*
X148786228Y-102590719D01*
X148865254Y-102623453D01*
X148911780Y-102663190D01*
X148926063Y-102722685D01*
X148923885Y-102736948D01*
X148914365Y-102778655D01*
X148906521Y-102813019D01*
X148906521Y-102953981D01*
X148907758Y-102959398D01*
X148907758Y-102959402D01*
X148935985Y-103083058D01*
X148937891Y-103091407D01*
X148999057Y-103218407D01*
X149002523Y-103222753D01*
X149002527Y-103222759D01*
X149074541Y-103313052D01*
X149078234Y-103317989D01*
X149078537Y-103318421D01*
X149086199Y-103329362D01*
X149093295Y-103334330D01*
X149102781Y-103340971D01*
X149116007Y-103352068D01*
X149228841Y-103464903D01*
X149256618Y-103519419D01*
X149247046Y-103579851D01*
X149228841Y-103604910D01*
X148537406Y-104296345D01*
X148482889Y-104324122D01*
X148464552Y-104324058D01*
X148464553Y-104324855D01*
X148347866Y-104324957D01*
X148291583Y-104344282D01*
X148244770Y-104360355D01*
X148244769Y-104360356D01*
X148237504Y-104362850D01*
X148182163Y-104404100D01*
X147215947Y-105370316D01*
X147213790Y-105373218D01*
X147213788Y-105373220D01*
X147210348Y-105377848D01*
X147174403Y-105426203D01*
X147136702Y-105536631D01*
X147136709Y-105544816D01*
X147136709Y-105544817D01*
X147136751Y-105592144D01*
X147136804Y-105653318D01*
X147148944Y-105688675D01*
X147168204Y-105744768D01*
X147174697Y-105763680D01*
X147215947Y-105819021D01*
X147475056Y-106078130D01*
X147477958Y-106080287D01*
X147477960Y-106080289D01*
X147496833Y-106094318D01*
X147530943Y-106119674D01*
X147641371Y-106157375D01*
X147649556Y-106157368D01*
X147649557Y-106157368D01*
X147700286Y-106157324D01*
X147758058Y-106157273D01*
X147847229Y-106126656D01*
X147908405Y-106125642D01*
X147958494Y-106160781D01*
X147978363Y-106218650D01*
X147960423Y-106277146D01*
X147949381Y-106290295D01*
X147794172Y-106445504D01*
X147739655Y-106473281D01*
X147724168Y-106474500D01*
X147075834Y-106474500D01*
X147017643Y-106455593D01*
X147005830Y-106445504D01*
X146454496Y-105894170D01*
X146426719Y-105839653D01*
X146425500Y-105824166D01*
X146425500Y-105573860D01*
X146444407Y-105515669D01*
X146454496Y-105503856D01*
X146670492Y-105287860D01*
X146725009Y-105260083D01*
X146743346Y-105260147D01*
X146743345Y-105259350D01*
X146860032Y-105259248D01*
X146948504Y-105228871D01*
X146963128Y-105223850D01*
X146963129Y-105223849D01*
X146970394Y-105221355D01*
X147025735Y-105180105D01*
X147991951Y-104213889D01*
X147997106Y-104206955D01*
X148028907Y-104164174D01*
X148033495Y-104158002D01*
X148071196Y-104047574D01*
X148071175Y-104022970D01*
X148071144Y-103987963D01*
X148071095Y-103932514D01*
X148089951Y-103874308D01*
X148094256Y-103868792D01*
X148096556Y-103866051D01*
X148103194Y-103860481D01*
X148122629Y-103826818D01*
X148127268Y-103819537D01*
X148137680Y-103804667D01*
X148149554Y-103787710D01*
X148151796Y-103779342D01*
X148154262Y-103774055D01*
X148156258Y-103768570D01*
X148160588Y-103761071D01*
X148162927Y-103747808D01*
X148167334Y-103722810D01*
X148169204Y-103714375D01*
X148177022Y-103685200D01*
X148179264Y-103676833D01*
X148175877Y-103638121D01*
X148175500Y-103629492D01*
X148175500Y-103405970D01*
X148194407Y-103347779D01*
X148214233Y-103327428D01*
X148225972Y-103318421D01*
X148278282Y-103278282D01*
X148374536Y-103152841D01*
X148435044Y-103006762D01*
X148455682Y-102850000D01*
X148435044Y-102693238D01*
X148374536Y-102547159D01*
X148278282Y-102421718D01*
X148152841Y-102325464D01*
X148006762Y-102264956D01*
X147850000Y-102244318D01*
X147693238Y-102264956D01*
X147547159Y-102325464D01*
X147421718Y-102421718D01*
X147325464Y-102547159D01*
X147264956Y-102693238D01*
X147258256Y-102744129D01*
X147251029Y-102799023D01*
X147224688Y-102854248D01*
X147170917Y-102883443D01*
X147110255Y-102875457D01*
X147082872Y-102856105D01*
X146834816Y-102608049D01*
X146778929Y-102566505D01*
X146668501Y-102528804D01*
X146660316Y-102528811D01*
X146660315Y-102528811D01*
X146609586Y-102528855D01*
X146551814Y-102528906D01*
X146481193Y-102553154D01*
X146448718Y-102564304D01*
X146448717Y-102564305D01*
X146441452Y-102566799D01*
X146435294Y-102571389D01*
X146432176Y-102573713D01*
X146386111Y-102608049D01*
X145419895Y-103574265D01*
X145417738Y-103577167D01*
X145417736Y-103577169D01*
X145414012Y-103582179D01*
X145378351Y-103630152D01*
X145340650Y-103740580D01*
X145340752Y-103857267D01*
X145346603Y-103874308D01*
X145375047Y-103957149D01*
X145378645Y-103967629D01*
X145419895Y-104022970D01*
X145679004Y-104282079D01*
X145734891Y-104323623D01*
X145845319Y-104361324D01*
X145853504Y-104361317D01*
X145853505Y-104361317D01*
X145904234Y-104361273D01*
X145962006Y-104361222D01*
X146043104Y-104333377D01*
X146065102Y-104325824D01*
X146065103Y-104325823D01*
X146072368Y-104323329D01*
X146127709Y-104282079D01*
X147093925Y-103315863D01*
X147097809Y-103310639D01*
X147130881Y-103266148D01*
X147135469Y-103259976D01*
X147151372Y-103213396D01*
X147159571Y-103189382D01*
X147196266Y-103140421D01*
X147254731Y-103122380D01*
X147312635Y-103142149D01*
X147331802Y-103161101D01*
X147421718Y-103278282D01*
X147426871Y-103282236D01*
X147428316Y-103283681D01*
X147456093Y-103338198D01*
X147446522Y-103398630D01*
X147403257Y-103441895D01*
X147390462Y-103447319D01*
X147346744Y-103462330D01*
X147346743Y-103462331D01*
X147339478Y-103464825D01*
X147284137Y-103506075D01*
X146317921Y-104472291D01*
X146315764Y-104475193D01*
X146315762Y-104475195D01*
X146293351Y-104505344D01*
X146276377Y-104528178D01*
X146238676Y-104638606D01*
X146238683Y-104646791D01*
X146238683Y-104646792D01*
X146238778Y-104755293D01*
X146235680Y-104755296D01*
X146228734Y-104801737D01*
X146210145Y-104827555D01*
X145882943Y-105154757D01*
X145876576Y-105160591D01*
X145846806Y-105185571D01*
X145828797Y-105216765D01*
X145827373Y-105219231D01*
X145822732Y-105226515D01*
X145800446Y-105258342D01*
X145798204Y-105266710D01*
X145795738Y-105271997D01*
X145793742Y-105277482D01*
X145789412Y-105284981D01*
X145782728Y-105322893D01*
X145782666Y-105323242D01*
X145780796Y-105331676D01*
X145770736Y-105369219D01*
X145771491Y-105377848D01*
X145774123Y-105407931D01*
X145774500Y-105416560D01*
X145774500Y-105683163D01*
X145755593Y-105741354D01*
X145706093Y-105777318D01*
X145644907Y-105777318D01*
X145615233Y-105761705D01*
X145507990Y-105679415D01*
X145502841Y-105675464D01*
X145356762Y-105614956D01*
X145200000Y-105594318D01*
X145119958Y-105604856D01*
X145059799Y-105593706D01*
X145037033Y-105576707D01*
X144981891Y-105521565D01*
X144954114Y-105467048D01*
X144963685Y-105406616D01*
X144981889Y-105381560D01*
X145236666Y-105126782D01*
X145256303Y-105103047D01*
X145269175Y-105076242D01*
X145303019Y-105005760D01*
X145313315Y-104984318D01*
X145332897Y-104854074D01*
X145313315Y-104723830D01*
X145283126Y-104660960D01*
X145258915Y-104610540D01*
X145258914Y-104610538D01*
X145256303Y-104605101D01*
X145252460Y-104600455D01*
X145252457Y-104600451D01*
X145238156Y-104583165D01*
X145236668Y-104581366D01*
X145111771Y-104456469D01*
X144740037Y-104084737D01*
X144738394Y-104083094D01*
X144714659Y-104063457D01*
X144709220Y-104060845D01*
X144635619Y-104025503D01*
X144595930Y-104006445D01*
X144465686Y-103986863D01*
X144335442Y-104006445D01*
X144295753Y-104025503D01*
X144222152Y-104060845D01*
X144222150Y-104060846D01*
X144216713Y-104063457D01*
X144212067Y-104067300D01*
X144212063Y-104067303D01*
X144203021Y-104074784D01*
X144192978Y-104083092D01*
X143783094Y-104492978D01*
X143763457Y-104516713D01*
X143760847Y-104522149D01*
X143760846Y-104522150D01*
X143747473Y-104550000D01*
X143706445Y-104635442D01*
X143686863Y-104765686D01*
X143706445Y-104895930D01*
X143709649Y-104902602D01*
X143755254Y-104997575D01*
X143763457Y-105014659D01*
X143767300Y-105019305D01*
X143767303Y-105019309D01*
X143778163Y-105032435D01*
X143783092Y-105038394D01*
X144083026Y-105338326D01*
X144155383Y-105410683D01*
X144183161Y-105465200D01*
X144184380Y-105480687D01*
X144184380Y-105491346D01*
X144184003Y-105499975D01*
X144180616Y-105538687D01*
X144182858Y-105547054D01*
X144190676Y-105576229D01*
X144192546Y-105584664D01*
X144197738Y-105614109D01*
X144199292Y-105622925D01*
X144203622Y-105630424D01*
X144205618Y-105635909D01*
X144208084Y-105641196D01*
X144210326Y-105649564D01*
X144225600Y-105671377D01*
X144232612Y-105681391D01*
X144237251Y-105688672D01*
X144256686Y-105722335D01*
X144275100Y-105737786D01*
X144286451Y-105747311D01*
X144292819Y-105753145D01*
X144576707Y-106037033D01*
X144604484Y-106091550D01*
X144604856Y-106119955D01*
X144594318Y-106200000D01*
X144614956Y-106356762D01*
X144675464Y-106502841D01*
X144771718Y-106628282D01*
X144897159Y-106724536D01*
X145043238Y-106785044D01*
X145200000Y-106805682D01*
X145356762Y-106785044D01*
X145502841Y-106724536D01*
X145628282Y-106628282D01*
X145724536Y-106502841D01*
X145785044Y-106356762D01*
X145785440Y-106353758D01*
X145817969Y-106303667D01*
X145875091Y-106281741D01*
X145934191Y-106297577D01*
X145950275Y-106310601D01*
X146656731Y-107017057D01*
X146662565Y-107023424D01*
X146687545Y-107053194D01*
X146719954Y-107071905D01*
X146721205Y-107072627D01*
X146728489Y-107077268D01*
X146760316Y-107099554D01*
X146768684Y-107101796D01*
X146773971Y-107104262D01*
X146779456Y-107106258D01*
X146786955Y-107110588D01*
X146795481Y-107112091D01*
X146795483Y-107112092D01*
X146825216Y-107117334D01*
X146833650Y-107119204D01*
X146871193Y-107129264D01*
X146909908Y-107125877D01*
X146918537Y-107125500D01*
X147775165Y-107125500D01*
X147833356Y-107144407D01*
X147869320Y-107193907D01*
X147869320Y-107255093D01*
X147845169Y-107294503D01*
X147394170Y-107745503D01*
X147339653Y-107773281D01*
X147324166Y-107774500D01*
X145675834Y-107774500D01*
X145617643Y-107755593D01*
X145605830Y-107745504D01*
X145243269Y-107382943D01*
X145237434Y-107376575D01*
X145228818Y-107366307D01*
X145212455Y-107346806D01*
X145204953Y-107342475D01*
X145198320Y-107336909D01*
X145198677Y-107336483D01*
X145190646Y-107330320D01*
X141754496Y-103894170D01*
X141726719Y-103839653D01*
X141725500Y-103824166D01*
X141725500Y-103765513D01*
X141745958Y-103705246D01*
X141783823Y-103655900D01*
X141824536Y-103602841D01*
X141885044Y-103456762D01*
X141905682Y-103300000D01*
X141885044Y-103143238D01*
X141824536Y-102997159D01*
X141728282Y-102871718D01*
X141602841Y-102775464D01*
X141475421Y-102722685D01*
X141462759Y-102717440D01*
X141456762Y-102714956D01*
X141300000Y-102694318D01*
X141143238Y-102714956D01*
X141137241Y-102717440D01*
X141124579Y-102722685D01*
X140997159Y-102775464D01*
X140996609Y-102775886D01*
X140939156Y-102788101D01*
X140883259Y-102763217D01*
X140852664Y-102710230D01*
X140850500Y-102689643D01*
X140850500Y-98127611D01*
X140869407Y-98069420D01*
X140879496Y-98057607D01*
X144907607Y-94029496D01*
X144962124Y-94001719D01*
X144977611Y-94000500D01*
X150822389Y-94000500D01*
X150880580Y-94019407D01*
G37*
%TD.AperFunction*%
%TA.AperFunction,Conductor*%
G36*
X138879768Y-104512093D02*
G01*
X138890196Y-104513466D01*
X138915152Y-104520152D01*
X138987170Y-104549983D01*
X139009545Y-104562902D01*
X139071378Y-104610349D01*
X139089651Y-104628622D01*
X139137098Y-104690455D01*
X139150017Y-104712830D01*
X139179848Y-104784848D01*
X139186534Y-104809804D01*
X139196607Y-104886309D01*
X139196708Y-104887077D01*
X139196708Y-104912920D01*
X139188481Y-104975408D01*
X139186534Y-104990196D01*
X139179848Y-105015152D01*
X139150017Y-105087170D01*
X139137098Y-105109545D01*
X139089651Y-105171378D01*
X139071378Y-105189651D01*
X139009545Y-105237098D01*
X138987170Y-105250017D01*
X138915152Y-105279848D01*
X138890196Y-105286534D01*
X138812920Y-105296708D01*
X138787080Y-105296708D01*
X138709802Y-105286534D01*
X138684843Y-105279845D01*
X138621025Y-105253412D01*
X138613532Y-105250479D01*
X138606240Y-105247788D01*
X138576110Y-105242406D01*
X138539400Y-105235848D01*
X138539396Y-105235848D01*
X138535093Y-105235079D01*
X138473907Y-105235079D01*
X138471691Y-105235278D01*
X138469477Y-105235378D01*
X138469432Y-105234382D01*
X138413238Y-105221573D01*
X138372526Y-105174457D01*
X138363644Y-105153014D01*
X138363642Y-105153010D01*
X138361408Y-105147617D01*
X138325444Y-105098117D01*
X138301203Y-105070372D01*
X138222693Y-105023464D01*
X138213833Y-105020585D01*
X138168205Y-105005760D01*
X138168203Y-105005760D01*
X138164502Y-105004557D01*
X138160658Y-105003948D01*
X138160653Y-105003947D01*
X138104848Y-104995109D01*
X138104843Y-104995109D01*
X138101000Y-104994500D01*
X137074500Y-104994500D01*
X137016309Y-104975593D01*
X136980345Y-104926093D01*
X136975500Y-104895500D01*
X136975500Y-104700682D01*
X136994407Y-104642491D01*
X137043907Y-104606527D01*
X137104326Y-104606527D01*
X137109883Y-104610240D01*
X137186599Y-104625500D01*
X137549925Y-104625500D01*
X137913400Y-104625499D01*
X137942782Y-104619655D01*
X137980556Y-104612142D01*
X137980557Y-104612141D01*
X137990117Y-104610240D01*
X137990174Y-104610526D01*
X138044114Y-104606282D01*
X138071775Y-104617558D01*
X138127807Y-104651036D01*
X138133090Y-104652752D01*
X138133091Y-104652753D01*
X138182295Y-104668740D01*
X138185998Y-104669943D01*
X138189842Y-104670552D01*
X138189847Y-104670553D01*
X138245652Y-104679391D01*
X138245657Y-104679391D01*
X138249500Y-104680000D01*
X138334487Y-104680000D01*
X138338476Y-104679341D01*
X138338481Y-104679341D01*
X138375153Y-104673286D01*
X138400543Y-104669094D01*
X138404377Y-104667792D01*
X138404383Y-104667791D01*
X138456974Y-104649938D01*
X138460810Y-104648636D01*
X138464379Y-104646728D01*
X138464382Y-104646727D01*
X138516279Y-104618987D01*
X138516280Y-104618986D01*
X138519854Y-104617076D01*
X138523068Y-104614610D01*
X138523077Y-104614604D01*
X138590455Y-104562902D01*
X138612830Y-104549983D01*
X138684848Y-104520152D01*
X138709804Y-104513466D01*
X138720232Y-104512093D01*
X138787080Y-104503292D01*
X138812920Y-104503292D01*
X138879768Y-104512093D01*
G37*
%TD.AperFunction*%
%TD*%
%TA.AperFunction,Conductor*%
%TO.N,Net-(R5-Pad2)*%
G36*
X125845461Y-106418907D02*
G01*
X125881425Y-106468407D01*
X125881425Y-106529593D01*
X125845461Y-106579093D01*
X125827459Y-106589476D01*
X125751847Y-106623061D01*
X125672759Y-106702287D01*
X125627494Y-106804673D01*
X125624500Y-106830354D01*
X125624500Y-107119646D01*
X125627618Y-107145846D01*
X125673061Y-107248153D01*
X125673601Y-107248692D01*
X125689568Y-107302598D01*
X125673811Y-107351233D01*
X125672759Y-107352287D01*
X125627494Y-107454673D01*
X125624500Y-107480354D01*
X125624500Y-107769646D01*
X125627618Y-107795846D01*
X125673061Y-107898153D01*
X125752287Y-107977241D01*
X125760645Y-107980936D01*
X125847864Y-108019496D01*
X125847866Y-108019496D01*
X125854673Y-108022506D01*
X125862067Y-108023368D01*
X125877378Y-108025153D01*
X125880354Y-108025500D01*
X127219646Y-108025500D01*
X127237561Y-108023368D01*
X127238469Y-108023260D01*
X127238470Y-108023260D01*
X127245846Y-108022382D01*
X127314046Y-107992089D01*
X127339801Y-107980649D01*
X127339802Y-107980648D01*
X127348153Y-107976939D01*
X127349242Y-107975848D01*
X127403593Y-107959749D01*
X127461269Y-107980174D01*
X127495924Y-108030599D01*
X127500000Y-108058715D01*
X127500000Y-108491290D01*
X127481093Y-108549481D01*
X127431593Y-108585445D01*
X127370407Y-108585445D01*
X127350714Y-108575755D01*
X127347713Y-108572759D01*
X127286660Y-108545768D01*
X127252136Y-108530504D01*
X127252134Y-108530504D01*
X127245327Y-108527494D01*
X127231322Y-108525861D01*
X127222494Y-108524832D01*
X127222493Y-108524832D01*
X127219646Y-108524500D01*
X125880354Y-108524500D01*
X125863951Y-108526452D01*
X125861531Y-108526740D01*
X125861530Y-108526740D01*
X125854154Y-108527618D01*
X125751847Y-108573061D01*
X125745390Y-108579529D01*
X125745389Y-108579530D01*
X125725454Y-108599500D01*
X125672759Y-108652287D01*
X125627494Y-108754673D01*
X125624500Y-108780354D01*
X125624500Y-109069646D01*
X125627618Y-109095846D01*
X125673061Y-109198153D01*
X125673601Y-109198692D01*
X125689568Y-109252598D01*
X125673811Y-109301233D01*
X125672759Y-109302287D01*
X125659803Y-109331593D01*
X125655631Y-109341030D01*
X125614809Y-109386607D01*
X125565085Y-109400000D01*
X124099000Y-109400000D01*
X124040809Y-109381093D01*
X124004845Y-109331593D01*
X124000000Y-109301000D01*
X124000000Y-106499000D01*
X124018907Y-106440809D01*
X124068407Y-106404845D01*
X124099000Y-106400000D01*
X125787270Y-106400000D01*
X125845461Y-106418907D01*
G37*
%TD.AperFunction*%
%TD*%
%TA.AperFunction,Conductor*%
%TO.N,/VBUCK*%
G36*
X130328580Y-94500167D02*
G01*
X130330252Y-94500500D01*
X131869748Y-94500500D01*
X131871420Y-94500167D01*
X131874825Y-94500000D01*
X134825175Y-94500000D01*
X134828580Y-94500167D01*
X134830252Y-94500500D01*
X136369748Y-94500500D01*
X136371420Y-94500167D01*
X136374825Y-94500000D01*
X136896005Y-94500000D01*
X136954196Y-94518907D01*
X136987469Y-94561114D01*
X137025464Y-94652841D01*
X137121718Y-94778282D01*
X137247159Y-94874536D01*
X137393238Y-94935044D01*
X137550000Y-94955682D01*
X137706762Y-94935044D01*
X137852841Y-94874536D01*
X137978282Y-94778282D01*
X138074536Y-94652841D01*
X138112531Y-94561114D01*
X138152268Y-94514588D01*
X138203995Y-94500000D01*
X140401000Y-94500000D01*
X140459191Y-94518907D01*
X140495155Y-94568407D01*
X140500000Y-94599000D01*
X140500000Y-97121889D01*
X140481093Y-97180080D01*
X140471004Y-97191893D01*
X140104516Y-97558381D01*
X140095804Y-97566122D01*
X140067890Y-97588128D01*
X140063683Y-97594215D01*
X140034292Y-97636741D01*
X140032488Y-97639264D01*
X139997366Y-97686816D01*
X139994973Y-97693632D01*
X139990869Y-97699569D01*
X139977824Y-97740818D01*
X139973049Y-97755915D01*
X139972082Y-97758814D01*
X139952481Y-97814631D01*
X139952244Y-97820673D01*
X139951723Y-97823347D01*
X139950020Y-97828730D01*
X139949500Y-97835337D01*
X139949500Y-97888541D01*
X139949424Y-97892428D01*
X139947162Y-97949994D01*
X139948959Y-97956772D01*
X139949500Y-97966597D01*
X139949500Y-108001000D01*
X139930593Y-108059191D01*
X139881093Y-108095155D01*
X139850500Y-108100000D01*
X134601334Y-108100000D01*
X134543143Y-108081093D01*
X134531330Y-108071004D01*
X134444156Y-107983830D01*
X134416379Y-107929313D01*
X134425950Y-107868881D01*
X134435619Y-107853558D01*
X134470585Y-107807991D01*
X134470587Y-107807987D01*
X134474536Y-107802841D01*
X134535044Y-107656762D01*
X134555682Y-107500000D01*
X134535044Y-107343238D01*
X134474536Y-107197159D01*
X134420458Y-107126683D01*
X134400000Y-107066416D01*
X134400000Y-106448259D01*
X134418907Y-106390068D01*
X134468407Y-106354104D01*
X134508092Y-106349802D01*
X134511599Y-106350500D01*
X134516461Y-106350500D01*
X134600027Y-106350499D01*
X134688400Y-106350499D01*
X134700633Y-106348066D01*
X134755556Y-106337142D01*
X134755557Y-106337141D01*
X134765117Y-106335240D01*
X134852112Y-106277112D01*
X134910240Y-106190117D01*
X134925500Y-106113401D01*
X134925499Y-105386600D01*
X134910240Y-105309883D01*
X134908857Y-105307814D01*
X134904418Y-105251387D01*
X134936388Y-105199218D01*
X134992917Y-105175805D01*
X135000682Y-105175500D01*
X135175500Y-105175500D01*
X135233691Y-105194407D01*
X135269655Y-105243907D01*
X135274500Y-105274500D01*
X135274500Y-105778475D01*
X135274501Y-105778478D01*
X135274501Y-106113400D01*
X135289760Y-106190117D01*
X135347888Y-106277112D01*
X135434883Y-106335240D01*
X135511599Y-106350500D01*
X135595500Y-106350500D01*
X135653691Y-106369407D01*
X135689655Y-106418907D01*
X135694500Y-106449500D01*
X135694500Y-107001000D01*
X135697030Y-107033144D01*
X135701875Y-107063737D01*
X135704107Y-107069126D01*
X135704108Y-107069129D01*
X135735669Y-107145327D01*
X135738592Y-107152383D01*
X135774556Y-107201883D01*
X135798797Y-107229628D01*
X135877307Y-107276536D01*
X135935498Y-107295443D01*
X135939342Y-107296052D01*
X135939347Y-107296053D01*
X135995152Y-107304891D01*
X135995157Y-107304891D01*
X135999000Y-107305500D01*
X138101000Y-107305500D01*
X138133144Y-107302970D01*
X138163737Y-107298125D01*
X138169126Y-107295893D01*
X138169129Y-107295892D01*
X138246990Y-107263642D01*
X138246992Y-107263641D01*
X138252383Y-107261408D01*
X138301883Y-107225444D01*
X138329628Y-107201203D01*
X138376536Y-107122693D01*
X138393099Y-107071718D01*
X138394240Y-107068205D01*
X138394240Y-107068203D01*
X138395443Y-107064502D01*
X138396478Y-107057970D01*
X138404891Y-107004848D01*
X138404891Y-107004843D01*
X138405500Y-107001000D01*
X138405500Y-105534734D01*
X138424407Y-105476543D01*
X138473907Y-105440579D01*
X138535093Y-105440579D01*
X138542385Y-105443270D01*
X138637238Y-105482559D01*
X138637240Y-105482560D01*
X138643238Y-105485044D01*
X138800000Y-105505682D01*
X138956762Y-105485044D01*
X139102841Y-105424536D01*
X139228282Y-105328282D01*
X139324536Y-105202841D01*
X139385044Y-105056762D01*
X139405682Y-104900000D01*
X139385044Y-104743238D01*
X139324536Y-104597159D01*
X139228282Y-104471718D01*
X139102841Y-104375464D01*
X138956762Y-104314956D01*
X138800000Y-104294318D01*
X138643238Y-104314956D01*
X138497159Y-104375464D01*
X138492010Y-104379415D01*
X138394754Y-104454042D01*
X138334487Y-104474500D01*
X138249500Y-104474500D01*
X138191309Y-104455593D01*
X138155345Y-104406093D01*
X138150500Y-104375501D01*
X138150499Y-104216459D01*
X138150499Y-104211600D01*
X138141577Y-104166744D01*
X138137142Y-104144444D01*
X138137141Y-104144443D01*
X138135240Y-104134883D01*
X138077112Y-104047888D01*
X137990117Y-103989760D01*
X137913401Y-103974500D01*
X137550075Y-103974500D01*
X137186600Y-103974501D01*
X137109883Y-103989760D01*
X137107814Y-103991143D01*
X137051387Y-103995582D01*
X136999218Y-103963612D01*
X136975805Y-103907083D01*
X136975500Y-103899318D01*
X136975500Y-103700682D01*
X136994407Y-103642491D01*
X137043907Y-103606527D01*
X137104326Y-103606527D01*
X137109883Y-103610240D01*
X137186599Y-103625500D01*
X138344030Y-103625500D01*
X138402221Y-103644407D01*
X138422571Y-103664232D01*
X138471718Y-103728282D01*
X138597159Y-103824536D01*
X138743238Y-103885044D01*
X138900000Y-103905682D01*
X139056762Y-103885044D01*
X139202841Y-103824536D01*
X139328282Y-103728282D01*
X139424536Y-103602841D01*
X139485044Y-103456762D01*
X139505682Y-103300000D01*
X139485044Y-103143238D01*
X139424536Y-102997159D01*
X139328282Y-102871718D01*
X139202841Y-102775464D01*
X139056762Y-102714956D01*
X138900000Y-102694318D01*
X138743238Y-102714956D01*
X138597159Y-102775464D01*
X138471718Y-102871718D01*
X138438891Y-102914500D01*
X138422572Y-102935767D01*
X138372148Y-102970423D01*
X138344030Y-102974500D01*
X138249500Y-102974500D01*
X138191309Y-102955593D01*
X138155345Y-102906093D01*
X138150500Y-102875501D01*
X138150499Y-102716459D01*
X138150499Y-102711600D01*
X138135240Y-102634883D01*
X138115272Y-102604999D01*
X138098664Y-102546114D01*
X138115272Y-102495001D01*
X138135240Y-102465117D01*
X138150500Y-102388401D01*
X138150499Y-102211600D01*
X138145050Y-102184206D01*
X138137143Y-102144449D01*
X138137142Y-102144447D01*
X138135240Y-102134883D01*
X138115272Y-102104999D01*
X138098664Y-102046114D01*
X138115272Y-101995001D01*
X138135240Y-101965117D01*
X138150500Y-101888401D01*
X138150499Y-101711600D01*
X138135240Y-101634883D01*
X138077112Y-101547888D01*
X137990117Y-101489760D01*
X137955187Y-101482812D01*
X137901802Y-101452916D01*
X137876186Y-101397351D01*
X137875500Y-101385714D01*
X137875500Y-100494337D01*
X137894407Y-100436146D01*
X137914233Y-100415795D01*
X138023129Y-100332236D01*
X138028282Y-100328282D01*
X138124536Y-100202841D01*
X138185044Y-100056762D01*
X138205682Y-99900000D01*
X138185044Y-99743238D01*
X138124536Y-99597159D01*
X138028282Y-99471718D01*
X137902841Y-99375464D01*
X137756762Y-99314956D01*
X137600000Y-99294318D01*
X137443238Y-99314956D01*
X137297159Y-99375464D01*
X137292010Y-99379415D01*
X137256572Y-99406607D01*
X137198896Y-99427031D01*
X137140230Y-99409653D01*
X137117763Y-99388332D01*
X137032236Y-99276871D01*
X137028282Y-99271718D01*
X136902841Y-99175464D01*
X136756762Y-99114956D01*
X136600000Y-99094318D01*
X136443238Y-99114956D01*
X136297159Y-99175464D01*
X136171718Y-99271718D01*
X136075464Y-99397159D01*
X136014956Y-99543238D01*
X135994318Y-99700000D01*
X136014956Y-99856762D01*
X136075464Y-100002841D01*
X136171718Y-100128282D01*
X136176871Y-100132236D01*
X136235767Y-100177428D01*
X136270423Y-100227852D01*
X136274500Y-100255970D01*
X136274500Y-100878475D01*
X136274501Y-100878478D01*
X136274501Y-101213400D01*
X136289760Y-101290117D01*
X136291143Y-101292186D01*
X136295582Y-101348613D01*
X136263612Y-101400782D01*
X136207083Y-101424195D01*
X136199318Y-101424500D01*
X135000682Y-101424500D01*
X134942491Y-101405593D01*
X134906527Y-101356093D01*
X134906527Y-101295674D01*
X134910240Y-101290117D01*
X134925500Y-101213401D01*
X134925499Y-100486600D01*
X134915407Y-100435861D01*
X134912142Y-100419444D01*
X134912141Y-100419443D01*
X134910240Y-100409883D01*
X134852112Y-100322888D01*
X134765117Y-100264760D01*
X134688401Y-100249500D01*
X134640030Y-100249500D01*
X134524501Y-100249501D01*
X134466310Y-100230594D01*
X134430346Y-100181094D01*
X134425500Y-100150501D01*
X134425500Y-99200309D01*
X134431093Y-99167505D01*
X134447601Y-99120500D01*
X134450500Y-99089833D01*
X134450499Y-98510168D01*
X134447601Y-98479500D01*
X134444630Y-98471039D01*
X134405592Y-98359875D01*
X134400000Y-98327073D01*
X134400000Y-96300000D01*
X133249647Y-96300000D01*
X133236726Y-96299153D01*
X133200000Y-96294318D01*
X133163274Y-96299153D01*
X133150353Y-96300000D01*
X130099000Y-96300000D01*
X130040809Y-96281093D01*
X130004845Y-96231593D01*
X130000000Y-96201000D01*
X130000000Y-94599000D01*
X130018907Y-94540809D01*
X130068407Y-94504845D01*
X130099000Y-94500000D01*
X130325175Y-94500000D01*
X130328580Y-94500167D01*
G37*
%TD.AperFunction*%
%TD*%
%TA.AperFunction,Conductor*%
%TO.N,VBUS*%
G36*
X167258691Y-94018907D02*
G01*
X167294655Y-94068407D01*
X167299500Y-94099000D01*
X167299500Y-94274540D01*
X167280593Y-94332731D01*
X167260767Y-94353082D01*
X167243077Y-94366656D01*
X167200159Y-94422588D01*
X167161189Y-94473373D01*
X167161187Y-94473377D01*
X167157241Y-94478519D01*
X167103283Y-94608785D01*
X167084879Y-94748579D01*
X167103283Y-94888373D01*
X167157241Y-95018639D01*
X167161187Y-95023781D01*
X167161189Y-95023785D01*
X167229542Y-95112863D01*
X167243077Y-95130502D01*
X167354939Y-95216338D01*
X167360934Y-95218821D01*
X167360937Y-95218823D01*
X167436337Y-95250054D01*
X167485206Y-95270296D01*
X167491634Y-95271142D01*
X167491637Y-95271143D01*
X167618566Y-95287853D01*
X167625000Y-95288700D01*
X167631434Y-95287853D01*
X167758363Y-95271143D01*
X167758366Y-95271142D01*
X167764794Y-95270296D01*
X167813663Y-95250054D01*
X167889063Y-95218823D01*
X167889066Y-95218821D01*
X167895061Y-95216338D01*
X167900210Y-95212387D01*
X167900215Y-95212384D01*
X167989732Y-95143694D01*
X168047408Y-95123269D01*
X168110268Y-95143694D01*
X168199785Y-95212384D01*
X168199790Y-95212387D01*
X168204939Y-95216338D01*
X168210934Y-95218821D01*
X168210937Y-95218823D01*
X168286337Y-95250054D01*
X168335206Y-95270296D01*
X168341634Y-95271142D01*
X168341637Y-95271143D01*
X168431466Y-95282969D01*
X168486691Y-95309310D01*
X168515886Y-95363081D01*
X168507900Y-95423743D01*
X168488548Y-95451126D01*
X168390475Y-95549199D01*
X168346093Y-95574822D01*
X168341640Y-95576015D01*
X168335206Y-95576862D01*
X168329214Y-95579344D01*
X168329210Y-95579345D01*
X168255886Y-95609717D01*
X168204940Y-95630820D01*
X168199798Y-95634766D01*
X168199794Y-95634768D01*
X168110268Y-95703465D01*
X168052592Y-95723889D01*
X167989732Y-95703464D01*
X167900215Y-95634774D01*
X167900210Y-95634771D01*
X167895061Y-95630820D01*
X167889066Y-95628337D01*
X167889063Y-95628335D01*
X167804039Y-95593118D01*
X167764794Y-95576862D01*
X167758366Y-95576016D01*
X167758363Y-95576015D01*
X167631434Y-95559305D01*
X167625000Y-95558458D01*
X167485206Y-95576862D01*
X167354940Y-95630820D01*
X167349798Y-95634766D01*
X167349794Y-95634768D01*
X167260269Y-95703464D01*
X167243077Y-95716656D01*
X167239126Y-95721805D01*
X167161189Y-95823373D01*
X167161187Y-95823377D01*
X167157241Y-95828519D01*
X167103283Y-95958785D01*
X167084879Y-96098579D01*
X167103283Y-96238373D01*
X167157241Y-96368639D01*
X167161187Y-96373781D01*
X167161189Y-96373785D01*
X167200617Y-96425168D01*
X167243077Y-96480502D01*
X167354939Y-96566338D01*
X167360934Y-96568821D01*
X167360937Y-96568823D01*
X167388885Y-96580399D01*
X167485206Y-96620296D01*
X167491634Y-96621142D01*
X167491637Y-96621143D01*
X167618566Y-96637853D01*
X167625000Y-96638700D01*
X167631434Y-96637853D01*
X167758363Y-96621143D01*
X167758366Y-96621142D01*
X167764794Y-96620296D01*
X167861115Y-96580399D01*
X167889063Y-96568823D01*
X167889066Y-96568821D01*
X167895061Y-96566338D01*
X167923467Y-96544541D01*
X167989733Y-96493693D01*
X168047409Y-96473269D01*
X168110277Y-96493700D01*
X168110779Y-96494086D01*
X168145427Y-96544513D01*
X168149500Y-96572618D01*
X168149500Y-96649166D01*
X168130593Y-96707357D01*
X168120504Y-96719170D01*
X167732943Y-97106731D01*
X167726576Y-97112565D01*
X167696806Y-97137545D01*
X167692477Y-97145044D01*
X167692474Y-97145048D01*
X167683617Y-97160389D01*
X167641511Y-97199758D01*
X167616433Y-97212070D01*
X167580610Y-97229658D01*
X167580609Y-97229659D01*
X167573268Y-97233263D01*
X167487890Y-97318790D01*
X167484299Y-97326137D01*
X167484298Y-97326138D01*
X167478205Y-97338604D01*
X167434819Y-97427361D01*
X167433710Y-97434966D01*
X167425022Y-97494521D01*
X167424500Y-97498096D01*
X167424500Y-98301904D01*
X167435003Y-98373254D01*
X167488263Y-98481732D01*
X167573790Y-98567110D01*
X167682361Y-98620181D01*
X167734048Y-98627721D01*
X167749551Y-98629983D01*
X167749553Y-98629983D01*
X167753096Y-98630500D01*
X168146904Y-98630500D01*
X168150476Y-98629974D01*
X168150479Y-98629974D01*
X168210647Y-98621117D01*
X168210648Y-98621117D01*
X168218254Y-98619997D01*
X168225157Y-98616608D01*
X168319390Y-98570342D01*
X168319391Y-98570341D01*
X168326732Y-98566737D01*
X168412110Y-98481210D01*
X168465181Y-98372639D01*
X168472721Y-98320952D01*
X168474983Y-98305449D01*
X168474983Y-98305447D01*
X168475500Y-98301904D01*
X168475500Y-97498096D01*
X168473821Y-97486685D01*
X168466117Y-97434353D01*
X168466117Y-97434352D01*
X168464997Y-97426746D01*
X168452930Y-97402168D01*
X168444256Y-97341600D01*
X168471793Y-97288533D01*
X168692057Y-97068269D01*
X168698425Y-97062434D01*
X168721559Y-97043022D01*
X168728194Y-97037455D01*
X168747629Y-97003792D01*
X168752268Y-96996511D01*
X168754729Y-96992996D01*
X168774554Y-96964684D01*
X168776796Y-96956319D01*
X168779258Y-96951039D01*
X168781257Y-96945548D01*
X168785588Y-96938045D01*
X168792337Y-96899771D01*
X168794206Y-96891344D01*
X168804263Y-96853808D01*
X168807668Y-96854720D01*
X168810345Y-96848415D01*
X168801377Y-96820820D01*
X168800877Y-96815109D01*
X168800500Y-96806475D01*
X168800500Y-96572618D01*
X168819407Y-96514427D01*
X168839197Y-96494104D01*
X168839701Y-96493717D01*
X168897367Y-96473269D01*
X168960299Y-96493717D01*
X168960802Y-96494103D01*
X168995435Y-96544541D01*
X168999500Y-96572618D01*
X168999500Y-96806466D01*
X168999124Y-96815080D01*
X168998623Y-96820809D01*
X168989655Y-96841942D01*
X168993687Y-96854356D01*
X168995736Y-96853807D01*
X169005796Y-96891349D01*
X169007666Y-96899783D01*
X169014412Y-96938045D01*
X169018742Y-96945544D01*
X169020738Y-96951029D01*
X169023204Y-96956316D01*
X169025446Y-96964684D01*
X169046013Y-96994056D01*
X169047732Y-96996511D01*
X169052371Y-97003792D01*
X169071806Y-97037455D01*
X169101571Y-97062431D01*
X169107939Y-97068265D01*
X169328249Y-97288575D01*
X169356026Y-97343092D01*
X169347188Y-97402054D01*
X169338194Y-97420454D01*
X169338192Y-97420461D01*
X169334819Y-97427361D01*
X169333710Y-97434964D01*
X169325022Y-97494521D01*
X169324500Y-97498096D01*
X169324500Y-98301904D01*
X169335003Y-98373254D01*
X169388263Y-98481732D01*
X169473790Y-98567110D01*
X169582361Y-98620181D01*
X169634048Y-98627721D01*
X169649551Y-98629983D01*
X169649553Y-98629983D01*
X169653096Y-98630500D01*
X170046904Y-98630500D01*
X170050476Y-98629974D01*
X170050479Y-98629974D01*
X170110647Y-98621117D01*
X170110648Y-98621117D01*
X170118254Y-98619997D01*
X170125157Y-98616608D01*
X170219390Y-98570342D01*
X170219391Y-98570341D01*
X170226732Y-98566737D01*
X170312110Y-98481210D01*
X170365181Y-98372639D01*
X170372721Y-98320952D01*
X170374983Y-98305449D01*
X170374983Y-98305447D01*
X170375500Y-98301904D01*
X170375500Y-97498096D01*
X170373821Y-97486685D01*
X170366117Y-97434353D01*
X170366117Y-97434352D01*
X170364997Y-97426746D01*
X170361608Y-97419843D01*
X170315342Y-97325610D01*
X170315341Y-97325609D01*
X170311737Y-97318268D01*
X170226210Y-97232890D01*
X170218863Y-97229299D01*
X170218858Y-97229295D01*
X170158666Y-97199872D01*
X170116406Y-97160430D01*
X170103194Y-97137545D01*
X170073429Y-97112569D01*
X170067061Y-97106735D01*
X169679496Y-96719170D01*
X169651719Y-96664653D01*
X169650500Y-96649166D01*
X169650500Y-96572618D01*
X169669407Y-96514427D01*
X169689219Y-96494087D01*
X169689723Y-96493700D01*
X169747395Y-96473269D01*
X169810267Y-96493693D01*
X169899459Y-96562133D01*
X169915029Y-96577039D01*
X169917476Y-96579956D01*
X169921806Y-96587455D01*
X169951571Y-96612431D01*
X169957939Y-96618265D01*
X171291793Y-97952120D01*
X171319570Y-98006637D01*
X171311033Y-98064977D01*
X171286685Y-98115682D01*
X171267103Y-98245926D01*
X171286685Y-98376170D01*
X171289889Y-98382842D01*
X171339904Y-98486997D01*
X171343698Y-98494899D01*
X171347541Y-98499545D01*
X171347544Y-98499549D01*
X171358322Y-98512577D01*
X171363333Y-98518634D01*
X171575697Y-98730997D01*
X171603474Y-98785513D01*
X171593903Y-98845945D01*
X171550638Y-98889210D01*
X171505693Y-98900000D01*
X169755193Y-98900000D01*
X169721333Y-98894030D01*
X169720550Y-98893745D01*
X169713045Y-98889412D01*
X169704513Y-98887908D01*
X169704511Y-98887907D01*
X169674784Y-98882666D01*
X169666349Y-98880796D01*
X169637174Y-98872978D01*
X169628807Y-98870736D01*
X169603182Y-98872978D01*
X169590095Y-98874123D01*
X169581466Y-98874500D01*
X167318526Y-98874500D01*
X167309898Y-98874123D01*
X167306576Y-98873832D01*
X167271193Y-98870737D01*
X167262830Y-98872978D01*
X167262827Y-98872978D01*
X167233656Y-98880794D01*
X167225229Y-98882663D01*
X167186955Y-98889412D01*
X167179452Y-98893744D01*
X167178665Y-98894030D01*
X167144805Y-98900000D01*
X166399000Y-98900000D01*
X166340809Y-98881093D01*
X166304845Y-98831593D01*
X166300000Y-98801000D01*
X166300000Y-96523131D01*
X166320458Y-96462863D01*
X166388811Y-96373785D01*
X166388813Y-96373781D01*
X166392759Y-96368639D01*
X166446717Y-96238373D01*
X166465121Y-96098579D01*
X166446717Y-95958785D01*
X166392759Y-95828519D01*
X166388813Y-95823377D01*
X166388811Y-95823373D01*
X166320458Y-95734295D01*
X166300000Y-95674027D01*
X166300000Y-95173131D01*
X166320458Y-95112863D01*
X166388811Y-95023785D01*
X166388813Y-95023781D01*
X166392759Y-95018639D01*
X166446717Y-94888373D01*
X166465121Y-94748579D01*
X166446717Y-94608785D01*
X166392759Y-94478519D01*
X166388813Y-94473377D01*
X166388811Y-94473373D01*
X166320458Y-94384295D01*
X166300000Y-94324027D01*
X166300000Y-94099000D01*
X166318907Y-94040809D01*
X166368407Y-94004845D01*
X166399000Y-94000000D01*
X167200500Y-94000000D01*
X167258691Y-94018907D01*
G37*
%TD.AperFunction*%
%TA.AperFunction,Conductor*%
G36*
X171659191Y-94018907D02*
G01*
X171695155Y-94068407D01*
X171700000Y-94099000D01*
X171700000Y-94175295D01*
X171681093Y-94233486D01*
X171638886Y-94266759D01*
X171610933Y-94278337D01*
X171610929Y-94278339D01*
X171604940Y-94280820D01*
X171599798Y-94284766D01*
X171599794Y-94284768D01*
X171498226Y-94362705D01*
X171493077Y-94366656D01*
X171489126Y-94371805D01*
X171411189Y-94473373D01*
X171411187Y-94473377D01*
X171407241Y-94478519D01*
X171353283Y-94608785D01*
X171334879Y-94748579D01*
X171353283Y-94888373D01*
X171407241Y-95018639D01*
X171411187Y-95023781D01*
X171411189Y-95023785D01*
X171479542Y-95112863D01*
X171493077Y-95130502D01*
X171604939Y-95216338D01*
X171638886Y-95230399D01*
X171685412Y-95270136D01*
X171700000Y-95321863D01*
X171700000Y-95525295D01*
X171681093Y-95583486D01*
X171638886Y-95616759D01*
X171610933Y-95628337D01*
X171610929Y-95628339D01*
X171604940Y-95630820D01*
X171599798Y-95634766D01*
X171599794Y-95634768D01*
X171510269Y-95703464D01*
X171493077Y-95716656D01*
X171489126Y-95721805D01*
X171411189Y-95823373D01*
X171411187Y-95823377D01*
X171407241Y-95828519D01*
X171353283Y-95958785D01*
X171334879Y-96098579D01*
X171353283Y-96238373D01*
X171407241Y-96368639D01*
X171411187Y-96373781D01*
X171411189Y-96373785D01*
X171450617Y-96425168D01*
X171493077Y-96480502D01*
X171604939Y-96566338D01*
X171638886Y-96580399D01*
X171685412Y-96620136D01*
X171700000Y-96671863D01*
X171700000Y-97200665D01*
X171681093Y-97258856D01*
X171631593Y-97294820D01*
X171570407Y-97294820D01*
X171530996Y-97270669D01*
X170685494Y-96425168D01*
X170657717Y-96370651D01*
X170664034Y-96317279D01*
X170694232Y-96244373D01*
X170694233Y-96244370D01*
X170696717Y-96238373D01*
X170715121Y-96098579D01*
X170696717Y-95958785D01*
X170642759Y-95828519D01*
X170638813Y-95823377D01*
X170638811Y-95823373D01*
X170560874Y-95721805D01*
X170556923Y-95716656D01*
X170445061Y-95630820D01*
X170439066Y-95628337D01*
X170439063Y-95628335D01*
X170354039Y-95593118D01*
X170314794Y-95576862D01*
X170308366Y-95576016D01*
X170308363Y-95576015D01*
X170181434Y-95559305D01*
X170175000Y-95558458D01*
X170035206Y-95576862D01*
X169904940Y-95630820D01*
X169899798Y-95634766D01*
X169899794Y-95634768D01*
X169810268Y-95703465D01*
X169752592Y-95723889D01*
X169689732Y-95703464D01*
X169600215Y-95634774D01*
X169600210Y-95634771D01*
X169595061Y-95630820D01*
X169589066Y-95628337D01*
X169589063Y-95628335D01*
X169473461Y-95580452D01*
X169426935Y-95540716D01*
X169412651Y-95481221D01*
X169436066Y-95424693D01*
X169441342Y-95418984D01*
X169542057Y-95318269D01*
X169548425Y-95312434D01*
X169552148Y-95309310D01*
X169578194Y-95287455D01*
X169597629Y-95253792D01*
X169602268Y-95246511D01*
X169619584Y-95221781D01*
X169624554Y-95214684D01*
X169626796Y-95206315D01*
X169626964Y-95205956D01*
X169656419Y-95169256D01*
X169689731Y-95143694D01*
X169747407Y-95123269D01*
X169810268Y-95143694D01*
X169899785Y-95212384D01*
X169899790Y-95212387D01*
X169904939Y-95216338D01*
X169910934Y-95218821D01*
X169910937Y-95218823D01*
X169986337Y-95250054D01*
X170035206Y-95270296D01*
X170041634Y-95271142D01*
X170041637Y-95271143D01*
X170168566Y-95287853D01*
X170175000Y-95288700D01*
X170181434Y-95287853D01*
X170308363Y-95271143D01*
X170308366Y-95271142D01*
X170314794Y-95270296D01*
X170363663Y-95250054D01*
X170439063Y-95218823D01*
X170439066Y-95218821D01*
X170445061Y-95216338D01*
X170556923Y-95130502D01*
X170570458Y-95112863D01*
X170638811Y-95023785D01*
X170638813Y-95023781D01*
X170642759Y-95018639D01*
X170696717Y-94888373D01*
X170715121Y-94748579D01*
X170696717Y-94608785D01*
X170642759Y-94478519D01*
X170638813Y-94473377D01*
X170638811Y-94473373D01*
X170560874Y-94371805D01*
X170556923Y-94366656D01*
X170445061Y-94280820D01*
X170439066Y-94278337D01*
X170439063Y-94278335D01*
X170354039Y-94243118D01*
X170314794Y-94226862D01*
X170308366Y-94226016D01*
X170308363Y-94226015D01*
X170181434Y-94209305D01*
X170175000Y-94208458D01*
X170035206Y-94226862D01*
X169904940Y-94280820D01*
X169899798Y-94284766D01*
X169899794Y-94284768D01*
X169876377Y-94302737D01*
X169810301Y-94353440D01*
X169810268Y-94353465D01*
X169752592Y-94373889D01*
X169689798Y-94353515D01*
X169689658Y-94353408D01*
X169689297Y-94353131D01*
X169654600Y-94302737D01*
X169650500Y-94274540D01*
X169650500Y-94099000D01*
X169669407Y-94040809D01*
X169718907Y-94004845D01*
X169749500Y-94000000D01*
X171601000Y-94000000D01*
X171659191Y-94018907D01*
G37*
%TD.AperFunction*%
%TD*%
%TA.AperFunction,Conductor*%
%TO.N,Net-(F1-Pad2)*%
G36*
X136233691Y-105218907D02*
G01*
X136269655Y-105268407D01*
X136274500Y-105299000D01*
X136274500Y-105778475D01*
X136274501Y-105778478D01*
X136274501Y-106113400D01*
X136275449Y-106118164D01*
X136275449Y-106118166D01*
X136287858Y-106180552D01*
X136289760Y-106190117D01*
X136347888Y-106277112D01*
X136434883Y-106335240D01*
X136511599Y-106350500D01*
X136600000Y-106350500D01*
X136688400Y-106350499D01*
X136700633Y-106348066D01*
X136755556Y-106337142D01*
X136755557Y-106337141D01*
X136765117Y-106335240D01*
X136852112Y-106277112D01*
X136910240Y-106190117D01*
X136925500Y-106113401D01*
X136925500Y-105299000D01*
X136944407Y-105240809D01*
X136993907Y-105204845D01*
X137024500Y-105200000D01*
X138101000Y-105200000D01*
X138159191Y-105218907D01*
X138195155Y-105268407D01*
X138200000Y-105299000D01*
X138200000Y-107001000D01*
X138181093Y-107059191D01*
X138131593Y-107095155D01*
X138101000Y-107100000D01*
X135999000Y-107100000D01*
X135940809Y-107081093D01*
X135904845Y-107031593D01*
X135900000Y-107001000D01*
X135900000Y-106229560D01*
X135906831Y-106195220D01*
X135910240Y-106190117D01*
X135925500Y-106113401D01*
X135925500Y-105299000D01*
X135944407Y-105240809D01*
X135993907Y-105204845D01*
X136024500Y-105200000D01*
X136175500Y-105200000D01*
X136233691Y-105218907D01*
G37*
%TD.AperFunction*%
%TD*%
M02*
