M48
; DRILL file {KiCad 7.0.5-0} date 2023 October 09, Monday 15:45:43
; FORMAT={-:-/ absolute / metric / decimal}
; #@! TF.CreationDate,2023-10-09T15:45:43-04:00
; #@! TF.GenerationSoftware,Kicad,Pcbnew,7.0.5-0
; #@! TF.FileFunction,Plated,1,2,PTH
FMAT,2
METRIC
; #@! TA.AperFunction,Plated,PTH,ViaDrill
T1C0.300
; #@! TA.AperFunction,Plated,PTH,ComponentDrill
T2C0.300
; #@! TA.AperFunction,Plated,PTH,ViaDrill
T3C0.400
; #@! TA.AperFunction,Plated,PTH,ComponentDrill
T4C0.400
; #@! TA.AperFunction,Plated,PTH,ComponentDrill
T5C0.600
; #@! TA.AperFunction,Plated,PTH,ComponentDrill
T6C1.000
; #@! TA.AperFunction,Plated,PTH,ComponentDrill
T7C1.110
; #@! TA.AperFunction,Plated,PTH,ComponentDrill
T8C1.850
%
G90
G05
T1
X162.4Y-104.0
T2
X129.75Y-110.5
X129.75Y-111.5
X130.75Y-110.5
X130.75Y-111.5
X131.75Y-110.5
X131.75Y-111.5
X134.5Y-102.362
X134.5Y-103.362
X134.5Y-104.362
X135.5Y-102.362
X135.5Y-103.362
X135.5Y-104.362
X136.5Y-102.362
X136.5Y-103.362
X136.5Y-104.362
T3
X131.0Y-92.7
X132.3Y-91.7
X132.3Y-93.4
X132.75Y-100.612
X133.5Y-91.9
X134.7Y-107.1
X135.1Y-91.2
X135.9Y-107.1
X136.3Y-108.0
X137.0Y-91.1
X137.0Y-107.3
X137.9Y-100.8
X138.1Y-93.2
X138.1Y-97.9
X138.2Y-95.8
X138.8Y-91.2
X139.25Y-102.112
X139.4Y-103.2
X139.7Y-113.1
X140.4Y-91.1
X140.6Y-100.4
X141.9Y-91.1
X142.2Y-108.4
X142.9Y-92.0
X143.8Y-96.5
X144.0Y-90.9
X149.4Y-94.1
X150.3Y-111.9
X150.4Y-103.9
X150.6Y-94.1
X151.5Y-102.3
X151.5Y-103.3
X155.6Y-108.4
X156.1Y-99.0
X156.7Y-108.4
X158.7Y-98.9
X159.2Y-116.0
X160.0Y-108.5
X160.4Y-95.2
X160.6Y-99.0
X161.6Y-99.3
X161.9Y-90.9
X161.9Y-91.9
X161.9Y-93.0
X162.1Y-100.9
X162.1Y-103.2
X162.3Y-94.2
X163.7Y-111.9
X163.9Y-98.6
X165.0Y-93.9
X165.1Y-92.4
X166.7Y-96.4
X167.2Y-92.3
X169.3Y-111.2
X172.8Y-111.5
X177.4Y-102.6
X177.4Y-109.5
T4
X155.825Y-102.425
X155.825Y-103.7
X155.825Y-104.975
X157.1Y-102.425
X157.1Y-103.7
X157.1Y-104.975
X158.375Y-102.425
X158.375Y-103.7
X158.375Y-104.975
X172.45Y-97.65
X172.45Y-99.0
X173.3Y-97.65
X173.3Y-99.0
X174.15Y-97.65
X174.15Y-99.0
X175.0Y-97.65
X175.0Y-99.0
X175.85Y-97.65
X175.85Y-99.0
X176.7Y-97.65
X176.7Y-99.0
X177.55Y-97.65
X177.55Y-99.0
X178.4Y-97.65
X178.4Y-99.0
T6
X186.2Y-101.7
T7
X124.75Y-96.749
X154.25Y-96.749
X159.251Y-96.749
X188.75Y-96.749
T8
X134.98Y-117.5
X142.75Y-117.5
X170.75Y-117.5
X178.52Y-117.5
T5
X171.1Y-95.04G85X171.1Y-94.24
G05
X171.1Y-98.77G85X171.1Y-97.27
G05
X179.75Y-95.04G85X179.75Y-94.24
G05
X179.75Y-98.77G85X179.75Y-97.27
G05
T0
M30
