%TF.GenerationSoftware,KiCad,Pcbnew,7.0.5-0*%
%TF.CreationDate,2023-10-09T15:45:42-04:00*%
%TF.ProjectId,SLAPS_Solar_Harvester,534c4150-535f-4536-9f6c-61725f486172,V1.1*%
%TF.SameCoordinates,Original*%
%TF.FileFunction,Drillmap*%
%TF.FilePolarity,Positive*%
%FSLAX45Y45*%
G04 Gerber Fmt 4.5, Leading zero omitted, Abs format (unit mm)*
G04 Created by KiCad (PCBNEW 7.0.5-0) date 2023-10-09 15:45:42*
%MOMM*%
%LPD*%
G01*
G04 APERTURE LIST*
%ADD10C,0.100000*%
%ADD11C,1.550000*%
%ADD12C,0.200000*%
%ADD13C,0.050000*%
%ADD14C,0.070000*%
G04 APERTURE END LIST*
D10*
X12330000Y-9400000D02*
G75*
G03*
X12300000Y-9430000I0J-30000D01*
G01*
X19050000Y-9430000D02*
G75*
G03*
X19020000Y-9400000I-30000J0D01*
G01*
X18620000Y-12400000D02*
G75*
G03*
X18650000Y-12370000I0J30000D01*
G01*
X19050000Y-9430000D02*
X19050000Y-11970000D01*
X12730000Y-9000000D02*
G75*
G03*
X12700000Y-9030000I0J-30000D01*
G01*
X12700000Y-12370000D02*
G75*
G03*
X12730000Y-12400000I30000J0D01*
G01*
X12330000Y-9400000D02*
G75*
G03*
X12700000Y-9030000I-31320J401320D01*
G01*
D11*
X18537500Y-11370000D02*
G75*
G03*
X18537500Y-11370000I-77500J0D01*
G01*
D10*
X18620000Y-12400000D02*
X12730000Y-12400000D01*
X18650000Y-9030000D02*
G75*
G03*
X19020000Y-9400000I401320J31320D01*
G01*
X12730000Y-9000000D02*
X18620000Y-9000000D01*
X12300000Y-11970000D02*
G75*
G03*
X12330000Y-12000000I30000J0D01*
G01*
X12300000Y-9430000D02*
X12300000Y-11970000D01*
X19020000Y-12000000D02*
G75*
G03*
X19050000Y-11970000I0J30000D01*
G01*
X19020000Y-12000000D02*
G75*
G03*
X18650000Y-12370000I31320J-401320D01*
G01*
D11*
X12837500Y-9530000D02*
G75*
G03*
X12837500Y-9530000I-77500J0D01*
G01*
D10*
X18650000Y-9030000D02*
G75*
G03*
X18620000Y-9000000I-30000J0D01*
G01*
X12700000Y-12370000D02*
G75*
G03*
X12330000Y-12000000I-401320J-31320D01*
G01*
D12*
D13*
X14848000Y-9247550D02*
X14898000Y-9297550D01*
X14898000Y-9247550D02*
X14848000Y-9297550D01*
X14975000Y-9247550D02*
X15025000Y-9297550D01*
X15025000Y-9247550D02*
X14975000Y-9297550D01*
X15102000Y-9247550D02*
X15152000Y-9297550D01*
X15152000Y-9247550D02*
X15102000Y-9297550D01*
D14*
X14781000Y-9272550D02*
G75*
G03*
X14781000Y-9272550I-35000J0D01*
G01*
X15289000Y-9272550D02*
G75*
G03*
X15289000Y-9272550I-35000J0D01*
G01*
D12*
X12555777Y-12716484D02*
X12555777Y-12516484D01*
X12555777Y-12516484D02*
X12603396Y-12516484D01*
X12603396Y-12516484D02*
X12631967Y-12526008D01*
X12631967Y-12526008D02*
X12651015Y-12545055D01*
X12651015Y-12545055D02*
X12660539Y-12564103D01*
X12660539Y-12564103D02*
X12670062Y-12602198D01*
X12670062Y-12602198D02*
X12670062Y-12630769D01*
X12670062Y-12630769D02*
X12660539Y-12668865D01*
X12660539Y-12668865D02*
X12651015Y-12687912D01*
X12651015Y-12687912D02*
X12631967Y-12706960D01*
X12631967Y-12706960D02*
X12603396Y-12716484D01*
X12603396Y-12716484D02*
X12555777Y-12716484D01*
X12755777Y-12716484D02*
X12755777Y-12583150D01*
X12755777Y-12621246D02*
X12765301Y-12602198D01*
X12765301Y-12602198D02*
X12774824Y-12592674D01*
X12774824Y-12592674D02*
X12793872Y-12583150D01*
X12793872Y-12583150D02*
X12812920Y-12583150D01*
X12879586Y-12716484D02*
X12879586Y-12583150D01*
X12879586Y-12516484D02*
X12870062Y-12526008D01*
X12870062Y-12526008D02*
X12879586Y-12535531D01*
X12879586Y-12535531D02*
X12889110Y-12526008D01*
X12889110Y-12526008D02*
X12879586Y-12516484D01*
X12879586Y-12516484D02*
X12879586Y-12535531D01*
X13003396Y-12716484D02*
X12984348Y-12706960D01*
X12984348Y-12706960D02*
X12974824Y-12687912D01*
X12974824Y-12687912D02*
X12974824Y-12516484D01*
X13108158Y-12716484D02*
X13089110Y-12706960D01*
X13089110Y-12706960D02*
X13079586Y-12687912D01*
X13079586Y-12687912D02*
X13079586Y-12516484D01*
X13336729Y-12716484D02*
X13336729Y-12516484D01*
X13336729Y-12516484D02*
X13403396Y-12659341D01*
X13403396Y-12659341D02*
X13470062Y-12516484D01*
X13470062Y-12516484D02*
X13470062Y-12716484D01*
X13651015Y-12716484D02*
X13651015Y-12611722D01*
X13651015Y-12611722D02*
X13641491Y-12592674D01*
X13641491Y-12592674D02*
X13622443Y-12583150D01*
X13622443Y-12583150D02*
X13584348Y-12583150D01*
X13584348Y-12583150D02*
X13565301Y-12592674D01*
X13651015Y-12706960D02*
X13631967Y-12716484D01*
X13631967Y-12716484D02*
X13584348Y-12716484D01*
X13584348Y-12716484D02*
X13565301Y-12706960D01*
X13565301Y-12706960D02*
X13555777Y-12687912D01*
X13555777Y-12687912D02*
X13555777Y-12668865D01*
X13555777Y-12668865D02*
X13565301Y-12649817D01*
X13565301Y-12649817D02*
X13584348Y-12640293D01*
X13584348Y-12640293D02*
X13631967Y-12640293D01*
X13631967Y-12640293D02*
X13651015Y-12630769D01*
X13746253Y-12583150D02*
X13746253Y-12783150D01*
X13746253Y-12592674D02*
X13765301Y-12583150D01*
X13765301Y-12583150D02*
X13803396Y-12583150D01*
X13803396Y-12583150D02*
X13822443Y-12592674D01*
X13822443Y-12592674D02*
X13831967Y-12602198D01*
X13831967Y-12602198D02*
X13841491Y-12621246D01*
X13841491Y-12621246D02*
X13841491Y-12678388D01*
X13841491Y-12678388D02*
X13831967Y-12697436D01*
X13831967Y-12697436D02*
X13822443Y-12706960D01*
X13822443Y-12706960D02*
X13803396Y-12716484D01*
X13803396Y-12716484D02*
X13765301Y-12716484D01*
X13765301Y-12716484D02*
X13746253Y-12706960D01*
X13927205Y-12697436D02*
X13936729Y-12706960D01*
X13936729Y-12706960D02*
X13927205Y-12716484D01*
X13927205Y-12716484D02*
X13917682Y-12706960D01*
X13917682Y-12706960D02*
X13927205Y-12697436D01*
X13927205Y-12697436D02*
X13927205Y-12716484D01*
X13927205Y-12592674D02*
X13936729Y-12602198D01*
X13936729Y-12602198D02*
X13927205Y-12611722D01*
X13927205Y-12611722D02*
X13917682Y-12602198D01*
X13917682Y-12602198D02*
X13927205Y-12592674D01*
X13927205Y-12592674D02*
X13927205Y-12611722D01*
D13*
X12245000Y-13020000D02*
X12295000Y-13070000D01*
X12295000Y-13020000D02*
X12245000Y-13070000D01*
D12*
X12593872Y-12936484D02*
X12612920Y-12936484D01*
X12612920Y-12936484D02*
X12631967Y-12946008D01*
X12631967Y-12946008D02*
X12641491Y-12955531D01*
X12641491Y-12955531D02*
X12651015Y-12974579D01*
X12651015Y-12974579D02*
X12660539Y-13012674D01*
X12660539Y-13012674D02*
X12660539Y-13060293D01*
X12660539Y-13060293D02*
X12651015Y-13098388D01*
X12651015Y-13098388D02*
X12641491Y-13117436D01*
X12641491Y-13117436D02*
X12631967Y-13126960D01*
X12631967Y-13126960D02*
X12612920Y-13136484D01*
X12612920Y-13136484D02*
X12593872Y-13136484D01*
X12593872Y-13136484D02*
X12574824Y-13126960D01*
X12574824Y-13126960D02*
X12565301Y-13117436D01*
X12565301Y-13117436D02*
X12555777Y-13098388D01*
X12555777Y-13098388D02*
X12546253Y-13060293D01*
X12546253Y-13060293D02*
X12546253Y-13012674D01*
X12546253Y-13012674D02*
X12555777Y-12974579D01*
X12555777Y-12974579D02*
X12565301Y-12955531D01*
X12565301Y-12955531D02*
X12574824Y-12946008D01*
X12574824Y-12946008D02*
X12593872Y-12936484D01*
X12746253Y-13117436D02*
X12755777Y-13126960D01*
X12755777Y-13126960D02*
X12746253Y-13136484D01*
X12746253Y-13136484D02*
X12736729Y-13126960D01*
X12736729Y-13126960D02*
X12746253Y-13117436D01*
X12746253Y-13117436D02*
X12746253Y-13136484D01*
X12936729Y-12936484D02*
X12841491Y-12936484D01*
X12841491Y-12936484D02*
X12831967Y-13031722D01*
X12831967Y-13031722D02*
X12841491Y-13022198D01*
X12841491Y-13022198D02*
X12860539Y-13012674D01*
X12860539Y-13012674D02*
X12908158Y-13012674D01*
X12908158Y-13012674D02*
X12927205Y-13022198D01*
X12927205Y-13022198D02*
X12936729Y-13031722D01*
X12936729Y-13031722D02*
X12946253Y-13050769D01*
X12946253Y-13050769D02*
X12946253Y-13098388D01*
X12946253Y-13098388D02*
X12936729Y-13117436D01*
X12936729Y-13117436D02*
X12927205Y-13126960D01*
X12927205Y-13126960D02*
X12908158Y-13136484D01*
X12908158Y-13136484D02*
X12860539Y-13136484D01*
X12860539Y-13136484D02*
X12841491Y-13126960D01*
X12841491Y-13126960D02*
X12831967Y-13117436D01*
X13070062Y-12936484D02*
X13089110Y-12936484D01*
X13089110Y-12936484D02*
X13108158Y-12946008D01*
X13108158Y-12946008D02*
X13117682Y-12955531D01*
X13117682Y-12955531D02*
X13127205Y-12974579D01*
X13127205Y-12974579D02*
X13136729Y-13012674D01*
X13136729Y-13012674D02*
X13136729Y-13060293D01*
X13136729Y-13060293D02*
X13127205Y-13098388D01*
X13127205Y-13098388D02*
X13117682Y-13117436D01*
X13117682Y-13117436D02*
X13108158Y-13126960D01*
X13108158Y-13126960D02*
X13089110Y-13136484D01*
X13089110Y-13136484D02*
X13070062Y-13136484D01*
X13070062Y-13136484D02*
X13051015Y-13126960D01*
X13051015Y-13126960D02*
X13041491Y-13117436D01*
X13041491Y-13117436D02*
X13031967Y-13098388D01*
X13031967Y-13098388D02*
X13022443Y-13060293D01*
X13022443Y-13060293D02*
X13022443Y-13012674D01*
X13022443Y-13012674D02*
X13031967Y-12974579D01*
X13031967Y-12974579D02*
X13041491Y-12955531D01*
X13041491Y-12955531D02*
X13051015Y-12946008D01*
X13051015Y-12946008D02*
X13070062Y-12936484D01*
X13260539Y-12936484D02*
X13279586Y-12936484D01*
X13279586Y-12936484D02*
X13298634Y-12946008D01*
X13298634Y-12946008D02*
X13308158Y-12955531D01*
X13308158Y-12955531D02*
X13317682Y-12974579D01*
X13317682Y-12974579D02*
X13327205Y-13012674D01*
X13327205Y-13012674D02*
X13327205Y-13060293D01*
X13327205Y-13060293D02*
X13317682Y-13098388D01*
X13317682Y-13098388D02*
X13308158Y-13117436D01*
X13308158Y-13117436D02*
X13298634Y-13126960D01*
X13298634Y-13126960D02*
X13279586Y-13136484D01*
X13279586Y-13136484D02*
X13260539Y-13136484D01*
X13260539Y-13136484D02*
X13241491Y-13126960D01*
X13241491Y-13126960D02*
X13231967Y-13117436D01*
X13231967Y-13117436D02*
X13222443Y-13098388D01*
X13222443Y-13098388D02*
X13212920Y-13060293D01*
X13212920Y-13060293D02*
X13212920Y-13012674D01*
X13212920Y-13012674D02*
X13222443Y-12974579D01*
X13222443Y-12974579D02*
X13231967Y-12955531D01*
X13231967Y-12955531D02*
X13241491Y-12946008D01*
X13241491Y-12946008D02*
X13260539Y-12936484D01*
X13412920Y-13136484D02*
X13412920Y-13003150D01*
X13412920Y-13022198D02*
X13422443Y-13012674D01*
X13422443Y-13012674D02*
X13441491Y-13003150D01*
X13441491Y-13003150D02*
X13470063Y-13003150D01*
X13470063Y-13003150D02*
X13489110Y-13012674D01*
X13489110Y-13012674D02*
X13498634Y-13031722D01*
X13498634Y-13031722D02*
X13498634Y-13136484D01*
X13498634Y-13031722D02*
X13508158Y-13012674D01*
X13508158Y-13012674D02*
X13527205Y-13003150D01*
X13527205Y-13003150D02*
X13555777Y-13003150D01*
X13555777Y-13003150D02*
X13574824Y-13012674D01*
X13574824Y-13012674D02*
X13584348Y-13031722D01*
X13584348Y-13031722D02*
X13584348Y-13136484D01*
X13679586Y-13136484D02*
X13679586Y-13003150D01*
X13679586Y-13022198D02*
X13689110Y-13012674D01*
X13689110Y-13012674D02*
X13708158Y-13003150D01*
X13708158Y-13003150D02*
X13736729Y-13003150D01*
X13736729Y-13003150D02*
X13755777Y-13012674D01*
X13755777Y-13012674D02*
X13765301Y-13031722D01*
X13765301Y-13031722D02*
X13765301Y-13136484D01*
X13765301Y-13031722D02*
X13774824Y-13012674D01*
X13774824Y-13012674D02*
X13793872Y-13003150D01*
X13793872Y-13003150D02*
X13822443Y-13003150D01*
X13822443Y-13003150D02*
X13841491Y-13012674D01*
X13841491Y-13012674D02*
X13851015Y-13031722D01*
X13851015Y-13031722D02*
X13851015Y-13136484D01*
X14241491Y-12926960D02*
X14070063Y-13184103D01*
X14498634Y-12936484D02*
X14517682Y-12936484D01*
X14517682Y-12936484D02*
X14536729Y-12946008D01*
X14536729Y-12946008D02*
X14546253Y-12955531D01*
X14546253Y-12955531D02*
X14555777Y-12974579D01*
X14555777Y-12974579D02*
X14565301Y-13012674D01*
X14565301Y-13012674D02*
X14565301Y-13060293D01*
X14565301Y-13060293D02*
X14555777Y-13098388D01*
X14555777Y-13098388D02*
X14546253Y-13117436D01*
X14546253Y-13117436D02*
X14536729Y-13126960D01*
X14536729Y-13126960D02*
X14517682Y-13136484D01*
X14517682Y-13136484D02*
X14498634Y-13136484D01*
X14498634Y-13136484D02*
X14479586Y-13126960D01*
X14479586Y-13126960D02*
X14470063Y-13117436D01*
X14470063Y-13117436D02*
X14460539Y-13098388D01*
X14460539Y-13098388D02*
X14451015Y-13060293D01*
X14451015Y-13060293D02*
X14451015Y-13012674D01*
X14451015Y-13012674D02*
X14460539Y-12974579D01*
X14460539Y-12974579D02*
X14470063Y-12955531D01*
X14470063Y-12955531D02*
X14479586Y-12946008D01*
X14479586Y-12946008D02*
X14498634Y-12936484D01*
X14651015Y-13117436D02*
X14660539Y-13126960D01*
X14660539Y-13126960D02*
X14651015Y-13136484D01*
X14651015Y-13136484D02*
X14641491Y-13126960D01*
X14641491Y-13126960D02*
X14651015Y-13117436D01*
X14651015Y-13117436D02*
X14651015Y-13136484D01*
X14784348Y-12936484D02*
X14803396Y-12936484D01*
X14803396Y-12936484D02*
X14822444Y-12946008D01*
X14822444Y-12946008D02*
X14831967Y-12955531D01*
X14831967Y-12955531D02*
X14841491Y-12974579D01*
X14841491Y-12974579D02*
X14851015Y-13012674D01*
X14851015Y-13012674D02*
X14851015Y-13060293D01*
X14851015Y-13060293D02*
X14841491Y-13098388D01*
X14841491Y-13098388D02*
X14831967Y-13117436D01*
X14831967Y-13117436D02*
X14822444Y-13126960D01*
X14822444Y-13126960D02*
X14803396Y-13136484D01*
X14803396Y-13136484D02*
X14784348Y-13136484D01*
X14784348Y-13136484D02*
X14765301Y-13126960D01*
X14765301Y-13126960D02*
X14755777Y-13117436D01*
X14755777Y-13117436D02*
X14746253Y-13098388D01*
X14746253Y-13098388D02*
X14736729Y-13060293D01*
X14736729Y-13060293D02*
X14736729Y-13012674D01*
X14736729Y-13012674D02*
X14746253Y-12974579D01*
X14746253Y-12974579D02*
X14755777Y-12955531D01*
X14755777Y-12955531D02*
X14765301Y-12946008D01*
X14765301Y-12946008D02*
X14784348Y-12936484D01*
X15041491Y-13136484D02*
X14927206Y-13136484D01*
X14984348Y-13136484D02*
X14984348Y-12936484D01*
X14984348Y-12936484D02*
X14965301Y-12965055D01*
X14965301Y-12965055D02*
X14946253Y-12984103D01*
X14946253Y-12984103D02*
X14927206Y-12993627D01*
X15136729Y-13136484D02*
X15174825Y-13136484D01*
X15174825Y-13136484D02*
X15193872Y-13126960D01*
X15193872Y-13126960D02*
X15203396Y-13117436D01*
X15203396Y-13117436D02*
X15222444Y-13088865D01*
X15222444Y-13088865D02*
X15231967Y-13050769D01*
X15231967Y-13050769D02*
X15231967Y-12974579D01*
X15231967Y-12974579D02*
X15222444Y-12955531D01*
X15222444Y-12955531D02*
X15212920Y-12946008D01*
X15212920Y-12946008D02*
X15193872Y-12936484D01*
X15193872Y-12936484D02*
X15155777Y-12936484D01*
X15155777Y-12936484D02*
X15136729Y-12946008D01*
X15136729Y-12946008D02*
X15127206Y-12955531D01*
X15127206Y-12955531D02*
X15117682Y-12974579D01*
X15117682Y-12974579D02*
X15117682Y-13022198D01*
X15117682Y-13022198D02*
X15127206Y-13041246D01*
X15127206Y-13041246D02*
X15136729Y-13050769D01*
X15136729Y-13050769D02*
X15155777Y-13060293D01*
X15155777Y-13060293D02*
X15193872Y-13060293D01*
X15193872Y-13060293D02*
X15212920Y-13050769D01*
X15212920Y-13050769D02*
X15222444Y-13041246D01*
X15222444Y-13041246D02*
X15231967Y-13022198D01*
X15298634Y-12936484D02*
X15431967Y-12936484D01*
X15431967Y-12936484D02*
X15346253Y-13136484D01*
X15498634Y-12936484D02*
X15498634Y-12974579D01*
X15574825Y-12936484D02*
X15574825Y-12974579D01*
X15870063Y-13212674D02*
X15860539Y-13203150D01*
X15860539Y-13203150D02*
X15841491Y-13174579D01*
X15841491Y-13174579D02*
X15831968Y-13155531D01*
X15831968Y-13155531D02*
X15822444Y-13126960D01*
X15822444Y-13126960D02*
X15812920Y-13079341D01*
X15812920Y-13079341D02*
X15812920Y-13041246D01*
X15812920Y-13041246D02*
X15822444Y-12993627D01*
X15822444Y-12993627D02*
X15831968Y-12965055D01*
X15831968Y-12965055D02*
X15841491Y-12946008D01*
X15841491Y-12946008D02*
X15860539Y-12917436D01*
X15860539Y-12917436D02*
X15870063Y-12907912D01*
X15927206Y-12936484D02*
X16051015Y-12936484D01*
X16051015Y-12936484D02*
X15984348Y-13012674D01*
X15984348Y-13012674D02*
X16012920Y-13012674D01*
X16012920Y-13012674D02*
X16031968Y-13022198D01*
X16031968Y-13022198D02*
X16041491Y-13031722D01*
X16041491Y-13031722D02*
X16051015Y-13050769D01*
X16051015Y-13050769D02*
X16051015Y-13098388D01*
X16051015Y-13098388D02*
X16041491Y-13117436D01*
X16041491Y-13117436D02*
X16031968Y-13126960D01*
X16031968Y-13126960D02*
X16012920Y-13136484D01*
X16012920Y-13136484D02*
X15955777Y-13136484D01*
X15955777Y-13136484D02*
X15936729Y-13126960D01*
X15936729Y-13126960D02*
X15927206Y-13117436D01*
X16289110Y-13136484D02*
X16289110Y-12936484D01*
X16374825Y-13136484D02*
X16374825Y-13031722D01*
X16374825Y-13031722D02*
X16365301Y-13012674D01*
X16365301Y-13012674D02*
X16346253Y-13003150D01*
X16346253Y-13003150D02*
X16317682Y-13003150D01*
X16317682Y-13003150D02*
X16298634Y-13012674D01*
X16298634Y-13012674D02*
X16289110Y-13022198D01*
X16498634Y-13136484D02*
X16479587Y-13126960D01*
X16479587Y-13126960D02*
X16470063Y-13117436D01*
X16470063Y-13117436D02*
X16460539Y-13098388D01*
X16460539Y-13098388D02*
X16460539Y-13041246D01*
X16460539Y-13041246D02*
X16470063Y-13022198D01*
X16470063Y-13022198D02*
X16479587Y-13012674D01*
X16479587Y-13012674D02*
X16498634Y-13003150D01*
X16498634Y-13003150D02*
X16527206Y-13003150D01*
X16527206Y-13003150D02*
X16546253Y-13012674D01*
X16546253Y-13012674D02*
X16555777Y-13022198D01*
X16555777Y-13022198D02*
X16565301Y-13041246D01*
X16565301Y-13041246D02*
X16565301Y-13098388D01*
X16565301Y-13098388D02*
X16555777Y-13117436D01*
X16555777Y-13117436D02*
X16546253Y-13126960D01*
X16546253Y-13126960D02*
X16527206Y-13136484D01*
X16527206Y-13136484D02*
X16498634Y-13136484D01*
X16679587Y-13136484D02*
X16660539Y-13126960D01*
X16660539Y-13126960D02*
X16651015Y-13107912D01*
X16651015Y-13107912D02*
X16651015Y-12936484D01*
X16831968Y-13126960D02*
X16812920Y-13136484D01*
X16812920Y-13136484D02*
X16774825Y-13136484D01*
X16774825Y-13136484D02*
X16755777Y-13126960D01*
X16755777Y-13126960D02*
X16746253Y-13107912D01*
X16746253Y-13107912D02*
X16746253Y-13031722D01*
X16746253Y-13031722D02*
X16755777Y-13012674D01*
X16755777Y-13012674D02*
X16774825Y-13003150D01*
X16774825Y-13003150D02*
X16812920Y-13003150D01*
X16812920Y-13003150D02*
X16831968Y-13012674D01*
X16831968Y-13012674D02*
X16841492Y-13031722D01*
X16841492Y-13031722D02*
X16841492Y-13050769D01*
X16841492Y-13050769D02*
X16746253Y-13069817D01*
X16917682Y-13126960D02*
X16936730Y-13136484D01*
X16936730Y-13136484D02*
X16974825Y-13136484D01*
X16974825Y-13136484D02*
X16993873Y-13126960D01*
X16993873Y-13126960D02*
X17003396Y-13107912D01*
X17003396Y-13107912D02*
X17003396Y-13098388D01*
X17003396Y-13098388D02*
X16993873Y-13079341D01*
X16993873Y-13079341D02*
X16974825Y-13069817D01*
X16974825Y-13069817D02*
X16946253Y-13069817D01*
X16946253Y-13069817D02*
X16927206Y-13060293D01*
X16927206Y-13060293D02*
X16917682Y-13041246D01*
X16917682Y-13041246D02*
X16917682Y-13031722D01*
X16917682Y-13031722D02*
X16927206Y-13012674D01*
X16927206Y-13012674D02*
X16946253Y-13003150D01*
X16946253Y-13003150D02*
X16974825Y-13003150D01*
X16974825Y-13003150D02*
X16993873Y-13012674D01*
X17070063Y-13212674D02*
X17079587Y-13203150D01*
X17079587Y-13203150D02*
X17098634Y-13174579D01*
X17098634Y-13174579D02*
X17108158Y-13155531D01*
X17108158Y-13155531D02*
X17117682Y-13126960D01*
X17117682Y-13126960D02*
X17127206Y-13079341D01*
X17127206Y-13079341D02*
X17127206Y-13041246D01*
X17127206Y-13041246D02*
X17117682Y-12993627D01*
X17117682Y-12993627D02*
X17108158Y-12965055D01*
X17108158Y-12965055D02*
X17098634Y-12946008D01*
X17098634Y-12946008D02*
X17079587Y-12917436D01*
X17079587Y-12917436D02*
X17070063Y-12907912D01*
X17431968Y-13212674D02*
X17422444Y-13203150D01*
X17422444Y-13203150D02*
X17403396Y-13174579D01*
X17403396Y-13174579D02*
X17393873Y-13155531D01*
X17393873Y-13155531D02*
X17384349Y-13126960D01*
X17384349Y-13126960D02*
X17374825Y-13079341D01*
X17374825Y-13079341D02*
X17374825Y-13041246D01*
X17374825Y-13041246D02*
X17384349Y-12993627D01*
X17384349Y-12993627D02*
X17393873Y-12965055D01*
X17393873Y-12965055D02*
X17403396Y-12946008D01*
X17403396Y-12946008D02*
X17422444Y-12917436D01*
X17422444Y-12917436D02*
X17431968Y-12907912D01*
X17508158Y-13003150D02*
X17508158Y-13136484D01*
X17508158Y-13022198D02*
X17517682Y-13012674D01*
X17517682Y-13012674D02*
X17536730Y-13003150D01*
X17536730Y-13003150D02*
X17565301Y-13003150D01*
X17565301Y-13003150D02*
X17584349Y-13012674D01*
X17584349Y-13012674D02*
X17593873Y-13031722D01*
X17593873Y-13031722D02*
X17593873Y-13136484D01*
X17717682Y-13136484D02*
X17698634Y-13126960D01*
X17698634Y-13126960D02*
X17689111Y-13117436D01*
X17689111Y-13117436D02*
X17679587Y-13098388D01*
X17679587Y-13098388D02*
X17679587Y-13041246D01*
X17679587Y-13041246D02*
X17689111Y-13022198D01*
X17689111Y-13022198D02*
X17698634Y-13012674D01*
X17698634Y-13012674D02*
X17717682Y-13003150D01*
X17717682Y-13003150D02*
X17746254Y-13003150D01*
X17746254Y-13003150D02*
X17765301Y-13012674D01*
X17765301Y-13012674D02*
X17774825Y-13022198D01*
X17774825Y-13022198D02*
X17784349Y-13041246D01*
X17784349Y-13041246D02*
X17784349Y-13098388D01*
X17784349Y-13098388D02*
X17774825Y-13117436D01*
X17774825Y-13117436D02*
X17765301Y-13126960D01*
X17765301Y-13126960D02*
X17746254Y-13136484D01*
X17746254Y-13136484D02*
X17717682Y-13136484D01*
X17841492Y-13003150D02*
X17917682Y-13003150D01*
X17870063Y-12936484D02*
X17870063Y-13107912D01*
X17870063Y-13107912D02*
X17879587Y-13126960D01*
X17879587Y-13126960D02*
X17898634Y-13136484D01*
X17898634Y-13136484D02*
X17917682Y-13136484D01*
X18136730Y-13003150D02*
X18136730Y-13203150D01*
X18136730Y-13012674D02*
X18155777Y-13003150D01*
X18155777Y-13003150D02*
X18193873Y-13003150D01*
X18193873Y-13003150D02*
X18212920Y-13012674D01*
X18212920Y-13012674D02*
X18222444Y-13022198D01*
X18222444Y-13022198D02*
X18231968Y-13041246D01*
X18231968Y-13041246D02*
X18231968Y-13098388D01*
X18231968Y-13098388D02*
X18222444Y-13117436D01*
X18222444Y-13117436D02*
X18212920Y-13126960D01*
X18212920Y-13126960D02*
X18193873Y-13136484D01*
X18193873Y-13136484D02*
X18155777Y-13136484D01*
X18155777Y-13136484D02*
X18136730Y-13126960D01*
X18346254Y-13136484D02*
X18327206Y-13126960D01*
X18327206Y-13126960D02*
X18317682Y-13107912D01*
X18317682Y-13107912D02*
X18317682Y-12936484D01*
X18508158Y-13136484D02*
X18508158Y-13031722D01*
X18508158Y-13031722D02*
X18498635Y-13012674D01*
X18498635Y-13012674D02*
X18479587Y-13003150D01*
X18479587Y-13003150D02*
X18441492Y-13003150D01*
X18441492Y-13003150D02*
X18422444Y-13012674D01*
X18508158Y-13126960D02*
X18489111Y-13136484D01*
X18489111Y-13136484D02*
X18441492Y-13136484D01*
X18441492Y-13136484D02*
X18422444Y-13126960D01*
X18422444Y-13126960D02*
X18412920Y-13107912D01*
X18412920Y-13107912D02*
X18412920Y-13088865D01*
X18412920Y-13088865D02*
X18422444Y-13069817D01*
X18422444Y-13069817D02*
X18441492Y-13060293D01*
X18441492Y-13060293D02*
X18489111Y-13060293D01*
X18489111Y-13060293D02*
X18508158Y-13050769D01*
X18574825Y-13003150D02*
X18651015Y-13003150D01*
X18603396Y-12936484D02*
X18603396Y-13107912D01*
X18603396Y-13107912D02*
X18612920Y-13126960D01*
X18612920Y-13126960D02*
X18631968Y-13136484D01*
X18631968Y-13136484D02*
X18651015Y-13136484D01*
X18793873Y-13126960D02*
X18774825Y-13136484D01*
X18774825Y-13136484D02*
X18736730Y-13136484D01*
X18736730Y-13136484D02*
X18717682Y-13126960D01*
X18717682Y-13126960D02*
X18708158Y-13107912D01*
X18708158Y-13107912D02*
X18708158Y-13031722D01*
X18708158Y-13031722D02*
X18717682Y-13012674D01*
X18717682Y-13012674D02*
X18736730Y-13003150D01*
X18736730Y-13003150D02*
X18774825Y-13003150D01*
X18774825Y-13003150D02*
X18793873Y-13012674D01*
X18793873Y-13012674D02*
X18803396Y-13031722D01*
X18803396Y-13031722D02*
X18803396Y-13050769D01*
X18803396Y-13050769D02*
X18708158Y-13069817D01*
X18974825Y-13136484D02*
X18974825Y-12936484D01*
X18974825Y-13126960D02*
X18955777Y-13136484D01*
X18955777Y-13136484D02*
X18917682Y-13136484D01*
X18917682Y-13136484D02*
X18898635Y-13126960D01*
X18898635Y-13126960D02*
X18889111Y-13117436D01*
X18889111Y-13117436D02*
X18879587Y-13098388D01*
X18879587Y-13098388D02*
X18879587Y-13041246D01*
X18879587Y-13041246D02*
X18889111Y-13022198D01*
X18889111Y-13022198D02*
X18898635Y-13012674D01*
X18898635Y-13012674D02*
X18917682Y-13003150D01*
X18917682Y-13003150D02*
X18955777Y-13003150D01*
X18955777Y-13003150D02*
X18974825Y-13012674D01*
X19051016Y-13212674D02*
X19060539Y-13203150D01*
X19060539Y-13203150D02*
X19079587Y-13174579D01*
X19079587Y-13174579D02*
X19089111Y-13155531D01*
X19089111Y-13155531D02*
X19098635Y-13126960D01*
X19098635Y-13126960D02*
X19108158Y-13079341D01*
X19108158Y-13079341D02*
X19108158Y-13041246D01*
X19108158Y-13041246D02*
X19098635Y-12993627D01*
X19098635Y-12993627D02*
X19089111Y-12965055D01*
X19089111Y-12965055D02*
X19079587Y-12946008D01*
X19079587Y-12946008D02*
X19060539Y-12917436D01*
X19060539Y-12917436D02*
X19051016Y-12907912D01*
D14*
X12295000Y-13309000D02*
G75*
G03*
X12295000Y-13309000I-35000J0D01*
G01*
D12*
X12593872Y-13200484D02*
X12612920Y-13200484D01*
X12612920Y-13200484D02*
X12631967Y-13210008D01*
X12631967Y-13210008D02*
X12641491Y-13219531D01*
X12641491Y-13219531D02*
X12651015Y-13238579D01*
X12651015Y-13238579D02*
X12660539Y-13276674D01*
X12660539Y-13276674D02*
X12660539Y-13324293D01*
X12660539Y-13324293D02*
X12651015Y-13362388D01*
X12651015Y-13362388D02*
X12641491Y-13381436D01*
X12641491Y-13381436D02*
X12631967Y-13390960D01*
X12631967Y-13390960D02*
X12612920Y-13400484D01*
X12612920Y-13400484D02*
X12593872Y-13400484D01*
X12593872Y-13400484D02*
X12574824Y-13390960D01*
X12574824Y-13390960D02*
X12565301Y-13381436D01*
X12565301Y-13381436D02*
X12555777Y-13362388D01*
X12555777Y-13362388D02*
X12546253Y-13324293D01*
X12546253Y-13324293D02*
X12546253Y-13276674D01*
X12546253Y-13276674D02*
X12555777Y-13238579D01*
X12555777Y-13238579D02*
X12565301Y-13219531D01*
X12565301Y-13219531D02*
X12574824Y-13210008D01*
X12574824Y-13210008D02*
X12593872Y-13200484D01*
X12746253Y-13381436D02*
X12755777Y-13390960D01*
X12755777Y-13390960D02*
X12746253Y-13400484D01*
X12746253Y-13400484D02*
X12736729Y-13390960D01*
X12736729Y-13390960D02*
X12746253Y-13381436D01*
X12746253Y-13381436D02*
X12746253Y-13400484D01*
X12822443Y-13200484D02*
X12955777Y-13200484D01*
X12955777Y-13200484D02*
X12870062Y-13400484D01*
X13070062Y-13200484D02*
X13089110Y-13200484D01*
X13089110Y-13200484D02*
X13108158Y-13210008D01*
X13108158Y-13210008D02*
X13117682Y-13219531D01*
X13117682Y-13219531D02*
X13127205Y-13238579D01*
X13127205Y-13238579D02*
X13136729Y-13276674D01*
X13136729Y-13276674D02*
X13136729Y-13324293D01*
X13136729Y-13324293D02*
X13127205Y-13362388D01*
X13127205Y-13362388D02*
X13117682Y-13381436D01*
X13117682Y-13381436D02*
X13108158Y-13390960D01*
X13108158Y-13390960D02*
X13089110Y-13400484D01*
X13089110Y-13400484D02*
X13070062Y-13400484D01*
X13070062Y-13400484D02*
X13051015Y-13390960D01*
X13051015Y-13390960D02*
X13041491Y-13381436D01*
X13041491Y-13381436D02*
X13031967Y-13362388D01*
X13031967Y-13362388D02*
X13022443Y-13324293D01*
X13022443Y-13324293D02*
X13022443Y-13276674D01*
X13022443Y-13276674D02*
X13031967Y-13238579D01*
X13031967Y-13238579D02*
X13041491Y-13219531D01*
X13041491Y-13219531D02*
X13051015Y-13210008D01*
X13051015Y-13210008D02*
X13070062Y-13200484D01*
X13260539Y-13200484D02*
X13279586Y-13200484D01*
X13279586Y-13200484D02*
X13298634Y-13210008D01*
X13298634Y-13210008D02*
X13308158Y-13219531D01*
X13308158Y-13219531D02*
X13317682Y-13238579D01*
X13317682Y-13238579D02*
X13327205Y-13276674D01*
X13327205Y-13276674D02*
X13327205Y-13324293D01*
X13327205Y-13324293D02*
X13317682Y-13362388D01*
X13317682Y-13362388D02*
X13308158Y-13381436D01*
X13308158Y-13381436D02*
X13298634Y-13390960D01*
X13298634Y-13390960D02*
X13279586Y-13400484D01*
X13279586Y-13400484D02*
X13260539Y-13400484D01*
X13260539Y-13400484D02*
X13241491Y-13390960D01*
X13241491Y-13390960D02*
X13231967Y-13381436D01*
X13231967Y-13381436D02*
X13222443Y-13362388D01*
X13222443Y-13362388D02*
X13212920Y-13324293D01*
X13212920Y-13324293D02*
X13212920Y-13276674D01*
X13212920Y-13276674D02*
X13222443Y-13238579D01*
X13222443Y-13238579D02*
X13231967Y-13219531D01*
X13231967Y-13219531D02*
X13241491Y-13210008D01*
X13241491Y-13210008D02*
X13260539Y-13200484D01*
X13412920Y-13400484D02*
X13412920Y-13267150D01*
X13412920Y-13286198D02*
X13422443Y-13276674D01*
X13422443Y-13276674D02*
X13441491Y-13267150D01*
X13441491Y-13267150D02*
X13470063Y-13267150D01*
X13470063Y-13267150D02*
X13489110Y-13276674D01*
X13489110Y-13276674D02*
X13498634Y-13295722D01*
X13498634Y-13295722D02*
X13498634Y-13400484D01*
X13498634Y-13295722D02*
X13508158Y-13276674D01*
X13508158Y-13276674D02*
X13527205Y-13267150D01*
X13527205Y-13267150D02*
X13555777Y-13267150D01*
X13555777Y-13267150D02*
X13574824Y-13276674D01*
X13574824Y-13276674D02*
X13584348Y-13295722D01*
X13584348Y-13295722D02*
X13584348Y-13400484D01*
X13679586Y-13400484D02*
X13679586Y-13267150D01*
X13679586Y-13286198D02*
X13689110Y-13276674D01*
X13689110Y-13276674D02*
X13708158Y-13267150D01*
X13708158Y-13267150D02*
X13736729Y-13267150D01*
X13736729Y-13267150D02*
X13755777Y-13276674D01*
X13755777Y-13276674D02*
X13765301Y-13295722D01*
X13765301Y-13295722D02*
X13765301Y-13400484D01*
X13765301Y-13295722D02*
X13774824Y-13276674D01*
X13774824Y-13276674D02*
X13793872Y-13267150D01*
X13793872Y-13267150D02*
X13822443Y-13267150D01*
X13822443Y-13267150D02*
X13841491Y-13276674D01*
X13841491Y-13276674D02*
X13851015Y-13295722D01*
X13851015Y-13295722D02*
X13851015Y-13400484D01*
X14241491Y-13190960D02*
X14070063Y-13448103D01*
X14498634Y-13200484D02*
X14517682Y-13200484D01*
X14517682Y-13200484D02*
X14536729Y-13210008D01*
X14536729Y-13210008D02*
X14546253Y-13219531D01*
X14546253Y-13219531D02*
X14555777Y-13238579D01*
X14555777Y-13238579D02*
X14565301Y-13276674D01*
X14565301Y-13276674D02*
X14565301Y-13324293D01*
X14565301Y-13324293D02*
X14555777Y-13362388D01*
X14555777Y-13362388D02*
X14546253Y-13381436D01*
X14546253Y-13381436D02*
X14536729Y-13390960D01*
X14536729Y-13390960D02*
X14517682Y-13400484D01*
X14517682Y-13400484D02*
X14498634Y-13400484D01*
X14498634Y-13400484D02*
X14479586Y-13390960D01*
X14479586Y-13390960D02*
X14470063Y-13381436D01*
X14470063Y-13381436D02*
X14460539Y-13362388D01*
X14460539Y-13362388D02*
X14451015Y-13324293D01*
X14451015Y-13324293D02*
X14451015Y-13276674D01*
X14451015Y-13276674D02*
X14460539Y-13238579D01*
X14460539Y-13238579D02*
X14470063Y-13219531D01*
X14470063Y-13219531D02*
X14479586Y-13210008D01*
X14479586Y-13210008D02*
X14498634Y-13200484D01*
X14651015Y-13381436D02*
X14660539Y-13390960D01*
X14660539Y-13390960D02*
X14651015Y-13400484D01*
X14651015Y-13400484D02*
X14641491Y-13390960D01*
X14641491Y-13390960D02*
X14651015Y-13381436D01*
X14651015Y-13381436D02*
X14651015Y-13400484D01*
X14784348Y-13200484D02*
X14803396Y-13200484D01*
X14803396Y-13200484D02*
X14822444Y-13210008D01*
X14822444Y-13210008D02*
X14831967Y-13219531D01*
X14831967Y-13219531D02*
X14841491Y-13238579D01*
X14841491Y-13238579D02*
X14851015Y-13276674D01*
X14851015Y-13276674D02*
X14851015Y-13324293D01*
X14851015Y-13324293D02*
X14841491Y-13362388D01*
X14841491Y-13362388D02*
X14831967Y-13381436D01*
X14831967Y-13381436D02*
X14822444Y-13390960D01*
X14822444Y-13390960D02*
X14803396Y-13400484D01*
X14803396Y-13400484D02*
X14784348Y-13400484D01*
X14784348Y-13400484D02*
X14765301Y-13390960D01*
X14765301Y-13390960D02*
X14755777Y-13381436D01*
X14755777Y-13381436D02*
X14746253Y-13362388D01*
X14746253Y-13362388D02*
X14736729Y-13324293D01*
X14736729Y-13324293D02*
X14736729Y-13276674D01*
X14736729Y-13276674D02*
X14746253Y-13238579D01*
X14746253Y-13238579D02*
X14755777Y-13219531D01*
X14755777Y-13219531D02*
X14765301Y-13210008D01*
X14765301Y-13210008D02*
X14784348Y-13200484D01*
X14927206Y-13219531D02*
X14936729Y-13210008D01*
X14936729Y-13210008D02*
X14955777Y-13200484D01*
X14955777Y-13200484D02*
X15003396Y-13200484D01*
X15003396Y-13200484D02*
X15022444Y-13210008D01*
X15022444Y-13210008D02*
X15031967Y-13219531D01*
X15031967Y-13219531D02*
X15041491Y-13238579D01*
X15041491Y-13238579D02*
X15041491Y-13257627D01*
X15041491Y-13257627D02*
X15031967Y-13286198D01*
X15031967Y-13286198D02*
X14917682Y-13400484D01*
X14917682Y-13400484D02*
X15041491Y-13400484D01*
X15108158Y-13200484D02*
X15241491Y-13200484D01*
X15241491Y-13200484D02*
X15155777Y-13400484D01*
X15403396Y-13200484D02*
X15365301Y-13200484D01*
X15365301Y-13200484D02*
X15346253Y-13210008D01*
X15346253Y-13210008D02*
X15336729Y-13219531D01*
X15336729Y-13219531D02*
X15317682Y-13248103D01*
X15317682Y-13248103D02*
X15308158Y-13286198D01*
X15308158Y-13286198D02*
X15308158Y-13362388D01*
X15308158Y-13362388D02*
X15317682Y-13381436D01*
X15317682Y-13381436D02*
X15327206Y-13390960D01*
X15327206Y-13390960D02*
X15346253Y-13400484D01*
X15346253Y-13400484D02*
X15384348Y-13400484D01*
X15384348Y-13400484D02*
X15403396Y-13390960D01*
X15403396Y-13390960D02*
X15412920Y-13381436D01*
X15412920Y-13381436D02*
X15422444Y-13362388D01*
X15422444Y-13362388D02*
X15422444Y-13314769D01*
X15422444Y-13314769D02*
X15412920Y-13295722D01*
X15412920Y-13295722D02*
X15403396Y-13286198D01*
X15403396Y-13286198D02*
X15384348Y-13276674D01*
X15384348Y-13276674D02*
X15346253Y-13276674D01*
X15346253Y-13276674D02*
X15327206Y-13286198D01*
X15327206Y-13286198D02*
X15317682Y-13295722D01*
X15317682Y-13295722D02*
X15308158Y-13314769D01*
X15498634Y-13200484D02*
X15498634Y-13238579D01*
X15574825Y-13200484D02*
X15574825Y-13238579D01*
X15870063Y-13476674D02*
X15860539Y-13467150D01*
X15860539Y-13467150D02*
X15841491Y-13438579D01*
X15841491Y-13438579D02*
X15831968Y-13419531D01*
X15831968Y-13419531D02*
X15822444Y-13390960D01*
X15822444Y-13390960D02*
X15812920Y-13343341D01*
X15812920Y-13343341D02*
X15812920Y-13305246D01*
X15812920Y-13305246D02*
X15822444Y-13257627D01*
X15822444Y-13257627D02*
X15831968Y-13229055D01*
X15831968Y-13229055D02*
X15841491Y-13210008D01*
X15841491Y-13210008D02*
X15860539Y-13181436D01*
X15860539Y-13181436D02*
X15870063Y-13171912D01*
X15936729Y-13219531D02*
X15946253Y-13210008D01*
X15946253Y-13210008D02*
X15965301Y-13200484D01*
X15965301Y-13200484D02*
X16012920Y-13200484D01*
X16012920Y-13200484D02*
X16031968Y-13210008D01*
X16031968Y-13210008D02*
X16041491Y-13219531D01*
X16041491Y-13219531D02*
X16051015Y-13238579D01*
X16051015Y-13238579D02*
X16051015Y-13257627D01*
X16051015Y-13257627D02*
X16041491Y-13286198D01*
X16041491Y-13286198D02*
X15927206Y-13400484D01*
X15927206Y-13400484D02*
X16051015Y-13400484D01*
X16289110Y-13400484D02*
X16289110Y-13200484D01*
X16374825Y-13400484D02*
X16374825Y-13295722D01*
X16374825Y-13295722D02*
X16365301Y-13276674D01*
X16365301Y-13276674D02*
X16346253Y-13267150D01*
X16346253Y-13267150D02*
X16317682Y-13267150D01*
X16317682Y-13267150D02*
X16298634Y-13276674D01*
X16298634Y-13276674D02*
X16289110Y-13286198D01*
X16498634Y-13400484D02*
X16479587Y-13390960D01*
X16479587Y-13390960D02*
X16470063Y-13381436D01*
X16470063Y-13381436D02*
X16460539Y-13362388D01*
X16460539Y-13362388D02*
X16460539Y-13305246D01*
X16460539Y-13305246D02*
X16470063Y-13286198D01*
X16470063Y-13286198D02*
X16479587Y-13276674D01*
X16479587Y-13276674D02*
X16498634Y-13267150D01*
X16498634Y-13267150D02*
X16527206Y-13267150D01*
X16527206Y-13267150D02*
X16546253Y-13276674D01*
X16546253Y-13276674D02*
X16555777Y-13286198D01*
X16555777Y-13286198D02*
X16565301Y-13305246D01*
X16565301Y-13305246D02*
X16565301Y-13362388D01*
X16565301Y-13362388D02*
X16555777Y-13381436D01*
X16555777Y-13381436D02*
X16546253Y-13390960D01*
X16546253Y-13390960D02*
X16527206Y-13400484D01*
X16527206Y-13400484D02*
X16498634Y-13400484D01*
X16679587Y-13400484D02*
X16660539Y-13390960D01*
X16660539Y-13390960D02*
X16651015Y-13371912D01*
X16651015Y-13371912D02*
X16651015Y-13200484D01*
X16831968Y-13390960D02*
X16812920Y-13400484D01*
X16812920Y-13400484D02*
X16774825Y-13400484D01*
X16774825Y-13400484D02*
X16755777Y-13390960D01*
X16755777Y-13390960D02*
X16746253Y-13371912D01*
X16746253Y-13371912D02*
X16746253Y-13295722D01*
X16746253Y-13295722D02*
X16755777Y-13276674D01*
X16755777Y-13276674D02*
X16774825Y-13267150D01*
X16774825Y-13267150D02*
X16812920Y-13267150D01*
X16812920Y-13267150D02*
X16831968Y-13276674D01*
X16831968Y-13276674D02*
X16841492Y-13295722D01*
X16841492Y-13295722D02*
X16841492Y-13314769D01*
X16841492Y-13314769D02*
X16746253Y-13333817D01*
X16917682Y-13390960D02*
X16936730Y-13400484D01*
X16936730Y-13400484D02*
X16974825Y-13400484D01*
X16974825Y-13400484D02*
X16993873Y-13390960D01*
X16993873Y-13390960D02*
X17003396Y-13371912D01*
X17003396Y-13371912D02*
X17003396Y-13362388D01*
X17003396Y-13362388D02*
X16993873Y-13343341D01*
X16993873Y-13343341D02*
X16974825Y-13333817D01*
X16974825Y-13333817D02*
X16946253Y-13333817D01*
X16946253Y-13333817D02*
X16927206Y-13324293D01*
X16927206Y-13324293D02*
X16917682Y-13305246D01*
X16917682Y-13305246D02*
X16917682Y-13295722D01*
X16917682Y-13295722D02*
X16927206Y-13276674D01*
X16927206Y-13276674D02*
X16946253Y-13267150D01*
X16946253Y-13267150D02*
X16974825Y-13267150D01*
X16974825Y-13267150D02*
X16993873Y-13276674D01*
X17070063Y-13476674D02*
X17079587Y-13467150D01*
X17079587Y-13467150D02*
X17098634Y-13438579D01*
X17098634Y-13438579D02*
X17108158Y-13419531D01*
X17108158Y-13419531D02*
X17117682Y-13390960D01*
X17117682Y-13390960D02*
X17127206Y-13343341D01*
X17127206Y-13343341D02*
X17127206Y-13305246D01*
X17127206Y-13305246D02*
X17117682Y-13257627D01*
X17117682Y-13257627D02*
X17108158Y-13229055D01*
X17108158Y-13229055D02*
X17098634Y-13210008D01*
X17098634Y-13210008D02*
X17079587Y-13181436D01*
X17079587Y-13181436D02*
X17070063Y-13171912D01*
X17431968Y-13476674D02*
X17422444Y-13467150D01*
X17422444Y-13467150D02*
X17403396Y-13438579D01*
X17403396Y-13438579D02*
X17393873Y-13419531D01*
X17393873Y-13419531D02*
X17384349Y-13390960D01*
X17384349Y-13390960D02*
X17374825Y-13343341D01*
X17374825Y-13343341D02*
X17374825Y-13305246D01*
X17374825Y-13305246D02*
X17384349Y-13257627D01*
X17384349Y-13257627D02*
X17393873Y-13229055D01*
X17393873Y-13229055D02*
X17403396Y-13210008D01*
X17403396Y-13210008D02*
X17422444Y-13181436D01*
X17422444Y-13181436D02*
X17431968Y-13171912D01*
X17508158Y-13267150D02*
X17508158Y-13400484D01*
X17508158Y-13286198D02*
X17517682Y-13276674D01*
X17517682Y-13276674D02*
X17536730Y-13267150D01*
X17536730Y-13267150D02*
X17565301Y-13267150D01*
X17565301Y-13267150D02*
X17584349Y-13276674D01*
X17584349Y-13276674D02*
X17593873Y-13295722D01*
X17593873Y-13295722D02*
X17593873Y-13400484D01*
X17717682Y-13400484D02*
X17698634Y-13390960D01*
X17698634Y-13390960D02*
X17689111Y-13381436D01*
X17689111Y-13381436D02*
X17679587Y-13362388D01*
X17679587Y-13362388D02*
X17679587Y-13305246D01*
X17679587Y-13305246D02*
X17689111Y-13286198D01*
X17689111Y-13286198D02*
X17698634Y-13276674D01*
X17698634Y-13276674D02*
X17717682Y-13267150D01*
X17717682Y-13267150D02*
X17746254Y-13267150D01*
X17746254Y-13267150D02*
X17765301Y-13276674D01*
X17765301Y-13276674D02*
X17774825Y-13286198D01*
X17774825Y-13286198D02*
X17784349Y-13305246D01*
X17784349Y-13305246D02*
X17784349Y-13362388D01*
X17784349Y-13362388D02*
X17774825Y-13381436D01*
X17774825Y-13381436D02*
X17765301Y-13390960D01*
X17765301Y-13390960D02*
X17746254Y-13400484D01*
X17746254Y-13400484D02*
X17717682Y-13400484D01*
X17841492Y-13267150D02*
X17917682Y-13267150D01*
X17870063Y-13200484D02*
X17870063Y-13371912D01*
X17870063Y-13371912D02*
X17879587Y-13390960D01*
X17879587Y-13390960D02*
X17898634Y-13400484D01*
X17898634Y-13400484D02*
X17917682Y-13400484D01*
X18136730Y-13267150D02*
X18136730Y-13467150D01*
X18136730Y-13276674D02*
X18155777Y-13267150D01*
X18155777Y-13267150D02*
X18193873Y-13267150D01*
X18193873Y-13267150D02*
X18212920Y-13276674D01*
X18212920Y-13276674D02*
X18222444Y-13286198D01*
X18222444Y-13286198D02*
X18231968Y-13305246D01*
X18231968Y-13305246D02*
X18231968Y-13362388D01*
X18231968Y-13362388D02*
X18222444Y-13381436D01*
X18222444Y-13381436D02*
X18212920Y-13390960D01*
X18212920Y-13390960D02*
X18193873Y-13400484D01*
X18193873Y-13400484D02*
X18155777Y-13400484D01*
X18155777Y-13400484D02*
X18136730Y-13390960D01*
X18346254Y-13400484D02*
X18327206Y-13390960D01*
X18327206Y-13390960D02*
X18317682Y-13371912D01*
X18317682Y-13371912D02*
X18317682Y-13200484D01*
X18508158Y-13400484D02*
X18508158Y-13295722D01*
X18508158Y-13295722D02*
X18498635Y-13276674D01*
X18498635Y-13276674D02*
X18479587Y-13267150D01*
X18479587Y-13267150D02*
X18441492Y-13267150D01*
X18441492Y-13267150D02*
X18422444Y-13276674D01*
X18508158Y-13390960D02*
X18489111Y-13400484D01*
X18489111Y-13400484D02*
X18441492Y-13400484D01*
X18441492Y-13400484D02*
X18422444Y-13390960D01*
X18422444Y-13390960D02*
X18412920Y-13371912D01*
X18412920Y-13371912D02*
X18412920Y-13352865D01*
X18412920Y-13352865D02*
X18422444Y-13333817D01*
X18422444Y-13333817D02*
X18441492Y-13324293D01*
X18441492Y-13324293D02*
X18489111Y-13324293D01*
X18489111Y-13324293D02*
X18508158Y-13314769D01*
X18574825Y-13267150D02*
X18651015Y-13267150D01*
X18603396Y-13200484D02*
X18603396Y-13371912D01*
X18603396Y-13371912D02*
X18612920Y-13390960D01*
X18612920Y-13390960D02*
X18631968Y-13400484D01*
X18631968Y-13400484D02*
X18651015Y-13400484D01*
X18793873Y-13390960D02*
X18774825Y-13400484D01*
X18774825Y-13400484D02*
X18736730Y-13400484D01*
X18736730Y-13400484D02*
X18717682Y-13390960D01*
X18717682Y-13390960D02*
X18708158Y-13371912D01*
X18708158Y-13371912D02*
X18708158Y-13295722D01*
X18708158Y-13295722D02*
X18717682Y-13276674D01*
X18717682Y-13276674D02*
X18736730Y-13267150D01*
X18736730Y-13267150D02*
X18774825Y-13267150D01*
X18774825Y-13267150D02*
X18793873Y-13276674D01*
X18793873Y-13276674D02*
X18803396Y-13295722D01*
X18803396Y-13295722D02*
X18803396Y-13314769D01*
X18803396Y-13314769D02*
X18708158Y-13333817D01*
X18974825Y-13400484D02*
X18974825Y-13200484D01*
X18974825Y-13390960D02*
X18955777Y-13400484D01*
X18955777Y-13400484D02*
X18917682Y-13400484D01*
X18917682Y-13400484D02*
X18898635Y-13390960D01*
X18898635Y-13390960D02*
X18889111Y-13381436D01*
X18889111Y-13381436D02*
X18879587Y-13362388D01*
X18879587Y-13362388D02*
X18879587Y-13305246D01*
X18879587Y-13305246D02*
X18889111Y-13286198D01*
X18889111Y-13286198D02*
X18898635Y-13276674D01*
X18898635Y-13276674D02*
X18917682Y-13267150D01*
X18917682Y-13267150D02*
X18955777Y-13267150D01*
X18955777Y-13267150D02*
X18974825Y-13276674D01*
X19051016Y-13476674D02*
X19060539Y-13467150D01*
X19060539Y-13467150D02*
X19079587Y-13438579D01*
X19079587Y-13438579D02*
X19089111Y-13419531D01*
X19089111Y-13419531D02*
X19098635Y-13390960D01*
X19098635Y-13390960D02*
X19108158Y-13343341D01*
X19108158Y-13343341D02*
X19108158Y-13305246D01*
X19108158Y-13305246D02*
X19098635Y-13257627D01*
X19098635Y-13257627D02*
X19089111Y-13229055D01*
X19089111Y-13229055D02*
X19079587Y-13210008D01*
X19079587Y-13210008D02*
X19060539Y-13181436D01*
X19060539Y-13181436D02*
X19051016Y-13171912D01*
M02*
