M48
; DRILL file {KiCad (6.0.11-0)} date Tuesday, April 11, 2023 at 08:14:21 AM
; FORMAT={-:-/ absolute / inch / decimal}
; #@! TF.CreationDate,2023-04-11T08:14:21-04:00
; #@! TF.GenerationSoftware,Kicad,Pcbnew,(6.0.11-0)
; #@! TF.FileFunction,MixedPlating,1,2
FMAT,2
INCH
; #@! TA.AperFunction,Plated,PTH,ComponentDrill
T1C0.0118
; #@! TA.AperFunction,Plated,PTH,ViaDrill
T2C0.0157
; #@! TA.AperFunction,Plated,PTH,ComponentDrill
T3C0.0157
; #@! TA.AperFunction,Plated,PTH,ComponentDrill
T4C0.0236
; #@! TA.AperFunction,Plated,PTH,ComponentDrill
T5C0.0437
; #@! TA.AperFunction,Plated,PTH,ComponentDrill
T6C0.0728
%
G90
G05
T1
X5.0472Y-4.2362
X5.0472Y-4.2756
X5.0472Y-4.315
X5.0866Y-4.2362
X5.0866Y-4.2756
X5.0866Y-4.315
X5.2795Y-4.0276
X5.2795Y-4.0669
X5.2795Y-4.1063
X5.3189Y-4.0276
X5.3189Y-4.0669
X5.3189Y-4.1063
X5.3583Y-4.0276
X5.3583Y-4.0669
X5.3583Y-4.1063
T2
X5.0906Y-3.6417
X5.1516Y-4.4882
X5.2441Y-3.6929
X5.2441Y-3.815
X5.2736Y-4.2323
X5.378Y-3.9252
X5.4055Y-4.1969
X5.4154Y-3.7146
X5.4173Y-3.6299
X5.4173Y-3.9331
X5.4173Y-4.1614
X5.4646Y-4.1299
X5.4685Y-4.0669
X5.563Y-4.0669
X5.5669Y-4.1732
X5.6063Y-4.0276
X5.7165Y-4.1811
X5.7933Y-3.7185
X5.8209Y-4.0492
X5.8228Y-4.4685
X5.8681Y-4.0177
X5.9016Y-3.8819
X5.9173Y-4.2913
X5.9606Y-4.1142
X6.0472Y-3.9764
X6.0512Y-4.2008
X6.061Y-3.7343
X6.1673Y-3.9016
X6.1752Y-4.0728
X6.189Y-3.7677
X6.2165Y-3.9213
X6.3346Y-4.4803
X6.374Y-4.4764
X6.4291Y-4.2953
X6.6654Y-3.9961
X6.7874Y-3.9528
X6.8858Y-3.7087
X6.8858Y-3.7559
X6.9213Y-3.685
X6.9213Y-3.7795
X6.9252Y-3.7323
X7.1142Y-3.8346
T3
X6.5325Y-3.7303
X6.5325Y-3.7834
X6.5659Y-3.7303
X6.5659Y-3.7834
X6.5994Y-3.7303
X6.5994Y-3.7834
X6.6329Y-3.7303
X6.6329Y-3.7834
X6.6663Y-3.7303
X6.6663Y-3.7834
X6.6998Y-3.7303
X6.6998Y-3.7834
X6.7333Y-3.7303
X6.7333Y-3.7834
X6.7667Y-3.7303
X6.7667Y-3.7834
T5
X4.9114Y-3.8091
X6.0728Y-3.8091
X6.2697Y-3.8091
X7.4311Y-3.8091
T6
X5.324Y-4.6457
X5.6299Y-4.6457
X6.7323Y-4.6457
X7.0382Y-4.6457
T4
G00X6.4793Y-3.6275
M15
G01X6.4793Y-3.596
M16
G05
G00X6.4793Y-3.7744
M15
G01X6.4793Y-3.7153
M16
G05
G00X6.8199Y-3.6275
M15
G01X6.8199Y-3.596
M16
G05
G00X6.8199Y-3.7744
M15
G01X6.8199Y-3.7153
M16
G05
T0
M30
