G04 #@! TF.GenerationSoftware,KiCad,Pcbnew,7.0.5-0*
G04 #@! TF.CreationDate,2023-10-09T15:45:39-04:00*
G04 #@! TF.ProjectId,SLAPS_Solar_Harvester,534c4150-535f-4536-9f6c-61725f486172,V1.1*
G04 #@! TF.SameCoordinates,Original*
G04 #@! TF.FileFunction,Soldermask,Top*
G04 #@! TF.FilePolarity,Negative*
%FSLAX46Y46*%
G04 Gerber Fmt 4.6, Leading zero omitted, Abs format (unit mm)*
G04 Created by KiCad (PCBNEW 7.0.5-0) date 2023-10-09 15:45:39*
%MOMM*%
%LPD*%
G01*
G04 APERTURE LIST*
G04 Aperture macros list*
%AMRoundRect*
0 Rectangle with rounded corners*
0 $1 Rounding radius*
0 $2 $3 $4 $5 $6 $7 $8 $9 X,Y pos of 4 corners*
0 Add a 4 corners polygon primitive as box body*
4,1,4,$2,$3,$4,$5,$6,$7,$8,$9,$2,$3,0*
0 Add four circle primitives for the rounded corners*
1,1,$1+$1,$2,$3*
1,1,$1+$1,$4,$5*
1,1,$1+$1,$6,$7*
1,1,$1+$1,$8,$9*
0 Add four rect primitives between the rounded corners*
20,1,$1+$1,$2,$3,$4,$5,0*
20,1,$1+$1,$4,$5,$6,$7,0*
20,1,$1+$1,$6,$7,$8,$9,0*
20,1,$1+$1,$8,$9,$2,$3,0*%
%AMFreePoly0*
4,1,35,0.585921,0.785921,0.600800,0.750000,0.600800,-0.750000,0.585921,-0.785921,0.550000,-0.800800,0.000000,-0.800800,-0.012286,-0.795711,-0.071157,-0.795711,-0.085469,-0.793653,-0.222020,-0.753558,-0.235173,-0.747552,-0.354895,-0.670611,-0.365822,-0.661142,-0.459019,-0.553587,-0.466836,-0.541423,-0.525955,-0.411969,-0.530029,-0.398096,-0.550283,-0.257230,-0.550800,-0.250000,-0.550800,0.250000,
-0.550283,0.257230,-0.530029,0.398096,-0.525955,0.411969,-0.466836,0.541423,-0.459019,0.553587,-0.365822,0.661142,-0.354895,0.670611,-0.235173,0.747552,-0.222020,0.753558,-0.085469,0.793653,-0.071157,0.795711,-0.012286,0.795711,0.000000,0.800800,0.550000,0.800800,0.585921,0.785921,0.585921,0.785921,$1*%
%AMFreePoly1*
4,1,35,0.012286,0.795711,0.071157,0.795711,0.085469,0.793653,0.222020,0.753558,0.235173,0.747552,0.354895,0.670611,0.365822,0.661142,0.459019,0.553587,0.466836,0.541423,0.525955,0.411969,0.530029,0.398096,0.550283,0.257230,0.550800,0.250000,0.550800,-0.250000,0.550283,-0.257230,0.530029,-0.398096,0.525955,-0.411969,0.466836,-0.541423,0.459019,-0.553587,0.365822,-0.661142,
0.354895,-0.670611,0.235173,-0.747552,0.222020,-0.753558,0.085469,-0.793653,0.071157,-0.795711,0.012286,-0.795711,0.000000,-0.800800,-0.550000,-0.800800,-0.585921,-0.785921,-0.600800,-0.750000,-0.600800,0.750000,-0.585921,0.785921,-0.550000,0.800800,0.000000,0.800800,0.012286,0.795711,0.012286,0.795711,$1*%
G04 Aperture macros list end*
%ADD10C,2.101600*%
%ADD11RoundRect,0.288300X-0.237500X0.250000X-0.237500X-0.250000X0.237500X-0.250000X0.237500X0.250000X0*%
%ADD12RoundRect,0.205800X0.212500X0.155000X-0.212500X0.155000X-0.212500X-0.155000X0.212500X-0.155000X0*%
%ADD13C,3.101600*%
%ADD14RoundRect,0.288300X0.300000X0.237500X-0.300000X0.237500X-0.300000X-0.237500X0.300000X-0.237500X0*%
%ADD15RoundRect,0.200800X0.512500X0.150000X-0.512500X0.150000X-0.512500X-0.150000X0.512500X-0.150000X0*%
%ADD16RoundRect,0.050800X-0.500000X0.450000X-0.500000X-0.450000X0.500000X-0.450000X0.500000X0.450000X0*%
%ADD17RoundRect,0.288300X0.237500X-0.250000X0.237500X0.250000X-0.237500X0.250000X-0.237500X-0.250000X0*%
%ADD18RoundRect,0.288300X-0.237500X0.287500X-0.237500X-0.287500X0.237500X-0.287500X0.237500X0.287500X0*%
%ADD19RoundRect,0.300800X0.450000X-0.325000X0.450000X0.325000X-0.450000X0.325000X-0.450000X-0.325000X0*%
%ADD20FreePoly0,180.000000*%
%ADD21RoundRect,0.050800X0.500000X0.750000X-0.500000X0.750000X-0.500000X-0.750000X0.500000X-0.750000X0*%
%ADD22FreePoly1,180.000000*%
%ADD23RoundRect,0.205800X-0.155000X0.212500X-0.155000X-0.212500X0.155000X-0.212500X0.155000X0.212500X0*%
%ADD24RoundRect,0.205800X0.155000X-0.212500X0.155000X0.212500X-0.155000X0.212500X-0.155000X-0.212500X0*%
%ADD25C,1.101600*%
%ADD26RoundRect,0.288300X-0.250000X-0.237500X0.250000X-0.237500X0.250000X0.237500X-0.250000X0.237500X0*%
%ADD27RoundRect,0.205800X-0.212500X-0.155000X0.212500X-0.155000X0.212500X0.155000X-0.212500X0.155000X0*%
%ADD28C,0.801600*%
%ADD29C,0.601600*%
%ADD30O,0.901600X1.601600*%
%ADD31RoundRect,0.050800X0.500000X-0.450000X0.500000X0.450000X-0.500000X0.450000X-0.500000X-0.450000X0*%
%ADD32C,0.771600*%
%ADD33O,1.001600X2.501600*%
%ADD34O,1.001600X1.801600*%
%ADD35FreePoly0,0.000000*%
%ADD36RoundRect,0.050800X-0.500000X-0.750000X0.500000X-0.750000X0.500000X0.750000X-0.500000X0.750000X0*%
%ADD37FreePoly1,0.000000*%
G04 APERTURE END LIST*
D10*
X188750440Y-96748780D03*
D11*
X181600000Y-97587500D03*
X181600000Y-99412500D03*
D12*
X156067500Y-107200000D03*
X154932500Y-107200000D03*
D13*
X134980000Y-117500000D03*
X142750000Y-117500000D03*
X170750000Y-117500000D03*
X178520000Y-117500000D03*
D11*
X183400000Y-108387500D03*
X183400000Y-110212500D03*
D14*
X154562500Y-99700000D03*
X152837500Y-99700000D03*
D10*
X159250880Y-96748780D03*
D12*
X160667500Y-101700000D03*
X159532500Y-101700000D03*
X159667500Y-107000000D03*
X158532500Y-107000000D03*
D15*
X181637500Y-110250000D03*
X181637500Y-108350000D03*
X179362500Y-109300000D03*
D16*
X165300000Y-91250000D03*
X165300000Y-95350000D03*
X163700000Y-91250000D03*
X163700000Y-95350000D03*
D17*
X161800000Y-97612500D03*
X161800000Y-95787500D03*
D18*
X185000000Y-108425000D03*
X185000000Y-110175000D03*
D19*
X136300000Y-111325000D03*
X136300000Y-109275000D03*
D20*
X137100000Y-94500000D03*
D21*
X135800000Y-94500000D03*
D22*
X134500000Y-94500000D03*
D23*
X160700000Y-103932500D03*
X160700000Y-105067500D03*
X156100000Y-100132500D03*
X156100000Y-101267500D03*
D10*
X124750060Y-96748780D03*
D24*
X153500000Y-102667500D03*
X153500000Y-101532500D03*
D25*
X140900000Y-102200000D03*
D10*
X186200000Y-101700000D03*
D26*
X178887500Y-101100000D03*
X180712500Y-101100000D03*
D27*
X163332500Y-103600000D03*
X164467500Y-103600000D03*
D28*
X152540000Y-92725500D03*
D29*
X151270000Y-92725500D03*
X150000000Y-92725500D03*
X148730000Y-92725500D03*
D28*
X147460000Y-92725500D03*
D30*
X148095000Y-91570500D03*
X149365000Y-91570500D03*
X150635000Y-91570500D03*
X151905000Y-91570500D03*
D10*
X154249620Y-96748780D03*
D31*
X167400000Y-95350000D03*
X167400000Y-91250000D03*
X169000000Y-95350000D03*
X169000000Y-91250000D03*
D32*
X178400000Y-99000000D03*
X177550000Y-99000000D03*
X176700000Y-99000000D03*
X175850000Y-99000000D03*
X175000000Y-99000000D03*
X174150000Y-99000000D03*
X173300000Y-99000000D03*
X172450000Y-99000000D03*
X172450000Y-97650000D03*
X173300000Y-97650000D03*
X174150000Y-97650000D03*
X175000000Y-97650000D03*
X175850000Y-97650000D03*
X176700000Y-97650000D03*
X177550000Y-97650000D03*
X178400000Y-97650000D03*
D33*
X179750000Y-98020000D03*
D34*
X179750000Y-94640000D03*
D33*
X171100000Y-98020000D03*
D34*
X171100000Y-94640000D03*
D23*
X158300000Y-100132500D03*
X158300000Y-101267500D03*
D12*
X160667500Y-100700000D03*
X159532500Y-100700000D03*
D23*
X157200000Y-100132500D03*
X157200000Y-101267500D03*
D35*
X139200000Y-94500000D03*
D36*
X140500000Y-94500000D03*
D37*
X141800000Y-94500000D03*
D23*
X153500000Y-103932500D03*
X153500000Y-105067500D03*
M02*
