M48
; DRILL file {KiCad (6.0.11-0)} date Wednesday, May 17, 2023 at 07:54:45 PM
; FORMAT={-:-/ absolute / inch / decimal}
; #@! TF.CreationDate,2023-05-17T19:54:45-04:00
; #@! TF.GenerationSoftware,Kicad,Pcbnew,(6.0.11-0)
; #@! TF.FileFunction,MixedPlating,1,2
FMAT,2
INCH
; #@! TA.AperFunction,Plated,PTH,ViaDrill
T1C0.0118
; #@! TA.AperFunction,Plated,PTH,ComponentDrill
T2C0.0118
; #@! TA.AperFunction,Plated,PTH,ViaDrill
T3C0.0157
; #@! TA.AperFunction,Plated,PTH,ComponentDrill
T4C0.0157
; #@! TA.AperFunction,Plated,PTH,ComponentDrill
T5C0.0236
; #@! TA.AperFunction,Plated,PTH,ComponentDrill
T6C0.0394
; #@! TA.AperFunction,Plated,PTH,ComponentDrill
T7C0.0437
; #@! TA.AperFunction,Plated,PTH,ComponentDrill
T8C0.0728
; #@! TA.AperFunction,NonPlated,NPTH,ComponentDrill
T9C0.0197
; #@! TA.AperFunction,NonPlated,NPTH,ComponentDrill
T10C0.0276
%
G90
G05
T1
X6.3937Y-4.0945
T2
X5.1083Y-4.3504
X5.1083Y-4.3898
X5.1476Y-4.3504
X5.1476Y-4.3898
X5.187Y-4.3504
X5.187Y-4.3898
X5.2953Y-4.03
X5.2953Y-4.0694
X5.2953Y-4.1088
X5.3346Y-4.03
X5.3346Y-4.0694
X5.3346Y-4.1088
X5.374Y-4.03
X5.374Y-4.0694
X5.374Y-4.1088
T3
X5.1575Y-3.6496
X5.2087Y-3.6102
X5.2087Y-3.6772
X5.2264Y-3.9611
X5.2559Y-3.6181
X5.3031Y-4.2165
X5.3189Y-3.5906
X5.3504Y-4.2165
X5.3661Y-4.252
X5.3937Y-3.5866
X5.3937Y-4.2244
X5.4291Y-3.9685
X5.437Y-3.6693
X5.437Y-3.8543
X5.4409Y-3.7717
X5.4646Y-3.5906
X5.4823Y-4.0202
X5.4882Y-4.063
X5.5Y-4.4528
X5.5276Y-3.5866
X5.5354Y-3.9528
X5.5866Y-3.5866
X5.5984Y-4.2677
X5.626Y-3.622
X5.6614Y-3.7992
X5.6693Y-3.5787
X5.8819Y-3.7047
X5.9173Y-4.4055
X5.9213Y-4.0906
X5.9291Y-3.7047
X5.9646Y-4.0276
X5.9646Y-4.0669
X6.126Y-4.2677
X6.1457Y-3.8976
X6.1693Y-4.2677
X6.248Y-3.8937
X6.2677Y-4.5669
X6.2992Y-4.2717
X6.315Y-3.748
X6.3228Y-3.8976
X6.3622Y-3.9094
X6.374Y-3.5787
X6.374Y-3.6181
X6.374Y-3.6614
X6.3819Y-3.9724
X6.3819Y-4.063
X6.3898Y-3.7087
X6.4449Y-4.4055
X6.4528Y-3.8819
X6.4961Y-3.6969
X6.5Y-3.6378
X6.563Y-3.7953
X6.5827Y-3.6339
X6.6654Y-4.378
X6.8031Y-4.3898
X6.9843Y-4.0394
X6.9843Y-4.311
T4
X6.1348Y-4.0325
X6.1348Y-4.0827
X6.1348Y-4.1329
X6.185Y-4.0325
X6.185Y-4.0827
X6.185Y-4.1329
X6.2352Y-4.0325
X6.2352Y-4.0827
X6.2352Y-4.1329
X6.7894Y-3.8445
X6.7894Y-3.8976
X6.8228Y-3.8445
X6.8228Y-3.8976
X6.8563Y-3.8445
X6.8563Y-3.8976
X6.8898Y-3.8445
X6.8898Y-3.8976
X6.9232Y-3.8445
X6.9232Y-3.8976
X6.9567Y-3.8445
X6.9567Y-3.8976
X6.9902Y-3.8445
X6.9902Y-3.8976
X7.0236Y-3.8445
X7.0236Y-3.8976
T6
X7.3307Y-4.0039
T7
X4.9114Y-3.809
X6.0728Y-3.809
X6.2697Y-3.809
X7.4311Y-3.809
T8
X5.3142Y-4.626
X5.6201Y-4.626
X6.7224Y-4.626
X7.0283Y-4.626
T9
X5.8555Y-3.6506
X5.9055Y-3.6506
X5.9555Y-3.6506
T10
X5.8055Y-3.6506
X6.0055Y-3.6506
T5
G00X6.7362Y-3.7417
M15
G01X6.7362Y-3.7102
M16
G05
G00X6.7362Y-3.8886
M15
G01X6.7362Y-3.8295
M16
G05
G00X7.0768Y-3.7417
M15
G01X7.0768Y-3.7102
M16
G05
G00X7.0768Y-3.8886
M15
G01X7.0768Y-3.8295
M16
G05
T0
M30
