%TF.GenerationSoftware,KiCad,Pcbnew,(6.0.11-0)*%
%TF.CreationDate,2023-05-17T19:32:27-04:00*%
%TF.ProjectId,SLAPS_Solar_Harvester,534c4150-535f-4536-9f6c-61725f486172,V1.1*%
%TF.SameCoordinates,Original*%
%TF.FileFunction,Paste,Bot*%
%TF.FilePolarity,Positive*%
%FSLAX46Y46*%
G04 Gerber Fmt 4.6, Leading zero omitted, Abs format (unit mm)*
G04 Created by KiCad (PCBNEW (6.0.11-0)) date 2023-05-17 19:32:27*
%MOMM*%
%LPD*%
G01*
G04 APERTURE LIST*
G04 Aperture macros list*
%AMRoundRect*
0 Rectangle with rounded corners*
0 $1 Rounding radius*
0 $2 $3 $4 $5 $6 $7 $8 $9 X,Y pos of 4 corners*
0 Add a 4 corners polygon primitive as box body*
4,1,4,$2,$3,$4,$5,$6,$7,$8,$9,$2,$3,0*
0 Add four circle primitives for the rounded corners*
1,1,$1+$1,$2,$3*
1,1,$1+$1,$4,$5*
1,1,$1+$1,$6,$7*
1,1,$1+$1,$8,$9*
0 Add four rect primitives between the rounded corners*
20,1,$1+$1,$2,$3,$4,$5,0*
20,1,$1+$1,$4,$5,$6,$7,0*
20,1,$1+$1,$6,$7,$8,$9,0*
20,1,$1+$1,$8,$9,$2,$3,0*%
%AMFreePoly0*
4,1,48,0.180784,0.266839,0.197812,0.266839,0.211588,0.256830,0.227783,0.251568,0.237792,0.237792,0.251568,0.227783,0.256830,0.211588,0.266839,0.197812,0.266839,0.180784,0.272101,0.164589,0.272101,-0.075523,0.269420,-0.083774,0.270777,-0.092342,0.259348,-0.114773,0.251568,-0.138717,0.244550,-0.143816,0.240611,-0.151546,0.151545,-0.240611,0.143817,-0.244549,0.138717,-0.251568,
0.114772,-0.259348,0.092342,-0.270777,0.083774,-0.269420,0.075523,-0.272101,-0.164589,-0.272101,-0.180784,-0.266839,-0.197812,-0.266839,-0.211588,-0.256830,-0.227783,-0.251568,-0.237792,-0.237792,-0.251568,-0.227783,-0.256830,-0.211588,-0.266839,-0.197812,-0.266839,-0.180784,-0.272101,-0.164589,-0.272101,0.164589,-0.266839,0.180784,-0.266839,0.197812,-0.256830,0.211588,-0.251568,0.227783,
-0.237792,0.237792,-0.227783,0.251568,-0.211588,0.256830,-0.197812,0.266839,-0.180784,0.266839,-0.164589,0.272101,0.164589,0.272101,0.180784,0.266839,0.180784,0.266839,$1*%
%AMFreePoly1*
4,1,51,0.252459,0.271182,0.254676,0.271776,0.258073,0.270192,0.276402,0.266960,0.290658,0.254997,0.307524,0.247133,0.378144,0.176512,0.381179,0.172177,0.383168,0.171029,0.384451,0.167505,0.395125,0.152260,0.396747,0.133722,0.403112,0.116234,0.403112,-0.186855,0.401159,-0.197929,0.401817,-0.201658,0.399924,-0.204937,0.397971,-0.216011,0.383735,-0.232977,0.372661,-0.252157,
0.365433,-0.254788,0.360489,-0.260680,0.338678,-0.264526,0.317866,-0.272101,-0.317866,-0.272101,-0.328940,-0.270148,-0.332669,-0.270806,-0.335948,-0.268913,-0.347022,-0.266960,-0.363988,-0.252724,-0.383168,-0.241650,-0.385799,-0.234422,-0.391691,-0.229478,-0.395537,-0.207667,-0.403112,-0.186855,-0.403112,0.116234,-0.402193,0.121446,-0.402787,0.123663,-0.401203,0.127060,-0.397971,0.145390,
-0.386008,0.159647,-0.378144,0.176512,-0.307525,0.247132,-0.303189,0.250168,-0.302041,0.252157,-0.298517,0.253440,-0.283273,0.264114,-0.264734,0.265736,-0.247246,0.272101,0.247246,0.272101,0.252459,0.271182,0.252459,0.271182,$1*%
%AMFreePoly2*
4,1,51,0.197929,0.401159,0.201658,0.401817,0.204937,0.399924,0.216011,0.397971,0.232977,0.383735,0.252157,0.372661,0.254788,0.365433,0.260680,0.360489,0.264526,0.338678,0.272101,0.317866,0.272101,-0.317866,0.270148,-0.328940,0.270806,-0.332669,0.268913,-0.335948,0.266960,-0.347022,0.252724,-0.363988,0.241650,-0.383168,0.234422,-0.385799,0.229478,-0.391691,0.207667,-0.395537,
0.186855,-0.403112,-0.116234,-0.403112,-0.121446,-0.402193,-0.123663,-0.402787,-0.127060,-0.401203,-0.145390,-0.397971,-0.159647,-0.386008,-0.176512,-0.378144,-0.247133,-0.307524,-0.250168,-0.303189,-0.252157,-0.302041,-0.253439,-0.298518,-0.264114,-0.283273,-0.265736,-0.264734,-0.272101,-0.247246,-0.272101,0.247246,-0.271182,0.252459,-0.271776,0.254676,-0.270192,0.258073,-0.266960,0.276402,
-0.254997,0.290658,-0.247133,0.307524,-0.176512,0.378144,-0.172177,0.381179,-0.171029,0.383168,-0.167505,0.384451,-0.152260,0.395125,-0.133722,0.396747,-0.116234,0.403112,0.186855,0.403112,0.197929,0.401159,0.197929,0.401159,$1*%
%AMFreePoly3*
4,1,51,0.328940,0.270148,0.332669,0.270806,0.335948,0.268913,0.347022,0.266960,0.363988,0.252724,0.383168,0.241650,0.385799,0.234422,0.391691,0.229478,0.395537,0.207667,0.403112,0.186855,0.403112,-0.116234,0.402193,-0.121446,0.402787,-0.123663,0.401203,-0.127060,0.397971,-0.145390,0.386008,-0.159647,0.378144,-0.176512,0.307524,-0.247133,0.303189,-0.250168,0.302041,-0.252157,
0.298518,-0.253439,0.283273,-0.264114,0.264734,-0.265736,0.247246,-0.272101,-0.247246,-0.272101,-0.252459,-0.271182,-0.254677,-0.271776,-0.258075,-0.270192,-0.276402,-0.266960,-0.290659,-0.254997,-0.307525,-0.247132,-0.378144,-0.176512,-0.381179,-0.172177,-0.383168,-0.171029,-0.384451,-0.167505,-0.395125,-0.152260,-0.396747,-0.133722,-0.403112,-0.116234,-0.403112,0.186855,-0.401159,0.197929,
-0.401817,0.201658,-0.399924,0.204937,-0.397971,0.216011,-0.383735,0.232977,-0.372661,0.252157,-0.365433,0.254788,-0.360489,0.260680,-0.338678,0.264526,-0.317866,0.272101,0.317866,0.272101,0.328940,0.270148,0.328940,0.270148,$1*%
%AMFreePoly4*
4,1,51,0.121446,0.402193,0.123663,0.402787,0.127060,0.401203,0.145390,0.397971,0.159647,0.386008,0.176512,0.378144,0.247132,0.307525,0.250168,0.303189,0.252157,0.302041,0.253440,0.298517,0.264114,0.283273,0.265736,0.264734,0.272101,0.247246,0.272101,-0.247246,0.271182,-0.252459,0.271776,-0.254677,0.270192,-0.258075,0.266960,-0.276402,0.254997,-0.290659,0.247132,-0.307525,
0.176512,-0.378144,0.172177,-0.381179,0.171029,-0.383168,0.167505,-0.384451,0.152260,-0.395125,0.133722,-0.396747,0.116234,-0.403112,-0.186855,-0.403112,-0.197929,-0.401159,-0.201658,-0.401817,-0.204937,-0.399924,-0.216011,-0.397971,-0.232977,-0.383735,-0.252157,-0.372661,-0.254788,-0.365433,-0.260680,-0.360489,-0.264526,-0.338678,-0.272101,-0.317866,-0.272101,0.317866,-0.270148,0.328940,
-0.270806,0.332669,-0.268913,0.335948,-0.266960,0.347022,-0.252724,0.363988,-0.241650,0.383168,-0.234422,0.385799,-0.229478,0.391691,-0.207667,0.395537,-0.186855,0.403112,0.116234,0.403112,0.121446,0.402193,0.121446,0.402193,$1*%
%AMFreePoly5*
4,1,48,0.083774,0.269420,0.092342,0.270777,0.114772,0.259348,0.138717,0.251568,0.143817,0.244549,0.151545,0.240611,0.240611,0.151546,0.244550,0.143816,0.251568,0.138717,0.259348,0.114773,0.270777,0.092342,0.269420,0.083774,0.272101,0.075523,0.272101,-0.164589,0.266839,-0.180784,0.266839,-0.197812,0.256830,-0.211588,0.251568,-0.227783,0.237792,-0.237792,0.227783,-0.251568,
0.211588,-0.256830,0.197812,-0.266839,0.180784,-0.266839,0.164589,-0.272101,-0.164589,-0.272101,-0.180784,-0.266839,-0.197812,-0.266839,-0.211588,-0.256830,-0.227783,-0.251568,-0.237792,-0.237792,-0.251568,-0.227783,-0.256830,-0.211588,-0.266839,-0.197812,-0.266839,-0.180784,-0.272101,-0.164589,-0.272101,0.164589,-0.266839,0.180784,-0.266839,0.197812,-0.256830,0.211588,-0.251568,0.227783,
-0.237792,0.237792,-0.227783,0.251568,-0.211588,0.256830,-0.197812,0.266839,-0.180784,0.266839,-0.164589,0.272101,0.075523,0.272101,0.083774,0.269420,0.083774,0.269420,$1*%
%AMFreePoly6*
4,1,48,0.180784,0.266839,0.197812,0.266839,0.211588,0.256830,0.227783,0.251568,0.237792,0.237792,0.251568,0.227783,0.256830,0.211588,0.266839,0.197812,0.266839,0.180784,0.272101,0.164589,0.272101,-0.164589,0.266839,-0.180784,0.266839,-0.197812,0.256830,-0.211588,0.251568,-0.227783,0.237792,-0.237792,0.227783,-0.251568,0.211588,-0.256830,0.197812,-0.266839,0.180784,-0.266839,
0.164589,-0.272101,-0.164589,-0.272101,-0.180784,-0.266839,-0.197812,-0.266839,-0.211588,-0.256830,-0.227783,-0.251568,-0.237792,-0.237792,-0.251568,-0.227783,-0.256830,-0.211588,-0.266839,-0.197812,-0.266839,-0.180784,-0.272101,-0.164589,-0.272101,0.075523,-0.269420,0.083774,-0.270777,0.092342,-0.259348,0.114772,-0.251568,0.138717,-0.244549,0.143817,-0.240611,0.151545,-0.151546,0.240611,
-0.143816,0.244550,-0.138717,0.251568,-0.114773,0.259348,-0.092342,0.270777,-0.083774,0.269420,-0.075523,0.272101,0.164589,0.272101,0.180784,0.266839,0.180784,0.266839,$1*%
%AMFreePoly7*
4,1,48,0.180784,0.266839,0.197812,0.266839,0.211588,0.256830,0.227783,0.251568,0.237792,0.237792,0.251568,0.227783,0.256830,0.211588,0.266839,0.197812,0.266839,0.180784,0.272101,0.164589,0.272101,-0.164589,0.266839,-0.180784,0.266839,-0.197812,0.256830,-0.211588,0.251568,-0.227783,0.237792,-0.237792,0.227783,-0.251568,0.211588,-0.256830,0.197812,-0.266839,0.180784,-0.266839,
0.164589,-0.272101,-0.075523,-0.272101,-0.083774,-0.269420,-0.092342,-0.270777,-0.114773,-0.259348,-0.138717,-0.251568,-0.143816,-0.244550,-0.151546,-0.240611,-0.240611,-0.151545,-0.244549,-0.143817,-0.251568,-0.138717,-0.259348,-0.114772,-0.270777,-0.092342,-0.269420,-0.083774,-0.272101,-0.075523,-0.272101,0.164589,-0.266839,0.180784,-0.266839,0.197812,-0.256830,0.211588,-0.251568,0.227783,
-0.237792,0.237792,-0.227783,0.251568,-0.211588,0.256830,-0.197812,0.266839,-0.180784,0.266839,-0.164589,0.272101,0.164589,0.272101,0.180784,0.266839,0.180784,0.266839,$1*%
G04 Aperture macros list end*
%ADD10C,0.000100*%
%ADD11RoundRect,0.237500X0.300000X0.237500X-0.300000X0.237500X-0.300000X-0.237500X0.300000X-0.237500X0*%
%ADD12RoundRect,0.172500X0.422500X-0.172500X0.422500X0.172500X-0.422500X0.172500X-0.422500X-0.172500X0*%
%ADD13RoundRect,0.100000X0.100000X-0.625000X0.100000X0.625000X-0.100000X0.625000X-0.100000X-0.625000X0*%
%ADD14RoundRect,0.237500X-0.237500X0.300000X-0.237500X-0.300000X0.237500X-0.300000X0.237500X0.300000X0*%
%ADD15R,2.400000X2.000000*%
%ADD16RoundRect,0.150000X0.150000X-0.650000X0.150000X0.650000X-0.150000X0.650000X-0.150000X-0.650000X0*%
%ADD17RoundRect,0.237500X0.237500X-0.300000X0.237500X0.300000X-0.237500X0.300000X-0.237500X-0.300000X0*%
%ADD18RoundRect,0.250000X0.292217X-0.292217X0.292217X0.292217X-0.292217X0.292217X-0.292217X-0.292217X0*%
%ADD19RoundRect,0.050000X0.050000X-0.387500X0.050000X0.387500X-0.050000X0.387500X-0.050000X-0.387500X0*%
%ADD20RoundRect,0.050000X0.387500X-0.050000X0.387500X0.050000X-0.387500X0.050000X-0.387500X-0.050000X0*%
%ADD21RoundRect,0.237500X0.250000X0.237500X-0.250000X0.237500X-0.250000X-0.237500X0.250000X-0.237500X0*%
%ADD22R,0.950000X0.550000*%
%ADD23RoundRect,0.150000X0.512500X0.150000X-0.512500X0.150000X-0.512500X-0.150000X0.512500X-0.150000X0*%
%ADD24RoundRect,0.237500X-0.250000X-0.237500X0.250000X-0.237500X0.250000X0.237500X-0.250000X0.237500X0*%
%ADD25RoundRect,0.237500X0.287500X0.237500X-0.287500X0.237500X-0.287500X-0.237500X0.287500X-0.237500X0*%
%ADD26RoundRect,0.237500X0.237500X-0.250000X0.237500X0.250000X-0.237500X0.250000X-0.237500X-0.250000X0*%
%ADD27RoundRect,0.237500X-0.237500X0.250000X-0.237500X-0.250000X0.237500X-0.250000X0.237500X0.250000X0*%
%ADD28FreePoly0,270.000000*%
%ADD29FreePoly1,270.000000*%
%ADD30FreePoly2,270.000000*%
%ADD31FreePoly3,270.000000*%
%ADD32FreePoly4,270.000000*%
%ADD33RoundRect,0.201557X-0.201556X0.201556X-0.201556X-0.201556X0.201556X-0.201556X0.201556X0.201556X0*%
%ADD34FreePoly5,270.000000*%
%ADD35FreePoly6,270.000000*%
%ADD36FreePoly7,270.000000*%
%ADD37RoundRect,0.062500X-0.062500X0.337500X-0.062500X-0.337500X0.062500X-0.337500X0.062500X0.337500X0*%
%ADD38RoundRect,0.062500X-0.337500X0.062500X-0.337500X-0.062500X0.337500X-0.062500X0.337500X0.062500X0*%
%ADD39RoundRect,0.162500X0.162500X-0.367500X0.162500X0.367500X-0.162500X0.367500X-0.162500X-0.367500X0*%
G04 APERTURE END LIST*
%TO.C,LBOOST1*%
G36*
X130945000Y-100212500D02*
G01*
X130945000Y-101112500D01*
X130155000Y-101112500D01*
X129575000Y-100532500D01*
X128410000Y-100532500D01*
X127830000Y-101112500D01*
X127055000Y-101112500D01*
X127055000Y-100212500D01*
X127605000Y-99662500D01*
X130395000Y-99662500D01*
X130945000Y-100212500D01*
G37*
D10*
X130945000Y-100212500D02*
X130945000Y-101112500D01*
X130155000Y-101112500D01*
X129575000Y-100532500D01*
X128410000Y-100532500D01*
X127830000Y-101112500D01*
X127055000Y-101112500D01*
X127055000Y-100212500D01*
X127605000Y-99662500D01*
X130395000Y-99662500D01*
X130945000Y-100212500D01*
G36*
X128410000Y-103192500D02*
G01*
X129575000Y-103192500D01*
X130155000Y-102612500D01*
X130945000Y-102612500D01*
X130945000Y-103512500D01*
X130395000Y-104062500D01*
X127605000Y-104062500D01*
X127055000Y-103512500D01*
X127055000Y-102612500D01*
X127830000Y-102612500D01*
X128410000Y-103192500D01*
G37*
X128410000Y-103192500D02*
X129575000Y-103192500D01*
X130155000Y-102612500D01*
X130945000Y-102612500D01*
X130945000Y-103512500D01*
X130395000Y-104062500D01*
X127605000Y-104062500D01*
X127055000Y-103512500D01*
X127055000Y-102612500D01*
X127830000Y-102612500D01*
X128410000Y-103192500D01*
%TD*%
D11*
%TO.C,C17*%
X132112500Y-115500000D03*
X130387500Y-115500000D03*
%TD*%
D12*
%TO.C,U4*%
X130040000Y-110590000D03*
X130040000Y-111410000D03*
X131460000Y-111410000D03*
X131460000Y-110590000D03*
D13*
X132375000Y-113150000D03*
X131725000Y-113150000D03*
X131075000Y-113150000D03*
X130425000Y-113150000D03*
X129775000Y-113150000D03*
X129125000Y-113150000D03*
X129125000Y-108850000D03*
X129775000Y-108850000D03*
X130425000Y-108850000D03*
X131075000Y-108850000D03*
X131725000Y-108850000D03*
X132375000Y-108850000D03*
%TD*%
D14*
%TO.C,C14*%
X169300000Y-108037500D03*
X169300000Y-109762500D03*
%TD*%
D15*
%TO.C,Y1*%
X147500000Y-105550000D03*
X147500000Y-109250000D03*
%TD*%
D14*
%TO.C,C19*%
X159400000Y-112837500D03*
X159400000Y-114562500D03*
%TD*%
%TO.C,C16*%
X163900000Y-95537500D03*
X163900000Y-97262500D03*
%TD*%
D11*
%TO.C,C18*%
X130362500Y-107000000D03*
X128637500Y-107000000D03*
%TD*%
%TO.C,CSRC1*%
X130362500Y-105362500D03*
X128637500Y-105362500D03*
%TD*%
D16*
%TO.C,U2*%
X167505000Y-113500000D03*
X166235000Y-113500000D03*
X164965000Y-113500000D03*
X163695000Y-113500000D03*
X163695000Y-106300000D03*
X164965000Y-106300000D03*
X166235000Y-106300000D03*
X167505000Y-106300000D03*
%TD*%
D17*
%TO.C,C1*%
X150300000Y-110562500D03*
X150300000Y-108837500D03*
%TD*%
D18*
%TO.C,U1*%
X157737500Y-103062500D03*
X156462500Y-103062500D03*
X157737500Y-104337500D03*
X156462500Y-104337500D03*
D19*
X159700000Y-107137500D03*
X159300000Y-107137500D03*
X158900000Y-107137500D03*
X158500000Y-107137500D03*
X158100000Y-107137500D03*
X157700000Y-107137500D03*
X157300000Y-107137500D03*
X156900000Y-107137500D03*
X156500000Y-107137500D03*
X156100000Y-107137500D03*
X155700000Y-107137500D03*
X155300000Y-107137500D03*
X154900000Y-107137500D03*
X154500000Y-107137500D03*
D20*
X153662500Y-106300000D03*
X153662500Y-105900000D03*
X153662500Y-105500000D03*
X153662500Y-105100000D03*
X153662500Y-104700000D03*
X153662500Y-104300000D03*
X153662500Y-103900000D03*
X153662500Y-103500000D03*
X153662500Y-103100000D03*
X153662500Y-102700000D03*
X153662500Y-102300000D03*
X153662500Y-101900000D03*
X153662500Y-101500000D03*
X153662500Y-101100000D03*
D19*
X154500000Y-100262500D03*
X154900000Y-100262500D03*
X155300000Y-100262500D03*
X155700000Y-100262500D03*
X156100000Y-100262500D03*
X156500000Y-100262500D03*
X156900000Y-100262500D03*
X157300000Y-100262500D03*
X157700000Y-100262500D03*
X158100000Y-100262500D03*
X158500000Y-100262500D03*
X158900000Y-100262500D03*
X159300000Y-100262500D03*
X159700000Y-100262500D03*
D20*
X160537500Y-101100000D03*
X160537500Y-101500000D03*
X160537500Y-101900000D03*
X160537500Y-102300000D03*
X160537500Y-102700000D03*
X160537500Y-103100000D03*
X160537500Y-103500000D03*
X160537500Y-103900000D03*
X160537500Y-104300000D03*
X160537500Y-104700000D03*
X160537500Y-105100000D03*
X160537500Y-105500000D03*
X160537500Y-105900000D03*
X160537500Y-106300000D03*
%TD*%
D21*
%TO.C,R6*%
X171212500Y-112800000D03*
X169387500Y-112800000D03*
%TD*%
D22*
%TO.C,U6*%
X157775000Y-111725000D03*
X157775000Y-112975000D03*
X157775000Y-114225000D03*
X157775000Y-115475000D03*
X155625000Y-115475000D03*
X155625000Y-114225000D03*
X155625000Y-112975000D03*
X155625000Y-111725000D03*
%TD*%
D23*
%TO.C,U3*%
X167937500Y-95450000D03*
X167937500Y-96400000D03*
X167937500Y-97350000D03*
X165662500Y-97350000D03*
X165662500Y-95450000D03*
%TD*%
D21*
%TO.C,R5*%
X171212500Y-114400000D03*
X169387500Y-114400000D03*
%TD*%
D24*
%TO.C,R12*%
X152187500Y-111800000D03*
X154012500Y-111800000D03*
%TD*%
D25*
%TO.C,LBUCK1*%
X137375000Y-99362500D03*
X135625000Y-99362500D03*
%TD*%
D17*
%TO.C,CBUCK1*%
X139500000Y-100725000D03*
X139500000Y-99000000D03*
%TD*%
D26*
%TO.C,R1*%
X150300000Y-107112500D03*
X150300000Y-105287500D03*
%TD*%
D11*
%TO.C,C2*%
X148962500Y-103400000D03*
X147237500Y-103400000D03*
%TD*%
D24*
%TO.C,R3*%
X163887500Y-102250000D03*
X165712500Y-102250000D03*
%TD*%
D27*
%TO.C,R9*%
X125750000Y-111587500D03*
X125750000Y-113412500D03*
%TD*%
D24*
%TO.C,R13*%
X152187500Y-113400000D03*
X154012500Y-113400000D03*
%TD*%
D28*
%TO.C,U5*%
X136837500Y-102025000D03*
D29*
X134162500Y-103862500D03*
D30*
X136000000Y-104700000D03*
D31*
X136837500Y-102862500D03*
D32*
X136000000Y-102025000D03*
D30*
X135000000Y-104700000D03*
D33*
X136000000Y-103862500D03*
X136000000Y-102862500D03*
D34*
X134162500Y-102025000D03*
D31*
X136837500Y-103862500D03*
D33*
X135000000Y-102862500D03*
D32*
X135000000Y-102025000D03*
D35*
X134162500Y-104700000D03*
D33*
X135000000Y-103862500D03*
D29*
X134162500Y-102862500D03*
D36*
X136837500Y-104700000D03*
D37*
X134000000Y-100912500D03*
X134500000Y-100912500D03*
X135000000Y-100912500D03*
X135500000Y-100912500D03*
X136000000Y-100912500D03*
X136500000Y-100912500D03*
X137000000Y-100912500D03*
D38*
X137950000Y-101862500D03*
X137950000Y-102362500D03*
X137950000Y-102862500D03*
X137950000Y-103362500D03*
X137950000Y-103862500D03*
X137950000Y-104362500D03*
X137950000Y-104862500D03*
D37*
X137000000Y-105812500D03*
X136500000Y-105812500D03*
X136000000Y-105812500D03*
X135500000Y-105812500D03*
X135000000Y-105812500D03*
X134500000Y-105812500D03*
X134000000Y-105812500D03*
D38*
X133050000Y-104862500D03*
X133050000Y-104362500D03*
X133050000Y-103862500D03*
X133050000Y-103362500D03*
X133050000Y-102862500D03*
X133050000Y-102362500D03*
X133050000Y-101862500D03*
%TD*%
D11*
%TO.C,CBOOST1*%
X133862500Y-99362500D03*
X132137500Y-99362500D03*
%TD*%
D26*
%TO.C,R10*%
X127500000Y-113412500D03*
X127500000Y-111587500D03*
%TD*%
D39*
%TO.C,D1*%
X176375000Y-103375000D03*
X175425000Y-103375000D03*
X174475000Y-103375000D03*
X174475000Y-101175000D03*
X175425000Y-101175000D03*
X176375000Y-101175000D03*
%TD*%
D11*
%TO.C,C15*%
X168062500Y-93800000D03*
X166337500Y-93800000D03*
%TD*%
D24*
%TO.C,R4*%
X163887500Y-100500000D03*
X165712500Y-100500000D03*
%TD*%
M02*
